<?xml version="1.0" standalone="no"?><!DOCTYPE svg PUBLIC "-//W3C//DTD SVG 1.1//EN" "http://www.w3.org/Graphics/SVG/1.1/DTD/svg11.dtd" ><svg xmlns="http://www.w3.org/2000/svg"><metadata></metadata><defs><font id="vernonadams: Oswald Light: 2011-12" horiz-adv-x="1890"><font-face font-family="Oswald" font-weight="300" font-stretch="normal" units-per-em="2048" panose-1="2 0 3 3 0 0 0 0 0 0" ascent="2444" descent="-591" x-height="0" bbox="-145 -625 1918 2344" underline-thickness="50" underline-position="-150" unicode-range="U+0020-fb04" /><missing-glyph horiz-adv-x="748" d="M68 0 L68 1365 L612 1365 L612 0 L68 0 ZM136 68 L544 68 L544 1297 L136 1297 L136 68 Z" /><glyph glyph-name="" unicode=" " d="" /><glyph glyph-name="" unicode="!" d="M138 0 L138 179 L323 179 L323 0 L138 0 ZM197 388 L117 1719 L311 1719 L251 388 L197 388 Z" /><glyph glyph-name="" unicode="&quot;" d="M475 1408 L425 1715 L593 1715 Q581 1644 568.5 1566.5 Q556 1489 542 1408 L475 1408 ZM152 1408 L102 1715 L270 1715 Q258 1644 245.5 1566.5 Q233 1489 219 1408 L152 1408 Z" /><glyph glyph-name="" unicode="#" d="M382 785 L559 785 L626 1024 L449 1024 L382 785 ZM18 0 L203 660 L48 660 L48 785 L238 785 L305 1024 L98 1024 L98 1139 L337 1139 L500 1721 L645 1721 L482 1139 L658 1139 L821 1721 L966 1721 L803 1139 L957 1139 L957 1024 L770 1024 L703 785 L907 785 L907 660 L668 660 L483 0 L339 0 L524 660 L347 660 L162 0 L18 0 Z" /><glyph glyph-name="" unicode="$" d="M197 484 Q212 330 289 229.5 Q366 129 500 125 Q578 125 636 147 Q694 169 731.5 224 Q769 279 769 364 Q769 517 534 700 L239 930 Q57 1078 57 1234 Q57 1394 165.5 1491.5 Q274 1589 446 1594 L446 1747 L534 1747 L534 1591 Q681 1573 777.5 1472 Q874 1371 895 1206 L769 1167 Q749 1292 670.5 1381 Q592 1470 482 1470 Q204 1470 204 1254 Q204 1137 345 1020 L628 795 Q693 742 735.5 702 Q778 662 823.5 607.5 Q869 553 891.5 495.5 Q914 438 914 377 Q914 207 809 110 Q704 13 534 4 L534 -138 L446 -138 L446 6 Q337 18 254.5 82 Q172 146 126.5 238 Q81 330 63 445 L197 484 Z" /><glyph glyph-name="" unicode="%" d="M783 307 L783 541 Q783 865 1009 865 Q1235 865 1235 541 L1235 307 Q1235 -27 1009 -27 Q783 -27 783 307 ZM1118 310 L1118 538 Q1118 764 1009 764 Q900 764 900 538 L900 310 Q900 74 1009 74 Q1118 74 1118 310 ZM57 1187 L57 1421 Q57 1745 283 1745 Q509 1745 509 1421 L509 1187 Q509 853 283 853 Q57 853 57 1187 ZM392 1190 L392 1418 Q392 1644 283 1644 Q174 1644 174 1418 L174 1190 Q174 954 283 954 Q392 954 392 1190 ZM305 0 L857 1721 L981 1721 L428 0 L305 0 Z" /><glyph glyph-name="" unicode="&amp;" d="M442 927 Q556 1036 624 1168.5 Q692 1301 692 1416 Q692 1511 644 1567 Q596 1623 497 1623 Q441 1623 399 1597.5 Q357 1572 335 1531 Q313 1490 302.5 1448 Q292 1406 292 1364 Q292 1179 442 927 ZM735 229 L406 734 Q321 656 264.5 537 Q208 418 208 313 Q208 214 265 154 Q322 94 442 94 Q590 94 735 229 ZM1094 122 L1094 -14 Q1017 -9 938 30.5 Q859 70 804 134 Q634 -26 434 -26 Q251 -26 159.5 64 Q68 154 68 298 Q68 435 142.5 587.5 Q217 740 346 844 Q140 1185 140 1370 Q140 1537 236 1641 Q332 1745 493 1745 Q654 1745 745 1655.5 Q836 1566 836 1420 Q836 1283 751.5 1125.5 Q667 968 498 817 L819 324 Q968 522 968 753 L1096 753 Q1096 642 1040.5 496 Q985 350 890 228 Q986 122 1094 122 Z" /><glyph glyph-name="" unicode="&#39;" d="M153 1408 L102 1715 L271 1715 Q257 1633 244.5 1555 Q232 1477 220 1408 L153 1408 Z" /><glyph glyph-name="" unicode="(" d="M541 68 L541 -64 Q472 -64 414.5 -42.5 Q357 -21 315.5 10.5 Q274 42 241 97.5 Q208 153 187.5 202 Q167 251 152.5 327.5 Q138 404 130.5 456.5 Q123 509 119.5 593.5 Q116 678 115.5 721 Q115 764 115 841 Q115 845 115 846.5 Q115 848 115 851 Q115 854 115 856.5 Q115 859 115 861 Q115 867 115 881 Q115 981 116 1038.5 Q117 1096 125 1204.5 Q133 1313 148 1380 Q163 1447 194.5 1533 Q226 1619 270 1668 Q314 1717 383.5 1752 Q453 1787 541 1787 L541 1655 Q486 1655 443 1631 Q400 1607 371.5 1570.5 Q343 1534 322.5 1471 Q302 1408 291.5 1351.5 Q281 1295 275 1208.5 Q269 1122 268 1059.5 Q267 997 267 903 Q267 891 267 866 Q267 773 267.5 724 Q268 675 271 587.5 Q274 500 281.5 450 Q289 400 301 330.5 Q313 261 333.5 221.5 Q354 182 382 142.5 Q410 103 450.5 85.5 Q491 68 541 68 Z" /><glyph glyph-name="" unicode=")" d="M18 -64 L18 68 Q68 68 108.5 85.5 Q149 103 177 142.5 Q205 182 225.5 221.5 Q246 261 258 330.5 Q270 400 277.5 450 Q285 500 288 587.5 Q291 675 291.5 724 Q292 773 292 866 Q292 874 292 878.5 Q292 883 292 890 Q292 897 292 903 Q292 997 291 1059.5 Q290 1122 284 1208.5 Q278 1295 267.5 1351.5 Q257 1408 236.5 1471 Q216 1534 187.5 1570.5 Q159 1607 116 1631 Q73 1655 18 1655 L18 1787 Q106 1787 175.5 1752 Q245 1717 289 1668 Q333 1619 364.5 1533 Q396 1447 411 1380 Q426 1313 434 1204.5 Q442 1096 443 1038.5 Q444 981 444 881 Q444 877 444 875.5 Q444 874 444 871 Q444 868 444 865.5 Q444 863 444 861 Q444 855 444 841 Q444 764 443.5 721 Q443 678 439.5 593.5 Q436 509 428.5 456.5 Q421 404 406.5 327.5 Q392 251 371.5 202 Q351 153 318 97.5 Q285 42 243.5 10.5 Q202 -21 144.5 -42.5 Q87 -64 18 -64 Z" /><glyph glyph-name="" unicode="*" d="M147 963 L320 1210 L55 1311 L91 1400 L343 1281 L325 1583 L444 1583 L424 1282 L678 1402 L713 1312 L449 1210 L623 960 L534 911 L384 1163 L235 911 L147 963 Z" /><glyph glyph-name="" unicode="+" d="M274 384 L274 576 L82 576 L82 691 L274 691 L274 883 L395 883 L395 691 L587 691 L587 576 L395 576 L395 384 L274 384 Z" /><glyph glyph-name="" unicode="," d="M160 -256 L133 -201 Q165 -189 188 -163 Q211 -137 221 -105 Q231 -73 235 -47.5 Q239 -22 239 0 L111 0 L111 179 L296 179 Q296 171 296 156 Q296 102 295.5 75.5 Q295 49 294 2.5 Q293 -44 289 -67.5 Q285 -91 279 -125.5 Q273 -160 263 -178 Q253 -196 239 -215.5 Q225 -235 205 -244 Q185 -253 160 -256 Z" /><glyph glyph-name="" unicode="-" d="M117 448 L117 563 L430 563 L430 448 L117 448 Z" /><glyph glyph-name="" unicode="." d="M115 0 L115 179 L299 179 L299 0 L115 0 Z" /><glyph glyph-name="" unicode="/" d="M-29 0 L523 1721 L668 1721 L115 0 L-29 0 Z" /><glyph glyph-name="" unicode="0" d="M117 499 L117 1220 Q117 1311 129.5 1387 Q142 1463 172 1530.5 Q202 1598 248 1644.5 Q294 1691 364.5 1718 Q435 1745 526 1745 Q617 1745 687.5 1718 Q758 1691 804 1644.5 Q850 1598 880 1530.5 Q910 1463 922.5 1387 Q935 1311 935 1220 L935 499 Q935 -27 526 -27 Q117 -27 117 499 ZM783 465 L783 1254 Q783 1623 526 1623 Q269 1623 269 1254 L269 465 Q269 95 526 95 Q783 95 783 465 Z" /><glyph glyph-name="" unicode="1" d="M233 0 L233 1478 Q190 1449 133 1423 Q76 1397 41 1389 L41 1533 Q101 1555 171 1603.5 Q241 1652 282 1721 L385 1721 L385 0 L233 0 Z" /><glyph glyph-name="" unicode="2" d="M63 0 L63 128 L525 825 Q565 886 590.5 927.5 Q616 969 649.5 1033.5 Q683 1098 700 1158 Q717 1218 717 1272 Q717 1434 662.5 1528.5 Q608 1623 489 1623 Q421 1623 370.5 1600 Q320 1577 291.5 1541 Q263 1505 246 1449 Q229 1393 223.5 1339.5 Q218 1286 218 1216 L66 1216 L66 1239 Q76 1745 487 1745 Q677 1745 773 1619.5 Q869 1494 869 1273 Q869 1168 810.5 1036.5 Q752 905 675 793 L242 122 L848 122 L848 0 L63 0 Z" /><glyph glyph-name="" unicode="3" d="M74 395 L74 421 L216 421 Q218 320 234.5 255 Q251 190 285 155 Q319 120 361.5 107.5 Q404 95 468 95 Q526 95 566.5 111 Q607 127 638.5 166.5 Q670 206 685 278.5 Q700 351 700 459 Q700 544 687.5 609.5 Q675 675 646.5 728 Q618 781 567 811.5 Q516 842 444 848 L444 977 Q588 983 644 1058.5 Q700 1134 700 1317 Q700 1484 643 1553.5 Q586 1623 469 1623 Q351 1623 287.5 1545 Q224 1467 216 1292 L73 1292 L73 1317 Q73 1403 94 1477 Q115 1551 160 1612.5 Q205 1674 284.5 1709.5 Q364 1745 472 1745 Q553 1745 618 1721.5 Q683 1698 726 1658 Q769 1618 798 1562.5 Q827 1507 839.5 1446 Q852 1385 852 1316 Q852 1150 786 1045 Q720 940 617 910 Q852 816 852 462 Q852 -27 454 -27 Q372 -27 306.5 -3.5 Q241 20 198 59.5 Q155 99 126.5 154 Q98 209 86 268.5 Q74 328 74 395 Z" /><glyph glyph-name="" unicode="4" d="M186 622 L505 622 L504 1596 L186 622 ZM505 0 L505 509 L27 509 L27 614 L424 1723 L657 1723 L657 622 L828 622 L828 509 L657 509 L657 0 L505 0 Z" /><glyph glyph-name="" unicode="5" d="M123 430 L275 441 Q275 335 288.5 266.5 Q302 198 332 160.5 Q362 123 401.5 109 Q441 95 501 95 Q623 95 680 195.5 Q737 296 737 535 Q737 764 683.5 859 Q630 954 510 954 Q445 954 377.5 919 Q310 884 264 814 L142 814 L142 1721 L801 1721 L787 1599 L294 1599 L273 966 Q320 1016 391.5 1046 Q463 1076 540 1076 Q634 1076 703 1034.5 Q772 993 812 917 Q852 841 870.5 746.5 Q889 652 889 536 Q889 415 867 315.5 Q845 216 800.5 138 Q756 60 679.5 16.5 Q603 -27 501 -27 Q303 -27 213 89 Q123 205 123 430 Z" /><glyph glyph-name="" unicode="6" d="M266 811 L266 501 Q266 402 275.5 331 Q285 260 303 214 Q321 168 351 142 Q381 116 416.5 105.5 Q452 95 502 95 Q636 95 697 181 Q758 267 758 481 Q758 689 699 773 Q640 857 512 857 Q442 857 369.5 844.5 Q297 832 266 811 ZM114 490 L114 1256 Q114 1745 502 1745 Q601 1745 675 1710 Q749 1675 790.5 1613.5 Q832 1552 852 1479.5 Q872 1407 872 1323 L872 1297 L730 1297 Q728 1398 712 1463 Q696 1528 663.5 1563 Q631 1598 590.5 1610.5 Q550 1623 488 1623 Q432 1623 393.5 1607 Q355 1591 325 1551.5 Q295 1512 280.5 1439.5 Q266 1367 266 1259 L266 934 Q361 979 512 979 Q617 979 695 941.5 Q773 904 819 835 Q865 766 887.5 678 Q910 590 910 482 Q910 371 887 280.5 Q864 190 816.5 120 Q769 50 689 11.5 Q609 -27 502 -27 Q299 -27 206.5 105 Q114 237 114 490 Z" /><glyph glyph-name="" unicode="7" d="M156 0 L484 1585 L1 1585 L1 1721 L647 1721 L647 1645 Q572 1260 479 813.5 Q386 367 314 0 L156 0 Z" /><glyph glyph-name="" unicode="8" d="M477 977 Q615 985 669 1061 Q723 1137 723 1317 Q723 1485 664 1554 Q605 1623 477 1623 Q349 1623 290 1554 Q231 1485 231 1317 Q231 1137 285 1061 Q339 985 477 977 ZM477 847 Q343 832 287 732 Q231 632 231 459 Q231 350 246.5 278 Q262 206 294.5 166.5 Q327 127 370.5 111 Q414 95 477 95 Q540 95 583.5 111 Q627 127 659.5 166.5 Q692 206 707.5 278 Q723 350 723 459 Q723 632 667 732 Q611 832 477 847 ZM314 910 Q211 940 145 1045 Q79 1150 79 1316 Q79 1409 101.5 1485 Q124 1561 170 1620 Q216 1679 294 1712 Q372 1745 477 1745 Q582 1745 660 1712 Q738 1679 784 1620 Q830 1561 852.5 1485 Q875 1409 875 1316 Q875 1150 809 1045 Q743 940 640 910 Q875 816 875 462 Q875 -27 477 -27 Q79 -27 79 462 Q79 816 314 910 Z" /><glyph glyph-name="" unicode="9" d="M724 907 L724 1217 Q724 1316 714.5 1387 Q705 1458 687 1504 Q669 1550 639 1576 Q609 1602 573.5 1612.5 Q538 1623 488 1623 Q354 1623 293 1537 Q232 1451 232 1237 Q232 1029 291 945 Q350 861 478 861 Q548 861 620.5 873.5 Q693 886 724 907 ZM118 395 L118 421 L260 421 Q262 320 278 255 Q294 190 326.5 155 Q359 120 399.5 107.5 Q440 95 502 95 Q558 95 596.5 111 Q635 127 665 166.5 Q695 206 709.5 278.5 Q724 351 724 459 L724 784 Q629 739 478 739 Q373 739 295 776.5 Q217 814 171 883 Q125 952 102.5 1040 Q80 1128 80 1236 Q80 1347 103 1437.5 Q126 1528 173.5 1598 Q221 1668 301 1706.5 Q381 1745 488 1745 Q691 1745 783.5 1613 Q876 1481 876 1228 L876 462 Q876 -27 488 -27 Q389 -27 315 8 Q241 43 199.5 104.5 Q158 166 138 238.5 Q118 311 118 395 Z" /><glyph glyph-name="" unicode=":" d="M125 275 L125 454 L310 454 L310 275 L125 275 ZM125 813 L125 992 L310 992 L310 813 L125 813 Z" /><glyph glyph-name="" unicode=";" d="M173 0 L147 55 Q206 77 229.5 138.5 Q253 200 253 256 L125 256 L125 435 L309 435 Q309 415 308 376 Q307 324 306.5 299 Q306 274 304 231 Q302 188 298 167 Q294 146 287.5 115 Q281 84 271.5 68.5 Q262 53 248.5 36 Q235 19 216 11 Q197 3 173 0 ZM125 813 L125 992 L309 992 L309 813 L125 813 Z" /><glyph glyph-name="" unicode="&lt;" d="M76 494 L76 709 L645 1107 L645 942 L168 603 Q264 534 402 435.5 Q540 337 645 261 L645 94 Q219 392 76 494 Z" /><glyph glyph-name="" unicode="=" d="M127 255 L127 370 L632 370 L632 255 L127 255 ZM127 576 L127 691 L632 691 L632 576 L127 576 Z" /><glyph glyph-name="" unicode="&gt;" d="M102 94 L102 261 L579 603 Q474 677 102 942 L102 1109 Q526 809 671 709 L671 494 L102 94 Z" /><glyph glyph-name="" unicode="?" d="M275 1 L275 180 L459 180 L459 1 L275 1 ZM300 452 L300 793 Q401 851 476 916 Q551 981 591 1035 Q631 1089 655 1146 Q679 1203 685.5 1241 Q692 1279 692 1317 Q692 1398 671 1459 Q650 1520 613.5 1555 Q577 1590 533 1607 Q489 1624 439 1624 Q321 1624 245 1544.5 Q169 1465 168 1321 L167 1179 L33 1179 L33 1325 Q33 1424 68 1506 Q103 1588 160.5 1639.5 Q218 1691 290 1718.5 Q362 1746 439 1746 Q514 1746 583 1719.5 Q652 1693 707.5 1642 Q763 1591 796 1507.5 Q829 1424 829 1319 Q829 1139 730.5 999 Q632 859 434 736 L434 452 L300 452 Z" /><glyph glyph-name="" unicode="@" d="M834 644 L834 1121 Q758 1174 702 1174 Q655 1174 625 1126.5 Q595 1079 583.5 1007.5 Q572 936 572 840 Q572 694 600.5 627.5 Q629 561 687 561 Q739 561 770.5 582 Q802 603 834 644 ZM1091 198 L1116 80 Q930 40 785 40 Q656 40 550.5 66 Q445 92 354.5 153 Q264 214 202.5 308 Q141 402 106.5 543.5 Q72 685 72 868 Q72 1059 124 1213 Q176 1367 266.5 1465 Q357 1563 474.5 1615 Q592 1667 726 1667 Q1032 1667 1201.5 1464.5 Q1371 1262 1371 888 Q1371 794 1355 718 Q1339 642 1312.5 592 Q1286 542 1250 508.5 Q1214 475 1175 460.5 Q1136 446 1094 446 Q1018 446 952.5 490 Q887 534 864 603 Q852 547 818 511 Q784 475 742.5 461 Q701 447 651 447 Q596 447 553 477 Q510 507 486 550.5 Q462 594 446.5 651 Q431 708 426 753 Q421 798 421 839 Q421 1056 487 1168 Q553 1280 653 1280 Q747 1280 834 1204 L834 1274 L986 1274 L986 714 Q986 561 1090 561 Q1219 561 1219 881 Q1219 1037 1195 1154.5 Q1171 1272 1130 1346 Q1089 1420 1025.5 1465.5 Q962 1511 891.5 1528.5 Q821 1546 730 1546 Q695 1546 661.5 1542.5 Q628 1539 575 1523 Q522 1507 477 1480.5 Q432 1454 383.5 1402.5 Q335 1351 301.5 1281.5 Q268 1212 246 1104.5 Q224 997 224 864 Q224 693 257.5 564 Q291 435 343.5 359.5 Q396 284 471.5 237.5 Q547 191 620 175 Q693 159 780 159 Q814 159 848 161 Q882 163 922 169 Q962 175 979.5 177.5 Q997 180 1043.5 189 Q1090 198 1091 198 Z" /><glyph glyph-name="" unicode="a" d="M306 549 L666 549 L485 1563 L306 549 ZM200 0 L47 0 L387 1721 L585 1721 L925 0 L771 0 L685 448 L288 448 L200 0 Z" /><glyph glyph-name="" unicode="b" d="M298 982 L542 982 Q598 982 638 1006.5 Q678 1031 700 1074.5 Q722 1118 732 1169 Q742 1220 742 1281 Q742 1605 496 1605 L298 1605 L298 982 ZM298 116 L570 116 Q622 116 661 137.5 Q700 159 724 194 Q748 229 762.5 282 Q777 335 782.5 390 Q788 445 788 513 Q788 574 783 622 Q778 670 763.5 717 Q749 764 725.5 795.5 Q702 827 662.5 846 Q623 865 570 865 L298 865 L298 116 ZM146 0 L146 1721 L516 1721 Q605 1721 674 1696 Q743 1671 786 1630 Q829 1589 856.5 1531 Q884 1473 894.5 1413 Q905 1353 905 1284 Q905 1177 855.5 1075 Q806 973 719 933 Q780 908 825 859.5 Q870 811 894 751 Q918 691 929 631.5 Q940 572 940 513 Q940 423 931.5 354 Q923 285 897.5 215.5 Q872 146 830 101 Q788 56 716 28 Q644 0 546 0 L146 0 Z" /><glyph glyph-name="" unicode="c" d="M114 499 L114 1220 Q114 1312 126 1387 Q138 1462 168.5 1530 Q199 1598 247 1644.5 Q295 1691 369.5 1718 Q444 1745 542 1745 Q946 1745 946 1220 L946 1150 L801 1150 L801 1254 Q801 1337 788.5 1401 Q776 1465 747 1516.5 Q718 1568 666.5 1595.5 Q615 1623 542 1623 Q476 1623 427 1604.5 Q378 1586 347.5 1554 Q317 1522 298.5 1474 Q280 1426 273 1373.5 Q266 1321 266 1254 L266 465 Q266 380 278 317.5 Q290 255 319.5 202.5 Q349 150 405 122.5 Q461 95 542 95 Q615 95 666.5 122.5 Q718 150 747 202 Q776 254 788.5 318 Q801 382 801 465 L801 583 L946 583 L946 499 Q946 408 935 333 Q924 258 895.5 189.5 Q867 121 822 74.5 Q777 28 706 0.5 Q635 -27 542 -27 Q442 -27 366.5 0.5 Q291 28 243.5 74.5 Q196 121 166.5 189.5 Q137 258 125.5 332.5 Q114 407 114 499 Z" /><glyph glyph-name="" unicode="d" d="M146 0 L146 1721 L533 1721 Q631 1721 707 1694.5 Q783 1668 832.5 1622.5 Q882 1577 913.5 1511 Q945 1445 958.5 1371 Q972 1297 972 1208 L972 508 Q972 0 533 0 L146 0 ZM298 122 L533 122 Q820 122 820 474 L820 1242 Q820 1599 533 1599 L298 1599 L298 122 Z" /><glyph glyph-name="" unicode="e" d="M146 0 L146 1721 L746 1721 L746 1599 L298 1599 L298 947 L618 947 L618 832 L298 832 L298 122 L746 122 L746 0 L146 0 Z" /><glyph glyph-name="" unicode="f" d="M146 0 L146 1721 L751 1721 L751 1599 L298 1599 L298 947 L654 947 L654 832 L298 832 L298 0 L146 0 Z" /><glyph glyph-name="" unicode="g" d="M114 481 L114 1211 Q114 1745 567 1745 Q639 1745 697.5 1729 Q756 1713 796.5 1685.5 Q837 1658 867.5 1615 Q898 1572 916 1526 Q934 1480 945 1418.5 Q956 1357 960 1299.5 Q964 1242 964 1171 L964 1159 L812 1159 L812 1172 Q812 1176 812 1185 Q812 1258 810.5 1295.5 Q809 1333 803 1394.5 Q797 1456 781 1488.5 Q765 1521 739 1556.5 Q713 1592 669 1607.5 Q625 1623 565 1623 Q481 1623 421 1594.5 Q361 1566 328 1515 Q295 1464 280.5 1405 Q266 1346 266 1275 L266 415 Q266 349 278 296.5 Q290 244 319.5 196 Q349 148 408 121.5 Q467 95 553 95 Q632 95 688 123 Q744 151 772 199.5 Q800 248 811.5 300 Q823 352 823 415 L823 706 L612 706 L612 821 L975 821 L975 0 L908 0 L863 168 Q829 79 742.5 26 Q656 -27 551 -27 Q482 -27 424.5 -14.5 Q367 -2 325 18 Q283 38 249.5 69.5 Q216 101 194.5 132 Q173 163 157 204 Q141 245 133 278 Q125 311 120.5 353 Q116 395 115 421 Q114 447 114 481 Z" /><glyph glyph-name="" unicode="h" d="M146 0 L146 1721 L298 1721 L298 942 L828 942 L828 1721 L980 1721 L980 0 L828 0 L828 836 L298 836 L298 0 L146 0 Z" /><glyph glyph-name="" unicode="i" d="M145 0 L145 1721 L297 1721 L297 0 L145 0 Z" /><glyph glyph-name="" unicode="j" d="M12 0 L12 115 Q63 115 91 115.5 Q119 116 150.5 121 Q182 126 196.5 132.5 Q211 139 227.5 156 Q244 173 249.5 191.5 Q255 210 260.5 244.5 Q266 279 267 315.5 Q268 352 268 410 L268 1721 L420 1721 L420 410 Q420 332 416.5 281 Q413 230 401.5 179 Q390 128 368 98.5 Q346 69 309.5 44.5 Q273 20 219 10 Q165 0 91 0 L12 0 Z" /><glyph glyph-name="" unicode="k" d="M146 0 L146 1721 L298 1721 L298 816 L757 1721 L914 1721 L558 1011 L995 0 L834 0 L466 909 L298 607 L298 0 L146 0 Z" /><glyph glyph-name="" unicode="l" d="M146 0 L146 1721 L298 1721 L298 122 L779 122 L779 0 L146 0 Z" /><glyph glyph-name="" unicode="m" d="M146 0 L146 1721 L333 1721 L665 235 Q726 527 827 949.5 Q928 1372 997 1721 L1184 1721 L1184 0 L1049 0 L1049 1377 L731 0 L599 0 L281 1376 L281 0 L146 0 Z" /><glyph glyph-name="" unicode="n" d="M146 0 L146 1721 L263 1721 L808 358 L808 1721 L937 1721 L937 0 L823 0 L277 1334 L277 0 L146 0 Z" /><glyph glyph-name="" unicode="o" d="M114 499 L114 1220 Q114 1311 127.5 1387 Q141 1463 173 1530.5 Q205 1598 254 1644.5 Q303 1691 379 1718 Q455 1745 553 1745 Q651 1745 727 1718 Q803 1691 852 1644.5 Q901 1598 933 1530.5 Q965 1463 978.5 1387 Q992 1311 992 1220 L992 499 Q992 -27 553 -27 Q114 -27 114 499 ZM840 465 L840 1254 Q840 1623 553 1623 Q266 1623 266 1254 L266 465 Q266 95 553 95 Q840 95 840 465 Z" /><glyph glyph-name="" unicode="p" d="M298 887 L584 886 Q712 885 767 974.5 Q822 1064 822 1255 Q822 1433 763 1516 Q704 1599 584 1599 L298 1599 L298 887 ZM146 0 L146 1721 L567 1721 Q657 1721 727 1696.5 Q797 1672 843 1630 Q889 1588 919 1528 Q949 1468 961.5 1401.5 Q974 1335 974 1258 Q974 1179 963.5 1112 Q953 1045 924.5 979 Q896 913 851.5 867.5 Q807 822 734 793.5 Q661 765 566 765 L298 765 L298 0 L146 0 Z" /><glyph glyph-name="" unicode="q" d="M840 465 L840 1254 Q840 1623 553 1623 Q266 1623 266 1254 L266 465 Q266 95 553 95 Q840 95 840 465 ZM114 499 L114 1220 Q114 1311 127.5 1387 Q141 1463 173 1530.5 Q205 1598 254 1644.5 Q303 1691 379 1718 Q455 1745 553 1745 Q651 1745 727 1718 Q803 1691 852 1644.5 Q901 1598 933 1530.5 Q965 1463 978.5 1387 Q992 1311 992 1220 L992 499 Q992 139 787 25 Q825 -9 850 -29 Q875 -49 916.5 -70.5 Q958 -92 999 -98 L999 -212 Q916 -200 842.5 -149 Q769 -98 691 -11 Q625 -27 553 -27 Q114 -27 114 499 Z" /><glyph glyph-name="" unicode="r" d="M298 962 L604 962 Q669 962 714 988 Q759 1014 781.5 1062 Q804 1110 813 1162 Q822 1214 822 1281 Q822 1336 816.5 1380 Q811 1424 796.5 1466 Q782 1508 758 1536.5 Q734 1565 695 1582 Q656 1599 604 1599 L298 1599 L298 962 ZM146 0 L146 1721 L605 1721 Q692 1721 758 1697 Q824 1673 864.5 1633.5 Q905 1594 930 1535.5 Q955 1477 964.5 1414.5 Q974 1352 974 1276 Q974 947 734 859 L1000 0 L838 0 L587 840 L298 840 L298 0 L146 0 Z" /><glyph glyph-name="" unicode="s" d="M68 415 L202 454 Q210 382 230.5 321 Q251 260 286 207.5 Q321 155 378.5 125 Q436 95 509 95 Q626 95 690 160 Q754 225 754 344 Q754 443 695.5 535 Q637 627 523 747 L254 1030 Q166 1123 119 1204 Q72 1285 72 1374 Q72 1543 183 1644 Q294 1745 468 1745 Q637 1745 740 1649.5 Q843 1554 877 1372 L880 1356 L752 1316 L750 1330 Q730 1459 657.5 1541 Q585 1623 468 1623 Q354 1623 286.5 1565 Q219 1507 219 1394 Q219 1326 255.5 1260 Q292 1194 360 1120 L613 845 Q623 834 663 790.5 Q703 747 715.5 733 Q728 719 761.5 679 Q795 639 807.5 618.5 Q820 598 843 560.5 Q866 523 874.5 495 Q883 467 891 430 Q899 393 899 357 Q899 173 785.5 73 Q672 -27 492 -27 Q400 -27 325 8.5 Q250 44 198.5 106 Q147 168 114.5 246 Q82 324 68 415 Z" /><glyph glyph-name="" unicode="t" d="M299 0 L299 1599 L-36 1599 L-36 1721 L789 1721 L789 1599 L451 1599 L451 0 L299 0 Z" /><glyph glyph-name="" unicode="u" d="M120 423 L120 1721 L272 1721 L272 388 Q272 240 339 167.5 Q406 95 565 95 Q715 95 779 168 Q843 241 843 388 L843 1721 L994 1721 L994 423 Q994 -27 565 -27 Q462 -27 383.5 -3 Q305 21 255.5 61.5 Q206 102 175 160.5 Q144 219 132 282.5 Q120 346 120 423 Z" /><glyph glyph-name="" unicode="v" d="M382 0 L12 1721 L176 1721 L481 180 L773 1721 L937 1721 L581 0 L382 0 Z" /><glyph glyph-name="" unicode="w" d="M311 0 L23 1721 L165 1721 L400 249 L622 1721 L815 1721 L1018 249 L1252 1721 L1393 1721 L1107 0 L932 0 L717 1520 L485 0 L311 0 Z" /><glyph glyph-name="" unicode="x" d="M30 0 L397 866 L30 1722 L173 1722 L475 998 L768 1722 L924 1722 L557 850 L924 0 L778 0 L480 717 L187 0 L30 0 Z" /><glyph glyph-name="" unicode="y" d="M374 0 L374 534 L-2 1721 L152 1721 Q172 1649 210 1518 Q248 1387 288 1252 Q328 1117 365.5 992.5 Q403 868 427 788 L451 709 Q515 944 599 1228.5 Q683 1513 741 1721 L890 1721 L526 534 L526 0 L374 0 Z" /><glyph glyph-name="" unicode="z" d="M60 0 L60 141 L665 1599 L124 1599 L124 1721 L821 1721 L821 1580 L216 122 L821 122 L821 0 L60 0 Z" /><glyph glyph-name="" unicode="[" d="M150 -64 L150 1779 L481 1779 L481 1698 L302 1698 L302 17 L481 17 L481 -64 L150 -64 Z" /><glyph glyph-name="" unicode="\" d="M541 0 L-12 1721 L133 1721 L685 0 L541 0 Z" /><glyph glyph-name="" unicode="]" d="M25 -64 L25 17 L204 17 L204 1698 L25 1698 L25 1779 L356 1779 L356 -64 L25 -64 Z" /><glyph glyph-name="" unicode="^" d="M220 896 L43 896 Q43 896 270 1459 L477 1459 L703 896 L528 896 L373 1436 L220 896 Z" /><glyph glyph-name="" unicode="_" d="M115 0 L115 115 L811 115 L811 0 L115 0 Z" /><glyph glyph-name="" unicode="`" d="M299 1324 L70 1722 L232 1722 L355 1324 L299 1324 Z" /><glyph glyph-name="" unicode="a" d="M554 244 L554 666 Q481 615 439 584 Q397 553 350.5 511.5 Q304 470 280.5 436 Q257 402 241.5 358.5 Q226 315 226 267 Q226 181 262 139.5 Q298 98 347 98 Q404 98 462.5 139 Q521 180 554 244 ZM584 0 L565 145 Q517 61 446.5 17 Q376 -27 312 -27 Q219 -27 147 46.5 Q75 120 75 239 Q75 271 76 290.5 Q77 310 81.5 341 Q86 372 94.5 393 Q103 414 119.5 444.5 Q136 475 160 498.5 Q184 522 220 552.5 Q256 583 303 610.5 Q350 638 413.5 669.5 Q477 701 554 733 L554 743 Q554 845 545 917.5 Q536 990 523 1029.5 Q510 1069 489.5 1091 Q469 1113 451 1118.5 Q433 1124 407 1124 Q380 1124 359 1116.5 Q338 1109 314 1087.5 Q290 1066 274 1017.5 Q258 969 254 896 L254 889 L98 889 Q110 1046 190.5 1135.5 Q271 1225 402 1225 Q475 1225 531 1201.5 Q587 1178 619.5 1141.5 Q652 1105 672 1054 Q692 1003 699 955 Q706 907 706 852 L706 276 Q706 213 710.5 144 Q715 75 720 38 L724 0 L584 0 Z" /><glyph glyph-name="" unicode="b" d="M615 545 L615 640 Q615 750 610 832 Q605 914 593.5 964.5 Q582 1015 570.5 1046.5 Q559 1078 540.5 1092 Q522 1106 507.5 1110 Q493 1114 471 1114 Q377 1114 270 995 L270 205 Q315 151 368 117.5 Q421 84 466 84 Q486 84 498.5 86 Q511 88 528.5 97 Q546 106 557 124 Q568 142 580 175.5 Q592 209 599 257 Q606 305 610.5 378 Q615 451 615 545 ZM120 0 L120 1721 L270 1721 L270 1085 Q317 1154 377.5 1189.5 Q438 1225 501 1225 Q544 1225 576 1216.5 Q608 1208 646 1173.5 Q684 1139 708 1079 Q732 1019 748.5 907.5 Q765 796 765 641 L765 546 Q765 438 756.5 351 Q748 264 734.5 205.5 Q721 147 700 103.5 Q679 60 658 35.5 Q637 11 610 -3.5 Q583 -18 561 -22.5 Q539 -27 512 -27 Q360 -27 270 113 L270 0 L120 0 Z" /><glyph glyph-name="" unicode="c" d="M106 568 L106 630 Q106 710 107 752.5 Q108 795 114 868.5 Q120 942 131.5 983 Q143 1024 167 1077 Q191 1130 225 1157.5 Q259 1185 312 1205 Q365 1225 433 1225 Q502 1225 554.5 1202.5 Q607 1180 639.5 1144 Q672 1108 693 1053 Q714 998 723 943 Q732 888 736 817 Q736 815 736.5 811.5 Q737 808 737 806 L587 806 L587 815 Q581 984 547.5 1054 Q514 1124 433 1124 Q394 1124 365.5 1113 Q337 1102 317.5 1074 Q298 1046 286 1010.5 Q274 975 267 914.5 Q260 854 258 790 Q256 726 256 630 L256 568 Q256 287 291 180.5 Q326 74 433 74 Q512 74 545.5 146 Q579 218 587 393 L587 403 L738 403 L738 396 Q735 320 726.5 262.5 Q718 205 697.5 148 Q677 91 644.5 54.5 Q612 18 558.5 -4.5 Q505 -27 433 -27 Q373 -27 325 -15 Q277 -3 243.5 25 Q210 53 185.5 80.5 Q161 108 146.5 159 Q132 210 123.5 246 Q115 282 111 349 Q107 416 106.5 454.5 Q106 493 106 568 Z" /><glyph glyph-name="" unicode="d" d="M596 205 L596 995 Q489 1114 395 1114 Q373 1114 358.5 1110 Q344 1106 325.5 1092 Q307 1078 295.5 1046.5 Q284 1015 272.5 964.5 Q261 914 256 832 Q251 750 251 640 L251 545 Q251 451 255.5 378 Q260 305 267 257 Q274 209 286 175.5 Q298 142 309 124 Q320 106 337.5 97 Q355 88 367.5 86 Q380 84 400 84 Q445 84 498 117.5 Q551 151 596 205 ZM596 0 L596 113 Q506 -27 354 -27 Q327 -27 305 -22.5 Q283 -18 256 -3.5 Q229 11 208 35.5 Q187 60 166 103.5 Q145 147 131.5 205.5 Q118 264 109.5 351 Q101 438 101 546 L101 641 Q101 796 117.5 907.5 Q134 1019 158 1079 Q182 1139 220 1173.5 Q258 1208 290 1216.5 Q322 1225 365 1225 Q428 1225 488.5 1189.5 Q549 1154 596 1085 L596 1721 L746 1721 L746 0 L596 0 Z" /><glyph glyph-name="" unicode="e" d="M258 702 L590 702 Q589 742 590 783 Q591 824 589 865.5 Q587 907 583.5 945 Q580 983 570 1015.5 Q560 1048 545 1072 Q530 1096 504 1110 Q478 1124 444 1124 Q389 1124 353.5 1104 Q318 1084 298.5 1057 Q279 1030 270 966 Q261 902 259.5 853.5 Q258 805 258 702 ZM106 552 L106 719 Q107 844 124 935.5 Q141 1027 168.5 1082 Q196 1137 239.5 1169.5 Q283 1202 329 1213.5 Q375 1225 437 1225 Q598 1225 668.5 1111 Q739 997 739 751 Q739 676 737 628 L257 628 L257 445 Q257 327 268.5 251.5 Q280 176 305 138 Q330 100 360 87 Q390 74 436 74 Q503 74 548.5 141.5 Q594 209 595 367 L735 367 Q729 299 719 246 Q709 193 687.5 140 Q666 87 634.5 52 Q603 17 553 -5 Q503 -27 438 -27 Q311 -27 240.5 23.5 Q170 74 137 199.5 Q104 325 106 552 Z" /><glyph glyph-name="" unicode="f" d="M177 0 L177 1114 L10 1114 L10 1198 L177 1198 L177 1327 Q177 1333 177 1345 Q177 1377 177 1396 Q177 1415 181 1451 Q185 1487 192.5 1510.5 Q200 1534 216 1563.5 Q232 1593 254.5 1610.5 Q277 1628 313 1640 Q349 1652 394 1652 Q463 1652 516 1639 L516 1530 Q492 1536 442 1536 Q409 1536 386 1526 Q363 1516 351.5 1504 Q340 1492 334 1468 Q328 1444 327.5 1429 Q327 1414 327 1386 Q327 1381 327 1378 L327 1198 L519 1198 L519 1114 L327 1114 L327 0 L177 0 Z" /><glyph glyph-name="" unicode="g" d="M340.5 491 Q378 468 428 468 Q478 468 515 491 Q552 514 572 547 Q592 580 604 625 Q616 670 619.5 705 Q623 740 623 776 Q623 811 620 846.5 Q617 882 604.5 930.5 Q592 979 572.5 1015 Q553 1051 515.5 1077 Q478 1103 428 1103 Q386 1103 352.5 1085.5 Q319 1068 298.5 1038 Q278 1008 264 974.5 Q250 941 243.5 901.5 Q237 862 234.5 833 Q232 804 232 776 Q232 739 235 704.5 Q238 670 250.5 624.5 Q263 579 283 546.5 Q303 514 340.5 491 ZM524 3 L310 49 Q260 12 209.5 -63 Q159 -138 159 -191 Q159 -214 169.5 -231 Q180 -248 202.5 -258 Q225 -268 244.5 -274 Q264 -280 299 -282.5 Q334 -285 352 -285.5 Q370 -286 405 -286 Q414 -286 418 -286 Q683 -286 683 -157 Q683 -86 646 -49.5 Q609 -13 524 3 ZM214 210 Q209 187 241 176 Q273 165 405 138 Q446 130 469 125 Q551 108 610 88.5 Q669 69 720.5 39.5 Q772 10 798 -32.5 Q824 -75 824 -130 Q824 -180 807.5 -220.5 Q791 -261 765 -288 Q739 -315 701.5 -335 Q664 -355 628 -366 Q592 -377 549.5 -383.5 Q507 -390 477 -391.5 Q447 -393 416 -393 Q17 -393 17 -236 Q17 -135 82 -57 Q147 21 241 69 Q226 72 192.5 81.5 Q159 91 117.5 111 Q76 131 76 150 Q76 163 79.5 178.5 Q83 194 90.5 211.5 Q98 229 106 245.5 Q114 262 126 281.5 Q138 301 147 315.5 Q156 330 169 349 Q182 368 189 377 Q196 386 207 401 Q218 416 219 418 Q148 482 113.5 583 Q79 684 79 793 Q79 851 90 909 Q101 967 127.5 1024.5 Q154 1082 192.5 1126 Q231 1170 290.5 1197 Q350 1224 423 1224 Q519 1224 582.5 1177.5 Q646 1131 706 1038 Q725 1071 739.5 1093 Q754 1115 778 1145 Q802 1175 830 1194.5 Q858 1214 888 1221 L888 1076 Q850 1069 809 1042.5 Q768 1016 737 981 Q775 875 775 800 Q775 728 763 664 Q751 600 724.5 543.5 Q698 487 658 446 Q618 405 559 381.5 Q500 358 427 358 Q341 358 283 382 Q228 278 214 210 Z" /><glyph glyph-name="" unicode="h" d="M120 0 L120 1721 L270 1721 L270 1085 Q315 1155 383 1190 Q451 1225 522 1225 Q614 1225 681 1151 Q748 1077 748 942 L748 0 L596 0 L596 934 Q596 1114 470 1114 Q421 1114 365 1079.5 Q309 1045 270 992 L270 0 L120 0 Z" /><glyph glyph-name="" unicode="i" d="M132 1472 L132 1651 L282 1651 L282 1472 L132 1472 ZM132 0 L132 1198 L282 1198 L282 0 L132 0 Z" /><glyph glyph-name="" unicode="j" d="M148 1473 L148 1652 L298 1652 L298 1473 L148 1473 ZM-44 -312 L-44 -204 Q2 -206 12 -206 Q45 -206 69.5 -197 Q94 -188 108 -170.5 Q122 -153 131 -136 Q140 -119 143 -93.5 Q146 -68 147 -54 Q148 -40 148 -18 L148 1198 L298 1198 L298 -46 Q298 -320 37 -320 Q-3 -320 -44 -312 Z" /><glyph glyph-name="" unicode="k" d="M120 0 L120 1721 L270 1721 L270 630 L644 1198 L813 1198 L526 744 L811 0 L654 0 L419 653 L270 470 L270 0 L120 0 Z" /><glyph glyph-name="" unicode="l" d="M146 0 L146 1721 L296 1721 L296 0 L146 0 Z" /><glyph glyph-name="" unicode="m" d="M120 0 L120 1198 L271 1198 L271 1087 Q388 1225 537 1225 Q598 1225 655 1187 Q712 1149 737 1089 Q796 1156 866 1190.5 Q936 1225 994 1225 Q1086 1225 1154.5 1161 Q1223 1097 1223 1001 L1223 0 L1073 0 L1073 970 Q1073 1045 1039.5 1079.5 Q1006 1114 950 1114 Q857 1114 760 1017 L760 0 L610 0 L610 971 Q610 1114 483 1114 Q432 1114 375.5 1082 Q319 1050 270 995 L270 0 L120 0 Z" /><glyph glyph-name="" unicode="n" d="M120 0 L120 1198 L270 1198 L270 1085 Q318 1155 385 1190 Q452 1225 524 1225 Q613 1225 680.5 1150.5 Q748 1076 748 941 L748 0 L596 0 L596 944 Q596 1033 561 1073.5 Q526 1114 469 1114 Q422 1114 368.5 1081.5 Q315 1049 270 993 L270 0 L120 0 Z" /><glyph glyph-name="" unicode="o" d="M106 568 L106 630 Q106 710 107 752.5 Q108 795 113.5 868.5 Q119 942 130.5 983 Q142 1024 165 1077 Q188 1130 221.5 1157.5 Q255 1185 306 1205 Q357 1225 423 1225 Q489 1225 540 1205 Q591 1185 624.5 1157.5 Q658 1130 681 1077 Q704 1024 715.5 983 Q727 942 732.5 868.5 Q738 795 739 752.5 Q740 710 740 630 L740 568 Q740 501 739.5 467 Q739 433 736.5 372.5 Q734 312 728.5 279 Q723 246 712 197 Q701 148 685.5 121 Q670 94 646 61.5 Q622 29 591 12.5 Q560 -4 517.5 -15.5 Q475 -27 423 -27 Q371 -27 328.5 -15.5 Q286 -4 255 12.5 Q224 29 200 61.5 Q176 94 160.5 121 Q145 148 134 197 Q123 246 117.5 279 Q112 312 109.5 372.5 Q107 433 106.5 467 Q106 501 106 568 ZM256 630 L256 568 Q256 286 289 180 Q322 74 423 74 Q524 74 557 180 Q590 286 590 568 L590 630 Q590 725 588 790 Q586 855 579.5 914.5 Q573 974 561.5 1010 Q550 1046 531.5 1073.5 Q513 1101 486.5 1112.5 Q460 1124 423 1124 Q386 1124 359.5 1112.5 Q333 1101 314 1073.5 Q295 1046 284 1010.5 Q273 975 266.5 914.5 Q260 854 258 790 Q256 726 256 630 Z" /><glyph glyph-name="" unicode="p" d="M615 558 L615 653 Q615 747 610.5 820 Q606 893 599 941 Q592 989 580 1022.5 Q568 1056 557 1074 Q546 1092 528.5 1101 Q511 1110 498.5 1112 Q486 1114 466 1114 Q421 1114 368 1080.5 Q315 1047 270 993 L270 203 Q377 84 471 84 Q493 84 507.5 88 Q522 92 540.5 106 Q559 120 570.5 151.5 Q582 183 593.5 233.5 Q605 284 610 366 Q615 448 615 558 ZM120 -385 L120 1198 L270 1198 L270 1085 Q360 1225 512 1225 Q539 1225 561 1220.5 Q583 1216 610 1201.5 Q637 1187 658 1162.5 Q679 1138 700 1094.5 Q721 1051 734.5 992.5 Q748 934 756.5 847 Q765 760 765 652 L765 557 Q765 402 748.5 290.5 Q732 179 708 119 Q684 59 646 24.5 Q608 -10 576 -18.5 Q544 -27 501 -27 Q438 -27 377.5 8.5 Q317 44 270 113 L270 -385 L120 -385 Z" /><glyph glyph-name="" unicode="q" d="M601 203 L601 993 Q556 1047 503 1080.5 Q450 1114 405 1114 Q385 1114 372.5 1112 Q360 1110 342.5 1101 Q325 1092 314 1074 Q303 1056 291 1022.5 Q279 989 272 941 Q265 893 260.5 820 Q256 747 256 653 L256 558 Q256 448 261 366 Q266 284 277.5 233.5 Q289 183 300.5 151.5 Q312 120 330.5 106 Q349 92 363.5 88 Q378 84 400 84 Q494 84 601 203 ZM601 -385 L601 113 Q554 44 493.5 8.5 Q433 -27 370 -27 Q327 -27 295 -18.5 Q263 -10 225 24.5 Q187 59 163 119 Q139 179 122.5 290.5 Q106 402 106 557 L106 652 Q106 760 114.5 847 Q123 934 136.5 992.5 Q150 1051 171 1094.5 Q192 1138 213 1162.5 Q234 1187 261 1201.5 Q288 1216 310 1220.5 Q332 1225 359 1225 Q511 1225 601 1085 L601 1198 L751 1198 L751 -385 L601 -385 Z" /><glyph glyph-name="" unicode="r" d="M120 0 L120 1198 L270 1198 L270 1029 Q298 1122 371 1168.5 Q444 1215 522 1217 L522 1066 Q511 1070 499 1070 Q270 1070 270 894 L270 0 L120 0 Z" /><glyph glyph-name="" unicode="s" d="M57 300 L172 339 Q186 295 206.5 254 Q227 213 256 172 Q285 131 324.5 106 Q364 81 407 81 Q486 81 525.5 129 Q565 177 565 259 Q565 374 360 554 L273 630 Q174 717 123.5 785.5 Q73 854 73 939 Q73 1074 155 1148.5 Q237 1223 374 1223 Q439 1223 492 1198 Q545 1173 581 1128.5 Q617 1084 641.5 1032.5 Q666 981 681 919 L548 878 Q539 934 519.5 984 Q500 1034 459.5 1074.5 Q419 1115 367 1115 Q300 1115 260.5 1069.5 Q221 1024 221 952 Q221 892 259.5 838 Q298 784 371 722 L466 640 Q512 600 536.5 577.5 Q561 555 598.5 513.5 Q636 472 655 438.5 Q674 405 689.5 358 Q705 311 706 262 Q706 128 621.5 50.5 Q537 -27 401 -27 Q269 -27 180.5 65.5 Q92 158 57 300 Z" /><glyph glyph-name="" unicode="t" d="M167 283 L167 1114 L4 1114 L4 1198 L167 1198 L167 1623 L317 1623 L317 1198 L509 1198 L509 1114 L317 1114 L317 290 Q317 247 318 222.5 Q319 198 324.5 169.5 Q330 141 340.5 127 Q351 113 370.5 103.5 Q390 94 419 94 Q468 94 507 102 L507 -1 Q440 -18 377 -18 Q321 -18 281 -0.5 Q241 17 219.5 43 Q198 69 185.5 112 Q173 155 170 192.5 Q167 230 167 283 Z" /><glyph glyph-name="" unicode="u" d="M112 257 L112 1198 L264 1198 L264 254 Q264 165 299 124.5 Q334 84 391 84 Q438 84 491.5 116.5 Q545 149 590 205 L590 1198 L740 1198 L740 0 L590 0 L590 113 Q542 43 475 8 Q408 -27 336 -27 Q247 -27 179.5 47.5 Q112 122 112 257 Z" /><glyph glyph-name="" unicode="v" d="M297 0 L25 1198 L171 1198 L385 136 L579 1198 L722 1198 L472 0 L297 0 Z" /><glyph glyph-name="" unicode="w" d="M240 0 L42 1198 L173 1198 L331 176 L502 1198 L662 1198 L846 176 L990 1198 L1119 1198 L923 0 L778 0 L585 988 L399 0 L240 0 Z" /><glyph glyph-name="" unicode="x" d="M39 0 L297 626 L41 1198 L196 1198 L392 699 L588 1198 L743 1198 L486 626 L744 0 L598 0 L392 534 L186 0 L39 0 Z" /><glyph glyph-name="" unicode="y" d="M77 -299 L77 -176 Q197 -168 252.5 -136 Q308 -104 308 -46 Q308 27 297 96 L37 1198 L189 1198 L397 197 L601 1198 L753 1198 L453 -83 Q423 -199 333.5 -246.5 Q244 -294 80 -299 L77 -299 Z" /><glyph glyph-name="" unicode="z" d="M47 0 L47 144 L519 1084 L111 1084 L111 1198 L660 1198 L660 1055 L199 115 L654 115 L654 0 L47 0 Z" /><glyph glyph-name="" unicode="{" d="M511 56 L511 -57 Q455 -57 409 -45 Q363 -33 329 -15.5 Q295 2 269 37 Q243 72 226 102 Q209 132 197 185.5 Q185 239 179 276.5 Q173 314 170 382 Q167 450 166.5 491 Q166 532 166 609 Q166 687 140 727.5 Q114 768 35 768 L35 956 Q114 956 140 996.5 Q166 1037 166 1115 Q166 1192 166.5 1233 Q167 1274 170 1342 Q173 1410 179 1447.5 Q185 1485 197 1538.5 Q209 1592 226 1622 Q243 1652 269 1687 Q295 1722 329 1739.5 Q363 1757 409 1769 Q455 1781 511 1781 L511 1668 Q459 1668 423 1656 Q387 1644 364 1609 Q341 1574 328 1543.5 Q315 1513 309.5 1442 Q304 1371 303 1324 Q302 1277 302 1174 Q302 1117 296.5 1073.5 Q291 1030 275 985 Q259 940 224.5 908.5 Q190 877 139 862 Q190 847 224.5 815.5 Q259 784 275 739 Q291 694 296.5 650.5 Q302 607 302 550 Q302 447 303 400 Q304 353 309.5 282 Q315 211 328 180.5 Q341 150 364 115 Q387 80 423 68 Q459 56 511 56 Z" /><glyph glyph-name="" unicode="|" d="M150 -128 L150 1746 L268 1746 L268 -128 L150 -128 Z" /><glyph glyph-name="" unicode="}" d="M25 -57 L25 56 Q77 56 113 68 Q149 80 172 115 Q195 150 208 180.5 Q221 211 226.5 282 Q232 353 233 400 Q234 447 234 550 Q234 607 239.5 650.5 Q245 694 261 739 Q277 784 311.5 815.5 Q346 847 397 862 Q346 877 311.5 908.5 Q277 940 261 985 Q245 1030 239.5 1073.5 Q234 1117 234 1174 Q234 1277 233 1324 Q232 1371 226.5 1442 Q221 1513 208 1543.5 Q195 1574 172 1609 Q149 1644 113 1656 Q77 1668 25 1668 L25 1781 Q81 1781 127 1769 Q173 1757 207 1739.5 Q241 1722 267 1687 Q293 1652 310 1622 Q327 1592 339 1538.5 Q351 1485 357 1447.5 Q363 1410 366 1342 Q369 1274 369.5 1233 Q370 1192 370 1115 Q370 1037 396 996.5 Q422 956 501 956 L501 768 Q422 768 396 727.5 Q370 687 370 609 Q370 532 369.5 491 Q369 450 366 382 Q363 314 357 276.5 Q351 239 339 185.5 Q327 132 310 102 Q293 72 267 37 Q241 2 207 -15.5 Q173 -33 127 -45 Q81 -57 25 -57 Z" /><glyph glyph-name="" unicode="~" d="M213 959 L98 959 Q99 978 101.5 996 Q104 1014 115 1043.5 Q126 1073 143.5 1093.5 Q161 1114 195 1130 Q229 1146 275 1146 Q317 1146 414.5 1108 Q512 1070 550 1070 Q579 1070 595 1084.5 Q611 1099 616 1137 L732 1137 Q732 1136 731 1123.5 Q730 1111 726.5 1095 Q723 1079 717 1058 Q711 1037 698.5 1018.5 Q686 1000 668.5 983.5 Q651 967 622.5 957 Q594 947 558 947 Q501 947 406.5 986 Q312 1025 275 1025 Q247 1025 232.5 1011 Q218 997 213 959 Z" /><glyph glyph-name="" unicode=" " d="" /><glyph glyph-name="" unicode="¡" d="M304 1377 L304 1198 L119 1198 L119 1377 L304 1377 ZM245 989 L325 -343 L131 -343 L191 989 L245 989 Z" /><glyph glyph-name="" unicode="¢" d="M370 87 L370 240 Q309 244 261.5 264 Q214 284 183 309 Q152 334 131 382 Q110 430 99 466.5 Q88 503 83 570.5 Q78 638 77 677.5 Q76 717 76 794 L76 856 Q76 928 76.5 965.5 Q77 1003 82.5 1069.5 Q88 1136 98.5 1173.5 Q109 1211 130.5 1260.5 Q152 1310 182.5 1336.5 Q213 1363 260.5 1384.5 Q308 1406 369 1410 L369 1543 L434 1543 L434 1409 Q510 1403 563 1369.5 Q616 1336 645 1277 Q674 1218 687.5 1154.5 Q701 1091 706 1006 Q706 1004 706.5 999 Q707 994 707 992 L557 992 L557 1006 Q556 1038 555 1051 Q554 1064 551.5 1098.5 Q549 1133 544.5 1151 Q540 1169 533 1198 Q526 1227 514.5 1243 Q503 1259 487.5 1276.5 Q472 1294 450 1301.5 Q428 1309 401 1309 Q366 1309 340 1299.5 Q314 1290 295.5 1275.5 Q277 1261 264.5 1229 Q252 1197 245 1168 Q238 1139 234 1083 Q230 1027 228.5 982 Q227 937 226 856 L226 794 Q226 708 228.5 649 Q231 590 237.5 535 Q244 480 256 446.5 Q268 413 287.5 387 Q307 361 334.5 350 Q362 339 400 339 Q421 339 439 344 Q457 349 471 360.5 Q485 372 496 382.5 Q507 393 515.5 414 Q524 435 530 448 Q536 461 540 488.5 Q544 516 546.5 529 Q549 542 551 572.5 Q553 603 554 612.5 Q555 622 556 652 Q556 655 556.5 661 Q557 667 557 669 L708 669 Q708 667 707.5 663 Q707 659 707 657 Q704 585 696 530 Q688 475 669.5 420.5 Q651 366 622 330 Q593 294 546 269.5 Q499 245 435 240 L435 87 L370 87 Z" /><glyph glyph-name="" unicode="£" d="M55 0 L55 65 L183 115 L183 768 L55 768 L55 877 L183 877 L183 1204 Q183 1247 184.5 1284 Q186 1321 193 1379 Q200 1437 212.5 1483 Q225 1529 249.5 1580.5 Q274 1632 307.5 1666 Q341 1700 392.5 1722.5 Q444 1745 508 1745 Q565 1745 610.5 1727.5 Q656 1710 684 1685 Q712 1660 732.5 1620 Q753 1580 762.5 1548 Q772 1516 777.5 1471 Q783 1426 783.5 1404.5 Q784 1383 784 1350 Q784 1345 784 1343 L664 1343 Q664 1383 663.5 1403 Q663 1423 660 1458.5 Q657 1494 651 1512.5 Q645 1531 633.5 1555.5 Q622 1580 605 1591.5 Q588 1603 562 1611 Q536 1619 502 1617 Q477 1616 457 1609.5 Q437 1603 421 1590 Q405 1577 392.5 1563.5 Q380 1550 371.5 1525.5 Q363 1501 356.5 1482 Q350 1463 346 1429 Q342 1395 339.5 1372 Q337 1349 336 1306.5 Q335 1264 335 1238.5 Q335 1213 335 1164 L335 883 L624 883 L624 768 L335 768 L335 115 L783 115 L783 0 L55 0 Z" /><glyph glyph-name="" unicode="¤" d="M516 311 Q613 313 684 361 Q755 409 788 480.5 Q821 552 821 635 Q821 764 740.5 859.5 Q660 955 516 959 Q371 955 291 860 Q211 765 211 635 Q211 552 243.5 481 Q276 410 347 361.5 Q418 313 516 311 ZM168 189 L246 313 Q178 372 142 457 Q106 542 106 635 Q106 726 140.5 810.5 Q175 895 241 953 L168 1070 L222 1108 L294 992 Q390 1051 516 1051 Q653 1051 752 982 L831 1108 L885 1070 L803 941 Q863 882 894.5 801.5 Q926 721 926 635 Q926 547 893.5 465.5 Q861 384 799 325 L885 189 L831 151 L747 284 Q648 219 516 219 Q393 219 299 275 L222 151 L168 189 Z" /><glyph glyph-name="" unicode="¥" d="M386 0 L386 226 L174 226 L174 317 L386 317 L386 523 L174 523 L174 612 L361 612 L10 1721 L179 1721 L461 689 Q506 853 556 1037 Q606 1221 647 1372.5 Q688 1524 743 1721 L902 1721 L562 612 L743 612 L743 523 L538 523 L538 317 L743 317 L743 226 L538 226 L538 0 L386 0 Z" /><glyph glyph-name="" unicode="¦" d="M137 889 L137 1441 L269 1441 L269 889 L137 889 ZM137 -14 L137 537 L269 537 L269 -14 L137 -14 Z" /><glyph glyph-name="" unicode="§" d="M392 722 L538 595 Q622 633 622 758 Q622 875 417 1053 L348 1113 Q292 1104 260 1060 Q228 1016 228 952 Q228 921 240 891 Q252 861 280.5 829.5 Q309 798 329.5 778.5 Q350 759 392 722 ZM78 300 L193 339 Q207 295 227.5 254 Q248 213 277 172 Q306 131 345.5 106 Q385 81 428 81 Q507 81 546.5 129 Q586 177 586 259 Q586 374 381 554 L294 630 Q253 666 239.5 678.5 Q226 691 192.5 723 Q159 755 145.5 774 Q132 793 113 822.5 Q94 852 87 880.5 Q80 909 80 939 Q80 1037 124.5 1104 Q169 1171 249 1201 Q185 1261 150.5 1317.5 Q116 1374 116 1438 Q116 1573 198 1647.5 Q280 1722 417 1722 Q482 1722 535 1697 Q588 1672 624 1627.5 Q660 1583 684.5 1531.5 Q709 1480 724 1418 L591 1377 Q582 1433 562.5 1483 Q543 1533 502.5 1573.5 Q462 1614 410 1614 Q343 1614 303.5 1568.5 Q264 1523 264 1451 Q264 1410 290.5 1366.5 Q317 1323 345.5 1295 Q374 1267 428 1221 L523 1139 Q576 1093 610.5 1058 Q645 1023 683.5 974 Q722 925 742 871.5 Q762 818 763 761 Q763 674 726 609.5 Q689 545 623 510 Q724 393 727 262 Q727 128 642.5 50.5 Q558 -27 422 -27 Q290 -27 201.5 65.5 Q113 158 78 300 Z" /><glyph glyph-name="" unicode="¨" d="M497 1386 L497 1565 L681 1565 L681 1386 L497 1386 ZM113 1386 L113 1565 L297 1565 L297 1386 L113 1386 Z" /><glyph glyph-name="" unicode="©" d="M502 100 Q591 67 696 67 Q801 67 890 100 Q979 133 1041.5 189.5 Q1104 246 1148.5 321.5 Q1193 397 1214.5 482 Q1236 567 1236 657 Q1236 747 1214.5 832 Q1193 917 1148.5 992.5 Q1104 1068 1041.5 1124.5 Q979 1181 890 1214 Q801 1247 696 1247 Q591 1247 502 1214 Q413 1181 350.5 1124.5 Q288 1068 243.5 992.5 Q199 917 177.5 832 Q156 747 156 657 Q156 567 177.5 482 Q199 397 243.5 321.5 Q288 246 350.5 189.5 Q413 133 502 100 ZM921.5 35 Q818 -2 696 -2 Q574 -2 470.5 35 Q367 72 293.5 135 Q220 198 168 282.5 Q116 367 91 462 Q66 557 66 657 Q66 757 91 852 Q116 947 168 1031.5 Q220 1116 293.5 1179 Q367 1242 470.5 1279 Q574 1316 696 1316 Q818 1316 921.5 1279 Q1025 1242 1098.5 1179 Q1172 1116 1224 1031.5 Q1276 947 1301 852 Q1326 757 1326 657 Q1326 557 1301 462 Q1276 367 1224 282.5 Q1172 198 1098.5 135 Q1025 72 921.5 35 ZM830 505 L917 505 Q917 499 916.5 488.5 Q916 478 912 448.5 Q908 419 900.5 392.5 Q893 366 877 333.5 Q861 301 839 277.5 Q817 254 781.5 238 Q746 222 702 222 Q663 222 631 231 Q599 240 576 253.5 Q553 267 534.5 291 Q516 315 504 337.5 Q492 360 484 395.5 Q476 431 471.5 457.5 Q467 484 465 526.5 Q463 569 462.5 595.5 Q462 622 462 667 Q462 712 462.5 738.5 Q463 765 465 807.5 Q467 850 471.5 876.5 Q476 903 484 938.5 Q492 974 504 996.5 Q516 1019 534.5 1043 Q553 1067 576 1080.5 Q599 1094 631 1103 Q663 1112 702 1112 Q748 1112 784.5 1095.5 Q821 1079 843 1057 Q865 1035 880.5 1000.5 Q896 966 903 942.5 Q910 919 913.5 885.5 Q917 852 917 846.5 Q917 841 917 829 L830 829 Q829 876 823.5 909.5 Q818 943 805 975 Q792 1007 766 1023.5 Q740 1040 701 1040 Q667 1040 643.5 1032 Q620 1024 603.5 1003 Q587 982 577.5 956.5 Q568 931 563 884 Q558 837 556.5 790 Q555 743 555 667 Q555 591 556.5 544 Q558 497 563 450 Q568 403 577.5 377.5 Q587 352 603.5 331 Q620 310 643.5 302 Q667 294 701 294 Q740 294 766 310.5 Q792 327 805 359 Q818 391 823.5 424.5 Q829 458 830 505 Z" /><glyph glyph-name="" unicode="ª" d="M493 193 L493 524 Q417 475 376 445 Q335 415 294 376 Q253 337 236.5 298 Q220 259 220 212 Q220 145 250 113 Q280 81 321 81 Q368 81 416.5 112.5 Q465 144 493 193 ZM518 0 L502 120 Q462 50 403 13.5 Q344 -23 291 -23 Q214 -23 154 35.5 Q94 94 94 189 Q94 222 95.5 241.5 Q97 261 104.5 293 Q112 325 127 347 Q142 369 171 400 Q200 431 242 457.5 Q284 484 347.5 516 Q411 548 493 580 Q493 675 483.5 736 Q474 797 454.5 823.5 Q435 850 416.5 858 Q398 866 371 866 Q348 866 330.5 859.5 Q313 853 292.5 834.5 Q272 816 259 774 Q246 732 243 670 L113 670 Q123 801 190 875.5 Q257 950 366 950 Q427 950 473.5 930.5 Q520 911 547 880.5 Q574 850 591 807.5 Q608 765 614 725 Q620 685 620 639 L620 220 Q620 170 624 115 Q628 60 632 30 L635 0 L518 0 Z" /><glyph glyph-name="" unicode="«" d="M778 124 L390 576 L390 704 L778 1156 L778 956 L502 641 L778 324 L778 124 ZM466 124 L78 576 L78 704 L466 1156 L466 956 L190 641 L466 324 L466 124 Z" /><glyph glyph-name="" unicode="¬" d="M100 448 L100 563 L540 563 L540 256 L484 256 L484 448 L100 448 Z" /><glyph glyph-name="" unicode="­" d="M117 448 L117 563 L558 563 L558 448 L117 448 Z" /><glyph glyph-name="" unicode="®" d="M502 100 Q591 67 696 67 Q801 67 890 100 Q979 133 1041.5 189.5 Q1104 246 1148.5 321.5 Q1193 397 1214.5 482 Q1236 567 1236 657 Q1236 747 1214.5 832 Q1193 917 1148.5 992.5 Q1104 1068 1041.5 1124.5 Q979 1181 890 1214 Q801 1247 696 1247 Q591 1247 502 1214 Q413 1181 350.5 1124.5 Q288 1068 243.5 992.5 Q199 917 177.5 832 Q156 747 156 657 Q156 567 177.5 482 Q199 397 243.5 321.5 Q288 246 350.5 189.5 Q413 133 502 100 ZM921.5 35 Q818 -2 696 -2 Q574 -2 470.5 35 Q367 72 293.5 135 Q220 198 168 282.5 Q116 367 91 462 Q66 557 66 657 Q66 757 91 852 Q116 947 168 1031.5 Q220 1116 293.5 1179 Q367 1242 470.5 1279 Q574 1316 696 1316 Q818 1316 921.5 1279 Q1025 1242 1098.5 1179 Q1172 1116 1224 1031.5 Q1276 947 1301 852 Q1326 757 1326 657 Q1326 557 1301 462 Q1276 367 1224 282.5 Q1172 198 1098.5 135 Q1025 72 921.5 35 ZM576 695 L643 695 Q678 695 690 695 Q702 695 731.5 697.5 Q761 700 772 705 Q783 710 802.5 721 Q822 732 830 747.5 Q838 763 844.5 787 Q851 811 851 843 Q851 940 810 986 Q769 1032 682 1032 L576 1032 L576 695 ZM504 241 L504 1083 L695 1083 Q931 1083 931 843 Q931 773 884 720.5 Q837 668 783 657 Q797 628 937 244 L851 244 L718 646 L576 646 L576 241 L504 241 Z" /><glyph glyph-name="" unicode="¯" d="M131 1383 L131 1498 L572 1498 L572 1383 L131 1383 Z" /><glyph glyph-name="" unicode="°" d="M154 1657 Q210 1722 317 1722 Q424 1722 480 1657 Q536 1592 536 1504 Q536 1416 480 1351 Q424 1286 317 1286 Q210 1286 154 1351 Q98 1416 98 1504 Q98 1592 154 1657 ZM210 1607 Q176 1563 176 1504 Q176 1445 210 1401 Q244 1357 317 1357 Q390 1357 424 1401 Q458 1445 458 1504 Q458 1563 424 1607 Q390 1651 317 1651 Q244 1651 210 1607 Z" /><glyph glyph-name="" unicode="±" d="M298 384 L298 576 L106 576 L106 691 L298 691 L298 883 L418 883 L418 691 L610 691 L610 576 L418 576 L418 384 L298 384 ZM106 0 L106 115 L610 115 L610 0 L106 0 Z" /><glyph glyph-name="" unicode="²" d="M100 586 L100 686 L405 1145 Q522 1333 522 1423 Q522 1635 398 1635 Q350 1635 317.5 1614 Q285 1593 270 1553 Q255 1513 249.5 1471 Q244 1429 244 1371 L102 1371 Q102 1549 174 1646 Q246 1743 397 1743 Q530 1743 597 1658 Q664 1573 664 1424 Q664 1308 534 1106 L269 697 L650 697 L650 586 L100 586 Z" /><glyph glyph-name="" unicode="³" d="M104 955 L234 955 Q234 898 239.5 856 Q245 814 260 774 Q275 734 306 713.5 Q337 693 383 693 Q459 693 492 748.5 Q525 804 525 914 Q525 980 478.5 1056 Q432 1132 364 1146 L364 1230 Q442 1252 483.5 1307.5 Q525 1363 525 1425 Q525 1638 393 1638 Q353 1638 323.5 1623 Q294 1608 277 1584.5 Q260 1561 250 1525 Q240 1489 237 1454 Q234 1419 234 1374 L104 1374 Q104 1551 175 1647.5 Q246 1744 392 1744 Q520 1744 587.5 1656 Q655 1568 655 1436 Q655 1362 610 1291 Q565 1220 497 1188 Q563 1149 609 1066 Q655 983 655 913 Q655 764 586 675.5 Q517 587 382 587 Q241 587 172.5 683.5 Q104 780 104 955 Z" /><glyph glyph-name="" unicode="´" d="M96 1324 L219 1722 L381 1722 L152 1324 L96 1324 Z" /><glyph glyph-name="" unicode="¶" d="M389 0 L389 876 Q219 876 121 951.5 Q23 1027 23 1165 Q23 1304 116 1381.5 Q209 1459 394 1459 L831 1459 L831 0 L725 0 L725 876 L514 876 L514 0 L389 0 Z" /><glyph glyph-name="" unicode="·" d="M131 704 L131 883 L316 883 L316 704 L131 704 Z" /><glyph glyph-name="" unicode="¸" d="M111 -394 L111 -335 Q258 -335 258 -268 Q258 -237 229 -200.5 Q200 -164 155 -134 L155 0 L219 0 L219 -115 Q361 -198 361 -277 Q361 -329 294.5 -361.5 Q228 -394 111 -394 Z" /><glyph glyph-name="" unicode="¹" d="M243 588 L243 1497 Q201 1468 144 1442 Q87 1416 51 1408 L51 1533 Q111 1555 181 1603.5 Q251 1652 292 1721 L379 1721 L379 588 L243 588 Z" /><glyph glyph-name="" unicode="º" d="M111 1234 L111 1283 Q111 1332 111.5 1357 Q112 1382 114 1428.5 Q116 1475 120 1500.5 Q124 1526 132.5 1565 Q141 1604 153 1626 Q165 1648 184 1674 Q203 1700 227 1714 Q251 1728 284.5 1737.5 Q318 1747 358 1747 Q398 1747 431.5 1737.5 Q465 1728 489.5 1714 Q514 1700 532.5 1674 Q551 1648 563.5 1626 Q576 1604 584.5 1565 Q593 1526 597 1500.5 Q601 1475 603 1428.5 Q605 1382 605.5 1357 Q606 1332 606 1283 L606 1234 Q606 1167 605.5 1133 Q605 1099 600.5 1040.5 Q596 982 587 951 Q578 920 560 880 Q542 840 516 819.5 Q490 799 450 784.5 Q410 770 358 770 Q298 770 254 786 Q210 802 184 840 Q158 878 142 912 Q126 946 120 1011 Q114 1076 112.5 1116 Q111 1156 111 1234 ZM228 1283 L228 1234 Q228 1014 253.5 931.5 Q279 849 358 849 Q438 849 463.5 931.5 Q489 1014 489 1234 L489 1283 Q489 1372 486.5 1429.5 Q484 1487 476 1536.5 Q468 1586 453.5 1612.5 Q439 1639 415.5 1653.5 Q392 1668 358 1668 Q276 1668 252 1586 Q228 1504 228 1283 Z" /><glyph glyph-name="" unicode="»" d="M423 124 L423 324 L699 641 L423 956 L423 1156 L811 704 L811 576 L423 124 ZM111 124 L111 324 L387 641 L111 956 L111 1156 L499 704 L499 576 L111 124 Z" /><glyph glyph-name="" unicode="¼" d="M192 588 L192 1497 Q150 1468 93 1442 Q36 1416 0 1408 L0 1533 Q60 1555 130 1603.5 Q200 1652 241 1721 L328 1721 L328 588 L192 588 ZM348 0 L900 1721 L1045 1721 L492 0 L348 0 ZM1028 378 L1258 378 L1257 1016 L1028 378 ZM883 276 L883 371 L1184 1132 L1394 1132 L1394 378 L1528 378 L1528 276 L1394 276 L1394 -1 L1258 -1 L1258 276 L883 276 Z" /><glyph glyph-name="" unicode="½" d="M1126 -1 L1126 99 L1431 558 Q1548 746 1548 836 Q1548 1048 1424 1048 Q1376 1048 1343.5 1027 Q1311 1006 1296 966 Q1281 926 1275.5 884 Q1270 842 1270 784 L1128 784 Q1128 962 1200 1059 Q1272 1156 1423 1156 Q1556 1156 1623 1071 Q1690 986 1690 837 Q1690 721 1560 519 L1295 110 L1676 110 L1676 -1 L1126 -1 ZM468 0 L1020 1721 L1165 1721 L612 0 L468 0 ZM192 588 L192 1497 Q150 1468 93 1442 Q36 1416 0 1408 L0 1533 Q60 1555 130 1603.5 Q200 1652 241 1721 L328 1721 L328 588 L192 588 Z" /><glyph glyph-name="" unicode="¾" d="M1418 378 L1648 378 L1647 1016 L1418 378 ZM1273 276 L1273 371 L1574 1132 L1784 1132 L1784 378 L1918 378 L1918 276 L1784 276 L1784 -1 L1648 -1 L1648 276 L1273 276 ZM645 0 L1197 1721 L1342 1721 L789 0 L645 0 ZM59 955 L189 955 Q189 898 194.5 856 Q200 814 215 774 Q230 734 261 713.5 Q292 693 338 693 Q414 693 447 748.5 Q480 804 480 914 Q480 980 433.5 1056 Q387 1132 319 1146 L319 1230 Q397 1252 438.5 1307.5 Q480 1363 480 1425 Q480 1638 348 1638 Q308 1638 278.5 1623 Q249 1608 232 1584.5 Q215 1561 205 1525 Q195 1489 192 1454 Q189 1419 189 1374 L59 1374 Q59 1551 130 1647.5 Q201 1744 347 1744 Q475 1744 542.5 1656 Q610 1568 610 1436 Q610 1362 565 1291 Q520 1220 452 1188 Q518 1149 564 1066 Q610 983 610 913 Q610 764 541 675.5 Q472 587 337 587 Q196 587 127.5 683.5 Q59 780 59 955 Z" /><glyph glyph-name="" unicode="¿" d="M566 1378 L566 1198 L382 1198 L382 1378 L566 1378 ZM541 926 L541 586 Q468 543 408.5 497.5 Q349 452 309 411 Q269 370 239 327 Q209 284 192 248.5 Q175 213 165 176 Q155 139 152 113.5 Q149 88 149 62 Q149 -19 170 -80 Q191 -141 227.5 -176 Q264 -211 308 -228.5 Q352 -246 402 -246 Q520 -246 596 -166 Q672 -86 673 58 L674 200 L808 200 L808 54 Q808 -46 773 -127.5 Q738 -209 680.5 -260.5 Q623 -312 551 -340 Q479 -368 402 -368 Q342 -368 286 -351.5 Q230 -335 180 -300.5 Q130 -266 93 -216.5 Q56 -167 34 -96 Q12 -25 12 60 Q12 240 110.5 379.5 Q209 519 407 642 L407 926 L541 926 Z" /><glyph glyph-name="" unicode="æ" d="M365 549 L719 549 L719 1563 L365 549 ZM12 0 L648 1721 L1320 1721 L1320 1599 L872 1599 L872 947 L1192 947 L1192 832 L872 832 L872 122 L1320 122 L1320 0 L720 0 L720 448 L329 448 L164 0 L12 0 Z" /><glyph glyph-name="" unicode="ð" d="M335 122 L570 122 Q857 122 857 474 L857 1242 Q857 1599 570 1599 L335 1599 L335 924 L535 924 L535 830 L335 830 L335 122 ZM183 0 L183 830 L43 830 L43 924 L183 924 L183 1721 L570 1721 Q668 1721 744 1694.5 Q820 1668 869.5 1622.5 Q919 1577 950.5 1511 Q982 1445 995.5 1371 Q1009 1297 1009 1208 L1009 508 Q1009 0 570 0 L183 0 Z" /><glyph glyph-name="" unicode="×" d="M51 410 L243 602 L51 794 L127 869 L319 677 L511 869 L587 794 L395 602 Q562 434 587 410 L511 334 L319 526 L127 334 L51 410 Z" /><glyph glyph-name="" unicode="ø" d="M992 499 Q992 -27 553 -27 Q416 -27 320 25 L263 -152 L199 -132 L262 65 Q114 193 114 499 L114 1220 Q114 1311 127.5 1387 Q141 1463 173 1530.5 Q205 1598 254 1644.5 Q303 1691 379 1718 Q455 1745 553 1745 Q690 1745 785 1692 L842 1870 L907 1850 L843 1652 Q992 1522 992 1220 L992 499 ZM553 95 Q840 95 840 465 L840 1254 Q840 1405 793 1495 L363 159 Q433 95 553 95 ZM266 1254 L266 465 Q266 314 313 224 L742 1560 Q674 1623 553 1623 Q266 1623 266 1254 Z" /><glyph glyph-name="" unicode="þ" d="M298 628 L584 627 Q712 626 767 715 Q822 804 822 996 Q822 1174 763 1257 Q704 1340 584 1340 L298 1340 L298 628 ZM146 0 L146 1721 L298 1721 L298 1462 L567 1462 Q657 1462 727 1437.5 Q797 1413 843 1371 Q889 1329 919 1269 Q949 1209 961.5 1142.5 Q974 1076 974 999 Q974 920 963.5 853 Q953 786 924.5 720 Q896 654 851.5 608.5 Q807 563 734 534.5 Q661 506 566 506 L298 506 L298 0 L146 0 Z" /><glyph glyph-name="" unicode="ß" d="M137 0 L137 1338 Q137 1436 168.5 1515.5 Q200 1595 252.5 1644.5 Q305 1694 370.5 1720 Q436 1746 506 1746 Q575 1746 638.5 1719 Q702 1692 753.5 1641.5 Q805 1591 835.5 1510 Q866 1429 866 1328 Q866 1258 843 1187.5 Q820 1117 769.5 1056 Q719 995 650 967 Q724 950 781.5 907.5 Q839 865 872 812 Q905 759 926 692.5 Q947 626 954 569 Q961 512 961 453 Q961 -27 384 -27 L384 89 Q491 89 569.5 110 Q648 131 693 164 Q738 197 765 247 Q792 297 800.5 344.5 Q809 392 809 453 Q809 528 801 588 Q793 648 771 706 Q749 764 713.5 803 Q678 842 619 865.5 Q560 889 481 889 L376 889 L376 1006 L483 1006 Q544 1006 588.5 1032 Q633 1058 657 1104.5 Q681 1151 692 1205.5 Q703 1260 703 1325 Q703 1473 642.5 1555.5 Q582 1638 499 1638 Q414 1638 351.5 1558 Q289 1478 289 1335 L289 0 L137 0 Z" /><glyph glyph-name="" unicode="æ" d="M707 708 L707 704 Q787 720 844.5 744 Q902 768 933.5 793.5 Q965 819 983 852 Q1001 885 1005.5 911 Q1010 937 1010 970 Q1010 1035 979 1079.5 Q948 1124 893 1124 Q863 1124 838 1117 Q813 1110 795 1100 Q777 1090 763 1069 Q749 1048 739.5 1030.5 Q730 1013 723.5 979.5 Q717 946 714 923 Q711 900 709.5 856.5 Q708 813 707.5 786 Q707 759 707 708 ZM553 489 L553 586 Q358 516 291.5 452.5 Q225 389 225 267 Q225 184 255 140.5 Q285 97 328 97 Q386 97 432 142.5 Q478 188 503 254 Q528 320 540.5 382 Q553 444 553 489 ZM253 889 L97 889 Q109 1046 189.5 1135.5 Q270 1225 401 1225 Q566 1225 633 1072 Q715 1225 886 1225 Q996 1225 1070 1152 Q1144 1079 1144 958 Q1144 900 1120 850.5 Q1096 801 1057 767.5 Q1018 734 971.5 707 Q925 680 878.5 664 Q832 648 793 637.5 Q754 627 730 624 L706 620 L706 445 Q706 302 728 217.5 Q750 133 783.5 103.5 Q817 74 868 74 Q900 74 924.5 85 Q949 96 970.5 124.5 Q992 153 1004 208.5 Q1016 264 1018 346 L1018 367 L1158 367 L1156 345 Q1150 278 1140 227.5 Q1130 177 1109 127 Q1088 77 1058 45 Q1028 13 979 -7 Q930 -27 865 -27 Q759 -27 690 35 Q621 97 598 209 Q579 142 542.5 92.5 Q506 43 463 19 Q420 -5 382 -16 Q344 -27 311 -27 Q218 -27 146 46.5 Q74 120 74 239 Q74 271 75 290 Q76 309 80.5 339.5 Q85 370 93.5 389.5 Q102 409 118.5 437 Q135 465 159 485.5 Q183 506 219 532 Q255 558 302 580 Q349 602 412.5 626.5 Q476 651 553 675 L553 751 Q552 851 543.5 922 Q535 993 522 1031.5 Q509 1070 488 1091.5 Q467 1113 449.5 1118.5 Q432 1124 406 1124 Q380 1124 359 1117 Q338 1110 314.5 1089.5 Q291 1069 275 1023 Q259 977 254 908 Q254 905 253.5 898.5 Q253 892 253 889 Z" /><glyph glyph-name="" unicode="ð" d="M234 545 L234 531 Q234 367 255 269.5 Q276 172 314 133.5 Q352 95 412 95 Q453 95 480.5 103.5 Q508 112 534 139.5 Q560 167 575.5 216 Q591 265 600 348.5 Q609 432 609 551 Q609 702 594 931 Q571 952 513.5 964.5 Q456 977 402 977 Q346 977 310.5 939 Q275 901 255 804 Q235 707 234 545 ZM84 532 L84 537 Q84 661 102 760.5 Q120 860 157 937 Q194 1014 256 1056.5 Q318 1099 402 1099 Q517 1099 585 1054 Q559 1238 517 1358 L352 1321 L352 1416 L480 1445 Q430 1538 356.5 1575.5 Q283 1613 166 1623 L152 1745 Q319 1733 431.5 1670 Q544 1607 614 1475 L793 1516 L793 1421 L653 1389 Q757 1118 758 535 L758 510 Q758 246 676 109.5 Q594 -27 412 -27 Q325 -27 260.5 15 Q196 57 158 134 Q120 211 102 310 Q84 409 84 532 Z" /><glyph glyph-name="" unicode="÷" d="M227 233 L227 412 L411 412 L411 233 L227 233 ZM227 879 L227 1058 L411 1058 L411 879 L227 879 ZM35 576 L35 691 L603 691 L603 576 L35 576 Z" /><glyph glyph-name="" unicode="ø" d="M740 568 Q740 501 739.5 467 Q739 433 736.5 372.5 Q734 312 728.5 279 Q723 246 712 197 Q701 148 685.5 121 Q670 94 646 61.5 Q622 29 591 12.5 Q560 -4 517.5 -15.5 Q475 -27 423 -27 Q337 -27 274 3 L191 -256 L143 -240 L230 31 Q200 55 178 88.5 Q156 122 143 168 Q130 214 122 253 Q114 292 110.5 355.5 Q107 419 106.5 457 Q106 495 106 568 L106 630 Q106 710 107 752.5 Q108 795 113.5 868.5 Q119 942 130.5 983 Q142 1024 165 1077 Q188 1130 221.5 1157.5 Q255 1185 306 1205 Q357 1225 423 1225 Q529 1225 598 1178 L695 1481 L744 1465 L640 1140 Q676 1100 697.5 1044 Q719 988 727.5 909.5 Q736 831 738 778.5 Q740 726 740 630 L740 568 ZM423 74 Q524 74 557 180 Q590 286 590 568 L590 630 Q590 844 576 941 L314 127 Q350 74 423 74 ZM256 630 L256 568 Q256 299 284 198 L552 1036 Q517 1124 423 1124 Q386 1124 359.5 1112.5 Q333 1101 314 1073.5 Q295 1046 284 1010.5 Q273 975 266.5 914.5 Q260 854 258 790 Q256 726 256 630 Z" /><glyph glyph-name="" unicode="þ" d="M615 545 L615 640 Q615 750 610 832 Q605 914 593.5 964.5 Q582 1015 570.5 1046.5 Q559 1078 540.5 1092 Q522 1106 507.5 1110 Q493 1114 471 1114 Q377 1114 270 995 L270 205 Q315 151 368 117.5 Q421 84 466 84 Q486 84 498.5 86 Q511 88 528.5 97 Q546 106 557 124 Q568 142 580 175.5 Q592 209 599 257 Q606 305 610.5 378 Q615 451 615 545 ZM120 -385 L120 1721 L270 1721 L270 1085 Q317 1154 377.5 1189.5 Q438 1225 501 1225 Q544 1225 576 1216.5 Q608 1208 646 1173.5 Q684 1139 708 1079 Q732 1019 748.5 907.5 Q765 796 765 641 L765 546 Q765 438 756.5 351 Q748 264 734.5 205.5 Q721 147 700 103.5 Q679 60 658 35.5 Q637 11 610 -3.5 Q583 -18 561 -22.5 Q539 -27 512 -27 Q360 -27 270 113 L270 -385 L120 -385 Z" /><glyph glyph-name="" unicode="&#x110;" d="M335 122 L570 122 Q857 122 857 474 L857 1242 Q857 1599 570 1599 L335 1599 L335 924 L535 924 L535 830 L335 830 L335 122 ZM183 0 L183 830 L43 830 L43 924 L183 924 L183 1721 L570 1721 Q668 1721 744 1694.5 Q820 1668 869.5 1622.5 Q919 1577 950.5 1511 Q982 1445 995.5 1371 Q1009 1297 1009 1208 L1009 508 Q1009 0 570 0 L183 0 Z" /><glyph glyph-name="" unicode="&#x111;" d="M418 1399 L418 1484 L596 1484 L596 1721 L746 1721 L746 1484 L860 1484 L860 1399 L746 1399 L746 0 L596 0 L596 113 Q506 -27 354 -27 Q327 -27 305 -22.5 Q283 -18 256 -3.5 Q229 11 208 35.5 Q187 60 166 103.5 Q145 147 131.5 205.5 Q118 264 109.5 351 Q101 438 101 546 L101 641 Q101 796 117.5 907.5 Q134 1019 158 1079 Q182 1139 220 1173.5 Q258 1208 290 1216.5 Q322 1225 365 1225 Q428 1225 488.5 1189.5 Q549 1154 596 1085 L596 1399 L418 1399 ZM596 205 L596 995 Q489 1114 395 1114 Q373 1114 358.5 1110 Q344 1106 325.5 1092 Q307 1078 295.5 1046.5 Q284 1015 272.5 964.5 Q261 914 256 832 Q251 750 251 640 L251 545 Q251 451 255.5 378 Q260 305 267 257 Q274 209 286 175.5 Q298 142 309 124 Q320 106 337.5 97 Q355 88 367.5 86 Q380 84 400 84 Q445 84 498 117.5 Q551 151 596 205 Z" /><glyph glyph-name="" unicode="&#x123;" d="M501 1727 L528 1672 Q496 1660 473 1634 Q450 1608 440 1576 Q430 1544 426 1518.5 Q422 1493 422 1471 L550 1471 L550 1292 L365 1292 Q365 1300 365 1315 Q365 1369 365.5 1395.5 Q366 1422 367 1468.5 Q368 1515 372 1538.5 Q376 1562 382 1596.5 Q388 1631 398 1649 Q408 1667 422 1686.5 Q436 1706 456 1715 Q476 1724 501 1727 ZM340.5 491 Q378 468 428 468 Q478 468 515 491 Q552 514 572 547 Q592 580 604 625 Q616 670 619.5 705 Q623 740 623 776 Q623 811 620 846.5 Q617 882 604.5 930.5 Q592 979 572.5 1015 Q553 1051 515.5 1077 Q478 1103 428 1103 Q386 1103 352.5 1085.5 Q319 1068 298.5 1038 Q278 1008 264 974.5 Q250 941 243.5 901.5 Q237 862 234.5 833 Q232 804 232 776 Q232 739 235 704.5 Q238 670 250.5 624.5 Q263 579 283 546.5 Q303 514 340.5 491 ZM524 3 L310 49 Q260 12 209.5 -63 Q159 -138 159 -191 Q159 -214 169.5 -231 Q180 -248 202.5 -258 Q225 -268 244.5 -274 Q264 -280 299 -282.5 Q334 -285 352 -285.5 Q370 -286 405 -286 Q414 -286 418 -286 Q683 -286 683 -157 Q683 -86 646 -49.5 Q609 -13 524 3 ZM214 210 Q209 187 241 176 Q273 165 405 138 Q446 130 469 125 Q551 108 610 88.5 Q669 69 720.5 39.5 Q772 10 798 -32.5 Q824 -75 824 -130 Q824 -180 807.5 -220.5 Q791 -261 765 -288 Q739 -315 701.5 -335 Q664 -355 628 -366 Q592 -377 549.5 -383.5 Q507 -390 477 -391.5 Q447 -393 416 -393 Q17 -393 17 -236 Q17 -135 82 -57 Q147 21 241 69 Q226 72 192.5 81.5 Q159 91 117.5 111 Q76 131 76 150 Q76 163 79.5 178.5 Q83 194 90.5 211.5 Q98 229 106 245.5 Q114 262 126 281.5 Q138 301 147 315.5 Q156 330 169 349 Q182 368 189 377 Q196 386 207 401 Q218 416 219 418 Q148 482 113.5 583 Q79 684 79 793 Q79 851 90 909 Q101 967 127.5 1024.5 Q154 1082 192.5 1126 Q231 1170 290.5 1197 Q350 1224 423 1224 Q519 1224 582.5 1177.5 Q646 1131 706 1038 Q725 1071 739.5 1093 Q754 1115 778 1145 Q802 1175 830 1194.5 Q858 1214 888 1221 L888 1076 Q850 1069 809 1042.5 Q768 1016 737 981 Q775 875 775 800 Q775 728 763 664 Q751 600 724.5 543.5 Q698 487 658 446 Q618 405 559 381.5 Q500 358 427 358 Q341 358 283 382 Q228 278 214 210 Z" /><glyph glyph-name="" unicode="&#x126;" d="M292 942 L822 942 L822 1331 L292 1331 L292 942 ZM140 0 L140 1331 L100 1331 L100 1425 L140 1425 L140 1721 L292 1721 L292 1425 L822 1425 L822 1721 L974 1721 L974 1425 L1014 1425 L1014 1331 L974 1331 L974 0 L822 0 L822 836 L292 836 L292 0 L140 0 Z" /><glyph glyph-name="" unicode="&#x127;" d="M154 0 L154 1403 L31 1403 L31 1498 L154 1498 L154 1721 L304 1721 L304 1498 L472 1498 L472 1403 L304 1403 L304 1085 Q350 1156 414.5 1190.5 Q479 1225 548 1225 Q641 1225 711.5 1151 Q782 1077 782 942 L782 0 L630 0 L630 934 Q630 1012 593.5 1050 Q557 1088 509 1088 Q461 1088 406 1061.5 Q351 1035 305 992 L305 0 L154 0 Z" /><glyph glyph-name="" unicode="&#x131;" d="M132 0 L132 1198 L282 1198 L282 0 L132 0 Z" /><glyph glyph-name="" unicode="&#x138;" d="M120 0 L120 1198 L270 1198 L270 600 L644 1198 L815 1198 L520 717 L816 0 L654 0 L411 619 L270 420 L270 0 L120 0 Z" /><glyph glyph-name="" unicode="&#x141;" d="M183 0 L183 859 L43 806 L43 921 L183 974 L183 1721 L335 1721 L335 1031 L586 1127 L586 1012 L335 916 L335 122 L816 122 L816 0 L183 0 Z" /><glyph glyph-name="" unicode="&#x142;" d="M183 0 L183 873 L43 806 L43 921 L183 988 L183 1721 L333 1721 L333 1061 L469 1127 L469 1012 L333 946 L333 0 L183 0 Z" /><glyph glyph-name="" unicode="&#x152;" d="M554 121 L841 121 L841 1599 L554 1599 Q473 1599 415.5 1573 Q358 1547 326.5 1498 Q295 1449 281 1389.5 Q267 1330 267 1254 L267 465 Q267 124 554 121 ZM115 499 L115 1220 Q115 1721 554 1721 L1441 1721 L1441 1599 L993 1599 L993 947 L1313 947 L1313 832 L993 832 L993 122 L1441 122 L1441 0 L554 0 Q115 0 115 499 Z" /><glyph glyph-name="" unicode="&#x153;" d="M744 702 L1076 702 Q1076 720 1076 758 Q1076 792 1075.5 810 Q1075 828 1074.5 861 Q1074 894 1072 912.5 Q1070 931 1066.5 960 Q1063 989 1057.5 1005.5 Q1052 1022 1044.5 1043.5 Q1037 1065 1026 1077.5 Q1015 1090 1001.5 1102 Q988 1114 969.5 1119 Q951 1124 930 1124 Q900 1124 875.5 1117.5 Q851 1111 833 1101.5 Q815 1092 801 1072.5 Q787 1053 777.5 1035.5 Q768 1018 761.5 986.5 Q755 955 751.5 930 Q748 905 746.5 861.5 Q745 818 744.5 787 Q744 756 744 702 ZM258 630 L258 568 Q258 286 291 180 Q324 74 425 74 Q526 74 559 180 Q592 286 592 568 L592 630 Q592 725 590 790 Q588 855 581.5 914.5 Q575 974 563.5 1010 Q552 1046 533.5 1073.5 Q515 1101 488.5 1112.5 Q462 1124 425 1124 Q388 1124 361.5 1112.5 Q335 1101 316 1073.5 Q297 1046 286 1010.5 Q275 975 268.5 914.5 Q262 854 260 790 Q258 726 258 630 ZM108 568 L108 630 Q108 710 109 752.5 Q110 795 115.5 868.5 Q121 942 132.5 983 Q144 1024 167 1077 Q190 1130 223.5 1157.5 Q257 1185 308 1205 Q359 1225 425 1225 Q593 1225 668 1104 Q710 1172 773 1198.5 Q836 1225 923 1225 Q1084 1225 1154.5 1111 Q1225 997 1225 751 Q1225 676 1223 628 L743 628 L743 445 Q743 327 754.5 251.5 Q766 176 791 138 Q816 100 846 87 Q876 74 922 74 Q988 74 1033.5 142.5 Q1079 211 1081 367 L1220 367 Q1214 300 1204 247 Q1194 194 1172.5 140.5 Q1151 87 1119.5 52 Q1088 17 1038.5 -5 Q989 -27 924 -27 Q831 -27 769 -0.5 Q707 26 668 87 Q593 -27 425 -27 Q373 -27 330.5 -15.5 Q288 -4 257 12.5 Q226 29 202 61.5 Q178 94 162.5 121 Q147 148 136 197 Q125 246 119.5 279 Q114 312 111.5 372.5 Q109 433 108.5 467 Q108 501 108 568 Z" /><glyph glyph-name="" unicode="&#x192;" d="M-41 -381 L-41 -272 Q-17 -278 33 -278 Q66 -278 89 -268 Q112 -258 123.5 -246 Q135 -234 141 -210 Q147 -186 147.5 -171 Q148 -156 148 -128 Q148 -123 148 -120 L148 1367 Q148 1408 150.5 1439.5 Q153 1471 165.5 1513.5 Q178 1556 200 1584 Q222 1612 264 1632 Q306 1652 365 1652 Q434 1652 487 1639 L487 1530 Q463 1536 413 1536 Q380 1536 357 1526 Q334 1516 322.5 1504 Q311 1492 305 1468 Q299 1444 298.5 1429 Q298 1414 298 1386 Q298 1381 298 1378 L298 -110 Q298 -151 295.5 -182 Q293 -213 280.5 -256 Q268 -299 246 -326.5 Q224 -354 182 -374 Q140 -394 81 -394 Q12 -394 -41 -381 Z" /><glyph glyph-name="" unicode="&#x237;" d="M-72 -312 L-72 -204 Q-26 -206 -16 -206 Q17 -206 41.5 -197 Q66 -188 80 -170.5 Q94 -153 103 -136 Q112 -119 115 -93.5 Q118 -68 119 -54 Q120 -40 120 -18 L120 1198 L270 1198 L270 -46 Q270 -320 9 -320 Q-31 -320 -72 -312 Z" /><glyph glyph-name="" unicode="&#x2c6;" d="M94 1408 L250 1715 L463 1715 L616 1408 L506 1408 L356 1707 L207 1408 L94 1408 Z" /><glyph glyph-name="" unicode="&#x2c7;" d="M283 1324 L74 1671 L216 1671 L311 1434 L406 1671 L548 1671 L339 1324 L283 1324 Z" /><glyph glyph-name="" unicode="&#x2d8;" d="M92 1581 L203 1581 Q217 1487 259.5 1454.5 Q302 1422 368 1422 Q434 1422 476.5 1454.5 Q519 1487 533 1581 L644 1581 Q641 1504 613.5 1448.5 Q586 1393 543 1365 Q500 1337 457 1325 Q414 1313 368 1313 Q322 1313 279 1325 Q236 1337 193 1365 Q150 1393 122.5 1448.5 Q95 1504 92 1581 Z" /><glyph glyph-name="" unicode="&#x2d9;" d="M113 1380 L113 1559 L297 1559 L297 1380 L113 1380 Z" /><glyph glyph-name="" unicode="&#x2da;" d="M154 1657 Q210 1722 317 1722 Q424 1722 480 1657 Q536 1592 536 1504 Q536 1416 480 1351 Q424 1286 317 1286 Q210 1286 154 1351 Q98 1416 98 1504 Q98 1592 154 1657 ZM210 1607 Q176 1563 176 1504 Q176 1445 210 1401 Q244 1357 317 1357 Q390 1357 424 1401 Q458 1445 458 1504 Q458 1563 424 1607 Q390 1651 317 1651 Q244 1651 210 1607 Z" /><glyph glyph-name="" unicode="&#x2db;" d="M378 -288 L378 -358 Q317 -358 278 -355.5 Q239 -353 201.5 -345 Q164 -337 143.5 -322 Q123 -307 110.5 -281.5 Q98 -256 98 -219 Q98 -150 152.5 -86.5 Q207 -23 253 0 L322 0 Q261 -55 226 -105.5 Q191 -156 191 -210 Q191 -222 192.5 -231.5 Q194 -241 199 -248.5 Q204 -256 208 -261.5 Q212 -267 221.5 -271 Q231 -275 237.5 -278 Q244 -281 259 -283 Q274 -285 283 -286 Q292 -287 311.5 -287.5 Q331 -288 342.5 -288 Q354 -288 378 -288 Z" /><glyph glyph-name="" unicode="&#x2dc;" d="M217 1376 L102 1376 Q103 1395 105.5 1413 Q108 1431 120 1460.5 Q132 1490 150.5 1510.5 Q169 1531 205 1547 Q241 1563 289 1563 Q317 1563 383.5 1525 Q450 1487 474 1487 Q503 1487 519 1501.5 Q535 1516 540 1554 L656 1554 L655 1540 Q654 1527 650.5 1511.5 Q647 1496 640.5 1475 Q634 1454 620.5 1435.5 Q607 1417 588.5 1400.5 Q570 1384 540 1374 Q510 1364 472 1364 Q434 1364 368.5 1403 Q303 1442 279 1442 Q251 1442 236.5 1428 Q222 1414 217 1376 Z" /><glyph glyph-name="" unicode="&#x2dd;" d="M331 1408 L437 1721 L597 1721 L390 1408 L331 1408 ZM100 1408 L206 1721 L366 1721 L159 1408 L100 1408 Z" /><glyph glyph-name="" unicode="&#x30f;" d="M275 1408 L68 1721 L228 1721 L334 1408 L275 1408 ZM506 1408 L299 1721 L459 1721 L565 1408 L506 1408 Z" /><glyph glyph-name="" unicode="&#x311;" d="M201 1313 L90 1313 Q93 1390 120.5 1445.5 Q148 1501 191 1529 Q234 1557 277 1569 Q320 1581 366 1581 Q412 1581 455 1569 Q498 1557 541 1529 Q584 1501 611.5 1445.5 Q639 1390 642 1313 L531 1313 Q517 1407 474.5 1439.5 Q432 1472 366 1472 Q300 1472 257.5 1439.5 Q215 1407 201 1313 Z" /><glyph glyph-name="" unicode="&#x326;" d="M205 -522 L178 -467 Q210 -455 233 -429 Q256 -403 266 -371 Q276 -339 280 -313.5 Q284 -288 284 -266 L156 -266 L156 -87 L341 -87 Q341 -95 341 -111 Q341 -153 341 -174 Q341 -195 340 -232.5 Q339 -270 337.5 -289.5 Q336 -309 333 -339.5 Q330 -370 325.5 -387 Q321 -404 314.5 -426.5 Q308 -449 298.5 -462 Q289 -475 277 -488.5 Q265 -502 250 -509.5 Q235 -517 216 -520 Q208 -522 205 -522 Z" /><glyph glyph-name="" unicode="&#x2013;" d="M117 448 L117 563 L691 563 L691 448 L117 448 Z" /><glyph glyph-name="" unicode="&#x2014;" d="M117 448 L117 563 L1091 563 L1091 448 L117 448 Z" /><glyph glyph-name="" unicode="&#x2018;" d="M296 1311 L111 1311 Q111 1554 136 1644.5 Q161 1735 247 1746 L274 1691 Q239 1680 215.5 1652.5 Q192 1625 183 1590.5 Q174 1556 171 1534 Q168 1512 168 1490 L296 1490 L296 1311 Z" /><glyph glyph-name="" unicode="&#x2019;" d="M149 1286 L122 1341 Q157 1352 180.5 1379.5 Q204 1407 213 1441.5 Q222 1476 225 1498 Q228 1520 228 1542 L100 1542 L100 1721 L285 1721 Q285 1478 260 1387.5 Q235 1297 149 1286 Z" /><glyph glyph-name="" unicode="&#x201a;" d="M173 -321 L123 -14 L291 -14 Q279 -88 266.5 -165 Q254 -242 241 -321 L173 -321 Z" /><glyph glyph-name="" unicode="&#x201c;" d="M590 1311 L405 1311 Q405 1554 430 1644.5 Q455 1735 541 1746 L568 1691 Q533 1680 509.5 1652.5 Q486 1625 477 1590.5 Q468 1556 465 1534 Q462 1512 462 1490 L590 1490 L590 1311 ZM296 1311 L111 1311 Q111 1554 136 1644.5 Q161 1735 247 1746 L274 1691 Q239 1680 215.5 1652.5 Q192 1625 183 1590.5 Q174 1556 171 1534 Q168 1512 168 1490 L296 1490 L296 1311 Z" /><glyph glyph-name="" unicode="&#x201d;" d="M443 1286 L416 1341 Q451 1352 474.5 1379.5 Q498 1407 507 1441.5 Q516 1476 519 1498 Q522 1520 522 1542 L394 1542 L394 1721 L579 1721 Q579 1478 554 1387.5 Q529 1297 443 1286 ZM149 1286 L122 1341 Q157 1352 180.5 1379.5 Q204 1407 213 1441.5 Q222 1476 225 1498 Q228 1520 228 1542 L100 1542 L100 1721 L285 1721 Q285 1478 260 1387.5 Q235 1297 149 1286 Z" /><glyph glyph-name="" unicode="&#x201e;" d="M497 -320 L446 -13 L614 -13 Q602 -87 589.5 -164 Q577 -241 564 -320 L497 -320 ZM174 -320 L123 -13 L291 -13 Q279 -87 266.5 -164 Q254 -241 241 -320 L174 -320 Z" /><glyph glyph-name="" unicode="&#x2020;" d="M244 0 L244 1034 L18 1034 L18 1117 L244 1117 L244 1459 L362 1459 L362 1117 L586 1117 L586 1034 L362 1034 L362 0 L244 0 Z" /><glyph glyph-name="" unicode="&#x2021;" d="M244 0 L244 448 L18 448 L18 537 L244 537 L244 1114 L18 1114 L18 1197 L244 1197 L244 1459 L362 1459 L362 1197 L586 1197 L586 1114 L362 1114 L362 537 L586 537 L586 448 L362 448 L362 0 L244 0 Z" /><glyph glyph-name="" unicode="&#x2022;" d="M104 767 Q104 848 154 898.5 Q204 949 286 949 Q371 949 420 901 Q469 853 469 767 Q469 683 420 635.5 Q371 588 286 588 Q203 588 153.5 635.5 Q104 683 104 767 Z" /><glyph glyph-name="" unicode="&#x2039;" d="M466 124 L78 576 L78 704 L466 1156 L466 956 L190 641 L466 324 L466 124 Z" /><glyph glyph-name="" unicode="&#x203a;" d="M78 124 L78 324 L354 641 L78 956 L78 1156 L466 704 L466 576 L78 124 Z" /><glyph glyph-name="" unicode="&#x2044;" d="M-29 0 L523 1721 L668 1721 L115 0 L-29 0 Z" /><glyph glyph-name="" unicode="&#x2074;" d="M184 968 L414 968 L413 1606 L184 968 ZM39 866 L39 961 L340 1722 L550 1722 L550 968 L684 968 L684 866 L550 866 L550 589 L414 589 L414 866 L39 866 Z" /><glyph glyph-name="" unicode="&#x20ac;" d="M163 499 L163 695 L41 695 L41 784 L163 784 L163 916 L41 916 L41 1005 L163 1005 L163 1220 Q163 1745 600 1745 Q1004 1745 1004 1220 L1004 1150 L859 1150 L859 1254 Q859 1337 846.5 1401 Q834 1465 805 1516.5 Q776 1568 724.5 1595.5 Q673 1623 600 1623 Q519 1623 461.5 1595.5 Q404 1568 373 1516.5 Q342 1465 328.5 1401 Q315 1337 315 1254 L315 1005 L583 1005 L583 916 L315 916 L315 784 L583 784 L583 695 L315 695 L315 465 Q315 382 328.5 318 Q342 254 373 202 Q404 150 461.5 122.5 Q519 95 600 95 Q673 95 724.5 122.5 Q776 150 805 202 Q834 254 846.5 318 Q859 382 859 465 L859 583 L1004 583 L1004 499 Q1004 408 993 333 Q982 258 953.5 189.5 Q925 121 880 74.5 Q835 28 764 0.5 Q693 -27 600 -27 Q500 -27 423.5 0.5 Q347 28 298 74.5 Q249 121 218.5 189.5 Q188 258 175.5 333 Q163 408 163 499 Z" /><glyph glyph-name="" unicode="&#x2122;" d="M646 686 L646 1441 L809 1441 L957 902 L1120 1441 L1270 1441 L1270 686 L1181 686 L1181 1410 L980 686 L933 686 L733 1400 L733 686 L646 686 ZM220 686 L220 1364 L57 1364 L57 1441 L483 1441 L483 1364 L319 1364 L319 686 L220 686 Z" /><glyph glyph-name="" unicode="&#x220f;" d="M152 0 L152 1715 L1040 1715 L1040 0 L856 0 L856 1600 L336 1600 L336 0 L152 0 Z" /><glyph glyph-name="" unicode="&#x2212;" d="M106 461 L106 576 L610 576 L610 461 L106 461 Z" /><glyph glyph-name="" unicode="&#x222b;" d="M-41 -381 L-41 -272 Q-17 -278 33 -278 Q66 -278 89 -268 Q112 -258 123.5 -246 Q135 -234 141 -210 Q147 -186 147.5 -171 Q148 -156 148 -128 Q148 -123 148 -120 L148 1114 L10 1114 L10 1198 L148 1198 L148 1367 Q148 1408 150.5 1439.5 Q153 1471 165.5 1513.5 Q178 1556 200 1584 Q222 1612 264 1632 Q306 1652 365 1652 Q434 1652 487 1639 L487 1530 Q463 1536 413 1536 Q380 1536 357 1526 Q334 1516 322.5 1504 Q311 1492 305 1468 Q299 1444 298.5 1429 Q298 1414 298 1386 Q298 1381 298 1378 L298 1198 L519 1198 L519 1114 L298 1114 L298 -110 Q298 -151 295.5 -182 Q293 -213 280.5 -256 Q268 -299 246 -326.5 Q224 -354 182 -374 Q140 -394 81 -394 Q12 -394 -41 -381 Z" /><glyph glyph-name="" unicode="&#xfb00;" d="M177 0 L177 1114 L10 1114 L10 1198 L177 1198 L177 1327 Q177 1333 177 1345 Q177 1377 177 1396 Q177 1415 181 1451 Q185 1487 192.5 1510.5 Q200 1534 216 1563.5 Q232 1593 254.5 1610.5 Q277 1628 313 1640 Q349 1652 394 1652 Q463 1652 516 1639 L516 1530 Q492 1536 442 1536 Q409 1536 386 1526 Q363 1516 351.5 1504 Q340 1492 334 1468 Q328 1444 327.5 1429 Q327 1414 327 1386 Q327 1381 327 1378 L327 1198 L674 1198 L674 1327 Q674 1333 674 1345 Q674 1377 674 1396 Q674 1415 678 1451 Q682 1487 689.5 1510.5 Q697 1534 713 1563.5 Q729 1593 751.5 1610.5 Q774 1628 810 1640 Q846 1652 891 1652 Q960 1652 1013 1639 L1013 1530 Q989 1536 939 1536 Q906 1536 883 1526 Q860 1516 848.5 1504 Q837 1492 831 1468 Q825 1444 824.5 1429 Q824 1414 824 1386 Q824 1381 824 1378 L824 1198 L1016 1198 L1016 1114 L824 1114 L824 0 L674 0 L674 1114 L327 1114 L327 0 L177 0 Z" /><glyph glyph-name="" unicode="&#xfb01;" d="M669 1472 L669 1651 L819 1651 L819 1472 L669 1472 ZM177 0 L177 1114 L10 1114 L10 1198 L177 1198 L177 1327 Q177 1333 177 1345 Q177 1377 177 1396 Q177 1415 181 1451 Q185 1487 192.5 1510.5 Q200 1534 216 1563.5 Q232 1593 254.5 1610.5 Q277 1628 313 1640 Q349 1652 394 1652 Q463 1652 516 1639 L516 1530 Q492 1536 442 1536 Q409 1536 386 1526 Q363 1516 351.5 1504 Q340 1492 334 1468 Q328 1444 327.5 1429 Q327 1414 327 1386 Q327 1381 327 1378 L327 1198 L819 1198 L819 0 L669 0 L669 1114 L327 1114 L327 0 L177 0 Z" /><glyph glyph-name="" unicode="&#xfb02;" d="M177 0 L177 1114 L10 1114 L10 1198 L177 1198 L177 1367 Q177 1455 199 1512.5 Q221 1570 268.5 1600.5 Q316 1631 376 1642 Q436 1653 526 1653 Q612 1653 689.5 1640.5 Q767 1628 802 1616 L837 1603 L837 0 L687 0 L687 1532 Q558 1542 515 1542 Q410 1542 368.5 1509.5 Q327 1477 327 1378 L327 1198 L519 1198 L519 1114 L327 1114 L327 0 L177 0 Z" /><glyph glyph-name="" unicode="&#xfb03;" d="M1166 1472 L1166 1651 L1316 1651 L1316 1472 L1166 1472 ZM177 0 L177 1114 L10 1114 L10 1198 L177 1198 L177 1327 Q177 1333 177 1345 Q177 1377 177 1396 Q177 1415 181 1451 Q185 1487 192.5 1510.5 Q200 1534 216 1563.5 Q232 1593 254.5 1610.5 Q277 1628 313 1640 Q349 1652 394 1652 Q463 1652 516 1639 L516 1530 Q492 1536 442 1536 Q409 1536 386 1526 Q363 1516 351.5 1504 Q340 1492 334 1468 Q328 1444 327.5 1429 Q327 1414 327 1386 Q327 1381 327 1378 L327 1198 L674 1198 L674 1327 Q674 1333 674 1345 Q674 1377 674 1396 Q674 1415 678 1451 Q682 1487 689.5 1510.5 Q697 1534 713 1563.5 Q729 1593 751.5 1610.5 Q774 1628 810 1640 Q846 1652 891 1652 Q960 1652 1013 1639 L1013 1530 Q989 1536 939 1536 Q906 1536 883 1526 Q860 1516 848.5 1504 Q837 1492 831 1468 Q825 1444 824.5 1429 Q824 1414 824 1386 Q824 1381 824 1378 L824 1198 L1316 1198 L1316 0 L1166 0 L1166 1114 L824 1114 L824 0 L674 0 L674 1114 L327 1114 L327 0 L177 0 Z" /><glyph glyph-name="" unicode="&#xfb04;" d="M177 0 L177 1114 L10 1114 L10 1198 L177 1198 L177 1327 Q177 1333 177 1345 Q177 1377 177 1396 Q177 1415 181 1451 Q185 1487 192.5 1510.5 Q200 1534 216 1563.5 Q232 1593 254.5 1610.5 Q277 1628 313 1640 Q349 1652 394 1652 Q463 1652 516 1639 L516 1530 Q492 1536 442 1536 Q409 1536 386 1526 Q363 1516 351.5 1504 Q340 1492 334 1468 Q328 1444 327.5 1429 Q327 1414 327 1386 Q327 1381 327 1378 L327 1198 L674 1198 L674 1367 Q674 1455 696 1512.5 Q718 1570 765.5 1600.5 Q813 1631 873 1642 Q933 1653 1023 1653 Q1109 1653 1186.5 1640.5 Q1264 1628 1299 1616 L1334 1603 L1334 0 L1184 0 L1184 1532 Q1055 1542 1012 1542 Q907 1542 865.5 1509.5 Q824 1477 824 1378 L824 1198 L1073 1198 L1073 1114 L824 1114 L824 0 L674 0 L674 1114 L327 1114 L327 0 L177 0 Z" /></font>
</defs>
</svg>
