<?xml version="1.0" standalone="no"?><!DOCTYPE svg PUBLIC "-//W3C//DTD SVG 1.1//EN" "http://www.w3.org/Graphics/SVG/1.1/DTD/svg11.dtd" ><svg xmlns="http://www.w3.org/2000/svg"><metadata></metadata><defs><font id="DaltonMaagLtd: Ubuntu Light 0.80" horiz-adv-x="3511"><font-face font-family="Ubuntu Light" font-weight="300" font-stretch="normal" units-per-em="1000" panose-1="2 11 3 4 3 6 2 3 2 4" ascent="932" descent="-189" x-height="4" bbox="-157 -196 3521 958" underline-thickness="56" underline-position="-105" unicode-range="U+0000-fb04" /><missing-glyph horiz-adv-x="500" d="M50 0 L50 750 L450 750 L450 0 L50 0 ZM400 50 L400 700 L100 700 L100 50 L400 50 Z" /><glyph glyph-name=".null" unicode="" d="" /><glyph glyph-name="nonmarkingreturn" unicode="" d="" /><glyph glyph-name="space" unicode=" " d="" /><glyph glyph-name="exclam" unicode="!" d="M172 500 Q172 457 170.5 419.5 Q169 382 166 347 Q163 312 159.5 279 Q156 246 152 213 L122 213 Q113 280 107.5 347 Q102 414 102 500 L102 693 L172 693 L172 500 ZM192 43 Q192 20 177.5 4 Q163 -12 137 -12 Q111 -12 96.5 4 Q82 20 82 43 Q82 66 96.5 82 Q111 98 137 98 Q163 98 177.5 82 Q192 66 192 43 Z" /><glyph glyph-name="numbersign" unicode="#" d="M264 503 L449 503 L485 693 L546 693 L510 503 L606 503 L606 450 L499 450 L460 243 L606 243 L606 189 L450 189 L413 0 L352 0 L389 189 L204 189 L167 0 L106 0 L143 189 L47 189 L47 243 L153 243 L192 450 L47 450 L47 503 L203 503 L239 693 L300 693 L264 503 ZM214 243 L399 243 L439 450 L254 450 L214 243 Z" /><glyph glyph-name="dollar" unicode="$" d="M314 -109 L255 -109 L255 20 Q187 21 142 34.5 Q97 48 75 61 L94 117 Q107 110 123 103 Q139 96 160 90 Q181 84 208.5 80.5 Q236 77 273 77 Q312 77 339.5 85 Q367 93 384.5 106.5 Q402 120 409.5 139 Q417 158 417 179 Q417 212 404.5 234 Q392 256 369.5 272.5 Q347 289 315 301.5 Q283 314 245 328 Q218 338 190 350.5 Q162 363 139.5 381.5 Q117 400 103 426.5 Q89 453 89 490 Q89 564 129.5 604.5 Q170 645 255 657 L255 776 L314 776 L314 660 Q361 659 396.5 650.5 Q432 642 456 632 L439 577 Q422 584 389 593.5 Q356 603 300 603 Q158 603 158 500 Q158 472 168 453.5 Q178 435 197 421 Q216 407 243 396 Q270 385 303 373 Q339 359 372.5 344.5 Q406 330 431.5 309 Q457 288 472 258 Q487 228 487 185 Q487 115 441 72 Q395 29 314 23 L314 -109 Z" /><glyph glyph-name="percent" unicode="%" d="M359 529 Q359 485 347 451.5 Q335 418 314 395.5 Q293 373 266 361.5 Q239 350 209 350 Q179 350 152 361.5 Q125 373 104 395.5 Q83 418 71 451.5 Q59 485 59 529 Q59 573 71 606.5 Q83 640 104 662.5 Q125 685 152 696.5 Q179 708 209 708 Q239 708 266 696.5 Q293 685 314 662.5 Q335 640 347 606.5 Q359 573 359 529 ZM300 529 Q300 586 277 620.5 Q254 655 209 655 Q164 655 141 620.5 Q118 586 118 529 Q118 472 141 437.5 Q164 403 209 403 Q254 403 277 437.5 Q300 472 300 529 ZM472 164 Q472 208 484 241.5 Q496 275 517 297.5 Q538 320 565 331.5 Q592 343 622 343 Q652 343 679 331.5 Q706 320 727 297.5 Q748 275 760 241.5 Q772 208 772 164 Q772 120 760 86.5 Q748 53 727 30.5 Q706 8 679 -3.5 Q652 -15 622 -15 Q592 -15 565 -3.5 Q538 8 517 30.5 Q496 53 484 86.5 Q472 120 472 164 ZM531 164 Q531 107 554 72.5 Q577 38 622 38 Q667 38 690 72.5 Q713 107 713 164 Q713 221 690 255.5 Q667 290 622 290 Q577 290 554 255.5 Q531 221 531 164 ZM580 693 L646 693 L251 0 L185 0 L580 693 Z" /><glyph glyph-name="ampersand" unicode="&amp;" d="M486 178 Q507 213 520 254.5 Q533 296 538 338 L594 331 Q589 282 572 232 Q555 182 525 137 Q562 99 591.5 65 Q621 31 638 0 L565 0 Q551 23 531.5 45.5 Q512 68 489 91 Q447 46 391.5 18.5 Q336 -9 267 -9 Q206 -9 164.5 8.5 Q123 26 97.5 53.5 Q72 81 61 114 Q50 147 50 179 Q50 219 62.5 250.5 Q75 282 96 306.5 Q117 331 145 350 Q173 369 203 383 Q159 424 141.5 463 Q124 502 124 542 Q124 581 136.5 612 Q149 643 171.5 664.5 Q194 686 225 697 Q256 708 292 708 Q329 708 359 696.5 Q389 685 409 665.5 Q429 646 440 619 Q451 592 451 561 Q451 524 438 494.5 Q425 465 404 442 Q383 419 355.5 401 Q328 383 300 368 L486 178 ZM267 48 Q325 48 370.5 70 Q416 92 450 130 L240 345 Q220 335 198.5 322 Q177 309 159.5 289.5 Q142 270 131 243 Q120 216 120 179 Q120 156 128 132.5 Q136 109 153 90.5 Q170 72 198 60 Q226 48 267 48 ZM389 560 Q389 599 362.5 625.5 Q336 652 294 652 Q243 652 216.5 624.5 Q190 597 190 549 Q190 514 205.5 479.5 Q221 445 265 405 Q319 431 354 466 Q389 501 389 560 Z" /><glyph glyph-name="quotesingle" unicode="&#39;" d="M156 760 L156 722 Q156 672 150.5 620.5 Q145 569 136 518 L103 518 Q95 569 89.5 620.5 Q84 672 84 723 L84 760 L156 760 Z" /><glyph glyph-name="parenleft" unicode="(" d="M83 299 Q83 444 130.5 566 Q178 688 254 783 L301 751 Q222 653 185.5 543.5 Q149 434 149 299 Q149 164 185.5 54.5 Q222 -55 301 -153 L254 -185 Q178 -90 130.5 32 Q83 154 83 299 Z" /><glyph glyph-name="parenright" unicode=")" d="M227 299 Q227 154 179.5 32 Q132 -90 56 -185 L9 -153 Q88 -55 124.5 54.5 Q161 164 161 299 Q161 434 124.5 543.5 Q88 653 9 751 L56 783 Q132 688 179.5 566 Q227 444 227 299 Z" /><glyph glyph-name="asterisk" unicode="*" d="M260 488 Q294 454 321.5 426 Q349 398 379 358 L323 317 Q309 337 297.5 355.5 Q286 374 276 392.5 Q266 411 256.5 430.5 Q247 450 236 471 Q225 450 215.5 430.5 Q206 411 196 392.5 Q186 374 174.5 355.5 Q163 337 149 317 L93 358 Q108 378 122 394.5 Q136 411 150 426 Q164 441 179.5 456 Q195 471 212 488 Q165 495 125.5 502 Q86 509 39 524 L60 589 Q84 581 104 573 Q124 565 143 556 Q162 547 181 537.5 Q200 528 221 518 Q217 542 213.5 563 Q210 584 207.5 604.5 Q205 625 203.5 646.5 Q202 668 202 693 L270 693 Q270 668 268.5 646.5 Q267 625 264.5 604.5 Q262 584 258.5 563 Q255 542 251 518 Q272 528 291 537.5 Q310 547 329 556 Q348 565 368 573 Q388 581 412 589 L433 524 Q386 509 346.5 502 Q307 495 260 488 Z" /><glyph glyph-name="plus" unicode="+" d="M56 317 L253 317 L253 534 L311 534 L311 317 L508 317 L508 261 L311 261 L311 43 L253 43 L253 261 L56 261 L56 317 Z" /><glyph glyph-name="comma" unicode="," d="M162 95 Q163 86 163 79 Q163 72 163 67 Q163 5 145.5 -52 Q128 -109 97 -159 L49 -137 Q72 -93 81.5 -44.5 Q91 4 91 56 Q91 68 90.5 76 Q90 84 89 95 L162 95 Z" /><glyph glyph-name="hyphen" unicode="-" d="M28 321 L254 321 L254 258 L28 258 L28 321 Z" /><glyph glyph-name="period" unicode="." d="M178 43 Q178 20 163.5 4 Q149 -12 123 -12 Q97 -12 82.5 4 Q68 20 68 43 Q68 66 82.5 82 Q97 98 123 98 Q149 98 163.5 82 Q178 66 178 43 Z" /><glyph glyph-name="slash" unicode="/" d="M43 -185 L-23 -185 L318 783 L382 783 L43 -185 Z" /><glyph glyph-name="zero" unicode="0" d="M59 346 Q59 522 117 615 Q175 708 282 708 Q388 708 446.5 615 Q505 522 505 346 Q505 171 446.5 78 Q388 -15 282 -15 Q176 -15 117.5 78 Q59 171 59 346 ZM434 346 Q434 406 426.5 460.5 Q419 515 401 557 Q383 599 354 624 Q325 649 282 649 Q238 649 209 624 Q180 599 162.5 557 Q145 515 137.5 460.5 Q130 406 130 346 Q130 286 137.5 231.5 Q145 177 162.5 135.5 Q180 94 209 69 Q238 44 282 44 Q325 44 354 69 Q383 94 401 135.5 Q419 177 426.5 231.5 Q434 286 434 346 Z" /><glyph glyph-name="one" unicode="1" d="M107 551 Q167 572 214 604.5 Q261 637 307 693 L353 693 L353 0 L288 0 L288 594 Q277 582 259.5 569 Q242 556 220 543.5 Q198 531 174 519.5 Q150 508 126 501 L107 551 Z" /><glyph glyph-name="two" unicode="2" d="M456 521 Q456 482 442 447.5 Q428 413 404.5 381 Q381 349 351 319 Q321 289 290 259 Q264 234 239.5 208.5 Q215 183 195.5 157.5 Q176 132 164.5 107.5 Q153 83 153 59 L153 57 L480 57 L480 0 L81 0 Q81 2 80.5 7.5 Q80 13 80 24 Q80 71 97 111.5 Q114 152 140.5 188 Q167 224 199.5 255 Q232 286 262 315 Q287 339 309.5 361.5 Q332 384 349 408 Q366 432 376 459 Q386 486 386 518 Q386 588 348.5 618.5 Q311 649 254 649 Q222 649 197 641 Q172 633 153.5 622.5 Q135 612 122 601 Q109 590 103 584 L69 629 Q75 636 90.5 649.5 Q106 663 129.5 676 Q153 689 184 698.5 Q215 708 253 708 Q354 708 405 658.5 Q456 609 456 521 Z" /><glyph glyph-name="three" unicode="3" d="M235 45 Q330 45 371 84.5 Q412 124 412 191 Q412 235 395.5 264 Q379 293 350.5 310.5 Q322 328 284.5 335.5 Q247 343 205 343 L195 343 L195 397 L218 397 Q245 397 273.5 402.5 Q302 408 325.5 423 Q349 438 364.5 463 Q380 488 380 527 Q380 560 369 583.5 Q358 607 339.5 621 Q321 635 296.5 641.5 Q272 648 245 648 Q191 648 161 633 Q131 618 112 605 L84 656 Q94 663 109.5 672 Q125 681 146 689 Q167 697 192.5 702.5 Q218 708 248 708 Q300 708 337.5 695 Q375 682 400 658.5 Q425 635 437 602.5 Q449 570 449 532 Q449 471 416.5 432.5 Q384 394 333 377 Q361 370 387.5 355.5 Q414 341 435 318.5 Q456 296 469 264 Q482 232 482 189 Q482 145 466.5 108 Q451 71 420.5 43.5 Q390 16 343 0.5 Q296 -15 233 -15 Q200 -15 172.5 -10.5 Q145 -6 124 0 Q103 6 88.5 12 Q74 18 67 22 L84 80 Q90 76 104 70 Q118 64 137.5 58.5 Q157 53 181.5 49 Q206 45 235 45 Z" /><glyph glyph-name="four" unicode="4" d="M50 228 Q68 276 100.5 336 Q133 396 174 459 Q215 522 263 582.5 Q311 643 360 693 L428 693 L428 241 L514 241 L514 188 L428 188 L428 0 L364 0 L364 188 L50 188 L50 228 ZM364 241 L364 620 Q329 584 293 537 Q257 490 224.5 439.5 Q192 389 164 338 Q136 287 117 241 L364 241 Z" /><glyph glyph-name="five" unicode="5" d="M239 45 Q289 45 322.5 56.5 Q356 68 376 88 Q396 108 404.5 134.5 Q413 161 413 192 Q413 232 400 264 Q387 296 354 318 Q321 340 265 351.5 Q209 363 123 363 Q129 414 133 456.5 Q137 499 140 538.5 Q143 578 144.5 615.5 Q146 653 147 693 L459 693 L459 636 L204 636 Q203 617 201 587 Q199 557 197 525.5 Q195 494 192 465 Q189 436 187 419 Q264 417 320 400 Q376 383 412 354 Q448 325 465.5 284 Q483 243 483 193 Q483 149 468.5 111 Q454 73 424 45 Q394 17 348 1 Q302 -15 239 -15 Q207 -15 179.5 -10.5 Q152 -6 130.5 0 Q109 6 94 12 Q79 18 72 22 L89 80 Q95 76 109.5 70 Q124 64 143.5 58.5 Q163 53 187.5 49 Q212 45 239 45 Z" /><glyph glyph-name="six" unicode="6" d="M77 275 Q77 478 174.5 583 Q272 688 458 696 L462 641 Q401 637 349.5 622.5 Q298 608 258 577.5 Q218 547 191 499 Q164 451 154 381 Q181 395 219 405.5 Q257 416 300 416 Q356 416 395 398.5 Q434 381 458 352 Q482 323 493 285 Q504 247 504 205 Q504 166 492 127 Q480 88 454.5 56.5 Q429 25 390.5 5 Q352 -15 299 -15 Q190 -15 133.5 61.5 Q77 138 77 275 ZM294 359 Q248 359 213.5 348.5 Q179 338 149 324 Q147 307 147 297.5 Q147 288 147 274 Q147 227 153.5 185 Q160 143 177.5 111 Q195 79 224 60.5 Q253 42 298 42 Q335 42 361 55.5 Q387 69 403 91 Q419 113 426.5 142 Q434 171 434 203 Q434 283 398.5 321 Q363 359 294 359 Z" /><glyph glyph-name="seven" unicode="7" d="M175 0 Q181 83 205.5 176 Q230 269 265.5 356 Q301 443 342.5 516 Q384 589 423 633 L69 633 L69 693 L490 693 L490 635 Q456 594 415.5 525.5 Q375 457 339 371.5 Q303 286 276.5 190 Q250 94 244 0 L175 0 Z" /><glyph glyph-name="eight" unicode="8" d="M282 -15 Q233 -15 193.5 -1 Q154 13 125.5 38.5 Q97 64 81.5 98.5 Q66 133 66 174 Q66 209 76 237.5 Q86 266 102.5 288.5 Q119 311 140.5 328.5 Q162 346 186 359 Q125 389 103 430 Q81 471 81 519 Q81 562 96 597 Q111 632 137.5 656.5 Q164 681 201 694.5 Q238 708 282 708 Q334 708 372 692.5 Q410 677 434.5 652 Q459 627 470.5 595 Q482 563 482 529 Q482 496 472 468.5 Q462 441 446 418.5 Q430 396 410 379 Q390 362 371 350 Q441 320 469.5 275 Q498 230 498 180 Q498 137 482.5 101 Q467 65 439 39.5 Q411 14 371 -0.5 Q331 -15 282 -15 ZM429 174 Q429 217 412.5 244 Q396 271 369.5 288 Q343 305 309.5 315 Q276 325 242 336 Q191 312 163 271.5 Q135 231 135 174 Q135 146 144 122 Q153 98 171.5 80 Q190 62 217.5 51.5 Q245 41 282 41 Q319 41 346.5 51.5 Q374 62 392.5 80 Q411 98 420 122 Q429 146 429 174 ZM149 526 Q149 498 155.5 475 Q162 452 180 433.5 Q198 415 230 399.5 Q262 384 314 370 Q360 396 387 434 Q414 472 414 529 Q414 552 406.5 574 Q399 596 383.5 613.5 Q368 631 343 641.5 Q318 652 282 652 Q249 652 224 642 Q199 632 182.5 614.5 Q166 597 157.5 574 Q149 551 149 526 Z" /><glyph glyph-name="nine" unicode="9" d="M490 418 Q490 209 390 103.5 Q290 -2 98 -2 L96 52 Q162 52 217 67 Q272 82 312.5 113.5 Q353 145 378.5 194.5 Q404 244 413 314 Q386 300 348 289.5 Q310 279 267 279 Q211 279 172 296.5 Q133 314 109 343 Q85 372 74 410 Q63 448 63 489 Q63 527 75 566 Q87 605 112.5 636.5 Q138 668 176.5 688 Q215 708 268 708 Q377 708 433.5 631.5 Q490 555 490 418 ZM273 336 Q319 336 353.5 346.5 Q388 357 418 371 Q419 383 419.5 394 Q420 405 420 419 Q420 466 413.5 508 Q407 550 389.5 582 Q372 614 343 632.5 Q314 651 269 651 Q232 651 206 637.5 Q180 624 164 602 Q148 580 140.5 551 Q133 522 133 491 Q133 412 168.5 374 Q204 336 273 336 Z" /><glyph glyph-name="less" unicode="&lt;" d="M131 288 L508 130 L488 75 L55 259 L55 317 L488 501 L508 446 L131 288 Z" /><glyph glyph-name="equal" unicode="=" d="M56 212 L508 212 L508 156 L56 156 L56 212 ZM56 422 L508 422 L508 366 L56 366 L56 422 Z" /><glyph glyph-name="greater" unicode="&gt;" d="M55 446 L75 501 L508 317 L508 259 L75 75 L55 130 L432 288 L55 446 Z" /><glyph glyph-name="question" unicode="?" d="M161 650 Q94 650 39 620 L20 674 Q41 686 80.5 697 Q120 708 168 708 Q221 708 256.5 694.5 Q292 681 313 659.5 Q334 638 343 611 Q352 584 352 558 Q352 522 339 494 Q326 466 306 442 Q286 418 263.5 396 Q241 374 221 350.5 Q201 327 188 300 Q175 273 175 240 Q175 229 175 223.5 Q175 218 176 213 L124 213 Q122 223 121 234.5 Q120 246 120 258 Q120 292 132 318.5 Q144 345 162 368 Q180 391 201 411.5 Q222 432 240 453.5 Q258 475 270 499.5 Q282 524 282 555 Q282 583 272 601.5 Q262 620 245.5 631 Q229 642 207 646 Q185 650 161 650 ZM210 43 Q210 20 195.5 4 Q181 -12 155 -12 Q129 -12 114.5 4 Q100 20 100 43 Q100 66 114.5 82 Q129 98 155 98 Q181 98 195.5 82 Q210 66 210 43 Z" /><glyph glyph-name="at" unicode="@" d="M687 58 Q655 58 635.5 69 Q616 80 607 93 Q589 81 558 69 Q527 57 490 57 Q444 57 405.5 70.5 Q367 84 338.5 111.5 Q310 139 294 181 Q278 223 278 280 Q278 327 292.5 368 Q307 409 334.5 439.5 Q362 470 402.5 487.5 Q443 505 495 505 Q543 505 581.5 496.5 Q620 488 642 479 L642 186 Q642 147 655.5 130 Q669 113 691 113 Q725 113 746.5 134.5 Q768 156 780.5 188.5 Q793 221 798 257.5 Q803 294 803 324 Q803 389 781 448 Q759 507 717.5 551.5 Q676 596 616 622.5 Q556 649 480 649 Q403 649 340 624.5 Q277 600 232 553 Q187 506 162 437.5 Q137 369 137 281 Q137 188 164.5 118 Q192 48 240 1 Q288 -46 353.5 -69.5 Q419 -93 495 -93 Q553 -93 586.5 -87.5 Q620 -82 631 -78 L638 -133 Q621 -138 581 -144 Q541 -150 495 -150 Q408 -150 331 -124.5 Q254 -99 196.5 -45.5 Q139 8 105.5 89 Q72 170 72 281 Q72 388 104 468 Q136 548 191.5 601 Q247 654 321.5 680 Q396 706 480 706 Q560 706 630.5 679 Q701 652 754 602 Q807 552 837.5 481 Q868 410 868 322 Q868 257 854 207.5 Q840 158 815.5 125 Q791 92 758 75 Q725 58 687 58 ZM486 111 Q520 111 541 116.5 Q562 122 585 136 Q581 146 579.5 161.5 Q578 177 578 188 L578 442 Q570 444 552 447.5 Q534 451 502 451 Q464 451 434.5 438.5 Q405 426 385 403.5 Q365 381 355 349.5 Q345 318 345 281 Q345 237 356 205 Q367 173 386 152 Q405 131 431 121 Q457 111 486 111 Z" /><glyph glyph-name="A" unicode="a" d="M556 0 Q537 51 520 98 Q503 145 487 190 L150 190 Q133 145 116 98 Q99 51 81 0 L10 0 Q50 108 85 201.5 Q120 295 153.5 378.5 Q187 462 220 539 Q253 616 290 693 L350 693 Q387 616 420 539 Q453 462 486.5 378.5 Q520 295 555 201.5 Q590 108 631 0 L556 0 ZM318 615 Q280 529 244.5 440 Q209 351 171 248 L466 248 Q428 351 392 440 Q356 529 318 615 Z" /><glyph glyph-name="B" unicode="b" d="M256 -6 Q239 -6 216.5 -4.5 Q194 -3 170.5 -0.5 Q147 2 126 5.5 Q105 9 90 13 L90 680 Q108 685 130 688.5 Q152 692 175.5 694.5 Q199 697 221.5 698 Q244 699 263 699 Q319 699 369.5 690 Q420 681 458 660 Q496 639 518.5 604.5 Q541 570 541 519 Q541 463 512.5 423.5 Q484 384 436 369 Q466 362 491 349 Q516 336 535 315.5 Q554 295 564.5 265.5 Q575 236 575 195 Q575 97 497 45.5 Q419 -6 256 -6 ZM158 332 L158 59 Q173 57 203 54.5 Q233 52 264 52 Q310 52 353.5 58 Q397 64 430 80 Q463 96 483 124 Q503 152 503 196 Q503 236 489 262.5 Q475 289 449 304.5 Q423 320 385.5 326 Q348 332 302 332 L158 332 ZM158 390 L290 390 Q327 390 360 395.5 Q393 401 417.5 415.5 Q442 430 456 454.5 Q470 479 470 517 Q470 551 455 574.5 Q440 598 412.5 613 Q385 628 347 634.5 Q309 641 263 641 Q226 641 200.5 639 Q175 637 158 634 L158 390 Z" /><glyph glyph-name="C" unicode="c" d="M378 -15 Q311 -15 253.5 9 Q196 33 153.5 79 Q111 125 86.5 192.5 Q62 260 62 347 Q62 434 88.5 501.5 Q115 569 159 615 Q203 661 261 684.5 Q319 708 382 708 Q421 708 453 703 Q485 698 509 690.5 Q533 683 550 675.5 Q567 668 576 662 L554 603 Q529 618 490.5 632.5 Q452 647 395 647 Q330 647 281.5 625 Q233 603 200 563 Q167 523 150.5 468 Q134 413 134 346 Q134 277 150.5 221.5 Q167 166 199 127 Q231 88 277.5 67 Q324 46 384 46 Q450 46 494.5 58.5 Q539 71 562 84 L581 26 Q574 21 557 14.5 Q540 8 514 1 Q488 -6 454 -10.5 Q420 -15 378 -15 Z" /><glyph glyph-name="D" unicode="d" d="M640 347 Q640 258 612 192 Q584 126 533.5 82 Q483 38 413 16 Q343 -6 259 -6 Q217 -6 171 -1.5 Q125 3 90 12 L90 680 Q125 690 171 694.5 Q217 699 259 699 Q343 699 413 677 Q483 655 533.5 611 Q584 567 612 501 Q640 435 640 347 ZM158 60 Q164 59 188.5 56 Q213 53 267 53 Q342 53 398 73.5 Q454 94 492 132 Q530 170 549 224.5 Q568 279 568 347 Q568 415 549 469 Q530 523 492 561 Q454 599 398 619.5 Q342 640 267 640 Q213 640 188.5 637 Q164 634 158 633 L158 60 Z" /><glyph glyph-name="E" unicode="e" d="M90 0 L90 693 L490 693 L490 634 L158 634 L158 393 L454 393 L454 335 L158 335 L158 59 L516 59 L516 0 L90 0 Z" /><glyph glyph-name="F" unicode="f" d="M90 0 L90 693 L485 693 L485 634 L158 634 L158 390 L448 390 L448 331 L158 331 L158 0 L90 0 Z" /><glyph glyph-name="G" unicode="g" d="M522 328 L590 328 L590 19 Q571 11 515.5 -1.5 Q460 -14 379 -14 Q311 -14 253 10 Q195 34 152.5 79.5 Q110 125 86 192.5 Q62 260 62 347 Q62 434 88 501.5 Q114 569 158.5 614.5 Q203 660 262 684 Q321 708 388 708 Q465 708 515 691.5 Q565 675 588 660 L565 602 Q537 622 489 634.5 Q441 647 385 647 Q333 647 287 628 Q241 609 207 571 Q173 533 153.5 477 Q134 421 134 347 Q134 278 150 222.5 Q166 167 198.5 127.5 Q231 88 279 67 Q327 46 390 46 Q441 46 475.5 51.5 Q510 57 522 62 L522 328 Z" /><glyph glyph-name="H" unicode="h" d="M534 693 L602 693 L602 0 L534 0 L534 333 L158 333 L158 0 L90 0 L90 693 L158 693 L158 392 L534 392 L534 693 Z" /><glyph glyph-name="I" unicode="i" d="M90 693 L158 693 L158 0 L90 0 L90 693 Z" /><glyph glyph-name="J" unicode="j" d="M400 218 Q400 168 390 125.5 Q380 83 355.5 51.5 Q331 20 290.5 2.5 Q250 -15 189 -15 Q153 -15 123 -8.5 Q93 -2 70 7 Q47 16 31.5 26 Q16 36 8 44 L40 99 Q49 91 62.5 81.5 Q76 72 94 64 Q112 56 134 51 Q156 46 182 46 Q259 46 295.5 86.5 Q332 127 332 225 L332 693 L400 693 L400 218 Z" /><glyph glyph-name="K" unicode="k" d="M513 0 Q479 52 436.5 103 Q394 154 347 199 Q300 244 251.5 281 Q203 318 158 343 L158 0 L90 0 L90 693 L158 693 L158 370 Q196 404 242.5 448.5 Q289 493 334.5 538 Q380 583 420 624 Q460 665 484 693 L566 693 Q537 662 496 619.5 Q455 577 409 532 Q363 487 317.5 443.5 Q272 400 236 367 Q265 349 298.5 322.5 Q332 296 366.5 264.5 Q401 233 434.5 198.5 Q468 164 497.5 129 Q527 94 550.5 61 Q574 28 589 0 L513 0 Z" /><glyph glyph-name="L" unicode="l" d="M484 59 L484 0 L90 0 L90 693 L158 693 L158 59 L484 59 Z" /><glyph glyph-name="M" unicode="m" d="M401 100 Q391 125 372.5 166 Q354 207 331 255.5 Q308 304 284 355.5 Q260 407 238 452 Q216 497 199 531 Q182 565 174 579 Q161 454 153.5 307.5 Q146 161 140 0 L73 0 Q82 189 93.5 362 Q105 535 122 693 L182 693 Q212 643 246 577.5 Q280 512 313.5 441.5 Q347 371 378.5 302.5 Q410 234 434 179 Q458 234 489.5 302.5 Q521 371 554.5 441.5 Q588 512 622 577.5 Q656 643 686 693 L743 693 Q760 535 771.5 362 Q783 189 792 0 L723 0 Q717 161 709.5 307.5 Q702 454 689 579 Q681 565 664 531 Q647 497 625 452 Q603 407 579 355.5 Q555 304 532 255.5 Q509 207 490.5 166 Q472 125 462 100 L401 100 Z" /><glyph glyph-name="N" unicode="n" d="M562 0 Q543 35 513.5 82 Q484 129 449 182.5 Q414 236 375 292.5 Q336 349 297.5 402.5 Q259 456 222.5 503 Q186 550 157 584 L157 0 L90 0 L90 693 L144 693 Q195 636 253.5 561.5 Q312 487 368 409.5 Q424 332 472.5 258 Q521 184 552 129 L552 693 L619 693 L619 0 L562 0 Z" /><glyph glyph-name="O" unicode="o" d="M712 347 Q712 258 686 190 Q660 122 615.5 76.5 Q571 31 512 8 Q453 -15 387 -15 Q321 -15 262 8 Q203 31 158.5 76.5 Q114 122 88 190 Q62 258 62 347 Q62 436 88 503.5 Q114 571 158.5 616.5 Q203 662 262 685 Q321 708 387 708 Q453 708 512 685 Q571 662 615.5 616.5 Q660 571 686 503.5 Q712 436 712 347 ZM640 347 Q640 417 622 472.5 Q604 528 571 567 Q538 606 491.5 626.5 Q445 647 387 647 Q329 647 282.5 626.5 Q236 606 203 567 Q170 528 152 472.5 Q134 417 134 347 Q134 277 152 221.5 Q170 166 203 127 Q236 88 282.5 67 Q329 46 387 46 Q445 46 491.5 67 Q538 88 571 127 Q604 166 622 221.5 Q640 277 640 347 Z" /><glyph glyph-name="P" unicode="p" d="M265 699 Q412 699 484 643 Q556 587 556 484 Q556 425 535 383.5 Q514 342 475 316.5 Q436 291 379.5 279.5 Q323 268 252 268 L158 268 L158 0 L90 0 L90 680 Q126 690 174.5 694.5 Q223 699 265 699 ZM268 640 Q230 640 203.5 637.5 Q177 635 158 633 L158 327 L244 327 Q299 327 343.5 333.5 Q388 340 419.5 357.5 Q451 375 468 406 Q485 437 485 485 Q485 531 466.5 561 Q448 591 417.5 608.5 Q387 626 348 633 Q309 640 268 640 Z" /><glyph glyph-name="Q" unicode="q" d="M712 347 Q712 267 691 205 Q670 143 634 98 Q598 53 549 26 Q500 -1 444 -10 Q448 -38 469.5 -58 Q491 -78 521.5 -92 Q552 -106 589 -114.5 Q626 -123 661 -128 L647 -185 Q609 -178 565 -167.5 Q521 -157 481.5 -138 Q442 -119 413 -89.5 Q384 -60 375 -15 Q311 -13 254 11 Q197 35 154.5 80.5 Q112 126 87 193 Q62 260 62 347 Q62 436 88 503.5 Q114 571 158.5 616.5 Q203 662 262 685 Q321 708 387 708 Q453 708 512 685 Q571 662 615.5 616.5 Q660 571 686 503.5 Q712 436 712 347 ZM640 347 Q640 417 622 472.5 Q604 528 571 567 Q538 606 491.5 626.5 Q445 647 387 647 Q329 647 282.5 626.5 Q236 606 203 567 Q170 528 152 472.5 Q134 417 134 347 Q134 277 152 221.5 Q170 166 203 127 Q236 88 282.5 67 Q329 46 387 46 Q445 46 491.5 67 Q538 88 571 127 Q604 166 622 221.5 Q640 277 640 347 Z" /><glyph glyph-name="R" unicode="r" d="M552 485 Q552 407 511 362 Q470 317 403 297 Q419 277 444.5 243 Q470 209 497 168.5 Q524 128 550 84 Q576 40 594 0 L521 0 Q500 40 475.5 80 Q451 120 425.5 157.5 Q400 195 376 227 Q352 259 334 283 Q302 280 270 280 L158 280 L158 0 L90 0 L90 680 Q126 690 174.5 694.5 Q223 699 264 699 Q407 699 479.5 645 Q552 591 552 485 ZM272 640 Q234 640 205.5 637.5 Q177 635 158 633 L158 338 L252 338 Q299 338 341 342.5 Q383 347 414 362.5 Q445 378 463 407 Q481 436 481 486 Q481 532 463 562 Q445 592 416 609.5 Q387 627 349.5 633.5 Q312 640 272 640 Z" /><glyph glyph-name="S" unicode="s" d="M239 44 Q320 44 365 73.5 Q410 103 410 169 Q410 207 395.5 232.5 Q381 258 357 275.5 Q333 293 302 305.5 Q271 318 237 332 Q194 349 160 367 Q126 385 102 407.5 Q78 430 65.5 459 Q53 488 53 527 Q53 616 112 662 Q171 708 276 708 Q304 708 331 704 Q358 700 381.5 693.5 Q405 687 424.5 679 Q444 671 457 662 L433 605 Q404 625 362.5 637 Q321 649 273 649 Q240 649 212.5 642.5 Q185 636 165 621.5 Q145 607 133.5 585 Q122 563 122 532 Q122 500 134 478 Q146 456 167.5 440 Q189 424 218 411 Q247 398 281 384 Q322 367 358.5 350 Q395 333 422 310 Q449 287 465 254 Q481 221 481 173 Q481 79 415.5 32 Q350 -15 238 -15 Q198 -15 165 -10 Q132 -5 106 2.5 Q80 10 62 18 Q44 26 34 32 L56 91 Q66 85 83 77 Q100 69 123 61.5 Q146 54 175 49 Q204 44 239 44 Z" /><glyph glyph-name="T" unicode="t" d="M530 693 L530 634 L308 634 L308 0 L240 0 L240 634 L18 634 L18 693 L530 693 Z" /><glyph glyph-name="U" unicode="u" d="M340 -15 Q271 -15 222.5 6 Q174 27 144 64 Q114 101 100.5 150.5 Q87 200 87 257 L87 693 L155 693 L155 266 Q155 209 168.5 167.5 Q182 126 206 99 Q230 72 264 59 Q298 46 340 46 Q382 46 416 59 Q450 72 474 99 Q498 126 511.5 167.5 Q525 209 525 266 L525 693 L593 693 L593 257 Q593 200 579.5 150.5 Q566 101 536 64 Q506 27 457.5 6 Q409 -15 340 -15 Z" /><glyph glyph-name="V" unicode="v" d="M86 693 Q116 604 144 524.5 Q172 445 199 370.5 Q226 296 254 224.5 Q282 153 314 80 Q345 152 373.5 223.5 Q402 295 429.5 369.5 Q457 444 484.5 524 Q512 604 542 693 L614 693 Q568 562 531.5 463 Q495 364 463.5 284 Q432 204 403.5 136.5 Q375 69 344 0 L281 0 Q250 69 221 136.5 Q192 204 160.5 284 Q129 364 92.5 463 Q56 562 10 693 L86 693 Z" /><glyph glyph-name="W" unicode="w" d="M491 608 Q539 447 587.5 316.5 Q636 186 682 77 Q717 195 751.5 355 Q786 515 818 693 L885 693 Q867 586 848.5 492.5 Q830 399 810 314.5 Q790 230 768 152.5 Q746 75 720 0 L647 0 Q623 57 599.5 114 Q576 171 553 231.5 Q530 292 507 358 Q484 424 460 498 Q436 424 412.5 358 Q389 292 366 231.5 Q343 171 319.5 114 Q296 57 272 0 L200 0 Q173 75 150.5 152.5 Q128 230 108.5 314.5 Q89 399 71.5 492.5 Q54 586 36 693 L106 693 Q121 605 137 520.5 Q153 436 170.5 357 Q188 278 206.5 207.5 Q225 137 243 77 Q286 188 335 317.5 Q384 447 432 608 L491 608 Z" /><glyph glyph-name="X" unicode="x" d="M490 693 L566 693 L343 368 Q408 276 470 183.5 Q532 91 578 0 L504 0 Q489 30 465.5 69 Q442 108 414.5 151 Q387 194 357.5 237 Q328 280 301 318 Q274 280 244.5 237 Q215 194 187.5 151 Q160 108 136.5 69 Q113 30 98 0 L27 0 Q73 91 135 183 Q197 275 261 366 L38 693 L116 693 L303 414 L490 693 Z" /><glyph glyph-name="Y" unicode="y" d="M251 0 L251 285 Q180 394 120.5 495.5 Q61 597 10 693 L89 693 Q131 605 181.5 514.5 Q232 424 287 342 Q340 424 391 514.5 Q442 605 485 693 L559 693 Q506 598 447 495.5 Q388 393 319 287 L319 0 L251 0 Z" /><glyph glyph-name="Z" unicode="z" d="M510 631 Q486 603 454.5 563 Q423 523 387 475.5 Q351 428 313.5 374.5 Q276 321 239.5 266.5 Q203 212 170.5 159 Q138 106 112 59 L520 59 L520 0 L38 0 L38 51 Q60 94 90.5 145.5 Q121 197 156 251.5 Q191 306 229 361 Q267 416 304 466.5 Q341 517 374.5 560 Q408 603 436 634 L57 634 L57 693 L510 693 L510 631 Z" /><glyph glyph-name="bracketleft" unicode="[" d="M100 783 L302 783 L302 733 L162 733 L162 -135 L302 -135 L302 -185 L100 -185 L100 783 Z" /><glyph glyph-name="backslash" unicode="\" d="M-23 783 L41 783 L382 -185 L316 -185 L-23 783 Z" /><glyph glyph-name="bracketright" unicode="]" d="M210 -185 L8 -185 L8 -135 L148 -135 L148 733 L8 733 L8 783 L210 783 L210 -185 Z" /><glyph glyph-name="asciicircum" unicode="^" d="M502 356 L453 330 L282 638 L111 330 L62 356 L250 693 L314 693 L502 356 Z" /><glyph glyph-name="underscore" unicode="_" d="M-5 -129 L495 -129 L495 -185 L-5 -185 L-5 -129 Z" /><glyph glyph-name="grave" unicode="`" d="M106 773 L264 621 L231 583 L60 722 L106 773 Z" /><glyph glyph-name="a" unicode="a" d="M249 47 Q287 47 315.5 49.5 Q344 52 364 56 L364 238 Q353 243 329 248.5 Q305 254 263 254 Q239 254 213 250.5 Q187 247 165 235.5 Q143 224 129 204 Q115 184 115 151 Q115 122 124.5 102 Q134 82 151.5 70 Q169 58 193.5 52.5 Q218 47 249 47 ZM243 529 Q294 529 329.5 514.5 Q365 500 387 474.5 Q409 449 419 414 Q429 379 429 338 L429 12 Q419 9 400 5.5 Q381 2 356 -2 Q331 -6 300.5 -8.5 Q270 -11 238 -11 Q197 -11 162.5 -2 Q128 7 102.5 26.5 Q77 46 62.5 76.5 Q48 107 48 151 Q48 193 64 223 Q80 253 109 272.5 Q138 292 178 301 Q218 310 265 310 Q279 310 294.5 308.5 Q310 307 324.5 304.5 Q339 302 349.5 299.5 Q360 297 364 295 L364 327 Q364 354 360 379.5 Q356 405 342.5 425.5 Q329 446 304.5 458.5 Q280 471 240 471 Q183 471 155 463 Q127 455 114 450 L105 507 Q122 515 157.5 522 Q193 529 243 529 Z" /><glyph glyph-name="b" unicode="b" d="M151 486 Q168 499 205.5 513.5 Q243 528 294 528 Q350 528 393.5 508 Q437 488 467 452 Q497 416 512.5 366.5 Q528 317 528 258 Q528 195 509.5 145 Q491 95 457.5 60 Q424 25 377.5 6.5 Q331 -12 274 -12 Q205 -12 160 -3 Q115 6 86 16 L86 764 L151 776 L151 486 ZM151 61 Q166 56 195.5 51.5 Q225 47 273 47 Q357 47 408 101.5 Q459 156 459 258 Q459 301 450 339.5 Q441 378 421 406.5 Q401 435 368.5 452 Q336 469 288 469 Q265 469 244 464.5 Q223 460 205 453 Q187 446 173.5 438 Q160 430 151 423 L151 61 Z" /><glyph glyph-name="c" unicode="c" d="M300 -11 Q240 -11 194 8 Q148 27 117.5 62.5 Q87 98 71 147.5 Q55 197 55 257 Q55 318 71.5 368 Q88 418 119 454 Q150 490 194 509.5 Q238 529 293 529 Q335 529 371.5 522 Q408 515 428 504 L411 448 Q391 458 366 464 Q341 470 299 470 Q213 470 168.5 414.5 Q124 359 124 257 Q124 211 134 172.5 Q144 134 166.5 106.5 Q189 79 224.5 63.5 Q260 48 311 48 Q353 48 381.5 57.5 Q410 67 423 74 L437 18 Q419 8 380.5 -1.5 Q342 -11 300 -11 Z" /><glyph glyph-name="d" unicode="d" d="M497 16 Q468 6 423 -3 Q378 -12 309 -12 Q252 -12 205.5 6.5 Q159 25 125.5 60 Q92 95 73.5 145 Q55 195 55 258 Q55 317 70.5 366.5 Q86 416 116 452 Q146 488 189.5 508 Q233 528 289 528 Q340 528 377.5 513.5 Q415 499 432 486 L432 764 L497 776 L497 16 ZM432 423 Q423 430 409.5 438 Q396 446 378 453 Q360 460 339 464.5 Q318 469 295 469 Q247 469 214.5 452 Q182 435 162 406.5 Q142 378 133 339.5 Q124 301 124 258 Q124 156 175 101.5 Q226 47 310 47 Q358 47 387.5 51.5 Q417 56 432 61 L432 423 Z" /><glyph glyph-name="e" unicode="e" d="M55 259 Q55 327 74.5 377.5 Q94 428 125.5 462 Q157 496 197.5 512.5 Q238 529 281 529 Q376 529 432.5 467 Q489 405 489 276 Q489 268 488.5 260 Q488 252 487 245 L124 245 Q127 150 171 99 Q215 48 311 48 Q364 48 395 58 Q426 68 440 75 L452 19 Q438 11 399.5 0 Q361 -11 309 -11 Q241 -11 193 9 Q145 29 114 65 Q83 101 69 150.5 Q55 200 55 259 ZM422 300 Q420 381 384 426 Q348 471 282 471 Q247 471 219.5 457 Q192 443 171.5 419.5 Q151 396 139.5 365 Q128 334 126 300 L422 300 Z" /><glyph glyph-name="f" unicode="f" d="M276 776 Q318 776 344.5 769.5 Q371 763 379 758 L366 702 Q355 707 333.5 712.5 Q312 718 279 718 Q210 718 180.5 683 Q151 648 151 571 L151 517 L359 517 L359 462 L151 462 L151 0 L86 0 L86 573 Q86 674 132.5 725 Q179 776 276 776 Z" /><glyph glyph-name="g" unicode="g" d="M423 60 Q417 55 405 48.5 Q393 42 375.5 35 Q358 28 335.5 23.5 Q313 19 285 19 Q240 19 198 33 Q156 47 124.5 77 Q93 107 74 154.5 Q55 202 55 270 Q55 325 72 372 Q89 419 120.5 453.5 Q152 488 197.5 507.5 Q243 527 300 527 Q372 527 415.5 517.5 Q459 508 487 499 L487 27 Q487 -89 427 -138.5 Q367 -188 246 -188 Q196 -188 155.5 -180.5 Q115 -173 86 -163 L99 -104 Q123 -115 164.5 -123 Q206 -131 248 -131 Q340 -131 381.5 -95.5 Q423 -60 423 26 L423 60 ZM422 454 Q405 459 378 463.5 Q351 468 301 468 Q259 468 226.5 453.5 Q194 439 171 412.5 Q148 386 136 349.5 Q124 313 124 269 Q124 218 138 181.5 Q152 145 174.5 122 Q197 99 226 88.5 Q255 78 285 78 Q329 78 365.5 91 Q402 104 422 121 L422 454 Z" /><glyph glyph-name="h" unicode="h" d="M86 0 L86 764 L151 776 L151 502 Q183 514 216 520.5 Q249 527 282 527 Q342 527 382 510 Q422 493 446 461.5 Q470 430 479.5 386 Q489 342 489 289 L489 0 L424 0 L424 268 Q424 323 416.5 361 Q409 399 391.5 423 Q374 447 345 457.5 Q316 468 272 468 Q255 468 235.5 465 Q216 462 199 458.5 Q182 455 168.5 451 Q155 447 151 445 L151 0 L86 0 Z" /><glyph glyph-name="i" unicode="i" d="M151 0 L86 0 L86 517 L151 517 L151 0 ZM166 673 Q166 650 152 636.5 Q138 623 118 623 Q98 623 84 636.5 Q70 650 70 673 Q70 696 84 709.5 Q98 723 118 723 Q138 723 152 709.5 Q166 696 166 673 Z" /><glyph glyph-name="j" unicode="j" d="M-11 -187 Q-22 -187 -38.5 -184 Q-55 -181 -63 -177 L-54 -124 Q-47 -126 -35 -128 Q-23 -130 -12 -130 Q47 -130 66.5 -97 Q86 -64 86 2 L86 517 L151 517 L151 5 Q151 -93 114 -140 Q77 -187 -11 -187 ZM166 673 Q166 650 152 636.5 Q138 623 118 623 Q98 623 84 636.5 Q70 650 70 673 Q70 696 84 709.5 Q98 723 118 723 Q138 723 152 709.5 Q166 696 166 673 Z" /><glyph glyph-name="k" unicode="k" d="M224 281 Q255 260 290.5 227 Q326 194 360.5 155.5 Q395 117 425.5 76.5 Q456 36 477 0 L400 0 Q376 40 345.5 78.5 Q315 117 281.5 151 Q248 185 214.5 213 Q181 241 151 260 L151 0 L86 0 L86 764 L151 776 L151 284 Q176 308 207 339 Q238 370 269.5 402 Q301 434 329 464 Q357 494 377 517 L455 517 Q432 493 403 463 Q374 433 342.5 400.5 Q311 368 280 337 Q249 306 224 281 Z" /><glyph glyph-name="l" unicode="l" d="M217 -9 Q184 -8 159.5 -0.5 Q135 7 118.5 22.5 Q102 38 93.5 62.5 Q85 87 85 124 L85 764 L150 776 L150 126 Q150 102 154.5 87.5 Q159 73 168 64.5 Q177 56 191.5 52 Q206 48 226 45 L217 -9 Z" /><glyph glyph-name="m" unicode="m" d="M86 499 Q115 507 161.5 517 Q208 527 282 527 Q380 527 424 470 Q429 474 443.5 483.5 Q458 493 480 503 Q502 513 531.5 520 Q561 527 597 527 Q656 527 692.5 509.5 Q729 492 749 460.5 Q769 429 776 385 Q783 341 783 289 L783 0 L718 0 L718 268 Q718 319 713.5 356.5 Q709 394 695.5 418.5 Q682 443 657 455.5 Q632 468 592 468 Q562 468 537.5 462.5 Q513 457 495 449 Q477 441 465.5 433 Q454 425 449 421 Q458 395 462.5 362.5 Q467 330 467 294 L467 0 L402 0 L402 268 Q402 319 397.5 356.5 Q393 394 379 418.5 Q365 443 339.5 455.5 Q314 468 272 468 Q225 468 192.5 463 Q160 458 151 454 L151 0 L86 0 L86 499 Z" /><glyph glyph-name="n" unicode="n" d="M86 499 Q115 507 164 517 Q213 527 284 527 Q343 527 382.5 510 Q422 493 445.5 461.5 Q469 430 479 386 Q489 342 489 289 L489 0 L424 0 L424 268 Q424 323 416.5 361 Q409 399 391.5 423 Q374 447 345.5 457.5 Q317 468 274 468 Q228 468 194.5 463 Q161 458 151 454 L151 0 L86 0 L86 499 Z" /><glyph glyph-name="o" unicode="o" d="M527 258 Q527 197 509.5 147 Q492 97 460.5 62 Q429 27 386 7.5 Q343 -12 291 -12 Q239 -12 196 7.5 Q153 27 121.5 62 Q90 97 72.5 147 Q55 197 55 258 Q55 319 72.5 369 Q90 419 121.5 454.5 Q153 490 196 509.5 Q239 529 291 529 Q343 529 386 509.5 Q429 490 460.5 454.5 Q492 419 509.5 369 Q527 319 527 258 ZM458 258 Q458 355 413 412.5 Q368 470 291 470 Q214 470 169 412.5 Q124 355 124 258 Q124 161 169 104 Q214 47 291 47 Q368 47 413 104 Q458 161 458 258 Z" /><glyph glyph-name="p" unicode="p" d="M151 93 Q160 86 173.5 78 Q187 70 205 63 Q223 56 244 51.5 Q265 47 288 47 Q336 47 368.5 63.5 Q401 80 421 108.5 Q441 137 450 175.5 Q459 214 459 257 Q459 359 408 413.5 Q357 468 273 468 Q225 468 195.5 463.5 Q166 459 151 454 L151 93 ZM151 -185 L86 -185 L86 499 Q115 509 160 518 Q205 527 274 527 Q331 527 377.5 508.5 Q424 490 457.5 455 Q491 420 509.5 370 Q528 320 528 257 Q528 198 512.5 148.5 Q497 99 467 63.5 Q437 28 393.5 8 Q350 -12 294 -12 Q243 -12 205.5 2.5 Q168 17 151 30 L151 -185 Z" /><glyph glyph-name="q" unicode="q" d="M432 454 Q417 459 387.5 463.5 Q358 468 310 468 Q226 468 175 413.5 Q124 359 124 257 Q124 214 133 175.5 Q142 137 162 108.5 Q182 80 214.5 63.5 Q247 47 295 47 Q318 47 339 51.5 Q360 56 378 63 Q396 70 409.5 78 Q423 86 432 93 L432 454 ZM432 30 Q415 17 377.5 2.5 Q340 -12 289 -12 Q233 -12 189.5 8 Q146 28 116 63.5 Q86 99 70.5 148.5 Q55 198 55 257 Q55 320 73.5 370 Q92 420 125.5 455 Q159 490 205.5 508.5 Q252 527 309 527 Q378 527 423 518 Q468 509 497 499 L497 -185 L432 -185 L432 30 Z" /><glyph glyph-name="r" unicode="r" d="M262 527 Q294 527 322.5 522 Q351 517 362 512 L349 456 Q341 460 316.5 464.5 Q292 469 252 469 Q210 469 184.5 463 Q159 457 151 453 L151 0 L86 0 L86 493 Q111 504 155 515.5 Q199 527 262 527 Z" /><glyph glyph-name="s" unicode="s" d="M192 46 Q248 46 284.5 64.5 Q321 83 321 127 Q321 148 314.5 163 Q308 178 293 190 Q278 202 253.5 213 Q229 224 193 239 Q164 251 138 263.5 Q112 276 92 292.5 Q72 309 60 332 Q48 355 48 388 Q48 451 95.5 490 Q143 529 226 529 Q279 529 313.5 520 Q348 511 362 504 L347 446 Q335 452 306.5 462 Q278 472 223 472 Q201 472 181.5 467.5 Q162 463 147 453.5 Q132 444 123 429.5 Q114 415 114 394 Q114 373 122 358 Q130 343 145.5 331.5 Q161 320 183.5 310 Q206 300 235 288 Q265 276 292.5 263.5 Q320 251 341 233.5 Q362 216 375 191.5 Q388 167 388 130 Q388 60 335.5 24 Q283 -12 192 -12 Q124 -12 88 -0.5 Q52 11 40 17 L57 76 Q60 74 70 69.5 Q80 65 97 59.5 Q114 54 137.5 50 Q161 46 192 46 Z" /><glyph glyph-name="t" unicode="t" d="M147 517 L353 517 L353 462 L147 462 L147 187 Q147 143 154.5 115.5 Q162 88 176 73 Q190 58 210 53 Q230 48 254 48 Q295 48 320 57.5 Q345 67 359 75 L375 21 Q361 12 326 0.5 Q291 -11 250 -11 Q202 -11 169.5 1.5 Q137 14 117.5 39.5 Q98 65 90 103 Q82 141 82 193 L82 669 L147 681 L147 517 Z" /><glyph glyph-name="u" unicode="u" d="M483 18 Q454 10 405 0 Q356 -10 285 -10 Q227 -10 188 7 Q149 24 125 55 Q101 86 90.5 130 Q80 174 80 227 L80 517 L145 517 L145 248 Q145 193 153 155 Q161 117 179 93.5 Q197 70 225.5 59.5 Q254 49 295 49 Q341 49 375 54 Q409 59 418 63 L418 517 L483 517 L483 18 Z" /><glyph glyph-name="v" unicode="v" d="M242 70 Q263 113 285 168.5 Q307 224 327.5 283.5 Q348 343 365.5 403.5 Q383 464 395 517 L460 517 Q442 446 420 377 Q398 308 373.5 242 Q349 176 322.5 115 Q296 54 271 0 L209 0 Q183 54 157 115 Q131 176 106.5 242 Q82 308 60 377 Q38 446 20 517 L89 517 Q101 464 118.5 403.5 Q136 343 156.5 283.5 Q177 224 199 168.5 Q221 113 242 70 Z" /><glyph glyph-name="w" unicode="w" d="M419 517 Q428 467 442.5 410.5 Q457 354 474.5 295.5 Q492 237 511.5 180 Q531 123 551 73 Q568 111 587 165.5 Q606 220 625 280.5 Q644 341 660.5 402.5 Q677 464 688 517 L752 517 Q716 365 673.5 239 Q631 113 580 0 L519 0 Q504 35 487.5 78.5 Q471 122 453.5 171.5 Q436 221 419.5 275.5 Q403 330 388 387 Q373 330 356.5 275.5 Q340 221 322.5 171.5 Q305 122 288.5 78.5 Q272 35 257 0 L195 0 Q144 113 101.5 239 Q59 365 23 517 L92 517 Q103 464 119.5 402.5 Q136 341 155 280.5 Q174 220 193.5 166 Q213 112 230 74 Q249 124 268.5 181 Q288 238 305 296 Q322 354 337 410.5 Q352 467 363 517 L419 517 Z" /><glyph glyph-name="x" unicode="x" d="M248 234 Q226 205 204 173 Q182 141 161.5 110 Q141 79 124 50.5 Q107 22 95 0 L28 0 Q69 77 114 143.5 Q159 210 206 274 L38 517 L114 517 L248 319 L384 517 L455 517 L290 278 Q311 250 335 217 Q359 184 383 148.5 Q407 113 429.5 75 Q452 37 471 0 L401 0 Q389 22 372 50.5 Q355 79 334.5 110 Q314 141 291.5 173 Q269 205 248 234 Z" /><glyph glyph-name="y" unicode="y" d="M227 -11 Q194 50 163.5 116 Q133 182 106.5 249.5 Q80 317 58 384.5 Q36 452 20 517 L89 517 Q100 469 117 413.5 Q134 358 155.5 299 Q177 240 203 178 Q229 116 259 56 Q281 118 298 173 Q315 228 329.5 282.5 Q344 337 357.5 394 Q371 451 386 517 L451 517 Q419 372 378 235 Q337 98 289 -16 Q270 -61 250 -93.5 Q230 -126 205.5 -147 Q181 -168 148.5 -178 Q116 -188 72 -188 Q47 -188 26.5 -182 Q6 -176 1 -173 L14 -119 Q18 -122 36.5 -127.5 Q55 -133 75 -133 Q103 -133 125.5 -127 Q148 -121 166 -106.5 Q184 -92 198.5 -69 Q213 -46 227 -11 Z" /><glyph glyph-name="z" unicode="z" d="M407 464 Q384 438 347 392 Q310 346 268 289.5 Q226 233 185 171.5 Q144 110 113 55 L416 55 L416 0 L38 0 L38 47 Q64 96 102.5 155 Q141 214 182 271.5 Q223 329 262 379.5 Q301 430 328 462 L53 462 L53 517 L407 517 L407 464 Z" /><glyph glyph-name="braceleft" unicode="{" d="M132 289 Q148 280 161 267.5 Q174 255 183 236 Q192 217 196.5 190 Q201 163 201 126 L201 19 Q201 -28 203 -59.5 Q205 -91 215.5 -110.5 Q226 -130 248 -138 Q270 -146 311 -146 L311 -196 L303 -196 Q255 -196 223 -185 Q191 -174 172.5 -153 Q154 -132 146.5 -101 Q139 -70 139 -29 L139 165 Q139 183 133.5 200.5 Q128 218 116 232 Q104 246 86 255 Q68 264 43 264 L43 313 Q68 313 86 322 Q104 331 116 345 Q128 359 133.5 376.5 Q139 394 139 412 L139 606 Q139 646 146.5 677.5 Q154 709 172.5 730 Q191 751 223 762 Q255 773 303 773 L311 773 L311 723 Q270 723 248 715 Q226 707 215.5 687.5 Q205 668 203 636.5 Q201 605 201 558 L201 451 Q201 414 196.5 387.5 Q192 361 183 342 Q174 323 161 310.5 Q148 298 132 289 Z" /><glyph glyph-name="bar" unicode="|" d="M100 783 L162 783 L162 -185 L100 -185 L100 783 Z" /><glyph glyph-name="braceright" unicode="}" d="M187 289 Q171 298 158 310.5 Q145 323 136 342 Q127 361 122.5 387.5 Q118 414 118 451 L118 558 Q118 605 116 636.5 Q114 668 103.5 687.5 Q93 707 71 715 Q49 723 8 723 L8 773 L16 773 Q64 773 96 762 Q128 751 146.5 730 Q165 709 172.5 677.5 Q180 646 180 606 L180 412 Q180 394 185.5 376.5 Q191 359 203 345 Q215 331 233 322 Q251 313 276 313 L276 264 Q251 264 233 255 Q215 246 203 232 Q191 218 185.5 200.5 Q180 183 180 165 L180 -29 Q180 -70 172.5 -101 Q165 -132 146.5 -153 Q128 -174 96 -185 Q64 -196 16 -196 L8 -196 L8 -146 Q49 -146 71 -138 Q93 -130 103.5 -110.5 Q114 -91 116 -59.5 Q118 -28 118 19 L118 126 Q118 163 122.5 190 Q127 217 136 236 Q145 255 158 267.5 Q171 280 187 289 Z" /><glyph glyph-name="asciitilde" unicode="~" d="M384 222 Q350 222 323 236 Q296 250 271.5 267 Q247 284 223.5 298 Q200 312 174 312 Q155 312 142 302.5 Q129 293 120.5 279.5 Q112 266 107.5 252.5 Q103 239 101 231 L50 243 Q54 261 62.5 282.5 Q71 304 85.5 322.5 Q100 341 123 353.5 Q146 366 180 366 Q214 366 241 352 Q268 338 292.5 321 Q317 304 340.5 290 Q364 276 390 276 Q409 276 422 285.5 Q435 295 443.5 308.5 Q452 322 456.5 335.5 Q461 349 463 357 L514 345 Q509 327 501 305.5 Q493 284 478.5 265.5 Q464 247 441 234.5 Q418 222 384 222 Z" /><glyph glyph-name="Euro" unicode="&#x20ac;" d="M209 409 Q208 393 207.5 377 Q207 361 207 346 Q207 332 207 318 Q207 304 208 290 L421 290 L410 237 L213 237 Q219 199 231 164.5 Q243 130 264.5 104 Q286 78 320 62 Q354 46 403 46 Q448 46 479.5 54.5 Q511 63 529 73 L544 17 Q537 13 523 8 Q509 3 490 -1.5 Q471 -6 448 -9.5 Q425 -13 401 -13 Q336 -13 290.5 7 Q245 27 214.5 61 Q184 95 166.5 140.5 Q149 186 142 237 L45 237 L45 290 L136 290 Q135 304 135 318 Q135 332 135 346 Q135 377 138 409 L45 409 L45 462 L144 462 Q153 511 171 555 Q189 599 220 632.5 Q251 666 295 685.5 Q339 705 400 705 Q422 705 439.5 703.5 Q457 702 471.5 699.5 Q486 697 499.5 693 Q513 689 527 684 L511 626 Q487 636 457 641.5 Q427 647 400 647 Q355 647 323 632 Q291 617 269.5 591.5 Q248 566 235 532.5 Q222 499 216 462 L455 462 L445 409 L209 409 Z" /><glyph glyph-name="quotesinglbase" unicode="&#x201a;" d="M156 95 L156 85 Q156 28 139 -23.5 Q122 -75 88 -126 L40 -104 Q65 -56 74.5 -16 Q84 24 84 59 Q84 70 84 78 Q84 86 83 95 L156 95 Z" /><glyph glyph-name="florin" unicode="&#x192;" d="M151 5 Q151 -93 114 -140 Q77 -187 -11 -187 Q-22 -187 -38.5 -184 Q-55 -181 -63 -177 L-54 -124 Q-47 -126 -35 -128 Q-23 -130 -12 -130 Q47 -130 66.5 -97 Q86 -64 86 2 L86 573 Q86 674 132.5 725 Q179 776 276 776 Q318 776 344.5 769.5 Q371 763 379 758 L366 702 Q355 707 333.5 712.5 Q312 718 279 718 Q210 718 180.5 683 Q151 648 151 571 L151 517 L359 517 L359 462 L151 462 L151 5 Z" /><glyph glyph-name="dagger" unicode="&#x2020;" d="M264 411 L264 142 Q264 56 260 -11.5 Q256 -79 248 -145 L221 -145 Q212 -79 208.5 -11.5 Q205 56 205 142 L205 411 L42 411 L42 468 L205 468 L205 693 L264 693 L264 468 L427 468 L427 411 L264 411 Z" /><glyph glyph-name="daggerdbl" unicode="&#x2021;" d="M264 142 Q264 56 260 -11.5 Q256 -79 248 -145 L221 -145 Q212 -79 208.5 -11.5 Q205 56 205 142 L205 147 L42 147 L42 204 L205 204 L205 411 L42 411 L42 468 L205 468 L205 693 L264 693 L264 468 L427 468 L427 411 L264 411 L264 204 L427 204 L427 147 L264 147 L264 142 Z" /><glyph glyph-name="circumflex" unicode="&#x2c6;" d="M84 584 L56 615 L188 762 L320 615 L292 584 L188 680 L84 584 Z" /><glyph glyph-name="perthousand" unicode="&#x2030;" d="M580 693 L646 693 L251 0 L185 0 L580 693 ZM359 529 Q359 485 347 451.5 Q335 418 314 395.5 Q293 373 266 361.5 Q239 350 209 350 Q179 350 152 361.5 Q125 373 104 395.5 Q83 418 71 451.5 Q59 485 59 529 Q59 573 71 606.5 Q83 640 104 662.5 Q125 685 152 696.5 Q179 708 209 708 Q239 708 266 696.5 Q293 685 314 662.5 Q335 640 347 606.5 Q359 573 359 529 ZM300 529 Q300 586 277 620.5 Q254 655 209 655 Q164 655 141 620.5 Q118 586 118 529 Q118 472 141 437.5 Q164 403 209 403 Q254 403 277 437.5 Q300 472 300 529 ZM472 164 Q472 208 484 241.5 Q496 275 517 297.5 Q538 320 565 331.5 Q592 343 622 343 Q652 343 679 331.5 Q706 320 727 297.5 Q748 275 760 241.5 Q772 208 772 164 Q772 120 760 86.5 Q748 53 727 30.5 Q706 8 679 -3.5 Q652 -15 622 -15 Q592 -15 565 -3.5 Q538 8 517 30.5 Q496 53 484 86.5 Q472 120 472 164 ZM531 164 Q531 107 554 72.5 Q577 38 622 38 Q667 38 690 72.5 Q713 107 713 164 Q713 221 690 255.5 Q667 290 622 290 Q577 290 554 255.5 Q531 221 531 164 ZM825 164 Q825 208 837 241.5 Q849 275 870 297.5 Q891 320 918 331.5 Q945 343 975 343 Q1005 343 1032 331.5 Q1059 320 1080 297.5 Q1101 275 1113 241.5 Q1125 208 1125 164 Q1125 120 1113 86.5 Q1101 53 1080 30.5 Q1059 8 1032 -3.5 Q1005 -15 975 -15 Q945 -15 918 -3.5 Q891 8 870 30.5 Q849 53 837 86.5 Q825 120 825 164 ZM884 164 Q884 107 907 72.5 Q930 38 975 38 Q1020 38 1043 72.5 Q1066 107 1066 164 Q1066 221 1043 255.5 Q1020 290 975 290 Q930 290 907 255.5 Q884 221 884 164 Z" /><glyph glyph-name="guilsinglleft" unicode="&#x2039;" d="M188 72 L36 284 L188 495 L229 469 L113 284 L229 98 L188 72 Z" /><glyph glyph-name="OE" unicode="&#x152;" d="M539 633 Q533 634 509.5 637 Q486 640 432 640 Q359 640 303.5 619.5 Q248 599 211 561 Q174 523 155.5 469 Q137 415 137 347 Q137 279 155.5 224.5 Q174 170 211 132 Q248 94 303.5 73.5 Q359 53 432 53 Q486 53 509.5 56 Q533 59 539 60 L539 633 ZM540 0 Q490 -6 440 -6 Q357 -6 288.5 16 Q220 38 170 82 Q120 126 92.5 192 Q65 258 65 347 Q65 435 92.5 501 Q120 567 170 611 Q220 655 288.5 677 Q357 699 440 699 Q464 699 489.5 697.5 Q515 696 539 693 L925 693 L925 634 L607 634 L607 393 L889 393 L889 335 L607 335 L607 59 L951 59 L951 0 L540 0 Z" /><glyph glyph-name="quoteleft" unicode="&#x2018;" d="M74 542 Q74 599 91 650.5 Q108 702 142 753 L190 731 Q165 683 155.5 643 Q146 603 146 568 Q146 557 146 549 Q146 541 147 532 L74 532 L74 542 Z" /><glyph glyph-name="quoteright" unicode="&#x2019;" d="M156 731 Q156 674 139 622.5 Q122 571 88 520 L40 542 Q65 590 74.5 630 Q84 670 84 705 Q84 716 84 724 Q84 732 83 741 L156 741 L156 731 Z" /><glyph glyph-name="bullet" unicode="&#x2022;" d="M300 353 Q300 329 291.5 307 Q283 285 267.5 268.5 Q252 252 230 242.5 Q208 233 180 233 Q152 233 129.5 242.5 Q107 252 91.5 268.5 Q76 285 68 307 Q60 329 60 353 Q60 377 68 398.5 Q76 420 91.5 436.5 Q107 453 129.5 463 Q152 473 180 473 Q208 473 230 463 Q252 453 267.5 436.5 Q283 420 291.5 398.5 Q300 377 300 353 Z" /><glyph glyph-name="endash" unicode="&#x2013;" d="M-2 318 L498 318 L498 261 L-2 261 L-2 318 Z" /><glyph glyph-name="emdash" unicode="&#x2014;" d="M-2 318 L998 318 L998 261 L-2 261 L-2 318 Z" /><glyph glyph-name="tilde" unicode="&#x2dc;" d="M251 629 Q229 629 211 636 Q193 643 176 651 Q157 661 145 664.5 Q133 668 123 668 Q102 668 90 654 Q78 640 68 623 L30 641 Q35 653 43.5 667 Q52 681 63.5 693 Q75 705 90.5 713 Q106 721 126 721 Q148 721 166 714 Q184 707 201 699 Q220 689 232 685.5 Q244 682 254 682 Q275 682 287 696 Q299 710 309 727 L347 709 Q342 697 333.5 683 Q325 669 313.5 657 Q302 645 286.5 637 Q271 629 251 629 Z" /><glyph glyph-name="trademark" unicode="&#x2122;" d="M278 693 L278 653 L171 653 L171 369 L127 369 L127 653 L20 653 L20 693 L278 693 ZM490 475 Q504 503 521.5 535.5 Q539 568 555.5 598 Q572 628 586.5 653.5 Q601 679 610 693 L645 693 Q649 669 653.5 634.5 Q658 600 661.5 557.5 Q665 515 668 467 Q671 419 673 369 L628 369 Q625 441 620.5 503 Q616 565 610 610 Q598 589 582 561 Q566 533 551 505 Q536 477 523.5 452.5 Q511 428 504 414 L472 414 Q465 428 452.5 452.5 Q440 477 425 505 Q410 533 394 561 Q378 589 366 610 Q360 565 355.5 503 Q351 441 348 369 L305 369 Q306 419 309.5 467 Q313 515 316.5 557.5 Q320 600 324.5 634.5 Q329 669 333 693 L370 693 Q379 679 393.5 653.5 Q408 628 424.5 598 Q441 568 458.5 535.5 Q476 503 490 475 Z" /><glyph glyph-name="guilsinglright" unicode="&#x203a;" d="M46 98 L162 284 L46 469 L87 495 L239 284 L87 72 L46 98 Z" /><glyph glyph-name="oe" unicode="&#x153;" d="M291 529 Q361 529 410.5 494.5 Q460 460 488 399 Q517 464 567 496.5 Q617 529 677 529 Q772 529 828.5 467 Q885 405 885 276 Q885 268 884.5 260 Q884 252 883 245 L520 245 Q523 150 567 99 Q611 48 707 48 Q760 48 791 58 Q822 68 836 75 L848 19 Q834 11 795.5 0 Q757 -11 705 -11 Q615 -11 564 22 Q513 55 487 113 Q458 54 409 21 Q360 -12 291 -12 Q239 -12 196 7.5 Q153 27 121.5 62 Q90 97 72.5 147 Q55 197 55 258 Q55 319 72.5 369 Q90 419 121.5 454.5 Q153 490 196 509.5 Q239 529 291 529 ZM458 258 Q458 355 413 412.5 Q368 470 291 470 Q214 470 169 412.5 Q124 355 124 258 Q124 161 169 104 Q214 47 291 47 Q368 47 413 104 Q458 161 458 258 ZM818 300 Q816 381 780 426 Q744 471 678 471 Q643 471 615.5 457 Q588 443 567.5 419.5 Q547 396 535.5 365 Q524 334 522 300 L818 300 Z" /><glyph glyph-name="uni00A0" unicode=" " d="" /><glyph glyph-name="exclamdown" unicode="¡" d="M172 -185 L102 -185 L102 5 Q102 91 107.5 158 Q113 225 122 292 L152 292 Q156 259 159.5 226 Q163 193 166 158 Q169 123 170.5 85.5 Q172 48 172 5 L172 -185 ZM192 462 Q192 439 177.5 423 Q163 407 137 407 Q111 407 96.5 423 Q82 439 82 462 Q82 485 96.5 501 Q111 517 137 517 Q163 517 177.5 501 Q192 485 192 462 Z" /><glyph glyph-name="cent" unicode="¢" d="M304 34 Q256 41 219 63 Q182 85 157.5 118.5 Q133 152 120 195.5 Q107 239 107 290 Q107 341 120.5 385.5 Q134 430 159.5 464 Q185 498 221.5 520.5 Q258 543 304 550 L304 693 L363 693 L363 552 Q394 552 422.5 545.5 Q451 539 479 528 L462 473 Q441 482 412.5 489 Q384 496 353 496 Q266 496 221 444.5 Q176 393 176 290 Q176 246 186.5 209 Q197 172 219.5 145 Q242 118 277.5 103 Q313 88 363 88 Q405 88 434 96.5 Q463 105 476 111 L488 57 Q482 53 468.5 48.5 Q455 44 438 40.5 Q421 37 401.5 34.5 Q382 32 363 31 L363 -109 L304 -109 L304 34 Z" /><glyph glyph-name="sterling" unicode="£" d="M242 364 L443 364 L443 309 L242 309 L242 300 Q242 241 238.5 179.5 Q235 118 225 57 L528 57 L528 0 L149 0 Q160 69 167.5 141.5 Q175 214 175 297 L175 309 L79 309 L79 364 L175 364 L175 460 Q175 534 190 582 Q205 630 232.5 657.5 Q260 685 297.5 695.5 Q335 706 380 706 Q422 706 453.5 697.5 Q485 689 508 678 L490 619 Q441 645 372 645 Q341 645 316.5 637 Q292 629 275.5 608.5 Q259 588 250.5 554 Q242 520 242 469 L242 364 Z" /><glyph glyph-name="currency" unicode="¤" d="M95 347 Q95 380 104 409.5 Q113 439 130 462 L56 538 L96 579 L172 501 Q195 518 223 527 Q251 536 282 536 Q313 536 341 527 Q369 518 392 501 L468 579 L508 538 L434 462 Q451 439 460 409.5 Q469 380 469 347 Q469 314 460 284.5 Q451 255 434 232 L508 156 L468 115 L392 193 Q369 176 341 167 Q313 158 282 158 Q251 158 223 167 Q195 176 172 193 L96 115 L56 156 L130 232 Q113 255 104 284.5 Q95 314 95 347 ZM411 347 Q411 377 401 402 Q391 427 373.5 445 Q356 463 332.5 473 Q309 483 282 483 Q255 483 231.5 473 Q208 463 190.5 445 Q173 427 163 402 Q153 377 153 347 Q153 317 163 292 Q173 267 190.5 249 Q208 231 231.5 221 Q255 211 282 211 Q309 211 332.5 221 Q356 231 373.5 249 Q391 267 401 292 Q411 317 411 347 Z" /><glyph glyph-name="yen" unicode="¥" d="M250 0 L250 115 L87 115 L87 168 L250 168 L250 287 L87 287 L87 340 L236 340 Q176 433 125 519.5 Q74 606 31 693 L100 693 Q139 610 186 528.5 Q233 447 284 371 Q335 447 381.5 528.5 Q428 610 467 693 L533 693 Q490 606 438.5 519.5 Q387 433 327 340 L478 340 L478 287 L315 287 L315 168 L478 168 L478 115 L315 115 L315 0 L250 0 Z" /><glyph glyph-name="brokenbar" unicode="¦" d="M100 191 L162 191 L162 -185 L100 -185 L100 191 ZM100 783 L162 783 L162 407 L100 407 L100 783 Z" /><glyph glyph-name="section" unicode="§" d="M72 -28 Q98 -39 130 -48.5 Q162 -58 221 -58 Q247 -58 270 -53 Q293 -48 310.5 -37.5 Q328 -27 338 -11 Q348 5 348 28 Q348 49 341 65 Q334 81 318.5 94 Q303 107 278.5 118 Q254 129 220 141 Q185 153 153.5 165.5 Q122 178 98.5 196.5 Q75 215 61 242 Q47 269 47 309 Q47 337 56.5 360.5 Q66 384 80 402 Q94 420 111.5 433 Q129 446 144 455 Q114 477 99.5 502.5 Q85 528 85 565 Q85 631 129.5 669.5 Q174 708 261 708 Q321 708 356 698.5 Q391 689 406 683 L390 630 Q373 638 341.5 647.5 Q310 657 260 657 Q211 657 179 637.5 Q147 618 147 576 Q147 535 173.5 512 Q200 489 262 470 Q295 459 326 447 Q357 435 382 416.5 Q407 398 422 370 Q437 342 437 300 Q437 275 429 253 Q421 231 407.5 212 Q394 193 376.5 178.5 Q359 164 341 154 Q374 134 392.5 104 Q411 74 411 37 Q411 -35 357.5 -72 Q304 -109 214 -109 Q154 -109 116.5 -99.5 Q79 -90 56 -79 L72 -28 ZM227 420 Q216 424 205.5 427.5 Q195 431 190 433 Q155 415 132 387 Q109 359 109 317 Q109 288 120.5 269 Q132 250 152 236 Q172 222 199 211.5 Q226 201 257 191 Q267 188 278 184 Q289 180 296 177 Q334 196 354.5 228 Q375 260 375 295 Q375 323 362 343 Q349 363 328 377 Q307 391 280.5 401 Q254 411 227 420 Z" /><glyph glyph-name="dieresis" unicode="¨" d="M148 673 Q148 651 135 638 Q122 625 102 625 Q82 625 69 638 Q56 651 56 673 Q56 695 69 708 Q82 721 102 721 Q122 721 135 708 Q148 695 148 673 ZM320 673 Q320 651 307 638 Q294 625 274 625 Q254 625 241 638 Q228 651 228 673 Q228 695 241 708 Q254 721 274 721 Q294 721 307 708 Q320 695 320 673 Z" /><glyph glyph-name="copyright" unicode="©" d="M418 142 Q379 142 345.5 156 Q312 170 287 196 Q262 222 248 260.5 Q234 299 234 348 Q234 396 249.5 433.5 Q265 471 291 497.5 Q317 524 351 537.5 Q385 551 422 551 Q471 551 501.5 537.5 Q532 524 543 516 L524 471 Q509 479 485.5 488.5 Q462 498 422 498 Q367 498 330.5 459 Q294 420 294 348 Q294 274 329.5 234.5 Q365 195 426 195 Q469 195 493.5 204.5 Q518 214 529 221 L546 173 Q533 165 500 153.5 Q467 142 418 142 ZM752 347 Q752 261 724 194 Q696 127 649.5 80.5 Q603 34 541.5 9.5 Q480 -15 413 -15 Q346 -15 284.5 9.5 Q223 34 176.5 80.5 Q130 127 102 194 Q74 261 74 347 Q74 432 102 499.5 Q130 567 176.5 613 Q223 659 284.5 683.5 Q346 708 413 708 Q480 708 541.5 683.5 Q603 659 649.5 613 Q696 567 724 499.5 Q752 432 752 347 ZM693 347 Q693 416 672 473 Q651 530 614 570.5 Q577 611 525.5 633 Q474 655 413 655 Q352 655 300.5 633 Q249 611 212 570.5 Q175 530 154 473 Q133 416 133 347 Q133 278 154 221 Q175 164 212 123.5 Q249 83 300.5 60.5 Q352 38 413 38 Q474 38 525.5 60.5 Q577 83 614 123.5 Q651 164 672 221 Q693 278 693 347 Z" /><glyph glyph-name="ordfeminine" unicode="ª" d="M195 379 Q217 379 238 380.5 Q259 382 270 384 L270 504 Q257 506 240 508 Q223 510 205 510 Q184 510 165 507 Q146 504 131.5 497 Q117 490 109 477.5 Q101 465 101 447 Q101 415 121 397 Q141 379 195 379 ZM189 704 Q226 704 252 694.5 Q278 685 294 667.5 Q310 650 317 625.5 Q324 601 324 572 L324 346 Q312 343 295.5 340.5 Q279 338 261.5 336 Q244 334 226.5 333 Q209 332 196 332 Q129 332 87.5 358.5 Q46 385 46 443 Q46 473 58.5 494.5 Q71 516 92.5 529.5 Q114 543 142.5 549.5 Q171 556 203 556 Q214 556 232 554 Q250 552 270 548 L270 557 Q270 575 268 592.5 Q266 610 258 624 Q250 638 233.5 647 Q217 656 189 656 Q163 656 138.5 653.5 Q114 651 94 644 L87 690 Q104 695 130.5 699.5 Q157 704 189 704 Z" /><glyph glyph-name="logicalnot" unicode="¬" d="M508 48 L450 48 L450 324 L56 324 L56 380 L508 380 L508 48 Z" /><glyph glyph-name="registered" unicode="®" d="M521 149 Q495 196 467 238.5 Q439 281 418 306 Q411 305 405 305 Q399 305 394 305 L331 305 L331 149 L276 149 L276 536 Q299 541 327.5 544 Q356 547 381 547 Q466 547 510.5 516 Q555 485 555 422 Q555 386 535 357.5 Q515 329 476 315 Q484 306 497.5 287.5 Q511 269 526 246 Q541 223 556 197 Q571 171 582 149 L521 149 ZM331 350 L381 350 Q406 350 427 353 Q448 356 463.5 364.5 Q479 373 487.5 387 Q496 401 496 423 Q496 444 486.5 458.5 Q477 473 461.5 482 Q446 491 426 495 Q406 499 384 499 Q369 499 355.5 498.5 Q342 498 331 497 L331 350 ZM752 347 Q752 261 724 194 Q696 127 649.5 80.5 Q603 34 541.5 9.5 Q480 -15 413 -15 Q346 -15 284.5 9.5 Q223 34 176.5 80.5 Q130 127 102 194 Q74 261 74 347 Q74 432 102 499.5 Q130 567 176.5 613 Q223 659 284.5 683.5 Q346 708 413 708 Q480 708 541.5 683.5 Q603 659 649.5 613 Q696 567 724 499.5 Q752 432 752 347 ZM693 347 Q693 416 672 473 Q651 530 614 570.5 Q577 611 525.5 633 Q474 655 413 655 Q352 655 300.5 633 Q249 611 212 570.5 Q175 530 154 473 Q133 416 133 347 Q133 278 154 221 Q175 164 212 123.5 Q249 83 300.5 60.5 Q352 38 413 38 Q474 38 525.5 60.5 Q577 83 614 123.5 Q651 164 672 221 Q693 278 693 347 Z" /><glyph glyph-name="macron" unicode="¯" d="M56 649 L56 704 L321 704 L321 649 L56 649 Z" /><glyph glyph-name="degree" unicode="°" d="M159 511 Q133 511 109.5 520 Q86 529 68 545.5 Q50 562 39.5 586.5 Q29 611 29 642 Q29 673 39.5 697.5 Q50 722 68 738.5 Q86 755 109.5 764 Q133 773 159 773 Q185 773 208.5 764 Q232 755 250 738.5 Q268 722 278.5 697.5 Q289 673 289 642 Q289 611 278.5 586.5 Q268 562 250 545.5 Q232 529 208.5 520 Q185 511 159 511 ZM159 556 Q194 556 217.5 579 Q241 602 241 642 Q241 682 217.5 705 Q194 728 159 728 Q124 728 100.5 705 Q77 682 77 642 Q77 602 100.5 579 Q124 556 159 556 Z" /><glyph glyph-name="plusminus" unicode="±" d="M56 56 L508 56 L508 0 L56 0 L56 56 ZM56 401 L253 401 L253 618 L311 618 L311 401 L508 401 L508 345 L311 345 L311 128 L253 128 L253 345 L56 345 L56 401 Z" /><glyph glyph-name="twosuperior" unicode="²" d="M284 600 Q284 579 276.5 561 Q269 543 257 527.5 Q245 512 229.5 498 Q214 484 197 471 Q171 450 154.5 434 Q138 418 128.5 406 Q119 394 115.5 384 Q112 374 112 365 L303 365 L303 317 L55 317 Q54 322 54 327 Q54 332 54 337 Q54 367 64 390.5 Q74 414 89.5 433.5 Q105 453 124 469.5 Q143 486 161 503 Q175 515 187 525.5 Q199 536 208 547.5 Q217 559 222.5 572 Q228 585 228 602 Q228 635 208 647.5 Q188 660 161 660 Q144 660 129.5 655.5 Q115 651 103 644.5 Q91 638 82.5 631.5 Q74 625 70 621 L43 659 Q60 677 90.5 692.5 Q121 708 166 708 Q222 708 253 681 Q284 654 284 600 Z" /><glyph glyph-name="threesuperior" unicode="³" d="M146 357 Q203 357 223 376.5 Q243 396 243 425 Q243 446 233 460 Q223 474 207 483 Q191 492 169.5 495.5 Q148 499 126 499 L113 499 L113 544 L128 544 Q146 544 163.5 546.5 Q181 549 194 556.5 Q207 564 215 576 Q223 588 223 608 Q223 637 204.5 649 Q186 661 155 661 Q123 661 101 651.5 Q79 642 66 633 L46 675 Q57 684 86 696 Q115 708 157 708 Q222 708 249.5 681.5 Q277 655 277 613 Q277 551 216 526 Q253 515 276 490 Q299 465 299 423 Q299 400 290.5 379.5 Q282 359 264 343 Q246 327 217.5 318 Q189 309 149 309 Q111 309 86 315.5 Q61 322 45 330 L58 377 Q72 370 93.5 363.5 Q115 357 146 357 Z" /><glyph glyph-name="acute" unicode="´" d="M316 722 L145 583 L112 621 L270 773 L316 722 Z" /><glyph glyph-name="mu" unicode="µ" d="M291 -10 Q234 -10 199 5 Q164 20 144 46 Q148 14 148.5 -18.5 Q149 -51 149 -79 L149 -185 L86 -185 L86 517 L151 517 L151 248 Q151 193 159 155 Q167 117 185 93.5 Q203 70 231.5 59.5 Q260 49 301 49 Q347 49 381 54 Q415 59 424 63 L424 517 L489 517 L489 18 Q460 10 411 0 Q362 -10 291 -10 Z" /><glyph glyph-name="paragraph" unicode="¶" d="M457 638 Q443 640 419.5 641.5 Q396 643 377 643 Q369 643 360 642.5 Q351 642 346 641 L346 -185 L288 -185 L288 264 Q233 268 188 283 Q143 298 111.5 324.5 Q80 351 63 389.5 Q46 428 46 480 Q46 535 69.5 576 Q93 617 135 644.5 Q177 672 235.5 685.5 Q294 699 364 699 Q396 699 438 696.5 Q480 694 515 686 L515 -185 L457 -185 L457 638 Z" /><glyph glyph-name="cedilla" unicode="¸" d="M206 -36 Q234 -48 250.5 -65.5 Q267 -83 267 -112 Q267 -124 263 -137.5 Q259 -151 248 -162 Q237 -173 218 -180 Q199 -187 169 -187 Q149 -187 128 -183.5 Q107 -180 98 -175 L106 -132 Q117 -137 131 -139 Q145 -141 165 -141 Q206 -141 206 -112 Q206 -95 192 -86 Q178 -77 148 -65 Q151 -55 157 -42 Q163 -29 169 -17 Q175 -5 180.5 5 Q186 15 189 20 L235 20 Q228 9 219.5 -7.5 Q211 -24 206 -36 Z" /><glyph glyph-name="onesuperior" unicode="¹" d="M74 578 L61 620 Q96 631 131 650.5 Q166 670 191 699 L228 699 L228 317 L174 317 L174 621 Q163 613 148.5 606 Q134 599 120 593 Q106 587 93.5 583 Q81 579 74 578 Z" /><glyph glyph-name="ordmasculine" unicode="º" d="M391 518 Q391 476 378 441.5 Q365 407 342 382.5 Q319 358 287 344.5 Q255 331 218 331 Q181 331 149.5 344.5 Q118 358 95 382.5 Q72 407 59 441.5 Q46 476 46 518 Q46 560 59 594.5 Q72 629 95 653.5 Q118 678 149.5 691.5 Q181 705 218 705 Q255 705 287 691.5 Q319 678 342 653.5 Q365 629 378 594.5 Q391 560 391 518 ZM332 518 Q332 581 301 618.5 Q270 656 218 656 Q167 656 136 618.5 Q105 581 105 518 Q105 455 136 417.5 Q167 380 218 380 Q270 380 301 417.5 Q332 455 332 518 Z" /><glyph glyph-name="questiondown" unicode="¿" d="M99 -39 Q99 -65 109 -82 Q119 -99 135.5 -109 Q152 -119 174.5 -123.5 Q197 -128 222 -128 Q288 -128 344 -98 L363 -152 Q342 -164 302.5 -175 Q263 -186 215 -186 Q161 -186 125.5 -172.5 Q90 -159 68.5 -138.5 Q47 -118 38.5 -93 Q30 -68 30 -45 Q30 -11 42.5 17 Q55 45 74 69 Q93 93 115.5 116 Q138 139 157 163 Q176 187 188.5 214.5 Q201 242 201 276 Q201 282 201 284.5 Q201 287 200 292 L251 292 Q255 275 255 255 Q255 223 243.5 196.5 Q232 170 214.5 147 Q197 124 177 102 Q157 80 139.5 58 Q122 36 110.5 12.5 Q99 -11 99 -39 ZM274 462 Q274 439 259.5 423 Q245 407 219 407 Q193 407 178.5 423 Q164 439 164 462 Q164 485 178.5 501 Q193 517 219 517 Q245 517 259.5 501 Q274 485 274 462 Z" /><glyph glyph-name="Aring" unicode="å" d="M415 742 Q415 713 401.5 691 Q388 669 367 657 Q401 585 432 511.5 Q463 438 494.5 358.5 Q526 279 559.5 190.5 Q593 102 631 0 L556 0 Q537 51 520 98 Q503 145 487 190 L150 190 Q133 145 116 98 Q99 51 81 0 L10 0 Q47 102 80 190.5 Q113 279 144.5 358.5 Q176 438 207 511.5 Q238 585 272 657 Q250 669 237 691 Q224 713 224 742 Q224 785 252.5 811 Q281 837 320 837 Q339 837 356.5 830 Q374 823 387 810.5 Q400 798 407.5 780.5 Q415 763 415 742 ZM318 615 Q280 529 244.5 440 Q209 351 171 248 L466 248 Q428 351 392 440 Q356 529 318 615 ZM377 742 Q377 770 360.5 785.5 Q344 801 320 801 Q296 801 279.5 785.5 Q263 770 263 742 Q263 713 279.5 698 Q296 683 320 683 Q344 683 360.5 698 Q377 713 377 742 Z" /><glyph glyph-name="AE" unicode="æ" d="M464 0 L464 190 L177 190 Q151 142 125.5 95 Q100 48 76 0 L6 0 Q60 107 113.5 201 Q167 295 220 379.5 Q273 464 326 541.5 Q379 619 433 693 L850 693 L850 634 L532 634 L532 393 L814 393 L814 335 L532 335 L532 59 L876 59 L876 0 L464 0 ZM464 637 Q395 544 332 447.5 Q269 351 210 248 L464 248 L464 637 Z" /><glyph glyph-name="Ccedilla" unicode="ç" d="M364 -36 Q392 -48 408.5 -65.5 Q425 -83 425 -112 Q425 -124 421 -137.5 Q417 -151 406 -162 Q395 -173 376 -180 Q357 -187 327 -187 Q307 -187 286 -183.5 Q265 -180 256 -175 L264 -132 Q275 -137 289 -139 Q303 -141 323 -141 Q364 -141 364 -112 Q364 -95 350 -86 Q336 -77 306 -65 Q310 -54 316 -39.5 Q322 -25 329 -11 Q271 -3 222 24 Q173 51 137.5 96.5 Q102 142 82 204.5 Q62 267 62 347 Q62 434 88.5 501.5 Q115 569 159 615 Q203 661 261 684.5 Q319 708 382 708 Q421 708 453 703 Q485 698 509 690.5 Q533 683 550 675.5 Q567 668 576 662 L554 603 Q529 618 490.5 632.5 Q452 647 395 647 Q330 647 281.5 625 Q233 603 200 563 Q167 523 150.5 468 Q134 413 134 346 Q134 277 150.5 221.5 Q167 166 199 127 Q231 88 277.5 67 Q324 46 384 46 Q450 46 494.5 58.5 Q539 71 562 84 L581 26 Q574 21 557 14.5 Q540 8 514 1 Q488 -6 454 -10.5 Q420 -15 378 -15 L373 -15 Q370 -20 368 -25.5 Q366 -31 364 -36 Z" /><glyph glyph-name="Eth" unicode="ð" d="M654 347 Q654 258 626 192 Q598 126 547.5 82 Q497 38 427 16 Q357 -6 273 -6 Q231 -6 185 -1.5 Q139 3 104 12 L104 335 L24 335 L24 390 L104 390 L104 680 Q139 690 185 694.5 Q231 699 273 699 Q357 699 427 677 Q497 655 547.5 611 Q598 567 626 501 Q654 435 654 347 ZM172 60 Q178 59 202.5 56 Q227 53 281 53 Q356 53 412 73.5 Q468 94 506 132 Q544 170 563 224.5 Q582 279 582 347 Q582 415 563 469 Q544 523 506 561 Q468 599 412 619.5 Q356 640 281 640 Q227 640 202.5 637 Q178 634 172 633 L172 390 L304 390 L304 335 L172 335 L172 60 Z" /><glyph glyph-name="multiply" unicode="×" d="M129 486 L282 332 L435 486 L474 447 L320 294 L474 141 L435 102 L282 256 L129 102 L90 141 L244 294 L90 447 L129 486 Z" /><glyph glyph-name="Oslash" unicode="ø" d="M712 347 Q712 258 686 190 Q660 122 615.5 76.5 Q571 31 512 8 Q453 -15 387 -15 Q333 -15 284.5 0 Q236 15 194 46 L133 -34 L85 2 L150 86 Q108 131 85 196.5 Q62 262 62 347 Q62 436 88 503.5 Q114 571 158.5 616.5 Q203 662 262 685 Q321 708 387 708 Q441 708 490.5 692.5 Q540 677 582 645 L646 728 L694 692 L626 604 Q666 559 689 495 Q712 431 712 347 ZM134 347 Q134 283 149 230.5 Q164 178 192 140 L543 594 Q478 647 387 647 Q329 647 282.5 626.5 Q236 606 203 567 Q170 528 152 472.5 Q134 417 134 347 ZM640 347 Q640 410 625.5 461 Q611 512 584 550 L233 96 Q295 46 387 46 Q445 46 491.5 67 Q538 88 571 127 Q604 166 622 221.5 Q640 277 640 347 Z" /><glyph glyph-name="Thorn" unicode="þ" d="M158 570 Q175 572 206.5 574 Q238 576 263 576 Q411 576 483.5 519.5 Q556 463 556 361 Q556 302 535 260.5 Q514 219 475 193.5 Q436 168 379.5 156.5 Q323 145 252 145 L158 145 L158 0 L90 0 L90 693 L158 693 L158 570 ZM266 517 Q230 517 202.5 515 Q175 513 158 511 L158 204 L244 204 Q299 204 343.5 210.5 Q388 217 419.5 234.5 Q451 252 468 283 Q485 314 485 362 Q485 408 466.5 438 Q448 468 417.5 485.5 Q387 503 347.5 510 Q308 517 266 517 Z" /><glyph glyph-name="germandbls" unicode="ß" d="M475 619 Q475 593 466.5 571.5 Q458 550 445.5 533 Q433 516 419 502 Q405 488 395 478 Q381 464 371.5 453.5 Q362 443 356 434 Q350 425 347.5 416 Q345 407 345 396 Q345 382 351.5 371 Q358 360 368.5 352 Q379 344 392 337.5 Q405 331 418 325 Q448 311 474.5 296 Q501 281 520.5 261 Q540 241 551 213 Q562 185 562 145 Q562 70 511 29 Q460 -12 369 -12 Q320 -12 285 -1.5 Q250 9 240 14 L254 74 Q262 69 292.5 57 Q323 45 381 45 Q435 45 465 72 Q495 99 495 145 Q495 167 489.5 183.5 Q484 200 471 214 Q458 228 438 240.5 Q418 253 390 268 Q357 285 335.5 298 Q314 311 301.5 324.5 Q289 338 284 353 Q279 368 279 390 Q279 424 298.5 450 Q318 476 344 503 Q359 519 371.5 531.5 Q384 544 392.5 557 Q401 570 405.5 584 Q410 598 410 616 Q410 661 379 689.5 Q348 718 295 718 Q218 718 184.5 675 Q151 632 151 560 L151 0 L86 0 L86 564 Q86 612 100 651.5 Q114 691 140.5 718.5 Q167 746 204 761 Q241 776 287 776 Q385 776 430 732.5 Q475 689 475 619 Z" /><glyph glyph-name="ae" unicode="æ" d="M728 300 Q726 381 690 426 Q654 471 588 471 Q553 471 525.5 457 Q498 443 477.5 419.5 Q457 396 445.5 365 Q434 334 432 300 L728 300 ZM252 -11 Q208 -11 170.5 -2 Q133 7 106 26.5 Q79 46 63.5 76.5 Q48 107 48 151 Q48 193 64 223 Q80 253 109 272.5 Q138 292 178 301 Q218 310 265 310 Q279 310 294.5 308.5 Q310 307 324.5 304.5 Q339 302 349.5 299.5 Q360 297 364 295 L364 327 Q364 354 360 379.5 Q356 405 342.5 425.5 Q329 446 304.5 458.5 Q280 471 240 471 Q186 471 156 463.5 Q126 456 113 451 L105 507 Q122 515 158 522 Q194 529 243 529 Q314 529 354.5 502.5 Q395 476 412 431 Q445 480 491 504.5 Q537 529 587 529 Q682 529 738.5 467 Q795 405 795 276 Q795 268 794.5 260 Q794 252 793 245 L430 245 Q433 150 477 99 Q521 48 617 48 Q670 48 701 58 Q732 68 746 75 L758 19 Q744 11 705.5 0 Q667 -11 615 -11 Q558 -11 514 3 Q470 17 437 49 Q426 40 409.5 29.5 Q393 19 370 10 Q347 1 318 -5 Q289 -11 252 -11 ZM365 238 Q354 243 329.5 248.5 Q305 254 263 254 Q239 254 213 250.5 Q187 247 165 235.5 Q143 224 129 204 Q115 184 115 151 Q115 122 125 102 Q135 82 153.5 70 Q172 58 197 52.5 Q222 47 252 47 Q314 47 350 63.5 Q386 80 400 93 Q384 119 375 154.5 Q366 190 365 238 Z" /><glyph glyph-name="ccedilla" unicode="ç" d="M294 -36 Q322 -48 338.5 -65.5 Q355 -83 355 -112 Q355 -124 351 -137.5 Q347 -151 336 -162 Q325 -173 306 -180 Q287 -187 257 -187 Q237 -187 216 -183.5 Q195 -180 186 -175 L194 -132 Q205 -137 219 -139 Q233 -141 253 -141 Q294 -141 294 -112 Q294 -95 280 -86 Q266 -77 236 -65 Q240 -53 246.5 -37.5 Q253 -22 261 -8 Q160 4 107.5 75 Q55 146 55 257 Q55 318 71.5 368 Q88 418 119 454 Q150 490 194 509.5 Q238 529 293 529 Q335 529 371.5 522 Q408 515 428 504 L411 448 Q391 458 366 464 Q341 470 299 470 Q213 470 168.5 414.5 Q124 359 124 257 Q124 211 134 172.5 Q144 134 166.5 106.5 Q189 79 224.5 63.5 Q260 48 311 48 Q353 48 381.5 57.5 Q410 67 423 74 L437 18 Q420 8 383 -1 Q346 -10 305 -11 Q302 -18 299 -24.5 Q296 -31 294 -36 Z" /><glyph glyph-name="eth" unicode="ð" d="M433 634 Q474 571 496 495 Q518 419 518 330 Q518 270 508.5 209 Q499 148 472.5 99 Q446 50 399 19 Q352 -12 277 -12 Q225 -12 184 8.5 Q143 29 114.5 64 Q86 99 70.5 145.5 Q55 192 55 245 Q55 303 72 348 Q89 393 119.5 424 Q150 455 192.5 471 Q235 487 286 487 Q316 487 340.5 481.5 Q365 476 384.5 468 Q404 460 418.5 451 Q433 442 441 435 Q436 477 419 523 Q402 569 373 613 L242 567 L225 612 L343 653 Q302 702 245 737 L288 776 Q355 735 403 675 L523 717 L540 672 L433 634 ZM450 331 Q450 340 450 348.5 Q450 357 449 366 Q414 401 375 415 Q336 429 294 429 Q249 429 216.5 414.5 Q184 400 163.5 375.5 Q143 351 133 317.5 Q123 284 123 245 Q123 205 133 169 Q143 133 162.5 106 Q182 79 210.5 63 Q239 47 277 47 Q331 47 364.5 71.5 Q398 96 417 136 Q436 176 443 227 Q450 278 450 331 Z" /><glyph glyph-name="divide" unicode="÷" d="M281 51 Q261 51 247.5 65 Q234 79 234 100 Q234 122 247.5 136 Q261 150 281 150 Q302 150 315.5 136 Q329 122 329 100 Q329 79 315.5 65 Q302 51 281 51 ZM281 427 Q261 427 247.5 441 Q234 455 234 477 Q234 498 247.5 512 Q261 526 281 526 Q302 526 315.5 512 Q329 498 329 477 Q329 455 315.5 441 Q302 427 281 427 ZM56 317 L508 317 L508 261 L56 261 L56 317 Z" /><glyph glyph-name="oslash" unicode="ø" d="M527 258 Q527 197 509.5 147 Q492 97 460.5 62 Q429 27 386 7.5 Q343 -12 291 -12 Q211 -12 152 33 L101 -34 L58 -2 L114 70 Q85 105 70 152.5 Q55 200 55 258 Q55 319 72.5 369 Q90 419 121.5 454.5 Q153 490 196 509.5 Q239 529 291 529 Q372 529 432 481 L483 548 L525 517 L469 444 Q497 409 512 362 Q527 315 527 258 ZM124 258 Q124 178 155 124 L394 432 Q374 450 348 460 Q322 470 291 470 Q214 470 169 412.5 Q124 355 124 258 ZM458 258 Q458 336 427 390 L190 82 Q231 47 291 47 Q368 47 413 104 Q458 161 458 258 Z" /><glyph glyph-name="thorn" unicode="þ" d="M151 776 L151 502 Q215 527 278 527 Q334 527 380 508 Q426 489 459 454 Q492 419 510 369 Q528 319 528 257 Q528 198 512.5 148.5 Q497 99 467 63.5 Q437 28 393.5 8 Q350 -12 294 -12 Q243 -12 205.5 2.5 Q168 17 151 30 L151 -185 L86 -185 L86 764 L151 776 ZM151 93 Q160 86 173.5 78 Q187 70 205 63 Q223 56 244 51.5 Q265 47 288 47 Q336 47 368.5 63.5 Q401 80 421 108.5 Q441 137 450 175.5 Q459 214 459 257 Q459 358 407.5 413 Q356 468 272 468 Q230 468 196 459 Q162 450 151 445 L151 93 Z" /><glyph glyph-name="Aogonek" unicode="&#x104;" d="M539 -15 Q544 -10 548 -6.5 Q552 -3 556 0 Q537 51 520 98 Q503 145 487 190 L150 190 Q133 145 116 98 Q99 51 81 0 L10 0 Q50 108 85 201.5 Q120 295 153.5 378.5 Q187 462 220 539 Q253 616 290 693 L350 693 Q387 616 420 539 Q453 462 486 379 Q519 296 554 203 Q589 110 630 2 Q619 -6 608 -15.5 Q597 -25 585 -38 Q569 -55 559.5 -69.5 Q550 -84 550 -101 Q550 -119 562 -127 Q574 -135 592 -135 Q601 -135 611.5 -133.5 Q622 -132 630 -129 L635 -177 Q627 -180 611.5 -183 Q596 -186 581 -186 Q527 -186 505 -166.5 Q483 -147 483 -116 Q483 -85 500 -60.5 Q517 -36 539 -15 ZM318 615 Q280 529 244.5 440 Q209 351 171 248 L466 248 Q428 351 392 440 Q356 529 318 615 Z" /><glyph glyph-name="aogonek" unicode="&#x105;" d="M243 529 Q294 529 329.5 514.5 Q365 500 387 474.5 Q409 449 419 414 Q429 379 429 338 L429 10 Q405 -9 380 -36 Q364 -53 354.5 -68.5 Q345 -84 345 -101 Q345 -119 357 -127 Q369 -135 387 -135 Q396 -135 406.5 -133.5 Q417 -132 425 -129 L430 -177 Q422 -180 406.5 -183 Q391 -186 376 -186 Q322 -186 300 -166.5 Q278 -147 278 -116 Q278 -97 284.5 -81 Q291 -65 301.5 -51 Q312 -37 325.5 -25.5 Q339 -14 352 -4 Q327 -7 298 -9 Q269 -11 238 -11 Q197 -11 162.5 -2 Q128 7 102.5 26.5 Q77 46 62.5 76.5 Q48 107 48 151 Q48 193 64 223 Q80 253 109 272.5 Q138 292 178 301 Q218 310 265 310 Q279 310 294.5 308.5 Q310 307 324.5 304.5 Q339 302 349.5 299.5 Q360 297 364 295 L364 327 Q364 354 360 379.5 Q356 405 342.5 425.5 Q329 446 304.5 458.5 Q280 471 240 471 Q186 471 156 463.5 Q126 456 113 451 L105 507 Q122 515 158 522 Q194 529 243 529 ZM249 47 Q287 47 315.5 49.5 Q344 52 364 56 L364 238 Q353 243 329 248.5 Q305 254 263 254 Q239 254 213 250.5 Q187 247 165 235.5 Q143 224 129 204 Q115 184 115 151 Q115 122 124.5 102 Q134 82 151.5 70 Q169 58 193.5 52.5 Q218 47 249 47 Z" /><glyph glyph-name="dcroat" unicode="&#x111;" d="M497 680 L577 680 L577 628 L497 628 L497 16 Q468 6 423 -3 Q378 -12 309 -12 Q252 -12 205.5 6.5 Q159 25 125.5 60 Q92 95 73.5 145 Q55 195 55 258 Q55 317 70.5 366.5 Q86 416 116 452 Q146 488 189.5 508 Q233 528 289 528 Q340 528 377.5 513.5 Q415 499 432 486 L432 628 L250 628 L250 680 L432 680 L432 764 L497 776 L497 680 ZM432 423 Q423 430 409.5 438 Q396 446 378 453 Q360 460 339 464.5 Q318 469 295 469 Q247 469 214.5 452 Q182 435 162 406.5 Q142 378 133 339.5 Q124 301 124 258 Q124 156 175 101.5 Q226 47 310 47 Q358 47 387.5 51.5 Q417 56 432 61 L432 423 Z" /><glyph glyph-name="Eogonek" unicode="&#x118;" d="M90 0 L90 693 L490 693 L490 634 L158 634 L158 393 L454 393 L454 335 L158 335 L158 59 L516 59 L516 2 Q505 -6 494 -15.5 Q483 -25 471 -38 Q455 -55 445.5 -69.5 Q436 -84 436 -101 Q436 -119 448 -127 Q460 -135 478 -135 Q487 -135 497.5 -133.5 Q508 -132 516 -129 L521 -177 Q513 -180 497.5 -183 Q482 -186 467 -186 Q413 -186 391 -166.5 Q369 -147 369 -116 Q369 -85 385.5 -61 Q402 -37 424 -17 Q429 -12 434.5 -8 Q440 -4 445 0 L90 0 Z" /><glyph glyph-name="eogonek" unicode="&#x119;" d="M55 259 Q55 327 74.5 377.5 Q94 428 125.5 462 Q157 496 197.5 512.5 Q238 529 281 529 Q376 529 432.5 467 Q489 405 489 276 Q489 268 488.5 260 Q488 252 487 245 L124 245 Q127 150 171 99 Q215 48 311 48 Q364 48 395 58 Q426 68 440 75 L452 19 Q413 -11 386 -38 Q370 -55 360.5 -70 Q351 -85 351 -101 Q351 -119 363 -127 Q375 -135 393 -135 Q402 -135 412.5 -133.5 Q423 -132 431 -129 L436 -177 Q428 -180 412.5 -183 Q397 -186 382 -186 Q328 -186 306 -166.5 Q284 -147 284 -116 Q284 -98 291 -82 Q298 -66 308.5 -51.5 Q319 -37 332 -25.5 Q345 -14 358 -5 Q333 -10 309 -10 Q241 -10 193 10 Q145 30 114 65.5 Q83 101 69 150.5 Q55 200 55 259 ZM422 300 Q420 381 384 426 Q348 471 282 471 Q247 471 219.5 457 Q192 443 171.5 419.5 Q151 396 139.5 365 Q128 334 126 300 L422 300 Z" /><glyph glyph-name="Hbar" unicode="&#x126;" d="M616 532 L616 0 L548 0 L548 333 L172 333 L172 0 L104 0 L104 532 L24 532 L24 586 L104 586 L104 693 L172 693 L172 586 L548 586 L548 693 L616 693 L616 586 L696 586 L696 532 L616 532 ZM548 532 L172 532 L172 392 L548 392 L548 532 Z" /><glyph glyph-name="hbar" unicode="&#x127;" d="M86 0 L86 628 L6 628 L6 680 L86 680 L86 764 L151 776 L151 680 L338 680 L338 628 L151 628 L151 502 Q183 514 216 520.5 Q249 527 282 527 Q342 527 382 510 Q422 493 446 461.5 Q470 430 479.5 386 Q489 342 489 289 L489 0 L424 0 L424 268 Q424 323 416.5 361 Q409 399 391.5 423 Q374 447 345 457.5 Q316 468 272 468 Q255 468 235.5 465 Q216 462 199 458.5 Q182 455 168.5 451 Q155 447 151 445 L151 0 L86 0 Z" /><glyph glyph-name="Iogonek" unicode="&#x12e;" d="M158 0 Q148 -8 137.5 -17 Q127 -26 116 -38 Q100 -55 91 -69.5 Q82 -84 82 -101 Q82 -119 94 -127 Q106 -135 124 -135 Q133 -135 143.5 -133.5 Q154 -132 162 -129 L167 -177 Q159 -180 143.5 -183 Q128 -186 113 -186 Q59 -186 37 -166.5 Q15 -147 15 -116 Q15 -85 31 -61 Q47 -37 69 -17 Q74 -12 79.5 -8 Q85 -4 90 0 L90 693 L158 693 L158 0 Z" /><glyph glyph-name="iogonek" unicode="&#x12f;" d="M151 0 Q143 -8 132 -17 Q121 -26 110 -38 Q94 -55 86 -69.5 Q78 -84 78 -101 Q78 -119 90 -127 Q102 -135 120 -135 Q129 -135 139.5 -133.5 Q150 -132 158 -129 L163 -177 Q155 -180 139.5 -183 Q124 -186 109 -186 Q55 -186 33 -166.5 Q11 -147 11 -116 Q11 -85 27 -61 Q43 -37 65 -17 Q70 -12 75.5 -8 Q81 -4 86 0 L86 517 L151 517 L151 0 ZM166 673 Q166 650 152 636.5 Q138 623 118 623 Q98 623 84 636.5 Q70 650 70 673 Q70 696 84 709.5 Q98 723 118 723 Q138 723 152 709.5 Q166 696 166 673 Z" /><glyph glyph-name="dotlessi" unicode="&#x131;" d="M151 0 L86 0 L86 517 L151 517 L151 0 Z" /><glyph glyph-name="Lslash" unicode="&#x141;" d="M285 449 L308 401 L172 330 L172 59 L498 59 L498 0 L104 0 L104 295 L26 255 L1 303 L104 356 L104 693 L172 693 L172 391 L285 449 Z" /><glyph glyph-name="lslash" unicode="&#x142;" d="M229 477 L251 429 L155 379 L155 125 Q155 101 159.5 86.5 Q164 72 173 63.5 Q182 55 196.5 51 Q211 47 231 44 L222 -10 Q189 -8 164.5 -0.5 Q140 7 123.5 22 Q107 37 98.5 61.5 Q90 86 90 123 L90 345 L36 317 L13 364 L90 404 L90 764 L155 776 L155 439 L229 477 Z" /><glyph glyph-name="Eng" unicode="&#x14a;" d="M552 17 Q531 54 501.5 101 Q472 148 437.5 200 Q403 252 365.5 306 Q328 360 291 411 Q254 462 219.5 506.5 Q185 551 157 584 L157 0 L90 0 L90 693 L144 693 Q195 636 253.5 561.5 Q312 487 368 409.5 Q424 332 472.5 258 Q521 184 552 129 L552 693 L619 693 L619 -26 Q619 -60 615 -89.5 Q611 -119 597.5 -140.5 Q584 -162 559.5 -174.5 Q535 -187 493 -187 Q476 -187 460.5 -184 Q445 -181 437 -178 L446 -124 Q451 -126 461 -128 Q471 -130 483 -130 Q521 -130 536.5 -107.5 Q552 -85 552 -37 L552 17 Z" /><glyph glyph-name="eng" unicode="&#x14b;" d="M424 268 Q424 323 416.5 361 Q409 399 391.5 423 Q374 447 345.5 457.5 Q317 468 274 468 Q228 468 194.5 463 Q161 458 151 454 L151 0 L86 0 L86 499 Q115 507 164 517 Q213 527 284 527 Q343 527 382.5 510 Q422 493 445.5 461.5 Q469 430 479 386 Q489 342 489 289 L489 -26 Q489 -60 485 -89.5 Q481 -119 468 -140.5 Q455 -162 430.5 -174 Q406 -186 364 -186 Q347 -186 333 -183.5 Q319 -181 311 -178 L320 -125 Q332 -130 356 -130 Q394 -130 409 -107.5 Q424 -85 424 -37 L424 268 Z" /><glyph glyph-name="Scedilla" unicode="&#x15e;" d="M264 -36 Q292 -48 308.5 -65.5 Q325 -83 325 -112 Q325 -124 321 -137.5 Q317 -151 306 -162 Q295 -173 276 -180 Q257 -187 227 -187 Q207 -187 186 -183.5 Q165 -180 156 -175 L164 -132 Q175 -137 189 -139 Q203 -141 223 -141 Q264 -141 264 -112 Q264 -95 250 -86 Q236 -77 206 -65 Q209 -54 215 -41 Q221 -28 228 -15 Q190 -14 158.5 -9 Q127 -4 102.5 3.5 Q78 11 60.5 18.5 Q43 26 34 32 L56 91 Q66 85 83 77 Q100 69 123 61.5 Q146 54 175 49 Q204 44 239 44 Q320 44 365 73.5 Q410 103 410 169 Q410 207 395.5 232.5 Q381 258 357 275.5 Q333 293 302 305.5 Q271 318 237 332 Q194 349 160 367 Q126 385 102 407.5 Q78 430 65.5 459 Q53 488 53 527 Q53 616 112 662 Q171 708 276 708 Q304 708 331 704 Q358 700 381.5 693.5 Q405 687 424.5 679 Q444 671 457 662 L433 605 Q404 625 362.5 637 Q321 649 273 649 Q240 649 212.5 642.5 Q185 636 165 621.5 Q145 607 133.5 585 Q122 563 122 532 Q122 500 134 478 Q146 456 167.5 440 Q189 424 218 411 Q247 398 281 384 Q322 367 358.5 350 Q395 333 422 310 Q449 287 465 254 Q481 221 481 173 Q481 86 426 40 Q371 -6 274 -13 Q271 -19 268.5 -25 Q266 -31 264 -36 Z" /><glyph glyph-name="scedilla" unicode="&#x15f;" d="M221 -36 Q249 -48 265.5 -65.5 Q282 -83 282 -112 Q282 -124 278 -137.5 Q274 -151 263 -162 Q252 -173 233 -180 Q214 -187 184 -187 Q164 -187 143 -183.5 Q122 -180 113 -175 L121 -132 Q132 -137 146 -139 Q160 -141 180 -141 Q221 -141 221 -112 Q221 -95 207 -86 Q193 -77 163 -65 Q167 -54 173 -39.5 Q179 -25 186 -12 Q121 -11 86 0 Q51 11 40 17 L57 76 Q60 74 70 69.5 Q80 65 97 59.5 Q114 54 137.5 50 Q161 46 192 46 Q248 46 284.5 64.5 Q321 83 321 127 Q321 148 314.5 163 Q308 178 293 190 Q278 202 253.5 213 Q229 224 193 239 Q164 251 138 263.5 Q112 276 92 292.5 Q72 309 60 332 Q48 355 48 388 Q48 451 95.5 490 Q143 529 226 529 Q279 529 313.5 520 Q348 511 362 504 L347 446 Q335 452 306.5 462 Q278 472 223 472 Q201 472 181.5 467.5 Q162 463 147 453.5 Q132 444 123 429.5 Q114 415 114 394 Q114 373 122 358 Q130 343 145.5 331.5 Q161 320 183.5 310 Q206 300 235 288 Q265 276 292.5 263.5 Q320 251 341 233.5 Q362 216 375 191.5 Q388 167 388 130 Q388 68 346.5 33 Q305 -2 233 -9 Q225 -24 221 -36 Z" /><glyph glyph-name="uni0162" unicode="&#x162;" d="M281 -36 Q309 -48 325.5 -65.5 Q342 -83 342 -112 Q342 -124 338 -137.5 Q334 -151 323 -162 Q312 -173 293 -180 Q274 -187 244 -187 Q224 -187 203 -183.5 Q182 -180 173 -175 L181 -132 Q192 -137 206 -139 Q220 -141 240 -141 Q281 -141 281 -112 Q281 -95 267 -86 Q253 -77 223 -65 Q228 -51 236 -32.5 Q244 -14 252 0 L240 0 L240 634 L18 634 L18 693 L530 693 L530 634 L308 634 L308 0 L298 0 Q293 -9 288.5 -18.5 Q284 -28 281 -36 Z" /><glyph glyph-name="uni0163" unicode="&#x163;" d="M243 -36 Q271 -48 287.5 -65.5 Q304 -83 304 -112 Q304 -124 300 -137.5 Q296 -151 285 -162 Q274 -173 255 -180 Q236 -187 206 -187 Q186 -187 165 -183.5 Q144 -180 135 -175 L143 -132 Q154 -137 168 -139 Q182 -141 202 -141 Q243 -141 243 -112 Q243 -95 229 -86 Q215 -77 185 -65 Q188 -55 194 -42 Q200 -29 206 -17 Q208 -12 210 -8 Q187 -5 169 1 Q137 14 117.5 39.5 Q98 65 90 103 Q82 141 82 193 L82 669 L147 681 L147 517 L353 517 L353 462 L147 462 L147 187 Q147 143 154.5 115.5 Q162 88 176 73 Q190 58 210 53 Q230 48 254 48 Q295 48 320 57.5 Q345 67 359 75 L375 21 Q361 12 326 0 Q293 -10 254 -11 Q247 -25 243 -36 Z" /><glyph glyph-name="Tbar" unicode="&#x166;" d="M530 693 L530 634 L308 634 L308 383 L432 383 L432 329 L308 329 L308 0 L240 0 L240 329 L116 329 L116 383 L240 383 L240 634 L18 634 L18 693 L530 693 Z" /><glyph glyph-name="tbar" unicode="&#x167;" d="M147 517 L353 517 L353 462 L147 462 L147 298 L349 298 L349 245 L147 245 L147 187 Q147 143 154.5 115.5 Q162 88 176 73 Q190 58 210 53 Q230 48 254 48 Q295 48 320 57.5 Q345 67 359 75 L375 21 Q361 12 326 0.5 Q291 -11 250 -11 Q202 -11 169.5 1.5 Q137 14 117.5 39.5 Q98 65 90 103 Q82 141 82 193 L82 669 L147 681 L147 517 Z" /><glyph glyph-name="Uogonek" unicode="&#x172;" d="M361 -14 Q355 -15 350 -15 Q345 -15 340 -15 Q271 -15 222.5 6 Q174 27 144 64 Q114 101 100.5 150.5 Q87 200 87 257 L87 693 L155 693 L155 266 Q155 209 168.5 167.5 Q182 126 206 99 Q230 72 264 59 Q298 46 340 46 Q382 46 416 59 Q450 72 474 99 Q498 126 511.5 167.5 Q525 209 525 266 L525 693 L593 693 L593 257 Q593 179 567.5 116 Q542 53 483 19 Q463 8 442.5 -5.5 Q422 -19 404 -38 Q388 -55 378.5 -69.5 Q369 -84 369 -101 Q369 -119 381 -127 Q393 -135 411 -135 Q420 -135 430.5 -133.5 Q441 -132 449 -129 L454 -177 Q446 -180 430.5 -183 Q415 -186 400 -186 Q346 -186 324 -166.5 Q302 -147 302 -116 Q302 -85 319 -60.5 Q336 -36 361 -14 Z" /><glyph glyph-name="uogonek" unicode="&#x173;" d="M412 1 Q386 -3 354.5 -6.5 Q323 -10 285 -10 Q227 -10 188 7 Q149 24 125 55 Q101 86 90.5 130 Q80 174 80 227 L80 517 L145 517 L145 248 Q145 193 153 155 Q161 117 179 93.5 Q197 70 225.5 59.5 Q254 49 295 49 Q341 49 375 54 Q409 59 418 63 L418 517 L483 517 L483 13 Q471 3 459 -9.5 Q447 -22 433 -36 Q417 -53 407.5 -68.5 Q398 -84 398 -101 Q398 -119 410 -127 Q422 -135 440 -135 Q449 -135 459.5 -133.5 Q470 -132 478 -129 L483 -177 Q475 -180 459.5 -183 Q444 -186 429 -186 Q375 -186 353 -166.5 Q331 -147 331 -116 Q331 -78 355.5 -50 Q380 -22 412 1 Z" /><glyph glyph-name="longs" unicode="&#x17f;" d="M151 0 L86 0 L86 573 Q86 674 132.5 725 Q179 776 276 776 Q318 776 344.5 769.5 Q371 763 379 758 L366 702 Q355 707 333.5 712.5 Q312 718 279 718 Q210 718 180.5 683 Q151 648 151 571 L151 0 Z" /><glyph glyph-name="dotlessj" unicode="&#x237;" d="M-11 -187 Q-22 -187 -38.5 -184 Q-55 -181 -63 -177 L-54 -124 Q-47 -126 -35 -128 Q-23 -130 -12 -130 Q47 -130 66.5 -97 Q86 -64 86 2 L86 517 L151 517 L151 5 Q151 -93 114 -140 Q77 -187 -11 -187 Z" /><glyph glyph-name="apostrophe" unicode="&#x2bc;" d="M235 776 Q235 713 217 666 Q199 619 169 569 L124 590 Q141 625 152.5 664 Q164 703 164 741 Q164 750 163.5 760.5 Q163 771 162 776 L235 776 Z" /><glyph glyph-name="caron" unicode="&#x2c7;" d="M188 669 L292 765 L320 734 L188 587 L56 734 L84 765 L188 669 Z" /><glyph glyph-name="breve" unicode="&#x2d8;" d="M188 613 Q164 613 141.5 621 Q119 629 101.5 645 Q84 661 74.5 686 Q65 711 66 746 L109 746 Q109 739 111.5 726 Q114 713 122 700.5 Q130 688 145.5 678.5 Q161 669 188 669 Q215 669 230.5 678.5 Q246 688 254 700.5 Q262 713 264.5 726 Q267 739 267 746 L310 746 Q311 711 301.5 686 Q292 661 274.5 645 Q257 629 234.5 621 Q212 613 188 613 Z" /><glyph glyph-name="dotaccent" unicode="&#x2d9;" d="M188 623 Q168 623 154 636.5 Q140 650 140 673 Q140 696 154 709.5 Q168 723 188 723 Q208 723 222 709.5 Q236 696 236 673 Q236 650 222 636.5 Q208 623 188 623 Z" /><glyph glyph-name="ring" unicode="&#x2da;" d="M283 676 Q283 654 275.5 636.5 Q268 619 255 606.5 Q242 594 224.5 587 Q207 580 188 580 Q149 580 120.5 606 Q92 632 92 676 Q92 719 120.5 745 Q149 771 188 771 Q207 771 224.5 764 Q242 757 255 744.5 Q268 732 275.5 714.5 Q283 697 283 676 ZM245 676 Q245 704 228.5 719.5 Q212 735 188 735 Q164 735 147.5 719.5 Q131 704 131 676 Q131 647 147.5 632 Q164 617 188 617 Q212 617 228.5 632 Q245 647 245 676 Z" /><glyph glyph-name="ogonek" unicode="&#x2db;" d="M177 -186 Q123 -186 101 -166.5 Q79 -147 79 -116 Q79 -85 95.5 -61 Q112 -37 134 -17 Q142 -10 149.5 -3.5 Q157 3 165 8 L234 8 Q222 -1 208.5 -12 Q195 -23 181 -38 Q165 -55 155.5 -69.5 Q146 -84 146 -101 Q146 -119 158 -127 Q170 -135 188 -135 Q197 -135 207.5 -133.5 Q218 -132 226 -129 L231 -177 Q223 -180 207.5 -183 Q192 -186 177 -186 Z" /><glyph glyph-name="hungarumlaut" unicode="&#x2dd;" d="M190 731 L64 582 L25 611 L144 773 L190 731 ZM347 731 L221 582 L182 611 L301 773 L347 731 Z" /><glyph glyph-name="fraction" unicode="&#x2044;" d="M238 693 L304 693 L-91 0 L-157 0 L238 693 Z" /><glyph glyph-name="zerosuperior" unicode="&#x2070;" d="M179 708 Q242 708 282 657.5 Q322 607 322 508 Q322 409 282 358.5 Q242 308 179 308 Q116 308 76 358.5 Q36 409 36 508 Q36 607 76 657.5 Q116 708 179 708 ZM179 357 Q204 357 220.5 369 Q237 381 247 401.5 Q257 422 261 449.5 Q265 477 265 508 Q265 539 261 566.5 Q257 594 247 614.5 Q237 635 220.5 647 Q204 659 179 659 Q154 659 137.5 647 Q121 635 111 614.5 Q101 594 97 566.5 Q93 539 93 508 Q93 477 97 449.5 Q101 422 111 401.5 Q121 381 137.5 369 Q154 357 179 357 Z" /><glyph glyph-name="foursuperior" unicode="&#x2074;" d="M325 457 L325 413 L274 413 L274 317 L221 317 L221 413 L33 413 L33 446 Q43 466 63.5 499 Q84 532 110.5 569 Q137 606 167.5 641 Q198 676 227 699 L274 699 L274 457 L325 457 ZM221 457 L221 636 Q204 619 185 596 Q166 573 148.5 548.5 Q131 524 115.5 499.5 Q100 475 90 457 L221 457 Z" /><glyph glyph-name="fivesuperior" unicode="&#x2075;" d="M305 425 Q305 374 268.5 341.5 Q232 309 150 309 Q120 309 90 316 Q60 323 46 331 L57 377 Q63 374 73 370.5 Q83 367 96 363.5 Q109 360 123 357.5 Q137 355 150 355 Q181 355 200.5 361 Q220 367 230.5 377 Q241 387 245 399 Q249 411 249 423 Q249 440 242.5 455.5 Q236 471 217.5 483 Q199 495 164.5 502 Q130 509 73 509 Q80 559 85 602 Q90 645 92 699 L286 699 L286 651 L138 651 Q136 628 134 602.5 Q132 577 127 552 Q219 546 262 515 Q305 484 305 425 Z" /><glyph glyph-name="sixsuperior" unicode="&#x2076;" d="M108 536 Q129 546 148.5 549 Q168 552 182 552 Q220 552 246.5 542.5 Q273 533 289 516.5 Q305 500 312 479 Q319 458 319 435 Q319 413 311 390.5 Q303 368 287 349.5 Q271 331 245.5 319.5 Q220 308 186 308 Q114 308 80 352 Q46 396 46 471 Q46 583 110.5 640.5 Q175 698 286 702 L292 655 Q217 653 167.5 622 Q118 591 108 536 ZM102 493 Q101 488 101 483.5 Q101 479 101 475 Q101 449 105 427 Q109 405 118.5 388.5 Q128 372 144 363 Q160 354 185 354 Q206 354 220.5 361 Q235 368 244.5 379 Q254 390 258.5 404 Q263 418 263 432 Q263 472 243.5 489.5 Q224 507 183 507 Q161 507 139 503.5 Q117 500 102 493 Z" /><glyph glyph-name="sevensuperior" unicode="&#x2077;" d="M153 317 L100 317 Q103 356 117.5 403.5 Q132 451 153 497 Q174 543 199.5 583.5 Q225 624 249 649 L45 649 L45 699 L316 699 L316 658 Q295 638 268.5 601.5 Q242 565 217 518.5 Q192 472 174 420 Q156 368 153 317 Z" /><glyph glyph-name="eightsuperior" unicode="&#x2078;" d="M316 420 Q316 371 279 339.5 Q242 308 178 308 Q142 308 116 317 Q90 326 73.5 341 Q57 356 49.5 375.5 Q42 395 42 415 Q42 453 62.5 476 Q83 499 109 513 Q86 525 69.5 546.5 Q53 568 53 603 Q53 625 62.5 644 Q72 663 88.5 677.5 Q105 692 128 700 Q151 708 178 708 Q210 708 233.5 699.5 Q257 691 272.5 677.5 Q288 664 295.5 646 Q303 628 303 610 Q303 575 286 552.5 Q269 530 245 514 Q284 498 300 472.5 Q316 447 316 420 ZM94 421 Q94 410 97.5 398 Q101 386 110.5 376 Q120 366 136.5 359.5 Q153 353 178 353 Q224 353 243 373 Q262 393 262 416 Q262 445 235 464.5 Q208 484 147 497 Q123 485 108.5 466.5 Q94 448 94 421 ZM251 607 Q251 629 233 646.5 Q215 664 178 664 Q143 664 124 647 Q105 630 105 604 Q105 574 127.5 557.5 Q150 541 203 528 Q228 544 239.5 562.5 Q251 581 251 607 Z" /><glyph glyph-name="ninesuperior" unicode="&#x2079;" d="M251 482 Q230 472 210.5 469 Q191 466 177 466 Q139 466 112.5 475.5 Q86 485 70 501 Q54 517 47 538 Q40 559 40 582 Q40 604 48 626.5 Q56 649 72 667 Q88 685 113 696.5 Q138 708 173 708 Q245 708 279 664 Q313 620 313 545 Q313 435 248.5 375 Q184 315 61 314 L59 361 Q144 361 193.5 394 Q243 427 251 482 ZM176 511 Q198 511 220 514.5 Q242 518 257 525 Q258 530 258 534.5 Q258 539 258 543 Q258 595 240.5 628.5 Q223 662 174 662 Q153 662 138.5 655.5 Q124 649 114.5 638 Q105 627 100.5 613 Q96 599 96 585 Q96 545 115.5 528 Q135 511 176 511 Z" /><glyph glyph-name="afii61289" unicode="&#x2113;" d="M110 257 L110 548 Q110 594 116.5 635.5 Q123 677 139 708.5 Q155 740 183 758 Q211 776 255 776 Q298 776 323.5 759 Q349 742 363 716.5 Q377 691 381.5 661.5 Q386 632 386 607 Q386 495 333 408 Q280 321 175 243 L175 198 Q175 172 178 145 Q181 118 192.5 95.5 Q204 73 225 59 Q246 45 282 45 Q311 45 330 53 Q349 61 368 75 L394 22 Q376 8 347 -3.5 Q318 -15 276 -15 Q228 -15 196 -1.5 Q164 12 145 36.5 Q126 61 118 96.5 Q110 132 110 176 L110 197 L30 139 L3 179 L110 257 ZM175 304 Q211 335 238.5 366.5 Q266 398 285 433.5 Q304 469 313.5 510.5 Q323 552 323 602 Q323 621 320.5 641 Q318 661 310.5 678 Q303 695 289.5 706 Q276 717 255 717 Q240 717 225.5 709.5 Q211 702 199.5 683.5 Q188 665 181.5 632.5 Q175 600 175 550 L175 304 Z" /><glyph glyph-name="estimated" unicode="&#x212e;" d="M217 337 Q212 337 212 333 L212 136 Q212 123 221 114 Q269 63 331 35 Q393 7 466 7 Q545 7 611 39.5 Q677 72 725 126 L782 126 Q756 94 721.5 68.5 Q687 43 646 25 Q605 7 559 -3 Q513 -13 465 -13 Q382 -13 309 15.5 Q236 44 182 92.5 Q128 141 96.5 206.5 Q65 272 65 347 Q65 422 96.5 487.5 Q128 553 182 602 Q236 651 309 679.5 Q382 708 465 708 Q548 708 621.5 679.5 Q695 651 749.5 602 Q804 553 835.5 487.5 Q867 422 867 347 L867 337 L217 337 ZM719 560 Q719 573 710 584 Q662 632 600 659 Q538 686 466 686 Q394 686 332 657 Q270 628 222 580 Q217 576 214.5 569.5 Q212 563 212 556 L212 363 Q212 356 217 356 L715 356 Q719 356 719 363 L719 560 Z" /><glyph glyph-name="partialdiff" unicode="&#x2202;" d="M304 432 Q254 432 218.5 413.5 Q183 395 161 364.5 Q139 334 129 294 Q119 254 119 211 Q119 125 158.5 86 Q198 47 263 47 Q303 47 333 64 Q363 81 384.5 108.5 Q406 136 420 170.5 Q434 205 441.5 241 Q449 277 452.5 310.5 Q456 344 456 369 Q421 407 381.5 419.5 Q342 432 304 432 ZM222 716 Q180 716 152.5 708.5 Q125 701 110 693 L98 751 Q118 762 157 769 Q196 776 235 776 Q321 776 377 744.5 Q433 713 466 660 Q499 607 512 537.5 Q525 468 525 392 Q525 322 512 250 Q499 178 468 119.5 Q437 61 385.5 24 Q334 -13 258 -13 Q164 -13 107 43.5 Q50 100 50 206 Q50 271 67 323.5 Q84 376 116 413.5 Q148 451 195.5 471.5 Q243 492 304 492 Q333 492 358 486 Q383 480 402.5 471 Q422 462 435.5 452.5 Q449 443 455 436 Q453 496 440.5 547 Q428 598 401 635.5 Q374 673 330 694.5 Q286 716 222 716 Z" /><glyph glyph-name="Delta" unicode="&#x2206;" d="M525 59 Q497 143 470.5 217 Q444 291 418 359 Q392 427 366 490 Q340 553 313 615 Q286 553 259.5 490 Q233 427 207 359 Q181 291 154.5 217 Q128 143 100 59 L525 59 ZM10 0 Q47 108 81 201.5 Q115 295 148 378.5 Q181 462 214.5 539 Q248 616 285 693 L345 693 Q382 616 415.5 539 Q449 462 482 378.5 Q515 295 549 201.5 Q583 108 620 0 L10 0 Z" /><glyph glyph-name="product" unicode="&#x220f;" d="M592 693 L592 -109 L524 -109 L524 634 L158 634 L158 -109 L90 -109 L90 693 L592 693 Z" /><glyph glyph-name="summation" unicode="&#x2211;" d="M114 634 Q128 610 154 572 Q180 534 211.5 489 Q243 444 277.5 396.5 Q312 349 345 306 Q313 264 279 219 Q245 174 213 128.5 Q181 83 152 38 Q123 -7 100 -50 L490 -50 L490 -109 L26 -109 L26 -57 Q44 -21 71 23.5 Q98 68 130.5 116 Q163 164 198 212.5 Q233 261 266 306 Q232 352 196.5 401.5 Q161 451 129 496.5 Q97 542 71 581 Q45 620 30 645 L30 693 L490 693 L490 634 L114 634 Z" /><glyph glyph-name="minus" unicode="&#x2212;" d="M56 317 L508 317 L508 261 L56 261 L56 317 Z" /><glyph glyph-name="radical" unicode="&#x221a;" d="M11 343 L148 387 Q188 302 222.5 220 Q257 138 286 57 L494 783 L553 783 L322 -15 L255 -15 Q222 74 184 164 Q146 254 111 327 L25 298 L11 343 Z" /><glyph glyph-name="infinity" unicode="&#x221e;" d="M263 294 Q243 337 217.5 359.5 Q192 382 157 382 Q128 382 104.5 361.5 Q81 341 81 294 Q81 247 104.5 226.5 Q128 206 157 206 Q192 206 217.5 228.5 Q243 251 263 294 ZM286 244 Q277 229 265 214 Q253 199 237 187 Q221 175 200.5 168 Q180 161 153 161 Q136 161 115 167.5 Q94 174 75 189.5 Q56 205 43 230.5 Q30 256 30 294 Q30 332 43 357.5 Q56 383 75 398.5 Q94 414 115 420.5 Q136 427 153 427 Q180 427 200.5 420 Q221 413 237 401 Q253 389 265 374 Q277 359 286 344 Q295 359 307 374 Q319 389 335 401 Q351 413 371.5 420 Q392 427 419 427 Q435 427 456.5 420.5 Q478 414 497 398.5 Q516 383 529 357.5 Q542 332 542 294 Q542 256 529 230.5 Q516 205 497 189.5 Q478 174 456.5 167.5 Q435 161 419 161 Q392 161 371.5 168 Q351 175 335 187 Q319 199 307 214 Q295 229 286 244 ZM309 294 Q329 251 354.5 228.5 Q380 206 415 206 Q444 206 467.5 226.5 Q491 247 491 294 Q491 341 467.5 361.5 Q444 382 415 382 Q380 382 354.5 359.5 Q329 337 309 294 Z" /><glyph glyph-name="integral" unicode="&#x222b;" d="M145 579 Q145 679 192.5 727.5 Q240 776 323 776 Q337 776 345 774 L345 720 L340 720 Q302 720 277 710 Q252 700 237 682 Q222 664 216 638 Q210 612 210 579 L210 12 Q210 -88 162.5 -136.5 Q115 -185 32 -185 Q18 -185 10 -183 L10 -129 L15 -129 Q53 -129 78 -119 Q103 -109 118 -91 Q133 -73 139 -47 Q145 -21 145 12 L145 579 Z" /><glyph glyph-name="notequal" unicode="&#x2260;" d="M378 427 L508 427 L508 371 L350 371 L274 217 L508 217 L508 161 L247 161 L183 32 L134 57 L185 161 L56 161 L56 217 L213 217 L289 371 L56 371 L56 427 L316 427 L381 557 L430 532 L378 427 Z" /><glyph glyph-name="lozenge" unicode="&#x25ca;" d="M274 86 Q316 145 360.5 212 Q405 279 443 346 Q405 413 360.5 480 Q316 547 274 606 Q232 547 187.5 480 Q143 413 105 346 Q143 279 187.5 212 Q232 145 274 86 ZM274 706 Q304 664 336.5 617 Q369 570 400.5 523 Q432 476 461 430.5 Q490 385 512 346 Q490 307 461 261.5 Q432 216 400.5 169 Q369 122 336.5 75 Q304 28 274 -14 Q244 28 211.5 75 Q179 122 147.5 169 Q116 216 87 261.5 Q58 307 36 346 Q58 385 87 430.5 Q116 476 147.5 523 Q179 570 211.5 617 Q244 664 274 706 Z" /><glyph glyph-name="uni0180" unicode="&#x180;" d="M151 680 L345 680 L345 628 L151 628 L151 486 Q168 499 205.5 513.5 Q243 528 294 528 Q350 528 393.5 508 Q437 488 467 452 Q497 416 512.5 366.5 Q528 317 528 258 Q528 195 509.5 145 Q491 95 457.5 60 Q424 25 377.5 6.5 Q331 -12 274 -12 Q205 -12 160 -3 Q115 6 86 16 L86 628 L6 628 L6 680 L86 680 L86 764 L151 776 L151 680 ZM151 61 Q166 56 195.5 51.5 Q225 47 273 47 Q357 47 408 101.5 Q459 156 459 258 Q459 301 450 339.5 Q441 378 421 406.5 Q401 435 368.5 452 Q336 469 288 469 Q265 469 244 464.5 Q223 460 205 453 Q187 446 173.5 438 Q160 430 151 423 L151 61 Z" /><glyph glyph-name="uni0181" unicode="&#x181;" d="M345 699 Q401 699 451.5 690 Q502 681 540 660 Q578 639 600.5 604.5 Q623 570 623 519 Q623 463 594.5 423.5 Q566 384 518 369 Q548 362 573 349 Q598 336 617 315.5 Q636 295 646.5 265.5 Q657 236 657 195 Q657 97 579 45.5 Q501 -6 338 -6 Q321 -6 298.5 -4.5 Q276 -3 252.5 -0.5 Q229 2 208 5.5 Q187 9 172 13 L172 635 Q123 632 101 607 Q79 582 79 535 Q79 530 79.5 521 Q80 512 82 503 L26 495 Q24 503 22 518.5 Q20 534 20 543 Q20 594 41.5 624.5 Q63 655 104.5 671.5 Q146 688 206.5 693.5 Q267 699 345 699 ZM240 332 L240 59 Q255 57 285 54.5 Q315 52 346 52 Q392 52 435.5 58 Q479 64 512 80 Q545 96 565 124 Q585 152 585 196 Q585 236 571 262.5 Q557 289 531 304.5 Q505 320 467.5 326 Q430 332 384 332 L240 332 ZM345 641 Q317 641 287 640.5 Q257 640 240 638 L240 390 L372 390 Q409 390 442 395.5 Q475 401 499.5 415.5 Q524 430 538 454.5 Q552 479 552 517 Q552 551 537 574.5 Q522 598 494.5 613 Q467 628 429 634.5 Q391 641 345 641 Z" /><glyph glyph-name="uni0182" unicode="&#x182;" d="M158 366 L158 60 Q177 58 203.5 55.5 Q230 53 268 53 Q313 53 354 60 Q395 67 425.5 85 Q456 103 474.5 133 Q493 163 493 209 Q493 257 475.5 287.5 Q458 318 425.5 335.5 Q393 353 347 359.5 Q301 366 244 366 L158 366 ZM253 424 Q327 424 385 412 Q443 400 482.5 374.5 Q522 349 543 308 Q564 267 564 210 Q564 101 488 47.5 Q412 -6 265 -6 Q223 -6 174.5 -1.5 Q126 3 90 13 L90 693 L502 693 L502 634 L158 634 L158 424 L253 424 Z" /><glyph glyph-name="uni0183" unicode="&#x183;" d="M151 486 Q168 499 205.5 513.5 Q243 528 294 528 Q350 528 393.5 508 Q437 488 467 452 Q497 416 512.5 366.5 Q528 317 528 258 Q528 195 509.5 145 Q491 95 457.5 60 Q424 25 377.5 6.5 Q331 -12 274 -12 Q205 -12 160 -3 Q115 6 86 16 L86 771 L469 771 L469 716 L151 716 L151 486 ZM151 61 Q166 56 195.5 51.5 Q225 47 273 47 Q357 47 408 101.5 Q459 156 459 258 Q459 301 450 339.5 Q441 378 421 406.5 Q401 435 368.5 452 Q336 469 288 469 Q265 469 244 464.5 Q223 460 205 453 Q187 446 173.5 438 Q160 430 151 423 L151 61 Z" /><glyph glyph-name="uni0184" unicode="&#x184;" d="M151 486 Q168 499 205.5 513.5 Q243 528 294 528 Q350 528 393.5 508 Q437 488 467 452 Q497 416 512.5 366.5 Q528 317 528 258 Q528 195 509.5 145 Q491 95 457.5 60 Q424 25 377.5 6.5 Q331 -12 274 -12 Q205 -12 160 -3 Q115 6 86 16 L86 651 L23 720 Q34 727 50 735 Q66 743 83.5 751 Q101 759 118.5 765.5 Q136 772 151 776 L151 486 ZM151 61 Q166 56 195.5 51.5 Q225 47 273 47 Q357 47 408 101.5 Q459 156 459 258 Q459 301 450 339.5 Q441 378 421 406.5 Q401 435 368.5 452 Q336 469 288 469 Q265 469 244 464.5 Q223 460 205 453 Q187 446 173.5 438 Q160 430 151 423 L151 61 Z" /><glyph glyph-name="uni0185" unicode="&#x185;" d="M273 375 Q237 375 209 373 Q181 371 164 369 L164 60 Q183 58 209.5 55.5 Q236 53 274 53 Q319 53 359.5 60 Q400 67 430 85 Q460 103 477.5 134.5 Q495 166 495 215 Q495 262 478.5 293 Q462 324 432.5 342 Q403 360 362 367.5 Q321 375 273 375 ZM164 428 Q181 430 212.5 432 Q244 434 269 434 Q419 434 492.5 379 Q566 324 566 215 Q566 110 495.5 52 Q425 -6 271 -6 Q229 -6 180.5 -1.5 Q132 3 96 13 L96 572 L30 641 Q43 649 59.5 657.5 Q76 666 94 673.5 Q112 681 130 687.5 Q148 694 164 698 L164 428 Z" /><glyph glyph-name="uni0186" unicode="&#x186;" d="M213 46 Q280 46 328.5 68 Q377 90 408.5 129.5 Q440 169 455 224.5 Q470 280 470 347 Q470 416 453.5 471.5 Q437 527 405 566 Q373 605 326.5 626 Q280 647 220 647 Q157 647 113.5 634.5 Q70 622 47 609 L29 666 Q37 671 54 678.5 Q71 686 96.5 692.5 Q122 699 155.5 703.5 Q189 708 228 708 Q295 708 352.5 684 Q410 660 452 614 Q494 568 518 500.5 Q542 433 542 346 Q542 259 518 191.5 Q494 124 451.5 78 Q409 32 349.5 8.5 Q290 -15 219 -15 Q184 -15 153.5 -10.5 Q123 -6 98 0.5 Q73 7 55.5 14 Q38 21 29 26 L48 84 Q71 71 112 58.5 Q153 46 213 46 Z" /><glyph glyph-name="uni0187" unicode="&#x187;" d="M395 647 Q330 647 281.5 625 Q233 603 200 563 Q167 523 150.5 468 Q134 413 134 346 Q134 277 150.5 221.5 Q167 166 199 127 Q231 88 277.5 67 Q324 46 384 46 Q450 46 494.5 58.5 Q539 71 562 84 L581 26 Q574 21 557 14.5 Q540 8 514 1 Q488 -6 454 -10.5 Q420 -15 378 -15 Q311 -15 253.5 9 Q196 33 153.5 79 Q111 125 86.5 192.5 Q62 260 62 347 Q62 434 88.5 501.5 Q115 569 159 615 Q203 661 261 684.5 Q319 708 382 708 Q427 708 461 700 Q495 692 515 683 Q528 734 558.5 759 Q589 784 644 784 Q660 784 675 781.5 Q690 779 699 775 L688 727 Q682 729 670.5 731.5 Q659 734 645 734 Q625 734 611.5 727.5 Q598 721 590 710 Q582 699 577 685.5 Q572 672 568 659 L554 609 Q548 612 532.5 618.5 Q517 625 495.5 631.5 Q474 638 448 642.5 Q422 647 395 647 Z" /><glyph glyph-name="uni0188" unicode="&#x188;" d="M367 522 Q380 573 409.5 598 Q439 623 493 623 Q509 623 524 621 Q539 619 548 615 L537 567 Q531 569 519.5 571.5 Q508 574 494 574 Q474 574 460.5 567.5 Q447 561 438.5 550 Q430 539 425.5 525.5 Q421 512 419 498 L411 451 Q391 459 364 464.5 Q337 470 299 470 Q213 470 168.5 414.5 Q124 359 124 257 Q124 211 134 172.5 Q144 134 166.5 106.5 Q189 79 224.5 63.5 Q260 48 311 48 Q353 48 381.5 57 Q410 66 423 73 L437 18 Q419 8 380.5 -1.5 Q342 -11 300 -11 Q240 -11 194 8 Q148 27 117.5 62.5 Q87 98 71 147.5 Q55 197 55 257 Q55 318 71.5 368 Q88 418 119 454 Q150 490 194 509.5 Q238 529 293 529 Q313 529 332.5 527 Q352 525 367 522 Z" /><glyph glyph-name="uni018A" unicode="&#x18a;" d="M341 699 Q425 699 495 677 Q565 655 615.5 611 Q666 567 694 501 Q722 435 722 347 Q722 258 694 192 Q666 126 615.5 82 Q565 38 495 16 Q425 -6 341 -6 Q299 -6 253 -1.5 Q207 3 172 12 L172 635 Q123 632 101 607 Q79 582 79 535 Q79 530 79.5 521 Q80 512 82 503 L26 495 Q24 503 22 518.5 Q20 534 20 543 Q20 594 41.5 624.5 Q63 655 104 671.5 Q145 688 204.5 693.5 Q264 699 341 699 ZM345 640 Q317 640 287 640 Q257 640 240 638 L240 60 Q246 59 270.5 56 Q295 53 349 53 Q424 53 480 73.5 Q536 94 574 132 Q612 170 631 224.5 Q650 279 650 347 Q650 415 631 469 Q612 523 573.5 561 Q535 599 478 619.5 Q421 640 345 640 Z" /><glyph glyph-name="uni018B" unicode="&#x18b;" d="M368 366 Q311 366 265 359.5 Q219 353 186.5 335.5 Q154 318 136.5 287.5 Q119 257 119 209 Q119 163 137.5 133 Q156 103 186.5 85 Q217 67 258 59.5 Q299 52 344 52 Q382 52 408.5 54.5 Q435 57 454 59 L454 366 L368 366 ZM454 424 L454 634 L110 634 L110 693 L522 693 L522 12 Q486 2 437.5 -2.5 Q389 -7 347 -7 Q200 -7 124 47 Q48 101 48 210 Q48 268 69 309 Q90 350 129.5 375.5 Q169 401 227 412.5 Q285 424 359 424 L454 424 Z" /><glyph glyph-name="uni018C" unicode="&#x18c;" d="M432 716 L114 716 L114 771 L497 771 L497 16 Q468 6 423 -3 Q378 -12 309 -12 Q252 -12 205.5 6.5 Q159 25 125.5 60 Q92 95 73.5 145 Q55 195 55 258 Q55 317 70.5 366.5 Q86 416 116 452 Q146 488 189.5 508 Q233 528 289 528 Q340 528 377.5 513.5 Q415 499 432 486 L432 716 ZM432 423 Q423 430 409.5 438 Q396 446 378 453 Q360 460 339 464.5 Q318 469 295 469 Q247 469 214.5 452 Q182 435 162 406.5 Q142 378 133 339.5 Q124 301 124 258 Q124 156 175 101.5 Q226 47 310 47 Q358 47 387.5 51.5 Q417 56 432 61 L432 423 Z" /><glyph glyph-name="uni018D" unicode="&#x18d;" d="M517 289 Q517 249 504.5 212 Q492 175 469.5 144 Q447 113 416 88.5 Q385 64 348 49 Q390 26 410 0.5 Q430 -25 430 -67 Q430 -102 413 -125 Q396 -148 370 -161.5 Q344 -175 312 -180 Q280 -185 249 -185 Q223 -185 199.5 -182 Q176 -179 157.5 -175 Q139 -171 125.5 -167 Q112 -163 106 -160 L120 -107 Q128 -112 161 -121 Q194 -130 250 -130 Q274 -130 295 -127 Q316 -124 331.5 -117 Q347 -110 356 -98 Q365 -86 365 -68 Q365 -50 357 -37 Q349 -24 333.5 -13 Q318 -2 295.5 8.5 Q273 19 245 32 Q211 48 177 68.5 Q143 89 116 119 Q89 149 72 189 Q55 229 55 284 Q55 331 68 375.5 Q81 420 108.5 454.5 Q136 489 180 509.5 Q224 530 286 530 Q349 530 393 508 Q437 486 464.5 451.5 Q492 417 504.5 374 Q517 331 517 289 ZM293 75 Q323 88 351 107.5 Q379 127 400.5 153.5 Q422 180 435 213.5 Q448 247 448 288 Q448 321 440 353.5 Q432 386 413 412 Q394 438 363 454.5 Q332 471 286 471 Q205 471 164.5 421 Q124 371 124 286 Q124 235 140.5 200 Q157 165 182 141 Q207 117 237 102 Q267 87 293 75 Z" /><glyph glyph-name="uni018E" unicode="&#x18e;" d="M39 0 L39 59 L397 59 L397 335 L101 335 L101 393 L397 393 L397 634 L65 634 L65 693 L465 693 L465 0 L39 0 Z" /><glyph glyph-name="uni018F" unicode="&#x18f;" d="M131 303 Q131 247 143 200 Q155 153 180 118.5 Q205 84 242.5 64.5 Q280 45 331 45 Q389 45 431.5 68.5 Q474 92 501.5 129.5 Q529 167 543.5 212.5 Q558 258 561 303 L131 303 ZM561 361 Q557 503 490.5 575 Q424 647 312 647 Q254 647 205.5 634.5 Q157 622 129 602 L107 660 Q130 675 181.5 691.5 Q233 708 314 708 Q385 708 443.5 684.5 Q502 661 544 615.5 Q586 570 609 503.5 Q632 437 632 351 Q632 259 608 190.5 Q584 122 543 76 Q502 30 446.5 7.5 Q391 -15 328 -15 Q199 -15 129.5 71.5 Q60 158 60 332 Q60 339 60.5 347.5 Q61 356 62 361 L561 361 Z" /><glyph glyph-name="uni0190" unicode="&#x190;" d="M316 649 Q237 649 197 615.5 Q157 582 157 531 Q157 492 174.5 466 Q192 440 219.5 425 Q247 410 281 403.5 Q315 397 348 397 L407 397 L407 339 L361 339 Q312 339 269 332.5 Q226 326 194.5 309.5 Q163 293 145 264 Q127 235 127 189 Q127 149 141.5 121.5 Q156 94 182 76.5 Q208 59 244 51.5 Q280 44 323 44 Q356 44 384 49 Q412 54 434.5 61.5 Q457 69 474 76.5 Q491 84 501 90 L523 31 Q513 25 495 17.5 Q477 10 451.5 2.5 Q426 -5 393.5 -10 Q361 -15 324 -15 Q265 -15 215.5 -4 Q166 7 130.5 31.5 Q95 56 75 94.5 Q55 133 55 189 Q55 232 69 264.5 Q83 297 106 319.5 Q129 342 160 356 Q191 370 224 376 Q190 383 164 398.5 Q138 414 121 435 Q104 456 95 481 Q86 506 86 533 Q86 578 103 611 Q120 644 150 665.5 Q180 687 222 697.5 Q264 708 315 708 Q375 708 425 693.5 Q475 679 501 662 L477 605 Q448 625 406 637 Q364 649 316 649 Z" /><glyph glyph-name="uni0191" unicode="&#x191;" d="M158 -26 Q158 -60 153.5 -89.5 Q149 -119 135 -140.5 Q121 -162 96 -174.5 Q71 -187 29 -187 Q12 -187 -2.5 -184 Q-17 -181 -25 -178 L-16 -124 Q-11 -126 -1 -128 Q9 -130 21 -130 Q59 -130 74.5 -107.5 Q90 -85 90 -37 L90 693 L485 693 L485 634 L158 634 L158 390 L448 390 L448 331 L158 331 L158 -26 Z" /><glyph glyph-name="uni0193" unicode="&#x193;" d="M388 708 Q437 708 470.5 700 Q504 692 524 683 Q537 734 567.5 758.5 Q598 783 655 783 Q671 783 686 781 Q701 779 710 775 L699 727 Q693 729 681.5 731.5 Q670 734 656 734 Q636 734 622.5 727 Q609 720 601 709.5 Q593 699 588 685 Q583 671 579 658 L565 608 Q558 612 542.5 618.5 Q527 625 505 631.5 Q483 638 455 642.5 Q427 647 394 647 Q337 647 289 628 Q241 609 206.5 571 Q172 533 153 477 Q134 421 134 347 Q134 278 150 222.5 Q166 167 198.5 127.5 Q231 88 279 67 Q327 46 390 46 Q441 46 475.5 51.5 Q510 57 522 62 L522 328 L590 328 L590 19 Q571 11 515.5 -1.5 Q460 -14 379 -14 Q311 -14 253 10 Q195 34 152.5 79.5 Q110 125 86 192.5 Q62 260 62 347 Q62 434 88 501.5 Q114 569 158.5 614.5 Q203 660 262 684 Q321 708 388 708 Z" /><glyph glyph-name="uni0194" unicode="&#x194;" d="M312 102 Q301 85 289 66 Q277 47 267.5 27 Q258 7 251.5 -13.5 Q245 -34 245 -54 Q245 -83 261 -104.5 Q277 -126 312 -126 Q347 -126 363 -104.5 Q379 -83 379 -54 Q379 -34 372.5 -13.5 Q366 7 356.5 27 Q347 47 335 66 Q323 85 312 102 ZM361 135 Q374 112 388.5 89 Q403 66 415 42.5 Q427 19 435 -5.5 Q443 -30 443 -55 Q443 -72 438.5 -94 Q434 -116 420 -136 Q406 -156 380.5 -170 Q355 -184 313 -184 Q271 -184 245.5 -170 Q220 -156 206 -136 Q192 -116 187.5 -94 Q183 -72 183 -55 Q183 -30 191 -6 Q199 18 211 41.5 Q223 65 237.5 88.5 Q252 112 265 135 L275 152 Q209 264 142 402.5 Q75 541 10 693 L86 693 Q139 570 195 448 Q251 326 313 212 Q377 330 433.5 452.5 Q490 575 542 693 L614 693 Q587 625 554 553.5 Q521 482 486 412 Q451 342 415.5 276.5 Q380 211 348 156 L361 135 Z" /><glyph glyph-name="uni0195" unicode="&#x195;" d="M475 227 Q475 178 483 144 Q491 110 507.5 89 Q524 68 549 58.5 Q574 49 607 49 Q640 49 664.5 58.5 Q689 68 705.5 89 Q722 110 730.5 144 Q739 178 739 227 L739 517 L804 517 L804 221 Q804 171 795 128.5 Q786 86 763.5 55 Q741 24 703 6.5 Q665 -11 607 -11 Q549 -11 511 6.5 Q473 24 450.5 55 Q428 86 419 128.5 Q410 171 410 221 L410 266 Q410 321 403.5 359.5 Q397 398 381.5 422 Q366 446 339 457 Q312 468 270 468 Q252 468 233 465 Q214 462 197 458.5 Q180 455 167.5 451 Q155 447 151 445 L151 0 L86 0 L86 764 L151 776 L151 502 Q183 514 215 520.5 Q247 527 280 527 Q338 527 376 509.5 Q414 492 436 460.5 Q458 429 466.5 384.5 Q475 340 475 287 L475 227 Z" /><glyph glyph-name="uni0196" unicode="&#x196;" d="M88 693 L156 693 L156 165 Q156 128 163 104.5 Q170 81 182.5 68 Q195 55 213.5 50.5 Q232 46 255 46 Q281 46 302.5 51.5 Q324 57 333 62 L349 6 Q339 1 309.5 -7 Q280 -15 245 -15 Q207 -15 178 -6 Q149 3 129 24 Q109 45 98.5 80 Q88 115 88 168 L88 693 Z" /><glyph glyph-name="uni0197" unicode="&#x197;" d="M120 0 L120 334 L24 334 L24 388 L120 388 L120 693 L188 693 L188 388 L284 388 L284 334 L188 334 L188 0 L120 0 Z" /><glyph glyph-name="uni0198" unicode="&#x198;" d="M399 640 Q426 669 455.5 688 Q485 707 527 707 Q568 707 592 690.5 Q616 674 628 661 L594 615 Q583 627 566 638 Q549 649 526 649 Q506 649 487 639 Q468 629 442 603 Q377 537 327.5 480 Q278 423 233 369 Q278 342 331 296.5 Q384 251 434 199 Q484 147 525.5 94.5 Q567 42 589 0 L513 0 Q479 52 436.5 103 Q394 154 347 199 Q300 244 251.5 281 Q203 318 158 343 L158 0 L90 0 L90 693 L158 693 L158 364 Q180 391 209 426 Q238 461 270.5 497.5 Q303 534 336 571 Q369 608 399 640 Z" /><glyph glyph-name="uni0199" unicode="&#x199;" d="M86 616 Q86 650 90 679.5 Q94 709 107 730.5 Q120 752 144.5 764 Q169 776 211 776 Q228 776 242 773.5 Q256 771 264 768 L255 715 Q243 720 219 720 Q181 720 166 697.5 Q151 675 151 627 L151 284 Q176 308 207 339 Q238 370 269.5 402 Q301 434 329 464 Q357 494 377 517 L455 517 Q432 493 403 463 Q374 433 342.5 400.5 Q311 368 280 337 Q249 306 224 281 Q255 260 290.5 227 Q326 194 360.5 155.5 Q395 117 425.5 76.5 Q456 36 477 0 L400 0 Q376 40 345.5 78.5 Q315 117 281.5 151 Q248 185 214.5 213 Q181 241 151 260 L151 0 L86 0 L86 616 Z" /><glyph glyph-name="uni019A" unicode="&#x19a;" d="M226 -10 Q193 -8 168.5 -0.5 Q144 7 127.5 22 Q111 37 102.5 61.5 Q94 86 94 123 L94 376 L17 376 L17 429 L94 429 L94 764 L159 776 L159 429 L252 429 L252 376 L159 376 L159 125 Q159 101 163.5 86.5 Q168 72 177 63.5 Q186 55 200.5 51 Q215 47 235 44 L226 -10 Z" /><glyph glyph-name="uni019B" unicode="&#x19b;" d="M260 455 Q192 327 149.5 208.5 Q107 90 85 0 L19 0 Q31 49 52.5 113.5 Q74 178 102.5 248.5 Q131 319 164.5 390.5 Q198 462 233 526 Q227 543 221 558 Q215 573 209 587 L98 550 L79 603 L186 639 Q175 663 164.5 678.5 Q154 694 142.5 703.5 Q131 713 116.5 716.5 Q102 720 82 720 Q68 720 58.5 717.5 Q49 715 44 713 L33 767 Q41 770 57 773 Q73 776 95 776 Q127 776 151 766 Q175 756 192.5 740 Q210 724 223 702.5 Q236 681 246 659 L370 701 L389 648 L267 607 Q336 434 384.5 285 Q433 136 471 0 L403 0 Q377 105 339.5 223 Q302 341 260 455 Z" /><glyph glyph-name="uni019C" unicode="&#x19c;" d="M494 57 Q484 49 466.5 36.5 Q449 24 425 12.5 Q401 1 370.5 -7 Q340 -15 304 -15 Q238 -15 196 4.5 Q154 24 130 59.5 Q106 95 96.5 144.5 Q87 194 87 254 L87 693 L155 693 L155 284 Q155 221 161.5 176 Q168 131 185 101.5 Q202 72 232 58.5 Q262 45 310 45 Q340 45 365 51.5 Q390 58 409.5 68 Q429 78 443.5 89 Q458 100 466 108 Q455 140 451 178 Q447 216 447 258 L447 693 L515 693 L515 271 Q515 213 522 170.5 Q529 128 546 100 Q563 72 593 58.5 Q623 45 669 45 Q691 45 712.5 47 Q734 49 753 52 Q772 55 786 58 Q800 61 807 64 L807 693 L875 693 L875 19 Q846 9 791 -3 Q736 -15 666 -15 Q551 -15 494 57 Z" /><glyph glyph-name="uni019D" unicode="&#x19d;" d="M157 -26 Q157 -60 153 -89.5 Q149 -119 135.5 -140.5 Q122 -162 97.5 -174.5 Q73 -187 31 -187 Q14 -187 -1.5 -184 Q-17 -181 -25 -178 L-16 -124 Q-11 -126 -1 -128 Q9 -130 21 -130 Q59 -130 74.5 -107.5 Q90 -85 90 -37 L90 693 L144 693 Q195 636 253.5 561.5 Q312 487 368 409.5 Q424 332 472.5 258 Q521 184 552 129 L552 693 L619 693 L619 0 L562 0 Q543 35 513.5 82 Q484 129 449 182.5 Q414 236 375 292.5 Q336 349 297.5 402.5 Q259 456 222.5 503 Q186 550 157 584 L157 -26 Z" /><glyph glyph-name="uni019F" unicode="&#x19f;" d="M712 347 Q712 258 686 190 Q660 122 615.5 76.5 Q571 31 512 8 Q453 -15 387 -15 Q321 -15 262 8 Q203 31 158.5 76.5 Q114 122 88 190 Q62 258 62 347 Q62 436 88 503.5 Q114 571 158.5 616.5 Q203 662 262 685 Q321 708 387 708 Q453 708 512 685 Q571 662 615.5 616.5 Q660 571 686 503.5 Q712 436 712 347 ZM387 46 Q442 46 487 65 Q532 84 564.5 119.5 Q597 155 616.5 206 Q636 257 639 321 L134 321 Q137 257 156.5 206 Q176 155 209 119.5 Q242 84 287 65 Q332 46 387 46 ZM387 647 Q333 647 288 628.5 Q243 610 210.5 575.5 Q178 541 158.5 491.5 Q139 442 135 379 L639 379 Q635 442 615.5 491.5 Q596 541 563.5 575.5 Q531 610 486 628.5 Q441 647 387 647 Z" /><glyph glyph-name="Ohorn" unicode="&#x1a0;" d="M712 347 Q712 258 686 190 Q660 122 615.5 76.5 Q571 31 512 8 Q453 -15 387 -15 Q321 -15 262 8 Q203 31 158.5 76.5 Q114 122 88 190 Q62 258 62 347 Q62 436 88 503.5 Q114 571 158.5 616.5 Q203 662 262 685 Q321 708 387 708 Q444 708 496.5 690.5 Q549 673 591 638 Q620 664 632 693.5 Q644 723 644 765 Q644 774 643 785.5 Q642 797 641 800 L706 800 Q707 794 707.5 786 Q708 778 708 773 Q708 727 692.5 681.5 Q677 636 631 599 Q669 554 690.5 491 Q712 428 712 347 ZM640 347 Q640 417 622 472.5 Q604 528 571 567 Q538 606 491.5 626.5 Q445 647 387 647 Q329 647 282.5 626.5 Q236 606 203 567 Q170 528 152 472.5 Q134 417 134 347 Q134 277 152 221.5 Q170 166 203 127 Q236 88 282.5 67 Q329 46 387 46 Q445 46 491.5 67 Q538 88 571 127 Q604 166 622 221.5 Q640 277 640 347 Z" /><glyph glyph-name="ohorn" unicode="&#x1a1;" d="M527 258 Q527 197 509.5 147 Q492 97 460.5 62 Q429 27 386 7.5 Q343 -12 291 -12 Q239 -12 196 7.5 Q153 27 121.5 62 Q90 97 72.5 147 Q55 197 55 258 Q55 319 72.5 369 Q90 419 121.5 454.5 Q153 490 196 509.5 Q239 529 291 529 Q339 529 379.5 512 Q420 495 451 464 Q479 490 491 519 Q503 548 503 590 Q503 599 502 610.5 Q501 622 500 625 L565 625 Q566 619 566.5 611 Q567 603 567 598 Q567 551 550.5 504 Q534 457 485 420 Q505 388 516 347 Q527 306 527 258 ZM458 258 Q458 355 413 412.5 Q368 470 291 470 Q214 470 169 412.5 Q124 355 124 258 Q124 161 169 104 Q214 47 291 47 Q368 47 413 104 Q458 161 458 258 Z" /><glyph glyph-name="uni01A2" unicode="&#x1a2;" d="M374 708 Q428 708 477 691 Q526 674 567 640 Q575 647 589 658.5 Q603 670 623.5 681 Q644 692 671 699.5 Q698 707 731 707 Q788 707 823 689.5 Q858 672 878 639.5 Q898 607 905 560.5 Q912 514 912 456 L912 0 L844 0 L844 450 Q844 500 839 537.5 Q834 575 820.5 599.5 Q807 624 784 636 Q761 648 724 648 Q703 648 685 642.5 Q667 637 652.5 629.5 Q638 622 626.5 613.5 Q615 605 608 599 Q644 554 665 491 Q686 428 686 347 Q686 258 661 190 Q636 122 593 76.5 Q550 31 493.5 8 Q437 -15 374 -15 Q311 -15 254.5 8 Q198 31 155 76.5 Q112 122 87 190 Q62 258 62 347 Q62 436 87 503.5 Q112 571 155 616.5 Q198 662 254.5 685 Q311 708 374 708 ZM374 46 Q429 46 473.5 67 Q518 88 549.5 127 Q581 166 597.5 221.5 Q614 277 614 347 Q614 417 597.5 472.5 Q581 528 549.5 567 Q518 606 473.5 626.5 Q429 647 374 647 Q318 647 274 626.5 Q230 606 198.5 567 Q167 528 150.5 472.5 Q134 417 134 347 Q134 277 150.5 221.5 Q167 166 198.5 127 Q230 88 274 67 Q318 46 374 46 Z" /><glyph glyph-name="uni01A3" unicode="&#x1a3;" d="M517 258 Q517 197 500 147 Q483 97 452 62 Q421 27 379 7.5 Q337 -12 286 -12 Q235 -12 193 7.5 Q151 27 120 62 Q89 97 72 147 Q55 197 55 258 Q55 319 72 369 Q89 419 120 454.5 Q151 490 193 509.5 Q235 529 286 529 Q367 529 426 479 Q445 494 478 511 Q511 528 554 528 Q607 528 639.5 512 Q672 496 689.5 466.5 Q707 437 713 395.5 Q719 354 719 303 L719 -185 L654 -185 L654 294 Q654 337 649.5 370 Q645 403 633.5 425.5 Q622 448 602 459.5 Q582 471 550 471 Q520 471 499 460 Q478 449 465 438 Q490 403 503.5 357.5 Q517 312 517 258 ZM448 258 Q448 306 436.5 345.5 Q425 385 404 412.5 Q383 440 353 455 Q323 470 286 470 Q248 470 218 455 Q188 440 167 412.5 Q146 385 135 345.5 Q124 306 124 258 Q124 161 167.5 104 Q211 47 286 47 Q361 47 404.5 104 Q448 161 448 258 Z" /><glyph glyph-name="uni01A4" unicode="&#x1a4;" d="M341 699 Q493 699 565.5 643 Q638 587 638 484 Q638 425 617 383.5 Q596 342 557 316.5 Q518 291 461.5 279.5 Q405 268 334 268 L240 268 L240 0 L172 0 L172 635 Q123 632 101 607 Q79 582 79 535 Q79 530 79.5 521 Q80 512 82 503 L26 495 Q24 503 22 518.5 Q20 534 20 543 Q20 594 41.5 624.5 Q63 655 104 671.5 Q145 688 204.5 693.5 Q264 699 341 699 ZM345 640 Q317 640 287 640 Q257 640 240 638 L240 327 L326 327 Q381 327 425.5 333.5 Q470 340 501.5 357.5 Q533 375 550 406 Q567 437 567 485 Q567 531 548.5 561 Q530 591 499 608.5 Q468 626 428 633 Q388 640 345 640 Z" /><glyph glyph-name="uni01A5" unicode="&#x1a5;" d="M151 502 Q215 527 278 527 Q334 527 380 508 Q426 489 459 454 Q492 419 510 369 Q528 319 528 257 Q528 198 512.5 148.5 Q497 99 467 63.5 Q437 28 393.5 8 Q350 -12 294 -12 Q243 -12 205.5 2.5 Q168 17 151 30 L151 -185 L86 -185 L86 616 Q86 650 90 679.5 Q94 709 107 730.5 Q120 752 144.5 764 Q169 776 211 776 Q228 776 242 773.5 Q256 771 264 768 L255 715 Q243 720 219 720 Q181 720 166 697.5 Q151 675 151 627 L151 502 ZM151 93 Q160 86 173.5 78 Q187 70 205 63 Q223 56 244 51.5 Q265 47 288 47 Q336 47 368.5 63.5 Q401 80 421 108.5 Q441 137 450 175.5 Q459 214 459 257 Q459 358 407.5 413 Q356 468 272 468 Q255 468 235.5 465 Q216 462 199 458.5 Q182 455 168.5 451 Q155 447 151 445 L151 93 Z" /><glyph glyph-name="uni01A6" unicode="&#x1a6;" d="M158 776 L158 690 Q175 692 206.5 694 Q238 696 263 696 Q552 696 552 485 Q552 407 511 362 Q470 317 403 297 Q419 277 447 238.5 Q475 200 508 147.5 Q541 95 577 29.5 Q613 -36 645 -109 L572 -109 Q537 -34 502.5 27.5 Q468 89 436.5 138 Q405 187 378.5 223 Q352 259 334 283 Q302 280 270 280 L158 280 L158 0 L90 0 L90 776 L158 776 ZM267 637 Q231 637 203 635 Q175 633 158 631 L158 338 L252 338 Q299 338 341 342.5 Q383 347 414 362.5 Q445 378 463 407 Q481 436 481 486 Q481 532 463 561.5 Q445 591 415.5 608 Q386 625 347.5 631 Q309 637 267 637 Z" /><glyph glyph-name="uni01A7" unicode="&#x1a7;" d="M278 44 Q313 44 342 49 Q371 54 394 61.5 Q417 69 434 77 Q451 85 461 91 L483 32 Q473 26 454.5 18 Q436 10 410 2.5 Q384 -5 350.5 -10 Q317 -15 277 -15 Q163 -15 99.5 32 Q36 79 36 173 Q36 221 52 254 Q68 287 95.5 310 Q123 333 159.5 350 Q196 367 237 384 Q271 398 300 411 Q329 424 350 440 Q371 456 383 478 Q395 500 395 532 Q395 563 383.5 585 Q372 607 352 621.5 Q332 636 304.5 642.5 Q277 649 244 649 Q196 649 154.5 637 Q113 625 84 605 L60 662 Q73 671 92.5 679 Q112 687 136 693.5 Q160 700 187.5 704 Q215 708 243 708 Q349 708 406.5 662 Q464 616 464 527 Q464 488 451.5 459 Q439 430 415 407.5 Q391 385 356.5 367 Q322 349 279 332 Q245 318 214 305.5 Q183 293 159 275.5 Q135 258 121 232.5 Q107 207 107 169 Q107 103 152 73.5 Q197 44 278 44 Z" /><glyph glyph-name="uni01A8" unicode="&#x1a8;" d="M236 46 Q266 46 289.5 50 Q313 54 330 59 Q347 64 357.5 69 Q368 74 371 76 L388 17 Q376 11 339.5 -0.5 Q303 -12 235 -12 Q139 -12 89.5 24 Q40 60 40 130 Q40 166 53.5 191 Q67 216 89 233.5 Q111 251 139 263.5 Q167 276 197 288 Q226 300 248 310 Q270 320 284.5 331.5 Q299 343 306.5 358 Q314 373 314 394 Q314 415 305 429.5 Q296 444 281 453.5 Q266 463 246.5 467.5 Q227 472 205 472 Q150 472 121.5 462 Q93 452 81 446 L66 504 Q80 511 116 520 Q152 529 205 529 Q288 529 334 491.5 Q380 454 380 388 Q380 355 368 332 Q356 309 336 292.5 Q316 276 289.5 263.5 Q263 251 235 239 Q199 224 174.5 213 Q150 202 134.5 190 Q119 178 112.5 163 Q106 148 106 127 Q106 83 143 64.5 Q180 46 236 46 Z" /><glyph glyph-name="uni01AA" unicode="&#x1aa;" d="M148 546 Q129 527 106.5 518 Q84 509 60 509 Q32 509 9 519 Q-14 529 -30 547 Q-46 565 -55 589.5 Q-64 614 -64 642 Q-64 673 -54 698 Q-44 723 -26 740.5 Q-8 758 16.5 767 Q41 776 69 776 Q112 776 140 762.5 Q168 749 184 726 Q200 703 206.5 673 Q213 643 213 610 L213 -52 Q213 -76 217.5 -90.5 Q222 -105 231 -113.5 Q240 -122 254.5 -126 Q269 -130 289 -133 L280 -187 Q247 -185 222.5 -177.5 Q198 -170 181.5 -155 Q165 -140 156.5 -115.5 Q148 -91 148 -54 L148 546 ZM70 564 Q98 564 114.5 577.5 Q131 591 148 611 L148 633 Q148 678 126 699 Q104 720 69 720 Q31 720 14 697.5 Q-3 675 -3 642 Q-3 610 14.5 587 Q32 564 70 564 Z" /><glyph glyph-name="uni01AB" unicode="&#x1ab;" d="M254 49 Q298 49 326 54.5 Q354 60 362 63 Q364 51 366 25.5 Q368 0 368 -26 Q368 -60 364 -89.5 Q360 -119 347 -140.5 Q334 -162 309.5 -174 Q285 -186 243 -186 Q226 -186 212 -183.5 Q198 -181 190 -178 L199 -125 Q211 -130 235 -130 Q275 -130 290.5 -107.5 Q306 -85 306 -37 Q306 -26 305.5 -16 Q305 -6 304 -1 Q293 -3 274 -5 Q255 -7 241 -7 Q196 -7 165.5 5.5 Q135 18 116.5 42.5 Q98 67 90 104.5 Q82 142 82 193 L82 669 L147 681 L147 517 L353 517 L353 462 L147 462 L147 187 Q147 143 154.5 116 Q162 89 176 74 Q190 59 210 54 Q230 49 254 49 Z" /><glyph glyph-name="uni01AC" unicode="&#x1ac;" d="M177 634 Q128 634 103.5 608 Q79 582 79 535 Q79 530 79.5 521 Q80 512 82 503 L26 495 Q24 503 22 518.5 Q20 534 20 543 Q20 587 34.5 616 Q49 645 74.5 662 Q100 679 134 686 Q168 693 208 693 L545 693 L545 634 L323 634 L323 0 L255 0 L255 634 L177 634 Z" /><glyph glyph-name="uni01AD" unicode="&#x1ad;" d="M355 517 L355 462 L147 462 L147 187 Q147 143 154.5 115.5 Q162 88 176 73 Q190 58 210 53 Q230 48 254 48 Q295 48 320 57.5 Q345 67 359 75 L375 21 Q361 12 326 0.5 Q291 -11 250 -11 Q202 -11 169.5 1.5 Q137 14 117.5 39.5 Q98 65 90 103 Q82 141 82 193 L82 573 Q82 674 128.5 725 Q175 776 272 776 Q314 776 340.5 769.5 Q367 763 375 758 L362 702 Q351 707 329.5 712.5 Q308 718 275 718 Q206 718 176.5 683 Q147 648 147 571 L147 517 L355 517 Z" /><glyph glyph-name="uni01AE" unicode="&#x1ae;" d="M308 -37 Q308 -85 323.5 -107.5 Q339 -130 377 -130 Q389 -130 399 -128 Q409 -126 414 -124 L423 -178 Q415 -181 400.5 -184 Q386 -187 369 -187 Q327 -187 302 -174.5 Q277 -162 263 -140.5 Q249 -119 244.5 -89.5 Q240 -60 240 -26 L240 634 L18 634 L18 693 L530 693 L530 634 L308 634 L308 -37 Z" /><glyph glyph-name="Uhorn" unicode="&#x1af;" d="M589 693 Q601 693 612.5 696.5 Q624 700 633 708.5 Q642 717 647.5 731 Q653 745 653 766 Q653 775 652 786.5 Q651 798 650 801 L715 801 Q716 795 716.5 787 Q717 779 717 774 Q717 751 711 728 Q705 705 691 685.5 Q677 666 653 653.5 Q629 641 593 639 L593 257 Q593 200 579.5 150.5 Q566 101 536 64 Q506 27 457.5 6 Q409 -15 340 -15 Q271 -15 222.5 6 Q174 27 144 64 Q114 101 100.5 150.5 Q87 200 87 257 L87 693 L155 693 L155 266 Q155 209 168.5 167.5 Q182 126 206 99 Q230 72 264 59 Q298 46 340 46 Q382 46 416 59 Q450 72 474 99 Q498 126 511.5 167.5 Q525 209 525 266 L525 693 L589 693 Z" /><glyph glyph-name="uhorn" unicode="&#x1b0;" d="M483 18 Q454 10 405 0 Q356 -10 285 -10 Q227 -10 188 7 Q149 24 125 55 Q101 86 90.5 130 Q80 174 80 227 L80 517 L145 517 L145 248 Q145 193 153 155 Q161 117 179 93.5 Q197 70 225.5 59.5 Q254 49 295 49 Q341 49 375 54 Q409 59 418 63 L418 517 L479 517 Q491 517 502.5 520.5 Q514 524 523 532.5 Q532 541 537.5 555 Q543 569 543 590 Q543 599 542 610.5 Q541 622 540 625 L605 625 Q606 619 606.5 611 Q607 603 607 598 Q607 575 601 552 Q595 529 581 509.5 Q567 490 543 477.5 Q519 465 483 463 L483 18 Z" /><glyph glyph-name="uni01B1" unicode="&#x1b1;" d="M390 -15 Q325 -15 267.5 6.5 Q210 28 166.5 71 Q123 114 97.5 178 Q72 242 72 326 Q72 383 85.5 430.5 Q99 478 119 517 Q139 556 163.5 585.5 Q188 615 211 635 L56 635 L56 693 L310 693 L310 649 Q275 623 245 590.5 Q215 558 192.5 517.5 Q170 477 157 429 Q144 381 144 324 Q144 259 162 207.5 Q180 156 212.5 120 Q245 84 290 65 Q335 46 390 46 Q445 46 490 65 Q535 84 567.5 120 Q600 156 618 207.5 Q636 259 636 324 Q636 381 623 429 Q610 477 587.5 517.5 Q565 558 535 590.5 Q505 623 470 649 L470 693 L724 693 L724 635 L569 635 Q591 615 616 585.5 Q641 556 661 517 Q681 478 694.5 430.5 Q708 383 708 326 Q708 242 682.5 178 Q657 114 613.5 71 Q570 28 512 6.5 Q454 -15 390 -15 Z" /><glyph glyph-name="uni01B2" unicode="&#x1b2;" d="M606 362 Q606 325 602.5 283 Q599 241 589 199 Q579 157 560 118.5 Q541 80 510.5 50.5 Q480 21 435.5 3 Q391 -15 330 -15 Q263 -15 216.5 6 Q170 27 141.5 63 Q113 99 100 147.5 Q87 196 87 251 L87 693 L155 693 L155 261 Q155 206 168 165.5 Q181 125 203.5 98.5 Q226 72 257 59 Q288 46 324 46 Q375 46 414.5 63 Q454 80 481.5 116.5 Q509 153 523 211 Q537 269 537 351 Q537 499 499.5 568 Q462 637 383 637 Q372 637 363 636 Q354 635 349 634 L343 688 Q350 690 365.5 692 Q381 694 398 694 Q459 694 499.5 666.5 Q540 639 563.5 593.5 Q587 548 596.5 488 Q606 428 606 362 Z" /><glyph glyph-name="uni01B3" unicode="&#x1b3;" d="M286 343 Q303 377 323.5 415.5 Q344 454 364.5 492 Q385 530 405.5 566 Q426 602 443 632 Q453 650 463 663.5 Q473 677 485 686 Q497 695 513 699 Q529 703 551 703 Q572 703 589 698 Q606 693 619.5 685.5 Q633 678 642.5 669 Q652 660 658 653 L624 608 Q613 621 595.5 632.5 Q578 644 555 644 Q535 644 523 636 Q511 628 496 602 Q479 573 456.5 534.5 Q434 496 410 453.5 Q386 411 362 367.5 Q338 324 319 287 L319 0 L251 0 L251 285 Q182 391 121.5 492.5 Q61 594 10 693 L89 693 Q132 603 182 514.5 Q232 426 286 343 Z" /><glyph glyph-name="uni01B4" unicode="&#x1b4;" d="M419 398 Q392 284 359.5 179 Q327 74 289 -16 Q270 -61 250.5 -93.5 Q231 -126 206 -147 Q181 -168 148.5 -178 Q116 -188 72 -188 Q47 -188 26.5 -182 Q6 -176 1 -173 L14 -120 Q18 -123 36.5 -129 Q55 -135 75 -135 Q132 -135 166.5 -108 Q201 -81 228 -12 Q195 49 164 115 Q133 181 106.5 249 Q80 317 58 384.5 Q36 452 20 517 L89 517 Q100 469 117 413.5 Q134 358 155.5 299 Q177 240 203 178 Q229 116 259 56 Q275 104 289 148 Q303 192 314.5 235 Q326 278 336.5 320.5 Q347 363 358 409 Q364 436 372.5 458 Q381 480 395 495 Q409 510 429 518.5 Q449 527 478 527 Q501 527 518.5 522 Q536 517 550 512 L535 460 Q528 464 517.5 467.5 Q507 471 487 471 Q455 471 441.5 453.5 Q428 436 419 398 Z" /><glyph glyph-name="uni01B5" unicode="&#x1b5;" d="M510 631 Q475 591 427 528.5 Q379 466 326 392 L486 392 L486 337 L287 337 Q237 265 191.5 193.5 Q146 122 112 59 L520 59 L520 0 L38 0 L38 51 Q69 111 115 186 Q161 261 212 337 L85 337 L85 392 L250 392 Q301 465 349.5 528.5 Q398 592 436 634 L57 634 L57 693 L510 693 L510 631 Z" /><glyph glyph-name="uni01B6" unicode="&#x1b6;" d="M407 464 Q385 440 350.5 397 Q316 354 276 301 L402 301 L402 248 L237 248 Q202 200 170 150 Q138 100 113 55 L416 55 L416 0 L38 0 L38 47 Q61 91 94.5 143 Q128 195 165 248 L67 248 L67 301 L203 301 Q239 350 272 392 Q305 434 328 462 L53 462 L53 517 L407 517 L407 464 Z" /><glyph glyph-name="uni01B7" unicode="&#x1b7;" d="M496 189 Q496 133 476 94.5 Q456 56 420.5 31.5 Q385 7 335.5 -4 Q286 -15 227 -15 Q189 -15 157 -10 Q125 -5 99.5 2.5 Q74 10 56 17.5 Q38 25 28 31 L50 90 Q60 84 77 76.5 Q94 69 116.5 61.5 Q139 54 167 49 Q195 44 228 44 Q271 44 307 51.5 Q343 59 369 76.5 Q395 94 409.5 121.5 Q424 149 424 189 Q424 235 405.5 264.5 Q387 294 355.5 311 Q324 328 282 334.5 Q240 341 192 341 L185 341 L185 384 Q213 412 244 447 Q275 482 304 516.5 Q333 551 357.5 582 Q382 613 399 634 L58 634 L58 693 L482 693 L482 652 Q464 626 439 594.5 Q414 563 385 528.5 Q356 494 325 458.5 Q294 423 264 390 Q305 387 346.5 375.5 Q388 364 421 340.5 Q454 317 475 280 Q496 243 496 189 Z" /><glyph glyph-name="uni01B8" unicode="&#x1b8;" d="M49 189 Q49 243 70 280 Q91 317 124 340.5 Q157 364 198.5 375.5 Q240 387 281 390 Q251 423 220 458.5 Q189 494 160 528.5 Q131 563 106.5 594.5 Q82 626 64 652 L64 693 L487 693 L487 634 L149 634 Q165 613 190 582 Q215 551 244 516.5 Q273 482 304 447 Q335 412 363 384 L363 341 L353 341 Q305 341 263 334.5 Q221 328 189.5 311 Q158 294 139.5 264.5 Q121 235 121 189 Q121 149 135.5 121.5 Q150 94 176 76.5 Q202 59 238 51.5 Q274 44 317 44 Q351 44 379 49 Q407 54 429.5 61.5 Q452 69 468.5 77 Q485 85 495 91 L518 33 Q491 18 442 1.5 Q393 -15 318 -15 Q259 -15 209.5 -4 Q160 7 124.5 31.5 Q89 56 69 94.5 Q49 133 49 189 Z" /><glyph glyph-name="uni01B9" unicode="&#x1b9;" d="M332 167 L307 167 Q273 167 237.5 162 Q202 157 173.5 141.5 Q145 126 127 98 Q109 70 109 24 Q109 -48 154.5 -87 Q200 -126 291 -126 Q345 -126 383 -116.5 Q421 -107 440 -97 L457 -153 Q437 -164 393.5 -174.5 Q350 -185 291 -185 Q176 -185 108.5 -132.5 Q41 -80 41 24 Q41 76 59.5 112.5 Q78 149 108.5 172 Q139 195 178.5 205.5 Q218 216 260 218 Q234 247 205.5 282.5 Q177 318 151 353.5 Q125 389 102.5 422 Q80 455 65 480 L65 517 L436 517 L436 462 L143 462 Q157 440 178.5 410 Q200 380 225.5 346.5 Q251 313 278.5 279 Q306 245 332 216 L332 167 Z" /><glyph glyph-name="uni01BA" unicode="&#x1ba;" d="M209 277 Q312 264 360.5 231 Q409 198 409 128 Q409 83 392 54 Q375 25 346 7 Q317 -11 279 -22.5 Q241 -34 199 -45 Q170 -53 147 -59.5 Q124 -66 107.5 -75 Q91 -84 82 -96 Q73 -108 73 -127 Q73 -146 77.5 -158.5 Q82 -171 84 -175 L29 -187 Q24 -179 18.5 -165 Q13 -151 13 -125 Q13 -92 26 -70.5 Q39 -49 61 -35 Q83 -21 111 -12.5 Q139 -4 169 4 Q203 13 234 21.5 Q265 30 289 43.5 Q313 57 327 77 Q341 97 341 128 Q341 182 291 204.5 Q241 227 140 232 L140 282 Q202 335 246 382 Q290 429 316 462 L25 462 L25 517 L390 517 L390 472 Q356 426 313.5 378.5 Q271 331 209 277 Z" /><glyph glyph-name="uni01BB" unicode="&#x1bb;" d="M440 523 Q440 474 417 432 Q394 390 362 352 L457 352 L457 298 L309 298 L268 259 Q242 234 217.5 209 Q193 184 174.5 159 Q156 134 144.5 110 Q133 86 133 62 L133 59 L459 59 L459 0 L59 0 Q59 2 58.5 7.5 Q58 13 58 24 Q58 68 73 106 Q88 144 111.5 177.5 Q135 211 164.5 241 Q194 271 224 298 L94 298 L94 352 L281 352 Q318 389 343 429 Q368 469 368 520 Q368 554 358 578.5 Q348 603 330 618.5 Q312 634 287 641.5 Q262 649 233 649 Q201 649 175.5 641 Q150 633 130.5 622.5 Q111 612 97.5 600.5 Q84 589 78 583 L44 629 Q50 636 66.5 649.5 Q83 663 107.5 676 Q132 689 163.5 698.5 Q195 708 232 708 Q333 708 386.5 659 Q440 610 440 523 Z" /><glyph glyph-name="uni01BC" unicode="&#x1bc;" d="M194 634 Q193 615 191.5 585.5 Q190 556 187.5 524.5 Q185 493 182.5 464.5 Q180 436 177 419 Q262 414 323 397 Q384 380 422 351.5 Q460 323 478 283 Q496 243 496 193 Q496 147 481 109 Q466 71 434 43.5 Q402 16 352 0.5 Q302 -15 232 -15 Q201 -15 171.5 -10.5 Q142 -6 117.5 0 Q93 6 75.5 12.5 Q58 19 51 24 L68 82 Q88 71 130.5 58 Q173 45 230 45 Q284 45 321 56 Q358 67 381 87 Q404 107 414 133.5 Q424 160 424 192 Q424 233 407 264.5 Q390 296 352.5 317 Q315 338 255 349 Q195 360 110 360 Q115 402 119 438.5 Q123 475 125.5 508 Q128 541 130 572 Q132 603 133 634 L35 634 L35 693 L468 693 L468 634 L194 634 Z" /><glyph glyph-name="uni01BD" unicode="&#x1bd;" d="M445 146 Q445 112 432 83 Q419 54 392 33 Q365 12 323 0 Q281 -12 223 -12 Q197 -12 171 -9.5 Q145 -7 121.5 -2.5 Q98 2 79.5 7.5 Q61 13 51 19 L68 77 Q84 69 120 57.5 Q156 46 222 46 Q297 46 337 71.5 Q377 97 377 147 Q377 180 365 202 Q353 224 326 237.5 Q299 251 255 256.5 Q211 262 147 262 L101 262 Q108 319 112 365.5 Q116 412 119 462 L38 462 L38 517 L422 517 L422 462 L177 462 Q174 427 171 387.5 Q168 348 164 316 L183 316 Q244 316 292.5 307.5 Q341 299 375 279 Q409 259 427 226.5 Q445 194 445 146 Z" /><glyph glyph-name="uni01BE" unicode="&#x1be;" d="M143 462 L143 412 Q143 383 152.5 363.5 Q162 344 178.5 329.5 Q195 315 216.5 305 Q238 295 261 286 Q289 275 315.5 262.5 Q342 250 363 232 Q384 214 396.5 189.5 Q409 165 409 130 Q409 60 356 24 Q303 -12 208 -12 Q137 -12 100 -0.5 Q63 11 51 17 L68 76 Q71 74 81.5 69.5 Q92 65 109.5 59.5 Q127 54 151.5 50 Q176 46 208 46 Q267 46 304.5 64.5 Q342 83 342 127 Q342 148 334.5 163 Q327 178 310.5 190.5 Q294 203 268.5 215 Q243 227 207 242 Q179 254 155.5 265.5 Q132 277 114.5 295.5 Q97 314 87.5 341.5 Q78 369 78 413 L78 669 L143 681 L143 517 L349 517 L349 462 L143 462 Z" /><glyph glyph-name="uni01BF" unicode="&#x1bf;" d="M274 527 Q389 527 450 466.5 Q511 406 511 296 Q511 217 481 160.5 Q451 104 400.5 64 Q350 24 285 -3.5 Q220 -31 151 -51 L151 -185 L86 -185 L86 486 Q115 500 163.5 513.5 Q212 527 274 527 ZM273 468 Q228 468 196.5 459.5 Q165 451 151 445 L151 11 Q196 25 247 45 Q298 65 341.5 97.5 Q385 130 413.5 178.5 Q442 227 442 298 Q442 379 397.5 423.5 Q353 468 273 468 Z" /><glyph glyph-name="uni01C2" unicode="&#x1c2;" d="M253 783 L315 783 L315 425 L519 425 L519 368 L315 368 L315 236 L519 236 L519 179 L315 179 L315 -185 L253 -185 L253 179 L50 179 L50 236 L253 236 L253 368 L50 368 L50 425 L253 425 L253 783 Z" /><glyph glyph-name="uni01DD" unicode="&#x1dd;" d="M493 259 Q493 191 473.5 140.5 Q454 90 422.5 56 Q391 22 350.5 5.5 Q310 -11 267 -11 Q172 -11 115.5 51 Q59 113 59 242 Q59 250 59.5 258 Q60 266 61 273 L424 273 Q421 368 377 419 Q333 470 237 470 Q184 470 153 460 Q122 450 108 443 L96 499 Q110 507 148.5 518 Q187 529 239 529 Q307 529 355 509 Q403 489 434 453 Q465 417 479 367.5 Q493 318 493 259 ZM126 218 Q128 137 164 92 Q200 47 266 47 Q300 47 328 61 Q356 75 376.5 98.5 Q397 122 408.5 153 Q420 184 422 218 L126 218 Z" /><glyph glyph-name="uni01E4" unicode="&#x1e4;" d="M522 206 L406 206 L406 260 L522 260 L522 353 L590 353 L590 260 L670 260 L670 206 L590 206 L590 19 Q571 11 515.5 -1.5 Q460 -14 379 -14 Q311 -14 253 10 Q195 34 152.5 79.5 Q110 125 86 192.5 Q62 260 62 347 Q62 434 88 501.5 Q114 569 158.5 614.5 Q203 660 262 684 Q321 708 388 708 Q465 708 515 691.5 Q565 675 588 660 L565 602 Q537 622 489 634.5 Q441 647 385 647 Q333 647 287 628 Q241 609 207 571 Q173 533 153.5 477 Q134 421 134 347 Q134 278 150 222.5 Q166 167 198.5 127.5 Q231 88 279 67 Q327 46 390 46 Q441 46 475.5 51.5 Q510 57 522 62 L522 206 Z" /><glyph glyph-name="uni01E5" unicode="&#x1e5;" d="M423 60 Q417 55 405 48.5 Q393 42 375.5 35 Q358 28 335.5 23.5 Q313 19 285 19 Q240 19 198 33 Q156 47 124.5 77 Q93 107 74 154.5 Q55 202 55 270 Q55 325 72 372 Q89 419 120.5 453.5 Q152 488 197.5 507.5 Q243 527 300 527 Q372 527 415.5 517.5 Q459 508 487 499 L487 300 L570 300 L570 247 L487 247 L487 27 Q487 -89 427 -138.5 Q367 -188 246 -188 Q196 -188 155.5 -180.5 Q115 -173 86 -163 L99 -104 Q123 -115 164.5 -123 Q206 -131 248 -131 Q340 -131 381.5 -95.5 Q423 -60 423 26 L423 60 ZM422 247 L299 247 L299 300 L422 300 L422 454 Q405 459 378 463.5 Q351 468 301 468 Q259 468 226.5 453.5 Q194 439 171 412.5 Q148 386 136 349.5 Q124 313 124 269 Q124 218 138 181.5 Q152 145 174.5 122 Q197 99 226 88.5 Q255 78 285 78 Q329 78 365.5 91 Q402 104 422 121 L422 247 Z" /><glyph glyph-name="uni01E9" unicode="&#x1e9;" d="M224 281 Q255 260 290.5 227 Q326 194 360.5 155.5 Q395 117 425.5 76.5 Q456 36 477 0 L400 0 Q376 40 345.5 78.5 Q315 117 281.5 151 Q248 185 214.5 213 Q181 241 151 260 L151 0 L86 0 L86 764 L151 776 L151 284 Q176 308 207 339 Q238 370 269.5 402 Q301 434 329 464 Q357 494 377 517 L455 517 Q432 493 403 463 Q374 433 342.5 400.5 Q311 368 280 337 Q249 306 224 281 ZM164 825 L45 923 L67 958 L164 890 L261 958 L283 923 L164 825 Z" /><glyph glyph-name="uni01EA" unicode="&#x1ea;" d="M640 347 Q640 417 622 472.5 Q604 528 571 567 Q538 606 491.5 626.5 Q445 647 387 647 Q329 647 282.5 626.5 Q236 606 203 567 Q170 528 152 472.5 Q134 417 134 347 Q134 277 152 221.5 Q170 166 203 127 Q236 88 282.5 67 Q329 46 387 46 Q445 46 491.5 67 Q538 88 571 127 Q604 166 622 221.5 Q640 277 640 347 ZM387 -15 Q321 -15 262 8 Q203 31 158.5 76.5 Q114 122 88 190 Q62 258 62 347 Q62 436 88 503.5 Q114 571 158.5 616.5 Q203 662 262 685 Q321 708 387 708 Q453 708 512 685 Q571 662 615.5 616.5 Q660 571 686 503.5 Q712 436 712 347 Q712 284 698.5 231.5 Q685 179 661 137.5 Q637 96 604 65.5 Q571 35 531 16 Q511 6 490 -6.5 Q469 -19 451 -38 Q435 -55 425.5 -69.5 Q416 -84 416 -101 Q416 -119 428 -127 Q440 -135 458 -135 Q467 -135 477.5 -133.5 Q488 -132 496 -129 L501 -177 Q493 -180 477.5 -183 Q462 -186 447 -186 Q393 -186 371 -166.5 Q349 -147 349 -116 Q349 -85 366 -60.5 Q383 -36 408 -14 Q402 -15 397 -15 Q392 -15 387 -15 Z" /><glyph glyph-name="uni01EB" unicode="&#x1eb;" d="M409 19 Q391 8 370 -4.5 Q349 -17 331 -36 Q315 -53 305.5 -68.5 Q296 -84 296 -101 Q296 -119 308 -127 Q320 -135 338 -135 Q347 -135 357.5 -133.5 Q368 -132 376 -129 L381 -177 Q373 -180 357.5 -183 Q342 -186 327 -186 Q273 -186 251 -166.5 Q229 -147 229 -116 Q229 -85 246.5 -60 Q264 -35 291 -12 Q239 -12 196 7.5 Q153 27 121.5 62 Q90 97 72.5 147 Q55 197 55 258 Q55 319 72.5 369 Q90 419 121.5 454.5 Q153 490 196 509.5 Q239 529 291 529 Q343 529 386 509.5 Q429 490 460.5 454.5 Q492 419 509.5 369 Q527 319 527 258 Q527 174 495 112.5 Q463 51 409 19 ZM458 258 Q458 355 413 412.5 Q368 470 291 470 Q214 470 169 412.5 Q124 355 124 258 Q124 161 169 104 Q214 47 291 47 Q368 47 413 104 Q458 161 458 258 Z" /><glyph glyph-name="uni01F6" unicode="&#x1f6;" d="M899 513 L967 513 L967 241 Q967 186 957 139.5 Q947 93 922 59 Q897 25 854.5 5.5 Q812 -14 748 -14 Q683 -14 641 5.5 Q599 25 574 59 Q549 93 539 139.5 Q529 186 529 241 L529 333 L158 333 L158 0 L90 0 L90 693 L158 693 L158 392 L529 392 L529 693 L597 693 L597 257 Q597 147 631.5 97 Q666 47 748 47 Q830 47 864.5 97 Q899 147 899 257 L899 513 Z" /><glyph glyph-name="uni01F7" unicode="&#x1f7;" d="M158 -185 L90 -185 L90 651 Q106 657 129 665.5 Q152 674 180 681.5 Q208 689 238.5 694 Q269 699 299 699 Q433 699 504.5 635.5 Q576 572 576 447 Q576 358 543.5 289.5 Q511 221 455 168.5 Q399 116 322.5 75.5 Q246 35 158 1 L158 -185 ZM158 67 Q224 95 286.5 126.5 Q349 158 397.5 202 Q446 246 475 306 Q504 366 504 451 Q504 547 451 593.5 Q398 640 300 640 Q247 640 211.5 629 Q176 618 158 610 L158 67 Z" /><glyph glyph-name="Aringacute" unicode="&#x1fa;" d="M408 731 Q408 705 396.5 685.5 Q385 666 367 655 Q401 583 432 510 Q463 437 494.5 357.5 Q526 278 559.5 190 Q593 102 631 0 L556 0 Q537 51 520 98 Q503 145 487 190 L150 190 Q133 145 116 98 Q99 51 81 0 L10 0 Q47 102 80.5 190 Q114 278 145.5 357 Q177 436 208 509 Q239 582 272 654 Q253 665 242 685 Q231 705 231 731 Q231 771 256.5 795 Q282 819 320 819 Q355 819 381.5 795 Q408 771 408 731 ZM318 615 Q280 529 244.5 440 Q209 351 171 248 L466 248 Q428 351 392 440 Q356 529 318 615 ZM371 731 Q371 755 356.5 769 Q342 783 320 783 Q297 783 282.5 769 Q268 755 268 731 Q268 706 282.5 691.5 Q297 677 320 677 Q342 677 356.5 691.5 Q371 706 371 731 ZM384 956 L408 898 L254 841 L238 882 L384 956 Z" /><glyph glyph-name="uni021C" unicode="&#x21c;" d="M209 650 Q159 650 115.5 636 Q72 622 43 602 L19 659 Q32 668 51.5 676.5 Q71 685 95.5 692 Q120 699 148.5 703.5 Q177 708 208 708 Q259 708 301.5 695 Q344 682 375 656.5 Q406 631 423 591.5 Q440 552 440 500 Q440 469 430 438.5 Q420 408 400.5 382 Q381 356 353 336 Q325 316 289 305 Q374 285 421.5 227.5 Q469 170 469 90 Q469 13 436.5 -40 Q404 -93 351 -125 Q298 -157 231 -171 Q164 -185 95 -185 Q74 -185 56 -184.5 Q38 -184 30 -182 L34 -124 Q39 -125 53.5 -125.5 Q68 -126 88 -126 Q141 -126 196 -116.5 Q251 -107 295.5 -82.5 Q340 -58 368.5 -17 Q397 24 397 87 Q397 143 372.5 178.5 Q348 214 312 234 Q276 254 236 261.5 Q196 269 165 269 L129 269 L129 327 L156 327 Q195 327 233 336.5 Q271 346 301 367 Q331 388 349.5 420.5 Q368 453 368 498 Q368 569 327.5 609.5 Q287 650 209 650 Z" /><glyph glyph-name="uni021D" unicode="&#x21d;" d="M154 473 Q108 472 79 464.5 Q50 457 30 447 L13 500 Q33 511 72.5 520 Q112 529 157 529 Q197 529 232 519.5 Q267 510 293 489 Q319 468 334 434 Q349 400 349 351 Q349 325 339.5 301.5 Q330 278 314.5 259 Q299 240 278 226 Q257 212 235 205 Q297 192 336 154 Q375 116 375 45 Q375 0 359 -34.5 Q343 -69 315.5 -94.5 Q288 -120 251.5 -137.5 Q215 -155 175.5 -165.5 Q136 -176 95 -180.5 Q54 -185 17 -185 L14 -130 Q36 -129 66 -126.5 Q96 -124 128.5 -118 Q161 -112 193 -100 Q225 -88 250.5 -69 Q276 -50 291.5 -22 Q307 6 307 45 Q307 89 287 114 Q267 139 238.5 152 Q210 165 179 168 Q148 171 126 171 L108 171 L108 226 L120 226 Q147 226 176 232.5 Q205 239 229 254 Q253 269 268 294 Q283 319 283 356 Q283 413 250.5 443 Q218 473 154 473 Z" /><glyph glyph-name="uni021F" unicode="&#x21f;" d="M86 0 L86 764 L151 776 L151 502 Q183 514 216 520.5 Q249 527 282 527 Q342 527 382 510 Q422 493 446 461.5 Q470 430 479.5 386 Q489 342 489 289 L489 0 L424 0 L424 268 Q424 323 416.5 361 Q409 399 391.5 423 Q374 447 345 457.5 Q316 468 272 468 Q255 468 235.5 465 Q216 462 199 458.5 Q182 455 168.5 451 Q155 447 151 445 L151 0 L86 0 ZM164 825 L45 923 L67 958 L164 890 L261 958 L283 923 L164 825 Z" /><glyph glyph-name="uni0220" unicode="&#x220;" d="M577 -185 L509 -185 L509 415 Q509 473 499.5 516.5 Q490 560 468 589 Q446 618 410 632.5 Q374 647 322 647 Q268 647 226 640.5 Q184 634 158 626 L158 0 L90 0 L90 671 Q108 677 134 683.5 Q160 690 191.5 695 Q223 700 259 703.5 Q295 707 333 707 Q402 707 449 687 Q496 667 524.5 631 Q553 595 565 545.5 Q577 496 577 438 L577 -185 Z" /><glyph glyph-name="uni0221" unicode="&#x221;" d="M579 39 Q550 39 532 25 Q514 11 497 -10 L497 -36 Q497 -83 520 -106 Q543 -129 580 -129 Q620 -129 638.5 -104.5 Q657 -80 657 -45 Q657 -12 638 13.5 Q619 39 579 39 ZM497 56 Q517 76 540.5 85 Q564 94 590 94 Q620 94 643.5 83.5 Q667 73 683.5 54 Q700 35 709 10 Q718 -15 718 -45 Q718 -111 680 -148 Q642 -185 580 -185 Q517 -185 484 -157 Q451 -129 439 -83 L365 -171 L331 -141 L433 -19 Q432 -9 432 -3.5 Q432 2 432 11 Q410 3 378 -3 Q346 -9 309 -9 Q252 -9 205.5 9 Q159 27 125.5 61.5 Q92 96 73.5 145.5 Q55 195 55 258 Q55 317 70.5 366.5 Q86 416 116 452 Q146 488 189.5 508 Q233 528 289 528 Q340 528 377.5 513.5 Q415 499 432 486 L432 764 L497 776 L497 56 ZM432 423 Q423 430 409.5 438 Q396 446 378 453 Q360 460 339 464.5 Q318 469 295 469 Q247 469 214.5 452 Q182 435 162 406.5 Q142 378 133 339.5 Q124 301 124 258 Q124 207 137.5 168.5 Q151 130 175.5 103.5 Q200 77 234 63.5 Q268 50 310 50 Q358 50 388 57.5 Q418 65 432 70 L432 423 Z" /><glyph glyph-name="uni0222" unicode="&#x222;" d="M327 54 Q372 54 409.5 62.5 Q447 71 474 88.5 Q501 106 516 134 Q531 162 531 201 Q531 240 516 268 Q501 296 474 314 Q447 332 409.5 340.5 Q372 349 327 349 Q282 349 244.5 340.5 Q207 332 180 314 Q153 296 138 268 Q123 240 123 201 Q123 162 138 134 Q153 106 180 88.5 Q207 71 244.5 62.5 Q282 54 327 54 ZM327 -4 Q186 -4 118.5 51.5 Q51 107 51 201 Q51 243 65 274 Q79 305 101 327 Q123 349 149.5 362.5 Q176 376 200 381 Q151 397 124.5 436 Q98 475 98 545 Q98 590 103.5 625.5 Q109 661 117 693 L181 693 Q176 667 170 630.5 Q164 594 164 552 Q164 479 202.5 442.5 Q241 406 327 406 Q413 406 451.5 442.5 Q490 479 490 552 Q490 594 484 630.5 Q478 667 473 693 L537 693 Q545 661 550.5 625.5 Q556 590 556 545 Q556 475 529.5 436 Q503 397 454 381 Q478 376 504.5 362.5 Q531 349 553 327 Q575 305 589 274 Q603 243 603 201 Q603 107 535.5 51.5 Q468 -4 327 -4 Z" /><glyph glyph-name="uni0223" unicode="&#x223;" d="M294 46 Q372 46 416.5 96.5 Q461 147 461 234 Q461 322 416.5 372 Q372 422 294 422 Q216 422 171.5 372 Q127 322 127 234 Q127 147 171.5 96.5 Q216 46 294 46 ZM294 478 Q361 478 395 515 Q429 552 429 639 Q429 684 424.5 715.5 Q420 747 414 776 L478 776 Q486 737 490 700.5 Q494 664 494 622 Q494 552 470 510 Q446 468 406 450 Q430 439 452 420.5 Q474 402 491.5 375 Q509 348 519.5 312.5 Q530 277 530 234 Q530 179 514 133.5 Q498 88 468 56 Q438 24 394 6 Q350 -12 294 -12 Q238 -12 194 6 Q150 24 120 56 Q90 88 74 133.5 Q58 179 58 234 Q58 277 68.5 312.5 Q79 348 96.5 375 Q114 402 136 420.5 Q158 439 182 450 Q142 468 118 510 Q94 552 94 622 Q94 664 98 700.5 Q102 737 110 776 L174 776 Q168 747 163.5 715.5 Q159 684 159 639 Q159 552 193 515 Q227 478 294 478 Z" /><glyph glyph-name="uni0224" unicode="&#x224;" d="M520 -3 Q520 -47 516 -81.5 Q512 -116 499 -139.5 Q486 -163 461 -175 Q436 -187 394 -187 Q377 -187 361.5 -184 Q346 -181 338 -178 L347 -124 Q352 -126 362 -128 Q372 -130 384 -130 Q425 -130 439.5 -105.5 Q454 -81 454 -21 L454 0 L38 0 L38 51 Q60 94 90.5 145.5 Q121 197 156 251.5 Q191 306 229 361 Q267 416 304 466.5 Q341 517 374.5 560 Q408 603 436 634 L57 634 L57 693 L510 693 L510 631 Q486 603 454.5 563 Q423 523 387 475.5 Q351 428 313.5 374.5 Q276 321 239.5 266.5 Q203 212 170.5 159 Q138 106 112 59 L520 59 L520 -3 Z" /><glyph glyph-name="uni0225" unicode="&#x225;" d="M416 -3 Q416 -45 413 -78.5 Q410 -112 397.5 -136 Q385 -160 360.5 -173 Q336 -186 293 -186 Q276 -186 262 -183.5 Q248 -181 240 -178 L249 -125 Q261 -130 285 -130 Q327 -130 341 -104.5 Q355 -79 355 -21 L355 0 L38 0 L38 47 Q64 96 102.5 155 Q141 214 182 271.5 Q223 329 262 379.5 Q301 430 328 462 L53 462 L53 517 L407 517 L407 464 Q384 438 347 392 Q310 346 268 289.5 Q226 233 185 171.5 Q144 110 113 55 L416 55 L416 -3 Z" /><glyph glyph-name="uni0228" unicode="&#x228;" d="M317 -36 Q345 -48 361.5 -65.5 Q378 -83 378 -112 Q378 -124 374 -137.5 Q370 -151 359 -162 Q348 -173 329 -180 Q310 -187 280 -187 Q260 -187 239 -183.5 Q218 -180 209 -175 L217 -132 Q228 -137 242 -139 Q256 -141 276 -141 Q317 -141 317 -112 Q317 -95 303 -86 Q289 -77 259 -65 Q264 -51 272 -32.5 Q280 -14 288 0 L90 0 L90 693 L490 693 L490 634 L158 634 L158 393 L454 393 L454 335 L158 335 L158 59 L516 59 L516 0 L334 0 Q329 -9 324.5 -18.5 Q320 -28 317 -36 Z" /><glyph glyph-name="uni0229" unicode="&#x229;" d="M303 -36 Q331 -48 347.5 -65.5 Q364 -83 364 -112 Q364 -124 360 -137.5 Q356 -151 345 -162 Q334 -173 315 -180 Q296 -187 266 -187 Q246 -187 225 -183.5 Q204 -180 195 -175 L203 -132 Q214 -137 228 -139 Q242 -141 262 -141 Q303 -141 303 -112 Q303 -95 289 -86 Q275 -77 245 -65 Q249 -53 255.5 -38 Q262 -23 270 -9 Q213 -3 172 19 Q131 41 105 76 Q79 111 67 158 Q55 205 55 259 Q55 327 74.5 377.5 Q94 428 125.5 462 Q157 496 197.5 512.5 Q238 529 281 529 Q376 529 432.5 467 Q489 405 489 276 Q489 268 488.5 260 Q488 252 487 245 L124 245 Q127 150 171 99 Q215 48 311 48 Q364 48 395 58 Q426 68 440 75 L452 19 Q438 11 401.5 0.5 Q365 -10 314 -11 Q311 -18 308 -24.5 Q305 -31 303 -36 ZM422 300 Q420 381 384 426 Q348 471 282 471 Q247 471 219.5 457 Q192 443 171.5 419.5 Q151 396 139.5 365 Q128 334 126 300 L422 300 Z" /><glyph glyph-name="uni0234" unicode="&#x234;" d="M230 39 Q201 39 183 25 Q165 11 148 -10 L148 -36 Q148 -83 171 -106 Q194 -129 231 -129 Q271 -129 289.5 -104.5 Q308 -80 308 -45 Q308 -12 289 13.5 Q270 39 230 39 ZM16 -171 L-18 -141 L84 -19 Q83 -9 83 -3 Q83 3 83 12 L83 764 L148 776 L148 56 Q168 76 191.5 85 Q215 94 241 94 Q271 94 294.5 83.5 Q318 73 334.5 54 Q351 35 360 10 Q369 -15 369 -45 Q369 -111 331 -148 Q293 -185 231 -185 Q168 -185 135 -157 Q102 -129 90 -83 L16 -171 Z" /><glyph glyph-name="uni0235" unicode="&#x235;" d="M571 39 Q542 39 524 25 Q506 11 489 -10 L489 -36 Q489 -83 512 -106 Q535 -129 572 -129 Q612 -129 630.5 -104.5 Q649 -80 649 -45 Q649 -12 630 13.5 Q611 39 571 39 ZM489 56 Q509 76 532.5 85 Q556 94 582 94 Q612 94 635.5 83.5 Q659 73 675.5 54 Q692 35 701 10 Q710 -15 710 -45 Q710 -111 672 -148 Q634 -185 572 -185 Q509 -185 476 -157 Q443 -129 431 -83 L357 -171 L323 -141 L425 -19 Q424 -9 424 -3 Q424 3 424 12 L424 268 Q424 323 416.5 361 Q409 399 391.5 423 Q374 447 345.5 457.5 Q317 468 274 468 Q228 468 194.5 463 Q161 458 151 454 L151 0 L86 0 L86 499 Q115 507 164 517 Q213 527 284 527 Q343 527 382.5 510 Q422 493 445.5 461.5 Q469 430 479 386 Q489 342 489 289 L489 56 Z" /><glyph glyph-name="uni0236" unicode="&#x236;" d="M148 56 Q168 76 191.5 85 Q215 94 241 94 Q271 94 294.5 83.5 Q318 73 334.5 54 Q351 35 360 10 Q369 -15 369 -45 Q369 -111 331 -148 Q293 -185 231 -185 Q168 -185 135 -157 Q102 -129 90 -83 L16 -171 L-18 -141 L84 -19 Q83 -9 83 -3 Q83 3 83 12 L83 669 L148 681 L148 517 L354 517 L354 462 L148 462 L148 56 ZM230 39 Q201 39 183 25 Q165 11 148 -10 L148 -36 Q148 -83 171 -106 Q194 -129 231 -129 Q271 -129 289.5 -104.5 Q308 -80 308 -45 Q308 -12 289 13.5 Q270 39 230 39 Z" /><glyph glyph-name="uni0238" unicode="&#x238;" d="M497 61 Q512 56 541.5 51.5 Q571 47 619 47 Q703 47 754 101.5 Q805 156 805 258 Q805 301 796 339.5 Q787 378 767 406.5 Q747 435 714.5 452 Q682 469 634 469 Q611 469 590 464.5 Q569 460 551 453 Q533 446 519.5 438 Q506 430 497 423 L497 61 ZM497 486 Q514 499 551.5 513.5 Q589 528 640 528 Q696 528 739.5 508 Q783 488 813 452 Q843 416 858.5 366.5 Q874 317 874 258 Q874 195 855.5 145 Q837 95 803.5 60 Q770 25 723.5 6.5 Q677 -12 620 -12 Q569 -12 529 -4 Q489 4 464 12 Q439 4 399.5 -4 Q360 -12 309 -12 Q252 -12 205.5 6.5 Q159 25 125.5 60 Q92 95 73.5 145 Q55 195 55 258 Q55 317 70.5 366.5 Q86 416 116 452 Q146 488 189.5 508 Q233 528 289 528 Q340 528 377.5 513.5 Q415 499 432 486 L432 764 L497 776 L497 486 ZM432 423 Q423 430 409.5 438 Q396 446 378 453 Q360 460 339 464.5 Q318 469 295 469 Q247 469 214.5 452 Q182 435 162 406.5 Q142 378 133 339.5 Q124 301 124 258 Q124 156 175 101.5 Q226 47 310 47 Q358 47 387.5 51.5 Q417 56 432 61 L432 423 Z" /><glyph glyph-name="uni0239" unicode="&#x239;" d="M497 93 Q506 86 519.5 78 Q533 70 551 63 Q569 56 590 51.5 Q611 47 634 47 Q682 47 714.5 63.5 Q747 80 767 108.5 Q787 137 796 175.5 Q805 214 805 257 Q805 359 754 413.5 Q703 468 619 468 Q571 468 541.5 463.5 Q512 459 497 454 L497 93 ZM497 -185 L432 -185 L432 30 Q415 17 377.5 2.5 Q340 -12 289 -12 Q233 -12 189.5 8 Q146 28 116 63.5 Q86 99 70.5 148.5 Q55 198 55 257 Q55 320 73.5 370 Q92 420 125.5 455 Q159 490 205.5 508.5 Q252 527 309 527 Q360 527 399.5 519 Q439 511 464 503 Q489 511 529 519 Q569 527 620 527 Q677 527 723.5 508.5 Q770 490 803.5 455 Q837 420 855.5 370 Q874 320 874 257 Q874 198 858.5 148.5 Q843 99 813 63.5 Q783 28 739.5 8 Q696 -12 640 -12 Q589 -12 551.5 2.5 Q514 17 497 30 L497 -185 ZM432 454 Q417 459 387.5 463.5 Q358 468 310 468 Q226 468 175 413.5 Q124 359 124 257 Q124 214 133 175.5 Q142 137 162 108.5 Q182 80 214.5 63.5 Q247 47 295 47 Q318 47 339 51.5 Q360 56 378 63 Q396 70 409.5 78 Q423 86 432 93 L432 454 Z" /><glyph glyph-name="uni023A" unicode="&#x23a;" d="M533 754 L437 500 Q460 446 482.5 388.5 Q505 331 528.5 269.5 Q552 208 577.5 141 Q603 74 631 0 L557 0 Q538 51 520.5 98.5 Q503 146 487 191 L320 191 L210 -100 L156 -81 L259 191 L149 191 Q132 146 115 98.5 Q98 51 80 0 L10 0 Q50 108 85 201.5 Q120 295 153.5 378.5 Q187 462 220 539 Q253 616 290 693 L350 693 Q364 663 377.5 633.5 Q391 604 404 575 L479 773 L533 754 ZM280 246 L372 490 Q358 523 345 554 Q332 585 318 617 Q280 531 243.5 440.5 Q207 350 169 246 L280 246 ZM468 246 Q451 290 435.5 331 Q420 372 404 412 L341 246 L468 246 Z" /><glyph glyph-name="uni023B" unicode="&#x23b;" d="M562 754 L532 682 Q554 674 570 666 Q586 658 596 652 L573 594 Q546 611 508 626 L275 68 Q324 46 384 46 Q450 46 494.5 58.5 Q539 71 562 84 L581 26 Q574 21 557 14.5 Q540 8 514 1 Q488 -6 454 -10.5 Q420 -15 378 -15 Q311 -15 250 10 L205 -99 L152 -78 L200 37 Q137 81 99.5 159 Q62 237 62 347 Q62 434 88.5 501.5 Q115 569 159 615 Q203 661 261 684.5 Q319 708 382 708 Q408 708 431.5 705.5 Q455 703 476 698 L509 775 L562 754 ZM134 346 Q134 179 226 99 L453 641 Q424 647 395 647 Q330 647 281.5 625 Q233 603 200 563 Q167 523 150.5 468 Q134 413 134 346 Z" /><glyph glyph-name="uni023C" unicode="&#x23c;" d="M300 -11 Q277 -11 255.5 -7.5 Q234 -4 215 1 L188 -84 L136 -68 L165 23 Q110 55 82.5 115.5 Q55 176 55 257 Q55 318 71.5 368 Q88 418 119 454 Q150 490 194 509.5 Q238 529 293 529 Q301 529 309.5 528.5 Q318 528 326 527 L354 613 L406 597 L381 518 Q399 513 414 508 Q429 503 439 498 L422 443 Q409 449 394.5 454.5 Q380 460 363 464 L234 59 Q251 54 269.5 51 Q288 48 311 48 Q353 48 381.5 57 Q410 66 423 73 L437 18 Q419 8 380.5 -1.5 Q342 -11 300 -11 ZM124 257 Q124 202 138.5 158 Q153 114 185 87 L308 470 L299 470 Q213 470 168.5 414.5 Q124 359 124 257 Z" /><glyph glyph-name="uni023D" unicode="&#x23d;" d="M498 59 L498 0 L104 0 L104 334 L24 334 L24 388 L104 388 L104 693 L172 693 L172 388 L335 388 L335 334 L172 334 L172 59 L498 59 Z" /><glyph glyph-name="uni023E" unicode="&#x23e;" d="M526 693 L571 756 L619 724 L307 283 L307 0 L240 0 L240 197 L74 -37 L27 -5 L240 295 L240 634 L18 634 L18 693 L526 693 ZM307 382 L485 634 L307 634 L307 382 Z" /><glyph glyph-name="uni023F" unicode="&#x23f;" d="M328 -130 Q338 -130 345 -129.5 Q352 -129 361 -127 L369 -179 Q362 -181 347 -183 Q332 -185 318 -185 Q290 -185 268.5 -180.5 Q247 -176 228.5 -166.5 Q210 -157 191.5 -140.5 Q173 -124 150 -100 Q127 -75 112 -55.5 Q97 -36 85 -21 Q73 -6 61 5 Q49 16 33 24 L55 77 Q81 63 115 55 Q149 47 191 47 Q247 47 284 65 Q321 83 321 127 Q321 148 314.5 162.5 Q308 177 293 189 Q278 201 253.5 212 Q229 223 193 238 Q164 250 138 262.5 Q112 275 92 291.5 Q72 308 60 331 Q48 354 48 387 Q48 450 95.5 488.5 Q143 527 226 527 Q279 527 313.5 518.5 Q348 510 362 503 L347 445 Q335 451 306.5 460.5 Q278 470 223 470 Q201 470 181.5 465.5 Q162 461 147 452 Q132 443 123 428.5 Q114 414 114 393 Q114 372 122 357 Q130 342 145.5 330.5 Q161 319 183.5 309 Q206 299 235 287 Q265 275 292.5 262.5 Q320 250 341 233 Q362 216 375 191.5 Q388 167 388 130 Q388 60 335.5 27.5 Q283 -5 192 -5 Q181 -5 166 -3.5 Q151 -2 138 1 Q146 -7 161.5 -25 Q177 -43 200 -69 Q213 -83 225.5 -94.5 Q238 -106 252.5 -114 Q267 -122 285.5 -126 Q304 -130 328 -130 Z" /><glyph glyph-name="uni0240" unicode="&#x240;" d="M456 -177 Q449 -179 434 -181 Q419 -183 405 -183 Q369 -183 343.5 -173 Q318 -163 297.5 -147.5 Q277 -132 259 -111.5 Q241 -91 220 -70 Q205 -55 190 -42.5 Q175 -30 156.5 -20.5 Q138 -11 115 -5.5 Q92 0 62 0 L38 0 L38 47 Q64 96 102.5 155 Q141 214 182 271.5 Q223 329 262 379.5 Q301 430 328 462 L53 462 L53 517 L407 517 L407 464 Q384 439 347.5 393.5 Q311 348 270 292 Q229 236 187 174.5 Q145 113 112 56 Q165 49 203.5 23 Q242 -3 277 -39 Q293 -55 307.5 -71 Q322 -87 338.5 -99.5 Q355 -112 373.5 -120 Q392 -128 415 -128 Q425 -128 432 -127.5 Q439 -127 448 -125 L456 -177 Z" /><glyph glyph-name="uni0241" unicode="&#x241;" d="M206 0 L138 0 L138 203 Q138 249 146 278.5 Q154 308 171.5 329.5 Q189 351 215.5 369 Q242 387 279 410 Q322 436 345 461.5 Q368 487 368 534 Q368 564 355.5 586 Q343 608 321.5 622 Q300 636 271 642.5 Q242 649 210 649 Q180 649 154 644 Q128 639 107 631.5 Q86 624 70.5 616 Q55 608 46 602 L23 658 Q33 666 52 674.5 Q71 683 96.5 690.5 Q122 698 152 703 Q182 708 212 708 Q324 708 381.5 663 Q439 618 439 534 Q439 498 428.5 472 Q418 446 400 426 Q382 406 357.5 389.5 Q333 373 306 356 Q274 336 254.5 321 Q235 306 224 289.5 Q213 273 209.5 252 Q206 231 206 200 L206 0 Z" /><glyph glyph-name="uni0242" unicode="&#x242;" d="M182 0 L116 0 L116 121 Q116 156 124.5 180 Q133 204 148.5 222 Q164 240 185.5 254.5 Q207 269 233 284 Q270 306 289.5 327.5 Q309 349 309 384 Q309 410 298 427 Q287 444 269 453.5 Q251 463 228 467 Q205 471 181 471 Q136 471 97.5 458.5 Q59 446 34 428 L12 482 Q21 489 37.5 497 Q54 505 76 512 Q98 519 124 524 Q150 529 179 529 Q279 529 327.5 490.5 Q376 452 376 383 Q376 354 366.5 332.5 Q357 311 341 293.5 Q325 276 304.5 262.5 Q284 249 263 236 Q242 223 226.5 211.5 Q211 200 201.5 186.5 Q192 173 187 155.5 Q182 138 182 114 L182 0 Z" /><glyph glyph-name="uni0243" unicode="&#x243;" d="M270 -6 Q253 -6 230.5 -4.5 Q208 -3 184.5 -0.5 Q161 2 140 5.5 Q119 9 104 13 L104 168 L24 168 L24 221 L104 221 L104 680 Q122 685 144 688.5 Q166 692 189.5 694.5 Q213 697 235.5 698 Q258 699 277 699 Q333 699 383.5 690 Q434 681 472 660 Q510 639 532.5 604.5 Q555 570 555 519 Q555 463 526.5 423.5 Q498 384 450 369 Q480 362 505 349 Q530 336 549 315.5 Q568 295 578.5 265.5 Q589 236 589 195 Q589 97 511 45.5 Q433 -6 270 -6 ZM172 332 L172 221 L302 221 L302 168 L172 168 L172 59 Q187 57 217 54.5 Q247 52 278 52 Q324 52 367.5 58 Q411 64 444 80 Q477 96 497 124 Q517 152 517 196 Q517 236 503 262.5 Q489 289 463 304.5 Q437 320 399.5 326 Q362 332 316 332 L172 332 ZM172 390 L304 390 Q341 390 374 395.5 Q407 401 431.5 415.5 Q456 430 470 454.5 Q484 479 484 517 Q484 551 469 574.5 Q454 598 426.5 613 Q399 628 361 634.5 Q323 641 277 641 Q240 641 214.5 639 Q189 637 172 634 L172 390 Z" /><glyph glyph-name="uni0244" unicode="&#x244;" d="M349 -15 Q280 -15 231.5 6 Q183 27 153 64 Q123 101 109.5 150.5 Q96 200 96 257 L96 351 L24 351 L24 405 L96 405 L96 693 L164 693 L164 405 L534 405 L534 693 L602 693 L602 405 L674 405 L674 351 L602 351 L602 257 Q602 200 588.5 150.5 Q575 101 545 64 Q515 27 466.5 6 Q418 -15 349 -15 ZM349 46 Q391 46 425 59 Q459 72 483 99 Q507 126 520.5 167.5 Q534 209 534 266 L534 351 L164 351 L164 266 Q164 209 177.5 167.5 Q191 126 215 99 Q239 72 273 59 Q307 46 349 46 Z" /><glyph glyph-name="uni0246" unicode="&#x246;" d="M235 0 L187 -115 L135 -95 L174 0 L90 0 L90 693 L464 693 L493 762 L545 742 L398 392 L463 392 L463 335 L374 335 L259 59 L525 59 L525 0 L235 0 ZM158 392 L338 392 L439 634 L158 634 L158 392 ZM158 59 L199 59 L314 335 L158 335 L158 59 Z" /><glyph glyph-name="uni0247" unicode="&#x247;" d="M55 259 Q55 327 74.5 377.5 Q94 428 125.5 462 Q157 496 197.5 512.5 Q238 529 281 529 Q306 529 325 525 L353 613 L402 597 L374 510 Q428 485 458.5 427.5 Q489 370 489 276 Q489 268 488.5 260 Q488 252 487 245 L289 245 L230 59 Q264 47 311 47 Q364 47 395 57 Q426 67 440 74 L452 19 Q438 11 399.5 0 Q361 -11 309 -11 Q281 -11 256.5 -7.5 Q232 -4 211 2 L184 -84 L135 -68 L164 23 Q107 57 81 118 Q55 179 55 259 ZM251 297 L307 471 Q301 472 295 472.5 Q289 473 282 473 Q247 473 219 459 Q191 445 170.5 421 Q150 397 138 365 Q126 333 124 297 L251 297 ZM424 297 Q424 354 406 393.5 Q388 433 356 453 L306 297 L424 297 ZM122 245 Q125 135 184 86 L235 245 L122 245 Z" /><glyph glyph-name="uni0248" unicode="&#x248;" d="M400 388 L480 388 L480 334 L400 334 L400 218 Q400 168 390 125.5 Q380 83 355.5 51.5 Q331 20 290.5 2.5 Q250 -15 189 -15 Q153 -15 123 -8.5 Q93 -2 70 7 Q47 16 31.5 26 Q16 36 8 44 L40 99 Q49 91 62.5 81.5 Q76 72 94 64 Q112 56 134 51 Q156 46 182 46 Q259 46 295.5 86.5 Q332 127 332 225 L332 334 L183 334 L183 388 L332 388 L332 693 L400 693 L400 388 Z" /><glyph glyph-name="uni0249" unicode="&#x249;" d="M5 -187 Q-6 -187 -22.5 -184 Q-39 -181 -47 -177 L-38 -124 Q-31 -126 -19 -128 Q-7 -130 4 -130 Q63 -130 82.5 -97 Q102 -64 102 2 L102 248 L7 248 L7 301 L102 301 L102 517 L167 517 L167 301 L250 301 L250 248 L167 248 L167 5 Q167 -93 130 -140 Q93 -187 5 -187 ZM182 673 Q182 650 168 636.5 Q154 623 134 623 Q114 623 100 636.5 Q86 650 86 673 Q86 696 100 709.5 Q114 723 134 723 Q154 723 168 709.5 Q182 696 182 673 Z" /><glyph glyph-name="uni024A" unicode="&#x24a;" d="M640 347 Q640 417 622 472.5 Q604 528 571 567 Q538 606 491.5 626.5 Q445 647 387 647 Q329 647 282.5 626.5 Q236 606 203 567 Q170 528 152 472.5 Q134 417 134 347 Q134 277 152 221.5 Q170 166 203 127 Q236 88 282.5 67 Q329 46 387 46 Q445 46 491.5 67 Q538 88 571 127 Q604 166 622 221.5 Q640 277 640 347 ZM646 124 Q629 95 602.5 69.5 Q576 44 542 25 Q508 6 468.5 -4.5 Q429 -15 387 -15 Q321 -15 262 8 Q203 31 158.5 76.5 Q114 122 88 190 Q62 258 62 347 Q62 436 88 503.5 Q114 571 158.5 616.5 Q203 662 262 685 Q321 708 387 708 Q453 708 512 685 Q571 662 615.5 616.5 Q660 571 686 503.5 Q712 436 712 347 L712 -37 Q712 -85 727.5 -107.5 Q743 -130 781 -130 Q793 -130 803 -128 Q813 -126 818 -124 L827 -178 Q819 -181 804.5 -184 Q790 -187 773 -187 Q731 -187 705.5 -174.5 Q680 -162 667 -140.5 Q654 -119 650 -89.5 Q646 -60 646 -26 L646 124 Z" /><glyph glyph-name="uni024B" unicode="&#x24b;" d="M432 30 Q415 17 377.5 2.5 Q340 -12 289 -12 Q233 -12 189.5 8 Q146 28 116 63.5 Q86 99 70.5 148.5 Q55 198 55 257 Q55 320 73.5 370 Q92 420 125.5 455 Q159 490 205.5 508.5 Q252 527 309 527 Q378 527 423 518 Q468 509 497 499 L497 -37 Q497 -85 512 -107.5 Q527 -130 565 -130 Q589 -130 601 -125 L610 -178 Q602 -181 588 -183.5 Q574 -186 557 -186 Q515 -186 490.5 -174 Q466 -162 453 -140.5 Q440 -119 436 -89.5 Q432 -60 432 -26 L432 30 ZM432 454 Q417 459 387.5 463.5 Q358 468 310 468 Q226 468 175 413.5 Q124 359 124 257 Q124 214 133 175.5 Q142 137 162 108.5 Q182 80 214.5 63.5 Q247 47 295 47 Q318 47 339 51.5 Q360 56 378 63 Q396 70 409.5 78 Q423 86 432 93 L432 454 Z" /><glyph glyph-name="uni024C" unicode="&#x24c;" d="M347 285 Q332 283 316 283 Q300 283 284 283 L172 283 L172 0 L104 0 L104 283 L24 283 L24 338 L104 338 L104 680 Q140 690 188.5 694.5 Q237 699 278 699 Q421 699 493.5 645 Q566 591 566 485 Q566 407 525 362 Q484 317 417 297 Q433 277 458.5 243 Q484 209 511 168.5 Q538 128 564 84 Q590 40 608 0 L535 0 Q514 40 489 80.5 Q464 121 438.5 158.5 Q413 196 389 228.5 Q365 261 347 285 ZM286 640 Q248 640 219.5 637.5 Q191 635 172 633 L172 338 L266 338 Q313 338 355 342.5 Q397 347 428 362.5 Q459 378 477 407 Q495 436 495 486 Q495 532 477 562 Q459 592 430 609.5 Q401 627 363.5 633.5 Q326 640 286 640 Z" /><glyph glyph-name="uni024D" unicode="&#x24d;" d="M270 527 Q302 527 330.5 522 Q359 517 370 512 L357 456 Q349 460 324.5 464.5 Q300 469 260 469 Q218 469 192.5 463 Q167 457 159 453 L159 267 L314 267 L314 214 L159 214 L159 0 L94 0 L94 214 L17 214 L17 267 L94 267 L94 493 Q119 504 163 515.5 Q207 527 270 527 Z" /><glyph glyph-name="uni024E" unicode="&#x24e;" d="M261 0 L261 285 Q229 333 200 380 Q171 427 143 474 L20 474 L20 528 L111 528 Q87 570 64 611 Q41 652 20 693 L99 693 Q118 652 139.5 611 Q161 570 184 528 L408 528 Q431 570 453 611 Q475 652 495 693 L569 693 L476 528 L568 528 L568 474 L445 474 Q418 427 389 381 Q360 335 329 287 L329 0 L261 0 ZM297 342 Q317 374 337 406.5 Q357 439 377 474 L214 474 Q234 439 255 406.5 Q276 374 297 342 Z" /><glyph glyph-name="uni024F" unicode="&#x24f;" d="M247 -11 Q212 52 181 119 Q150 186 123 255 L28 255 L28 308 L104 308 Q84 362 68 414 Q52 466 40 517 L109 517 Q120 470 136 417.5 Q152 365 172 308 L356 308 Q369 356 381 407 Q393 458 406 517 L471 517 Q459 463 446 411 Q433 359 419 308 L489 308 L489 255 L404 255 Q382 181 358.5 113 Q335 45 309 -16 Q290 -61 270 -93.5 Q250 -126 225.5 -147 Q201 -168 168.5 -178 Q136 -188 92 -188 Q67 -188 46.5 -182 Q26 -176 21 -173 L34 -119 Q38 -122 56.5 -127.5 Q75 -133 95 -133 Q123 -133 145.5 -127 Q168 -121 186 -106.5 Q204 -92 218.5 -69 Q233 -46 247 -11 ZM279 56 Q298 110 313 158.5 Q328 207 342 255 L191 255 Q211 205 232.5 155 Q254 105 279 56 Z" /><glyph glyph-name="uni0292" unicode="&#x292;" d="M125 216 Q151 245 178.5 279 Q206 313 231.5 346.5 Q257 380 278.5 410 Q300 440 314 462 L21 462 L21 517 L392 517 L392 480 Q377 455 354.5 422 Q332 389 306 353.5 Q280 318 251.5 282.5 Q223 247 197 218 Q239 216 278.5 205.5 Q318 195 348.5 172 Q379 149 397.5 112.5 Q416 76 416 24 Q416 -80 348.5 -132.5 Q281 -185 166 -185 Q107 -185 63.5 -174.5 Q20 -164 0 -153 L17 -97 Q36 -107 74 -116.5 Q112 -126 166 -126 Q257 -126 302.5 -87 Q348 -48 348 24 Q348 70 330 98 Q312 126 283.5 141.5 Q255 157 219.5 162 Q184 167 150 167 L125 167 L125 216 Z" /><glyph glyph-name="breve_inverted" unicode="&#x311;" d="M188 746 Q212 746 234.5 738 Q257 730 274.5 714 Q292 698 301.5 672.5 Q311 647 310 613 L267 613 Q267 620 264.5 633 Q262 646 254 658.5 Q246 671 230.5 680.5 Q215 690 188 690 Q161 690 145.5 680.5 Q130 671 122 658.5 Q114 646 111.5 633 Q109 620 109 613 L66 613 Q65 647 74.5 672.5 Q84 698 101.5 714 Q119 730 141.5 738 Q164 746 188 746 Z" /><glyph glyph-name="afii10051" unicode="&#x402;" d="M433 374 Q409 374 386.5 371.5 Q364 369 345.5 366 Q327 363 314 359.5 Q301 356 295 354 L295 0 L227 0 L227 634 L18 634 L18 693 L541 693 L541 634 L295 634 L295 413 Q310 418 349 426 Q388 434 439 434 Q564 434 629.5 374 Q695 314 695 208 Q695 167 683.5 129.5 Q672 92 648 62.5 Q624 33 587 15.5 Q550 -2 499 -2 Q491 -2 478.5 -1 Q466 0 456 2 L460 57 Q468 56 474.5 55.5 Q481 55 497 55 Q558 55 591 97.5 Q624 140 624 208 Q624 293 571 333.5 Q518 374 433 374 Z" /><glyph glyph-name="afii10053" unicode="&#x404;" d="M378 -15 Q311 -15 253.5 9 Q196 33 153.5 79 Q111 125 86.5 192.5 Q62 260 62 347 Q62 434 88.5 501.5 Q115 569 159 615 Q203 661 261 684.5 Q319 708 382 708 Q421 708 453 703 Q485 698 509 690.5 Q533 683 550 675.5 Q567 668 576 662 L554 603 Q529 618 490.5 632.5 Q452 647 395 647 Q335 647 288.5 628 Q242 609 209.5 574.5 Q177 540 158 491 Q139 442 135 383 L449 383 L449 325 L134 325 Q137 261 154.5 209.5 Q172 158 204 121.5 Q236 85 281 65.5 Q326 46 384 46 Q450 46 494.5 58.5 Q539 71 562 84 L581 26 Q574 21 557 14.5 Q540 8 514 1 Q488 -6 454 -10.5 Q420 -15 378 -15 Z" /><glyph glyph-name="afii10058" unicode="&#x409;" d="M695 375 Q662 375 634.5 373 Q607 371 590 369 L590 60 Q609 58 635 55.5 Q661 53 696 53 Q739 53 778.5 60 Q818 67 847.5 85 Q877 103 894.5 134.5 Q912 166 912 215 Q912 262 895 293 Q878 324 849 342 Q820 360 780.5 367.5 Q741 375 695 375 ZM590 428 Q598 429 611 430 Q624 431 638 432 Q652 433 666 433.5 Q680 434 691 434 Q837 434 910 379 Q983 324 983 215 Q983 110 912.5 52 Q842 -6 693 -6 Q654 -6 606 -1.5 Q558 3 522 13 L522 634 L296 634 L296 614 Q296 504 288.5 402 Q281 300 253 207 Q240 164 220.5 126 Q201 88 173 59 Q145 30 107.5 12 Q70 -6 21 -8 L14 50 Q48 54 74.5 66.5 Q101 79 121.5 100 Q142 121 157.5 150.5 Q173 180 186 219 Q212 300 220.5 402 Q229 504 229 631 L229 693 L590 693 L590 428 Z" /><glyph glyph-name="afii10059" unicode="&#x40a;" d="M707 370 Q674 370 646.5 367.5 Q619 365 602 363 L602 60 Q621 58 647 55.5 Q673 53 708 53 Q751 53 790.5 60 Q830 67 859.5 85 Q889 103 906.5 134 Q924 165 924 213 Q924 259 907 289.5 Q890 320 861 338 Q832 356 792.5 363 Q753 370 707 370 ZM602 693 L602 422 Q610 423 623 424.5 Q636 426 650 427 Q664 428 678 428.5 Q692 429 703 429 Q849 429 922 374.5 Q995 320 995 213 Q995 109 925 51.5 Q855 -6 705 -6 Q666 -6 618 -1.5 Q570 3 534 13 L534 351 L158 351 L158 0 L90 0 L90 693 L158 693 L158 410 L534 410 L534 693 L602 693 Z" /><glyph glyph-name="afii10060" unicode="&#x40b;" d="M439 434 Q502 434 544.5 418.5 Q587 403 613 374 Q639 345 650 304 Q661 263 661 212 L661 0 L593 0 L593 211 Q593 295 556.5 334.5 Q520 374 433 374 Q409 374 386.5 371.5 Q364 369 345.5 366 Q327 363 314 359.5 Q301 356 295 354 L295 0 L227 0 L227 634 L18 634 L18 693 L541 693 L541 634 L295 634 L295 413 Q310 418 349 426 Q388 434 439 434 Z" /><glyph glyph-name="afii10145" unicode="&#x40f;" d="M375 0 L375 -185 L310 -185 L310 0 L90 0 L90 693 L158 693 L158 59 L527 59 L527 693 L595 693 L595 0 L375 0 Z" /><glyph glyph-name="afii10020" unicode="&#x413;" d="M464 693 L464 634 L158 634 L158 0 L90 0 L90 693 L464 693 Z" /><glyph glyph-name="afii10021" unicode="&#x414;" d="M83 0 L83 -185 L18 -185 L18 59 L80 59 Q131 110 159.5 180 Q188 250 202.5 330.5 Q217 411 220 498 Q223 585 223 671 L223 693 L583 693 L583 59 L648 59 L648 -185 L583 -185 L583 0 L83 0 ZM290 634 L290 626 Q290 556 286.5 479 Q283 402 270.5 326.5 Q258 251 232.5 182 Q207 113 163 59 L515 59 L515 634 L290 634 Z" /><glyph glyph-name="afii10024" unicode="&#x416;" d="M22 0 Q47 46 81.5 96 Q116 146 156 194 Q196 242 237.5 286.5 Q279 331 318 366 Q292 396 254 439.5 Q216 483 176 529.5 Q136 576 98.5 619.5 Q61 663 37 693 L116 693 Q135 669 168 629 Q201 589 240 543.5 Q279 498 318.5 451.5 Q358 405 391 368 L391 693 L455 693 L455 368 Q488 405 527.5 451.5 Q567 498 606 543.5 Q645 589 678 629 Q711 669 730 693 L808 693 Q784 663 747 619.5 Q710 576 670 530 Q630 484 592 440.5 Q554 397 528 367 Q567 332 609 287.5 Q651 243 690.5 194.5 Q730 146 765 96 Q800 46 825 0 L749 0 Q724 45 686.5 95.5 Q649 146 608 193 Q567 240 526.5 280 Q486 320 455 345 L455 0 L391 0 L391 345 Q359 320 319 280 Q279 240 238 193 Q197 146 159.5 95.5 Q122 45 97 0 L22 0 Z" /><glyph glyph-name="afii10025" unicode="&#x417;" d="M238 649 Q190 649 148 637 Q106 625 77 605 L53 662 Q79 679 129 693.5 Q179 708 239 708 Q290 708 332 697.5 Q374 687 404 665.5 Q434 644 451 611 Q468 578 468 533 Q468 506 459 481 Q450 456 433 435 Q416 414 390 398.5 Q364 383 330 376 Q363 370 394 356 Q425 342 448 319.5 Q471 297 485 264.5 Q499 232 499 189 Q499 133 479 94.5 Q459 56 423.5 31.5 Q388 7 338.5 -4 Q289 -15 230 -15 Q192 -15 160 -10 Q128 -5 102.5 2.5 Q77 10 59 17.5 Q41 25 31 31 L53 90 Q63 84 80 76.5 Q97 69 119.5 61.5 Q142 54 170 49 Q198 44 231 44 Q274 44 310 51.5 Q346 59 372 76.5 Q398 94 412.5 121.5 Q427 149 427 189 Q427 235 409 264 Q391 293 359.5 309.5 Q328 326 285 332.5 Q242 339 193 339 L147 339 L147 397 L206 397 Q239 397 273 403.5 Q307 410 334.5 425 Q362 440 379.5 466 Q397 492 397 531 Q397 582 357 615.5 Q317 649 238 649 Z" /><glyph glyph-name="afii10026" unicode="&#x418;" d="M90 0 L90 693 L157 693 L157 129 Q188 184 236.5 258 Q285 332 341 409.5 Q397 487 455.5 561.5 Q514 636 565 693 L619 693 L619 0 L552 0 L552 584 Q522 550 486 503 Q450 456 411.5 402.5 Q373 349 334 292.5 Q295 236 260 182.5 Q225 129 195.5 82 Q166 35 147 0 L90 0 Z" /><glyph glyph-name="afii10029" unicode="&#x41b;" d="M296 634 L296 614 Q296 504 288.5 402 Q281 300 253 207 Q240 164 220.5 126 Q201 88 173 59 Q145 30 107.5 12 Q70 -6 21 -8 L14 50 Q48 54 74.5 66.5 Q101 79 121.5 100 Q142 121 157.5 150.5 Q173 180 186 219 Q212 300 220.5 402 Q229 504 229 631 L229 693 L590 693 L590 0 L522 0 L522 634 L296 634 Z" /><glyph glyph-name="afii10033" unicode="&#x41f;" d="M595 693 L595 0 L527 0 L527 634 L158 634 L158 0 L90 0 L90 693 L595 693 Z" /><glyph glyph-name="afii10037" unicode="&#x423;" d="M311 243 Q332 290 354 345.5 Q376 401 397 460.5 Q418 520 436.5 579.5 Q455 639 469 693 L541 693 Q521 624 500.5 562.5 Q480 501 458.5 443.5 Q437 386 414 330.5 Q391 275 366 219 Q350 183 331 143 Q312 103 284 69.5 Q256 36 215.5 14.5 Q175 -7 116 -7 Q90 -7 70.5 -1.5 Q51 4 42 9 L55 65 Q62 61 78 55.5 Q94 50 120 50 Q154 50 179.5 60.5 Q205 71 223.5 88 Q242 105 256 128 Q270 151 281 176 Q235 246 195.5 317 Q156 388 123.5 455 Q91 522 64.5 582.5 Q38 643 18 693 L94 693 Q128 601 182.5 483 Q237 365 311 243 Z" /><glyph glyph-name="afii10038" unicode="&#x424;" d="M463 142 Q517 142 565 155.5 Q613 169 648.5 197 Q684 225 705 268.5 Q726 312 726 371 Q726 430 705 473.5 Q684 517 648.5 545 Q613 573 565 586.5 Q517 600 463 600 L463 142 ZM397 86 Q340 86 280.5 101.5 Q221 117 172.5 151 Q124 185 93 239.5 Q62 294 62 371 Q62 448 93 502.5 Q124 557 172.5 591 Q221 625 280.5 640.5 Q340 656 397 656 L397 738 L463 738 L463 656 Q520 656 579.5 640.5 Q639 625 687.5 591 Q736 557 767 502.5 Q798 448 798 371 Q798 294 767 239.5 Q736 185 687.5 151 Q639 117 579.5 101.5 Q520 86 463 86 L463 0 L397 0 L397 86 ZM397 600 Q343 600 295 586.5 Q247 573 211.5 545 Q176 517 155 473.5 Q134 430 134 371 Q134 312 155 268.5 Q176 225 211.5 197 Q247 169 295 155.5 Q343 142 397 142 L397 600 Z" /><glyph glyph-name="afii10040" unicode="&#x426;" d="M595 0 L90 0 L90 693 L158 693 L158 59 L527 59 L527 693 L595 693 L595 59 L660 59 L660 -185 L595 -185 L595 0 Z" /><glyph glyph-name="afii10041" unicode="&#x427;" d="M136 693 L136 499 Q136 454 142 419 Q148 384 166 360 Q184 336 218 324 Q252 312 308 312 Q333 312 356 314.5 Q379 317 398.5 320 Q418 323 431.5 326.5 Q445 330 451 332 L451 693 L519 693 L519 0 L451 0 L451 273 Q436 268 395.5 260 Q355 252 302 252 Q219 252 172 272 Q125 292 102 326 Q79 360 73.5 404.5 Q68 449 68 499 L68 693 L136 693 Z" /><glyph glyph-name="afii10042" unicode="&#x428;" d="M876 0 L90 0 L90 693 L158 693 L158 59 L449 59 L449 693 L517 693 L517 59 L808 59 L808 693 L876 693 L876 0 Z" /><glyph glyph-name="afii10043" unicode="&#x429;" d="M876 0 L90 0 L90 693 L158 693 L158 59 L449 59 L449 693 L517 693 L517 59 L808 59 L808 693 L876 693 L876 59 L941 59 L941 -185 L876 -185 L876 0 Z" /><glyph glyph-name="afii10044" unicode="&#x42a;" d="M378 375 Q342 375 314 373 Q286 371 269 369 L269 60 Q288 58 314.5 55.5 Q341 53 379 53 Q424 53 464.5 60 Q505 67 535 85 Q565 103 582.5 134.5 Q600 166 600 215 Q600 262 583.5 293 Q567 324 537.5 342 Q508 360 467 367.5 Q426 375 378 375 ZM269 693 L269 428 Q286 430 317.5 432 Q349 434 374 434 Q524 434 597.5 379 Q671 324 671 215 Q671 110 600.5 52 Q530 -6 376 -6 Q334 -6 285.5 -1.5 Q237 3 201 13 L201 634 L18 634 L18 693 L269 693 Z" /><glyph glyph-name="afii10045" unicode="&#x42b;" d="M664 693 L732 693 L732 0 L664 0 L664 693 ZM263 375 Q230 375 202.5 373 Q175 371 158 369 L158 60 Q177 58 203 55.5 Q229 53 264 53 Q307 53 346.5 60 Q386 67 415.5 85 Q445 103 462.5 134.5 Q480 166 480 215 Q480 262 463 293 Q446 324 417 342 Q388 360 348.5 367.5 Q309 375 263 375 ZM259 434 Q405 434 478 379 Q551 324 551 215 Q551 110 480.5 52 Q410 -6 261 -6 Q222 -6 174 -1.5 Q126 3 90 13 L90 693 L158 693 L158 428 Q166 429 179 430 Q192 431 206 432 Q220 433 234 433.5 Q248 434 259 434 Z" /><glyph glyph-name="afii10046" unicode="&#x42c;" d="M267 375 Q231 375 203 373 Q175 371 158 369 L158 60 Q177 58 203.5 55.5 Q230 53 268 53 Q313 53 353.5 60 Q394 67 424 85 Q454 103 471.5 134.5 Q489 166 489 215 Q489 262 472.5 293 Q456 324 426.5 342 Q397 360 356 367.5 Q315 375 267 375 ZM263 434 Q413 434 486.5 379 Q560 324 560 215 Q560 110 489.5 52 Q419 -6 265 -6 Q223 -6 174.5 -1.5 Q126 3 90 13 L90 693 L158 693 L158 428 Q175 430 206.5 432 Q238 434 263 434 Z" /><glyph glyph-name="afii10047" unicode="&#x42d;" d="M213 46 Q277 46 324 66.5 Q371 87 402.5 123.5 Q434 160 450.5 211.5 Q467 263 469 326 L156 326 L156 384 L468 384 Q464 444 445.5 493 Q427 542 395.5 576 Q364 610 320 628.5 Q276 647 220 647 Q158 647 115 634.5 Q72 622 49 609 L31 666 Q39 671 56 678.5 Q73 686 98.5 692.5 Q124 699 156.5 703.5 Q189 708 228 708 Q295 708 352.5 684 Q410 660 452 614 Q494 568 518 500.5 Q542 433 542 346 Q542 259 518 191.5 Q494 124 451.5 78 Q409 32 349.5 8.5 Q290 -15 219 -15 Q184 -15 153.5 -10.5 Q123 -6 98 0.5 Q73 7 55.5 14 Q38 21 29 26 L48 84 Q71 71 112 58.5 Q153 46 213 46 Z" /><glyph glyph-name="afii10048" unicode="&#x42e;" d="M638 708 Q701 708 757.5 685 Q814 662 857 616.5 Q900 571 925 503.5 Q950 436 950 347 Q950 258 925 190 Q900 122 857 76.5 Q814 31 757.5 8 Q701 -15 638 -15 Q576 -15 520.5 7 Q465 29 422.5 73 Q380 117 354 182 Q328 247 326 333 L158 333 L158 0 L90 0 L90 693 L158 693 L158 392 L328 392 Q334 470 361.5 529 Q389 588 430.5 628 Q472 668 525.5 688 Q579 708 638 708 ZM638 46 Q693 46 737.5 67 Q782 88 813.5 127 Q845 166 861.5 221.5 Q878 277 878 347 Q878 417 861.5 472.5 Q845 528 813.5 567 Q782 606 737.5 626.5 Q693 647 638 647 Q582 647 538 626.5 Q494 606 462.5 567 Q431 528 414.5 472.5 Q398 417 398 347 Q398 277 414.5 221.5 Q431 166 462.5 127 Q494 88 538 67 Q582 46 638 46 Z" /><glyph glyph-name="afii10049" unicode="&#x42f;" d="M456 633 Q437 635 408.5 637.5 Q380 640 342 640 Q301 640 262.5 633 Q224 626 194 608.5 Q164 591 146 561.5 Q128 532 128 487 Q128 438 145.5 408.5 Q163 379 194 363.5 Q225 348 268.5 343 Q312 338 363 338 L456 338 L456 633 ZM524 0 L456 0 L456 280 L346 280 Q331 280 310 281 Q289 282 274 284 Q256 260 234.5 227 Q213 194 191.5 156.5 Q170 119 149.5 79 Q129 39 111 0 L39 0 Q55 38 78 81.5 Q101 125 125 166 Q149 207 170.5 240.5 Q192 274 205 293 Q186 298 160.5 309 Q135 320 112 341.5 Q89 363 73 397 Q57 431 57 484 Q57 589 135 644 Q213 699 350 699 Q391 699 439.5 694.5 Q488 690 524 680 L524 0 Z" /><glyph glyph-name="afii10066" unicode="&#x431;" d="M136 439 Q152 457 173 471 Q194 485 217 494 Q240 503 262.5 507.5 Q285 512 304 512 Q362 512 404.5 493.5 Q447 475 474.5 440.5 Q502 406 515 358 Q528 310 528 251 Q528 207 517 160 Q506 113 479.5 75 Q453 37 408.5 12.5 Q364 -12 297 -12 Q225 -12 179 16.5 Q133 45 107.5 91.5 Q82 138 72.5 196.5 Q63 255 63 315 Q63 397 73 472 Q83 547 114.5 606 Q146 665 205.5 704.5 Q265 744 365 756 Q395 759 415 762 Q435 765 448.5 767 Q462 769 471 771.5 Q480 774 488 776 L496 717 Q486 713 462 709 Q438 705 382 699 Q322 692 278 674.5 Q234 657 204.5 626 Q175 595 158.5 549 Q142 503 136 439 ZM132 366 Q131 358 131 340 Q131 322 131 307 Q131 259 137.5 212 Q144 165 162.5 128.5 Q181 92 213.5 69.5 Q246 47 297 47 Q341 47 371.5 63.5 Q402 80 421.5 108.5 Q441 137 450 174 Q459 211 459 252 Q459 291 452 327.5 Q445 364 426.5 391.5 Q408 419 375 436 Q342 453 290 453 Q266 453 241.5 445.5 Q217 438 196 425.5 Q175 413 158 397.5 Q141 382 132 366 Z" /><glyph glyph-name="afii10067" unicode="&#x432;" d="M253 528 Q283 528 320.5 524.5 Q358 521 391 507.5 Q424 494 446.5 465.5 Q469 437 469 388 Q469 350 447 320.5 Q425 291 387 277 Q443 262 468 229 Q493 196 493 148 Q493 96 472 64.5 Q451 33 416.5 16.5 Q382 0 338.5 -5 Q295 -10 250 -10 Q196 -10 155.5 -3 Q115 4 86 12 L86 506 Q111 514 152 521 Q193 528 253 528 ZM151 300 L269 300 Q329 300 366 320 Q403 340 403 387 Q403 417 390 434 Q377 451 356 459.5 Q335 468 308 470.5 Q281 473 254 473 Q221 473 191 469.5 Q161 466 151 463 L151 300 ZM151 246 L151 56 Q156 54 167.5 52.5 Q179 51 193.5 49.5 Q208 48 224.5 47 Q241 46 256 46 Q290 46 321 50 Q352 54 375 65.5 Q398 77 412 96.5 Q426 116 426 148 Q426 176 414.5 195 Q403 214 382.5 225 Q362 236 334.5 241 Q307 246 275 246 L151 246 Z" /><glyph glyph-name="afii10068" unicode="&#x433;" d="M382 462 L151 462 L151 0 L86 0 L86 517 L382 517 L382 462 Z" /><glyph glyph-name="afii10069" unicode="&#x434;" d="M484 55 L543 55 L543 -143 L480 -143 L480 0 L78 0 L78 -143 L15 -143 L15 55 L68 55 Q101 107 120.5 155 Q140 203 150.5 253 Q161 303 164.5 358.5 Q168 414 168 480 L168 517 L484 517 L484 55 ZM229 462 Q229 408 225.5 356 Q222 304 212 253 Q202 202 184 152.5 Q166 103 137 55 L419 55 L419 462 L229 462 Z" /><glyph glyph-name="afii10072" unicode="&#x436;" d="M679 517 Q657 491 629.5 459 Q602 427 573.5 395 Q545 363 517.5 332 Q490 301 467 276 Q501 251 536 217.5 Q571 184 603 147 Q635 110 662 72 Q689 34 709 0 L636 0 Q613 36 582 75.5 Q551 115 518 150.5 Q485 186 452.5 214.5 Q420 243 395 256 L395 0 L331 0 L331 256 Q306 243 273.5 214.5 Q241 186 208 150.5 Q175 115 143.5 75.5 Q112 36 90 0 L18 0 Q37 34 64.5 72 Q92 110 124 147 Q156 184 190.5 217 Q225 250 259 275 Q236 300 208.5 331 Q181 362 152.5 394.5 Q124 427 96 458.5 Q68 490 46 517 L121 517 Q162 467 215 406 Q268 345 331 276 L331 517 L395 517 L395 276 Q458 345 511 406 Q564 467 605 517 L679 517 Z" /><glyph glyph-name="afii10073" unicode="&#x437;" d="M206 47 Q276 47 316 70.5 Q356 94 356 141 Q356 175 341 195 Q326 215 303.5 226 Q281 237 255.5 240.5 Q230 244 209 244 L137 244 L137 299 L204 299 Q222 299 245.5 302 Q269 305 289 314 Q309 323 323 339.5 Q337 356 337 383 Q337 409 325.5 426 Q314 443 295 453 Q276 463 251.5 467 Q227 471 202 471 Q145 471 112 459.5 Q79 448 67 442 L52 500 Q66 507 105 517.5 Q144 528 202 528 Q301 528 352 492 Q403 456 403 385 Q403 341 377 313.5 Q351 286 316 275 Q365 261 394 228 Q423 195 423 141 Q423 64 368 26 Q313 -12 207 -12 Q136 -12 93 0 Q50 12 38 18 L55 77 Q58 75 68.5 70.5 Q79 66 98 60.5 Q117 55 144 51 Q171 47 206 47 Z" /><glyph glyph-name="afii10074" unicode="&#x438;" d="M438 434 Q408 398 368.5 343 Q329 288 288.5 227 Q248 166 211 106 Q174 46 147 0 L86 0 L86 517 L150 517 L150 103 Q174 146 209.5 202.5 Q245 259 285 316.5 Q325 374 365.5 427 Q406 480 441 517 L502 517 L502 0 L438 0 L438 434 Z" /><glyph glyph-name="afii10076" unicode="&#x43a;" d="M86 0 L86 517 L151 517 L151 278 Q179 305 213.5 338.5 Q248 372 281 405.5 Q314 439 342.5 468.5 Q371 498 388 517 L466 517 Q443 491 411 458.5 Q379 426 345.5 393 Q312 360 280.5 329 Q249 298 225 276 Q259 254 297 221.5 Q335 189 370.5 151.5 Q406 114 436.5 74.5 Q467 35 488 0 L411 0 Q387 37 354.5 75 Q322 113 286.5 147.5 Q251 182 215.5 210 Q180 238 151 255 L151 0 L86 0 Z" /><glyph glyph-name="afii10077" unicode="&#x43b;" d="M239 462 L239 441 Q239 411 238 375.5 Q237 340 234 303 Q231 266 224.5 229.5 Q218 193 208 161 Q197 128 180.5 98.5 Q164 69 141.5 46.5 Q119 24 89.5 9.5 Q60 -5 23 -9 L14 45 Q64 56 94.5 86 Q125 116 145 171 Q165 226 170.5 297.5 Q176 369 176 454 L176 517 L494 517 L494 0 L429 0 L429 462 L239 462 Z" /><glyph glyph-name="afii10078" unicode="&#x43c;" d="M331 72 Q325 87 313 113.5 Q301 140 286.5 172.5 Q272 205 255 241.5 Q238 278 221.5 312 Q205 346 190 376 Q175 406 164 425 Q151 310 145 206.5 Q139 103 135 0 L74 0 Q78 129 87.5 260 Q97 391 112 517 L179 517 Q192 496 212.5 457 Q233 418 257.5 368.5 Q282 319 308.5 261.5 Q335 204 362 145 Q389 204 415.5 261.5 Q442 319 466.5 368.5 Q491 418 511 457 Q531 496 545 517 L611 517 Q626 391 635.5 260 Q645 129 649 0 L587 0 Q583 103 577 206.5 Q571 310 558 425 Q547 405 532 375.5 Q517 346 500.5 312 Q484 278 467 241.5 Q450 205 435.5 172.5 Q421 140 409 113.5 Q397 87 391 72 L331 72 Z" /><glyph glyph-name="afii10079" unicode="&#x43d;" d="M497 0 L432 0 L432 241 L151 241 L151 0 L86 0 L86 517 L151 517 L151 296 L432 296 L432 517 L497 517 L497 0 Z" /><glyph glyph-name="afii10081" unicode="&#x43f;" d="M485 0 L420 0 L420 462 L151 462 L151 0 L86 0 L86 517 L485 517 L485 0 Z" /><glyph glyph-name="afii10084" unicode="&#x442;" d="M419 517 L419 462 L249 462 L249 0 L184 0 L184 462 L15 462 L15 517 L419 517 Z" /><glyph glyph-name="afii10086" unicode="&#x444;" d="M409 520 Q461 520 513 504.5 Q565 489 606.5 457 Q648 425 674 375.5 Q700 326 700 258 Q700 190 674 140.5 Q648 91 606.5 59 Q565 27 513 11.5 Q461 -4 409 -4 L409 -185 L345 -185 L345 -4 Q293 -4 241 11.5 Q189 27 147.5 59 Q106 91 80 140.5 Q54 190 54 258 Q54 326 80 375.5 Q106 425 147.5 457 Q189 489 241 504.5 Q293 520 345 520 L345 764 L409 776 L409 520 ZM345 465 Q298 465 257 450.5 Q216 436 186 409.5 Q156 383 139 344.5 Q122 306 122 258 Q122 210 139 171.5 Q156 133 186 106.5 Q216 80 257 65.5 Q298 51 345 51 L345 465 ZM409 51 Q456 51 497 65.5 Q538 80 568 106.5 Q598 133 615 171.5 Q632 210 632 258 Q632 306 615 344.5 Q598 383 568 409.5 Q538 436 497 450.5 Q456 465 409 465 L409 51 Z" /><glyph glyph-name="afii10088" unicode="&#x446;" d="M485 517 L485 55 L544 55 L544 -143 L481 -143 L481 0 L86 0 L86 517 L151 517 L151 55 L420 55 L420 517 L485 517 Z" /><glyph glyph-name="afii10089" unicode="&#x447;" d="M48 517 L113 517 L113 377 Q113 305 145.5 278 Q178 251 239 251 Q290 251 318.5 256 Q347 261 367 268 L367 517 L432 517 L432 0 L367 0 L367 213 Q360 211 346.5 207.5 Q333 204 315 201 Q297 198 276.5 195.5 Q256 193 235 193 Q192 193 157.5 202 Q123 211 98.5 232 Q74 253 61 287.5 Q48 322 48 373 L48 517 Z" /><glyph glyph-name="afii10090" unicode="&#x448;" d="M719 0 L86 0 L86 517 L151 517 L151 55 L370 55 L370 517 L435 517 L435 55 L654 55 L654 517 L719 517 L719 0 Z" /><glyph glyph-name="afii10091" unicode="&#x449;" d="M715 0 L86 0 L86 517 L151 517 L151 55 L370 55 L370 517 L435 517 L435 55 L654 55 L654 517 L719 517 L719 55 L778 55 L778 -143 L715 -143 L715 0 Z" /><glyph glyph-name="afii10092" unicode="&#x44a;" d="M218 517 L218 310 Q236 315 271.5 320.5 Q307 326 345 326 Q387 326 424 317 Q461 308 489 288 Q517 268 533.5 236 Q550 204 550 158 Q550 112 533.5 80 Q517 48 488.5 27.5 Q460 7 420.5 -2 Q381 -11 336 -11 Q309 -11 281.5 -9 Q254 -7 230 -4 Q206 -1 186 3 Q166 7 153 12 L153 462 L16 462 L16 517 L218 517 ZM336 47 Q403 47 443 72.5 Q483 98 483 158 Q483 186 472 207 Q461 228 442.5 241.5 Q424 255 398.5 261.5 Q373 268 343 268 Q310 268 277 265 Q244 262 218 253 L218 57 Q231 54 264 50.5 Q297 47 336 47 Z" /><glyph glyph-name="afii10093" unicode="&#x44b;" d="M86 517 L151 517 L151 310 Q169 315 204 320.5 Q239 326 274 326 Q313 326 349.5 317 Q386 308 413.5 288 Q441 268 457.5 236 Q474 204 474 158 Q474 112 457.5 80 Q441 48 413 27.5 Q385 7 346.5 -2 Q308 -11 265 -11 Q239 -11 212.5 -9 Q186 -7 162.5 -4 Q139 -1 119 3 Q99 7 86 12 L86 517 ZM265 47 Q328 47 367.5 73 Q407 99 407 158 Q407 186 396 207 Q385 228 366.5 241.5 Q348 255 323.5 261.5 Q299 268 272 268 Q241 268 209 265 Q177 262 151 253 L151 57 Q164 54 196 50.5 Q228 47 265 47 ZM648 0 L583 0 L583 517 L648 517 L648 0 Z" /><glyph glyph-name="afii10094" unicode="&#x44c;" d="M86 517 L151 517 L151 310 Q169 315 204.5 320.5 Q240 326 278 326 Q320 326 357 317 Q394 308 422 288 Q450 268 466.5 236 Q483 204 483 158 Q483 112 466.5 80 Q450 48 421.5 27.5 Q393 7 353.5 -2 Q314 -11 269 -11 Q242 -11 214.5 -9 Q187 -7 163 -4 Q139 -1 119 3 Q99 7 86 12 L86 517 ZM269 47 Q336 47 376 72.5 Q416 98 416 158 Q416 186 405 207 Q394 228 375.5 241.5 Q357 255 331.5 261.5 Q306 268 276 268 Q243 268 210 265 Q177 262 151 253 L151 57 Q164 54 197 50.5 Q230 47 269 47 Z" /><glyph glyph-name="afii10095" unicode="&#x44d;" d="M135 240 L135 295 L352 295 Q348 332 336 364.5 Q324 397 302.5 420 Q281 443 249.5 456.5 Q218 470 174 470 Q127 470 100 461.5 Q73 453 62 446 L46 501 Q52 506 66 511 Q80 516 98 520 Q116 524 136.5 526.5 Q157 529 176 529 Q241 529 287.5 506.5 Q334 484 364 447 Q394 410 408 361 Q422 312 422 260 Q422 204 408 154.5 Q394 105 363.5 68.5 Q333 32 285.5 10.5 Q238 -11 171 -11 Q124 -11 85.5 -1.5 Q47 8 29 18 L43 76 Q55 68 88.5 58 Q122 48 167 48 Q216 48 250 62 Q284 76 306 101.5 Q328 127 339 162 Q350 197 353 240 L135 240 Z" /><glyph glyph-name="afii10096" unicode="&#x44e;" d="M727 258 Q727 197 710 147 Q693 97 662 62 Q631 27 589 7.5 Q547 -12 496 -12 Q447 -12 406 6 Q365 24 334 57 Q303 90 285 136.5 Q267 183 265 241 L151 241 L151 0 L86 0 L86 517 L151 517 L151 295 L266 295 Q271 348 290 391.5 Q309 435 339 465.5 Q369 496 409 512.5 Q449 529 496 529 Q547 529 589 509.5 Q631 490 662 454.5 Q693 419 710 369 Q727 319 727 258 ZM658 258 Q658 306 646.5 345.5 Q635 385 614 412.5 Q593 440 563 455 Q533 470 496 470 Q458 470 428 455 Q398 440 377 412.5 Q356 385 345 345.5 Q334 306 334 258 Q334 161 377.5 104 Q421 47 496 47 Q571 47 614.5 104 Q658 161 658 258 Z" /><glyph glyph-name="afii10097" unicode="&#x44f;" d="M220 211 Q205 188 187.5 161 Q170 134 153.5 106 Q137 78 122 50.5 Q107 23 97 0 L30 0 Q56 59 93 119 Q130 179 162 224 Q142 230 123.5 241 Q105 252 90.5 269 Q76 286 67 309.5 Q58 333 58 363 Q58 406 74.5 437 Q91 468 119.5 488 Q148 508 187.5 518 Q227 528 272 528 Q292 528 316.5 526 Q341 524 365.5 520.5 Q390 517 411 513 Q432 509 446 505 L446 0 L381 0 L381 208 L288 208 Q266 208 248.5 208.5 Q231 209 220 211 ZM381 461 Q369 464 342 467.5 Q315 471 273 471 Q245 471 218.5 465.5 Q192 460 171 447 Q150 434 137.5 413.5 Q125 393 125 363 Q125 334 136 314.5 Q147 295 167 283.5 Q187 272 215.5 267 Q244 262 279 262 L381 262 L381 461 Z" /><glyph glyph-name="afii10099" unicode="&#x452;" d="M489 -26 Q489 -60 485 -89.5 Q481 -119 468 -140.5 Q455 -162 430.5 -174 Q406 -186 364 -186 Q347 -186 333 -183.5 Q319 -181 311 -178 L320 -125 Q332 -130 356 -130 Q394 -130 409 -107.5 Q424 -85 424 -37 L424 268 Q424 323 416.5 361 Q409 399 391.5 423 Q374 447 345 457.5 Q316 468 272 468 Q255 468 235.5 465 Q216 462 199 458.5 Q182 455 168.5 451 Q155 447 151 445 L151 0 L86 0 L86 628 L6 628 L6 680 L86 680 L86 764 L151 776 L151 680 L338 680 L338 628 L151 628 L151 502 Q183 514 216 520.5 Q249 527 282 527 Q342 527 382 510 Q422 493 446 461.5 Q470 430 479.5 386 Q489 342 489 289 L489 -26 Z" /><glyph glyph-name="afii10101" unicode="&#x454;" d="M125 240 Q128 197 139 162 Q150 127 172 101.5 Q194 76 228 62 Q262 48 311 48 Q356 48 389.5 58 Q423 68 435 76 L449 18 Q431 8 392.5 -1.5 Q354 -11 307 -11 Q239 -11 191.5 10.5 Q144 32 114 68.5 Q84 105 70 154.5 Q56 204 56 260 Q56 312 70 361 Q84 410 114 447 Q144 484 190.5 506.5 Q237 529 302 529 Q321 529 341.5 526.5 Q362 524 380 520 Q398 516 412 511 Q426 506 432 501 L416 446 Q405 453 378 461.5 Q351 470 304 470 Q260 470 228.5 456.5 Q197 443 175.5 420 Q154 397 142 364.5 Q130 332 126 295 L343 295 L343 240 L125 240 Z" /><glyph glyph-name="afii10106" unicode="&#x459;" d="M608 47 Q671 47 710.5 73 Q750 99 750 158 Q750 186 739 207 Q728 228 709.5 241.5 Q691 255 666.5 261.5 Q642 268 615 268 Q584 268 552 265 Q520 262 494 253 L494 57 Q507 54 539 50.5 Q571 47 608 47 ZM494 517 L494 310 Q512 315 547 320.5 Q582 326 617 326 Q656 326 692.5 317 Q729 308 756.5 288 Q784 268 800.5 236 Q817 204 817 158 Q817 112 800.5 80 Q784 48 756 27.5 Q728 7 689.5 -2 Q651 -11 608 -11 Q582 -11 555.5 -9 Q529 -7 505.5 -4 Q482 -1 462 3 Q442 7 429 12 L429 462 L239 462 L239 441 Q239 411 238 375.5 Q237 340 234 303 Q231 266 224.5 229.5 Q218 193 208 161 Q197 128 180.5 98.5 Q164 69 141.5 46.5 Q119 24 89.5 9.5 Q60 -5 23 -9 L14 45 Q64 56 94.5 86 Q125 116 145 171 Q165 226 170.5 297.5 Q176 369 176 454 L176 517 L494 517 Z" /><glyph glyph-name="afii10107" unicode="&#x45a;" d="M432 243 L151 243 L151 0 L86 0 L86 517 L151 517 L151 298 L432 298 L432 517 L497 517 L497 310 Q515 315 550 320.5 Q585 326 620 326 Q659 326 695.5 317 Q732 308 759.5 288 Q787 268 803.5 236 Q820 204 820 158 Q820 112 803.5 80 Q787 48 759 27.5 Q731 7 692.5 -2 Q654 -11 611 -11 Q585 -11 558.5 -9 Q532 -7 508.5 -4 Q485 -1 465 3 Q445 7 432 12 L432 243 ZM611 47 Q674 47 713.5 73 Q753 99 753 158 Q753 186 742 207 Q731 228 712.5 241.5 Q694 255 669.5 261.5 Q645 268 618 268 Q587 268 555 265 Q523 262 497 253 L497 57 Q510 54 542 50.5 Q574 47 611 47 Z" /><glyph glyph-name="afii10193" unicode="&#x45f;" d="M254 0 L86 0 L86 517 L151 517 L151 55 L420 55 L420 517 L485 517 L485 0 L317 0 L317 -145 L254 -145 L254 0 Z" /><glyph glyph-name="uni0462" unicode="&#x462;" d="M369 424 Q443 424 501 412 Q559 400 598.5 374.5 Q638 349 659 308 Q680 267 680 210 Q680 101 604 47.5 Q528 -6 381 -6 Q339 -6 290.5 -1.5 Q242 3 206 13 L206 590 L18 590 L18 647 L206 647 L206 738 L274 738 L274 647 L487 647 L487 590 L274 590 L274 424 L369 424 ZM274 366 L274 60 Q293 58 319.5 55.5 Q346 53 384 53 Q429 53 470 60 Q511 67 541.5 85 Q572 103 590.5 133 Q609 163 609 209 Q609 257 591.5 287.5 Q574 318 541.5 335.5 Q509 353 463 359.5 Q417 366 360 366 L274 366 Z" /><glyph glyph-name="uni0463" unicode="&#x463;" d="M338 47 Q405 47 445 72.5 Q485 98 485 158 Q485 186 474 207 Q463 228 444.5 241.5 Q426 255 400.5 261.5 Q375 268 345 268 Q312 268 279 265 Q246 262 220 253 L220 57 Q233 54 266 50.5 Q299 47 338 47 ZM389 517 L389 462 L220 462 L220 310 Q238 315 273.5 320.5 Q309 326 347 326 Q389 326 426 317 Q463 308 491 288 Q519 268 535.5 236 Q552 204 552 158 Q552 112 535.5 80 Q519 48 490.5 27.5 Q462 7 422.5 -2 Q383 -11 338 -11 Q311 -11 283.5 -9 Q256 -7 232 -4 Q208 -1 188 3 Q168 7 155 12 L155 462 L15 462 L15 517 L155 517 L155 764 L220 776 L220 517 L389 517 Z" /><glyph glyph-name="uni0472" unicode="&#x472;" d="M712 347 Q712 258 686 190 Q660 122 615.5 76.5 Q571 31 512 8 Q453 -15 387 -15 Q321 -15 262 8 Q203 31 158.5 76.5 Q114 122 88 190 Q62 258 62 347 Q62 436 88 503.5 Q114 571 158.5 616.5 Q203 662 262 685 Q321 708 387 708 Q453 708 512 685 Q571 662 615.5 616.5 Q660 571 686 503.5 Q712 436 712 347 ZM387 647 Q330 647 283 626.5 Q236 606 203 568 Q170 530 152 474.5 Q134 419 134 350 Q156 373 189.5 390.5 Q223 408 277 408 Q315 408 344.5 397 Q374 386 402 372.5 Q430 359 459 348 Q488 337 526 337 Q563 337 592 352 Q621 367 638 385 Q633 446 613.5 494.5 Q594 543 561.5 577 Q529 611 485 629 Q441 647 387 647 ZM515 276 Q477 276 447.5 287 Q418 298 390 311.5 Q362 325 333 336 Q304 347 266 347 Q242 347 221.5 340.5 Q201 334 184.5 323.5 Q168 313 156 301 Q144 289 138 279 Q155 169 220 107.5 Q285 46 387 46 Q441 46 486 64.5 Q531 83 563.5 118 Q596 153 615.5 203.5 Q635 254 639 317 Q618 299 588 287.5 Q558 276 515 276 Z" /><glyph glyph-name="uni0473" unicode="&#x473;" d="M527 258 Q527 197 509.5 147 Q492 97 460.5 62 Q429 27 386 7.5 Q343 -12 291 -12 Q239 -12 196 7.5 Q153 27 121.5 62 Q90 97 72.5 147 Q55 197 55 258 Q55 319 72.5 369 Q90 419 121.5 454.5 Q153 490 196 509.5 Q239 529 291 529 Q343 529 386 509.5 Q429 490 460.5 454.5 Q492 419 509.5 369 Q527 319 527 258 ZM217 262 Q187 262 161.5 246 Q136 230 127 210 Q138 134 181 90.5 Q224 47 291 47 Q366 47 409.5 99.5 Q453 152 458 241 Q447 230 428.5 220.5 Q410 211 385 211 Q359 211 339 219 Q319 227 300 236.5 Q281 246 261.5 254 Q242 262 217 262 ZM382 265 Q406 265 425.5 274.5 Q445 284 456 298 Q446 378 403 424 Q360 470 291 470 Q255 470 225 456.5 Q195 443 173.5 417.5 Q152 392 139 356 Q126 320 124 275 Q137 289 159 302.5 Q181 316 214 316 Q240 316 260 308 Q280 300 299 290.5 Q318 281 337.5 273 Q357 265 382 265 Z" /><glyph glyph-name="uni0474" unicode="&#x474;" d="M345 0 L281 0 Q250 69 221 136.5 Q192 204 160.5 284 Q129 364 92.5 463 Q56 562 10 693 L86 693 Q116 604 144 524.5 Q172 445 199 370.5 Q226 296 254.5 224 Q283 152 315 78 L510 592 Q524 629 539 651 Q554 673 570.5 684.5 Q587 696 605 699.5 Q623 703 642 703 Q663 703 679.5 698 Q696 693 709 685.5 Q722 678 731.5 669 Q741 660 747 653 L715 608 Q704 621 686 632.5 Q668 644 645 644 Q635 644 625.5 641.5 Q616 639 606.5 631 Q597 623 587.5 607.5 Q578 592 568 566 L345 0 Z" /><glyph glyph-name="uni0475" unicode="&#x475;" d="M355 415 Q364 442 373 462.5 Q382 483 395.5 497.5 Q409 512 428.5 519.5 Q448 527 477 527 Q500 527 519 522 Q538 517 549 512 L534 460 Q527 464 516.5 467.5 Q506 471 486 471 Q454 471 440 453 Q426 435 415 403 L275 0 L209 0 Q183 54 157 115 Q131 176 106.5 242 Q82 308 60 377 Q38 446 20 517 L89 517 Q101 464 118.5 403.5 Q136 343 156.5 283.5 Q177 224 199 168.5 Q221 113 242 70 L355 415 Z" /><glyph glyph-name="uni048A" unicode="&#x48a;" d="M90 0 L90 693 L157 693 L157 129 Q188 184 236.5 258 Q285 332 341 409.5 Q397 487 455.5 561.5 Q514 636 565 693 L619 693 L619 59 L689 59 Q691 22 682.5 -14.5 Q674 -51 658.5 -83 Q643 -115 622.5 -142 Q602 -169 581 -188 L532 -153 Q542 -144 555 -128.5 Q568 -113 581 -92.5 Q594 -72 604 -48.5 Q614 -25 619 0 L552 0 L552 584 Q522 550 486 503 Q450 456 411.5 402.5 Q373 349 334 292.5 Q295 236 260 182.5 Q225 129 195.5 82 Q166 35 147 0 L90 0 ZM354 761 Q298 761 262 792 Q226 823 216 880 L269 894 Q275 860 295.5 838.5 Q316 817 354 817 Q392 817 412.5 838.5 Q433 860 439 894 L492 880 Q482 823 446 792 Q410 761 354 761 Z" /><glyph glyph-name="uni048B" unicode="&#x48b;" d="M438 434 Q408 398 368.5 343 Q329 288 288.5 227 Q248 166 211 106 Q174 46 147 0 L86 0 L86 517 L150 517 L150 103 Q174 146 209.5 202.5 Q245 259 285 316.5 Q325 374 365.5 427 Q406 480 441 517 L502 517 L502 55 L564 55 Q566 18 558.5 -15.5 Q551 -49 537.5 -77.5 Q524 -106 506.5 -128.5 Q489 -151 472 -166 L427 -133 Q434 -127 445 -113 Q456 -99 467.5 -81 Q479 -63 487.5 -42 Q496 -21 498 0 L438 0 L438 434 ZM294 605 Q238 605 202 636 Q166 667 156 724 L209 738 Q215 704 235.5 682.5 Q256 661 294 661 Q332 661 352.5 682.5 Q373 704 379 738 L432 724 Q422 667 386 636 Q350 605 294 605 Z" /><glyph glyph-name="uni048C" unicode="&#x48c;" d="M277 434 Q427 434 500.5 379 Q574 324 574 215 Q574 110 503.5 52 Q433 -6 279 -6 Q237 -6 188.5 -1.5 Q140 3 104 13 L104 555 L24 555 L24 609 L104 609 L104 693 L172 693 L172 609 L309 609 L309 555 L172 555 L172 428 Q189 430 220.5 432 Q252 434 277 434 ZM281 375 Q245 375 217 373 Q189 371 172 369 L172 60 Q191 58 217.5 55.5 Q244 53 282 53 Q327 53 367.5 60 Q408 67 438 85 Q468 103 485.5 134.5 Q503 166 503 215 Q503 262 486.5 293 Q470 324 440.5 342 Q411 360 370 367.5 Q329 375 281 375 Z" /><glyph glyph-name="uni048D" unicode="&#x48d;" d="M97 546 L162 546 L162 472 L319 472 L319 419 L162 419 L162 306 Q180 311 215.5 316.5 Q251 322 289 322 Q331 322 368 313 Q405 304 433 284.5 Q461 265 477.5 233 Q494 201 494 156 Q494 111 477.5 79 Q461 47 432.5 27 Q404 7 364.5 -2 Q325 -11 280 -11 Q253 -11 225.5 -9 Q198 -7 174 -4 Q150 -1 130 3 Q110 7 97 12 L97 419 L17 419 L17 472 L97 472 L97 546 ZM280 47 Q347 47 387 72.5 Q427 98 427 156 Q427 184 416 204 Q405 224 386.5 237.5 Q368 251 342.5 257.5 Q317 264 287 264 Q254 264 221 261 Q188 258 162 249 L162 57 Q175 54 208 50.5 Q241 47 280 47 Z" /><glyph glyph-name="uni048E" unicode="&#x48e;" d="M427 140 L350 274 Q305 268 252 268 L158 268 L158 0 L90 0 L90 680 Q126 690 174.5 694.5 Q223 699 265 699 Q412 699 484 643 Q556 587 556 484 Q556 403 518 356 Q480 309 411 288 L478 171 L427 140 ZM268 640 Q230 640 203.5 637.5 Q177 635 158 633 L158 327 L244 327 Q283 327 318 330 L267 421 L318 452 L380 342 Q430 356 457.5 389.5 Q485 423 485 485 Q485 531 466.5 561 Q448 591 417.5 608.5 Q387 626 348 633 Q309 640 268 640 Z" /><glyph glyph-name="uni048F" unicode="&#x48f;" d="M375 1 Q357 -5 337 -8.5 Q317 -12 294 -12 Q243 -12 205.5 2.5 Q168 17 151 30 L151 -185 L86 -185 L86 499 Q115 509 160 518 Q205 527 274 527 Q331 527 377.5 508.5 Q424 490 457.5 455 Q491 420 509.5 370 Q528 320 528 257 Q528 179 502 119.5 Q476 60 426 26 L480 -69 L432 -98 L375 1 ZM151 93 Q160 86 173.5 78 Q187 70 205 63 Q223 56 244 51.5 Q265 47 288 47 Q318 47 345 55 L277 175 L325 204 L395 80 Q430 109 444.5 155 Q459 201 459 257 Q459 359 408 413.5 Q357 468 273 468 Q225 468 195.5 463.5 Q166 459 151 454 L151 93 Z" /><glyph glyph-name="afii10050" unicode="&#x490;" d="M400 693 L400 825 L464 825 L464 634 L158 634 L158 0 L90 0 L90 693 L400 693 Z" /><glyph glyph-name="afii10098" unicode="&#x491;" d="M382 462 L151 462 L151 0 L86 0 L86 517 L321 517 L321 650 L382 650 L382 462 Z" /><glyph glyph-name="uni0492" unicode="&#x492;" d="M478 693 L478 634 L172 634 L172 382 L321 382 L321 327 L172 327 L172 0 L104 0 L104 327 L24 327 L24 382 L104 382 L104 693 L478 693 Z" /><glyph glyph-name="uni0493" unicode="&#x493;" d="M383 462 L152 462 L152 267 L304 267 L304 214 L152 214 L152 0 L87 0 L87 214 L17 214 L17 267 L87 267 L87 517 L383 517 L383 462 Z" /><glyph glyph-name="uni0494" unicode="&#x494;" d="M297 374 Q273 374 250.5 371.5 Q228 369 209 365 Q190 361 177 357.5 Q164 354 158 351 L158 0 L90 0 L90 693 L478 693 L478 634 L158 634 L158 410 Q173 417 212 425.5 Q251 434 300 434 Q369 434 418.5 412 Q468 390 500.5 349.5 Q533 309 548.5 251.5 Q564 194 564 124 Q564 57 547 0.5 Q530 -56 497 -97.5 Q464 -139 416 -162 Q368 -185 307 -185 Q292 -185 275.5 -184 Q259 -183 253 -181 L258 -122 Q263 -124 276 -124.5 Q289 -125 300 -125 Q340 -125 375.5 -109.5 Q411 -94 437 -63 Q463 -32 478 15 Q493 62 493 124 Q493 243 442.5 308.5 Q392 374 297 374 Z" /><glyph glyph-name="uni0495" unicode="&#x495;" d="M281 319 Q338 319 379 301.5 Q420 284 446 252 Q472 220 484 174.5 Q496 129 496 72 Q496 15 482.5 -32.5 Q469 -80 442.5 -114 Q416 -148 376 -167 Q336 -186 284 -186 Q275 -186 263.5 -185 Q252 -184 247 -182 L252 -126 Q254 -127 262 -128 Q270 -129 280 -129 Q312 -129 339 -118 Q366 -107 385.5 -82.5 Q405 -58 416 -19.5 Q427 19 427 74 Q427 174 387.5 217.5 Q348 261 272 261 Q252 261 232.5 258.5 Q213 256 196.5 252.5 Q180 249 167.5 245.5 Q155 242 151 240 L151 0 L86 0 L86 517 L418 517 L418 462 L151 462 L151 297 Q179 308 213.5 313.5 Q248 319 281 319 Z" /><glyph glyph-name="uni0496" unicode="&#x496;" d="M22 0 Q47 46 81.5 96 Q116 146 156 194 Q196 242 237.5 286.5 Q279 331 318 366 Q292 396 254 439.5 Q216 483 176 529.5 Q136 576 98.5 619.5 Q61 663 37 693 L116 693 Q135 669 168 629 Q201 589 240 543.5 Q279 498 318.5 451.5 Q358 405 391 368 L391 693 L455 693 L455 368 Q488 405 527.5 451.5 Q567 498 606 543.5 Q645 589 678 629 Q711 669 730 693 L808 693 Q784 663 747 619.5 Q710 576 670 530 Q630 484 592 440.5 Q554 397 528 367 Q561 337 596 300.5 Q631 264 665.5 224 Q700 184 732 142 Q764 100 790 59 L858 59 L858 -185 L793 -185 L793 0 L749 0 Q724 45 686.5 95.5 Q649 146 608 193 Q567 240 526.5 280 Q486 320 455 345 L455 0 L391 0 L391 345 Q359 320 319 280 Q279 240 238 193 Q197 146 159.5 95.5 Q122 45 97 0 L22 0 Z" /><glyph glyph-name="uni0497" unicode="&#x497;" d="M679 517 Q657 491 629.5 459 Q602 427 573.5 395 Q545 363 517.5 332 Q490 301 467 276 Q494 256 522 230 Q550 204 577 175 Q604 146 628.5 115.5 Q653 85 674 55 L735 55 L735 -143 L672 -143 L672 0 L636 0 Q613 36 582 75.5 Q551 115 518 150.5 Q485 186 452.5 214.5 Q420 243 395 256 L395 0 L331 0 L331 256 Q306 243 273.5 214.5 Q241 186 208 150.5 Q175 115 143.5 75.5 Q112 36 90 0 L18 0 Q37 34 64.5 72 Q92 110 124 147 Q156 184 190.5 217 Q225 250 259 275 Q236 300 208.5 331 Q181 362 152.5 394.5 Q124 427 96 458.5 Q68 490 46 517 L121 517 Q162 467 215 406 Q268 345 331 276 L331 517 L395 517 L395 276 Q458 345 511 406 Q564 467 605 517 L679 517 Z" /><glyph glyph-name="uni0498" unicode="&#x498;" d="M268 -36 Q296 -48 312.5 -65.5 Q329 -83 329 -112 Q329 -124 325 -137.5 Q321 -151 310 -162 Q299 -173 280 -180 Q261 -187 231 -187 Q211 -187 190 -183.5 Q169 -180 160 -175 L168 -132 Q179 -137 193 -139 Q207 -141 227 -141 Q268 -141 268 -112 Q268 -95 254 -86 Q240 -77 210 -65 Q213 -54 219 -41 Q225 -28 232 -15 Q194 -15 161.5 -10 Q129 -5 103 2.5 Q77 10 59 17.5 Q41 25 31 31 L53 90 Q63 84 80 76.5 Q97 69 119.5 61.5 Q142 54 170 49 Q198 44 231 44 Q274 44 310 51.5 Q346 59 372 76.5 Q398 94 412.5 121.5 Q427 149 427 189 Q427 235 409 264 Q391 293 359.5 309.5 Q328 326 285 332.5 Q242 339 193 339 L147 339 L147 397 L206 397 Q239 397 273 403.5 Q307 410 334.5 425 Q362 440 379.5 466 Q397 492 397 531 Q397 582 357 615.5 Q317 649 238 649 Q190 649 148 637 Q106 625 77 605 L53 662 Q79 679 129 693.5 Q179 708 239 708 Q290 708 332 697.5 Q374 687 404 665.5 Q434 644 451 611 Q468 578 468 533 Q468 506 459 481 Q450 456 433 435 Q416 414 390 398.5 Q364 383 330 376 Q363 370 394 356 Q425 342 448 319.5 Q471 297 485 264.5 Q499 232 499 189 Q499 139 483 103 Q467 67 438 42.5 Q409 18 368 4.5 Q327 -9 278 -13 Q275 -19 272.5 -25 Q270 -31 268 -36 Z" /><glyph glyph-name="uni0499" unicode="&#x499;" d="M235 -36 Q263 -48 279.5 -65.5 Q296 -83 296 -112 Q296 -124 292 -137.5 Q288 -151 277 -162 Q266 -173 247 -180 Q228 -187 198 -187 Q178 -187 157 -183.5 Q136 -180 127 -175 L135 -132 Q146 -137 160 -139 Q174 -141 194 -141 Q235 -141 235 -112 Q235 -95 221 -86 Q207 -77 177 -65 Q181 -54 187 -39.5 Q193 -25 200 -12 Q132 -11 90.5 0.5 Q49 12 38 18 L55 77 Q58 75 68.5 70.5 Q79 66 98 60.5 Q117 55 144 51 Q171 47 206 47 Q276 47 316 70.5 Q356 94 356 141 Q356 175 341 195 Q326 215 303.5 226 Q281 237 255.5 240.5 Q230 244 209 244 L137 244 L137 299 L204 299 Q222 299 245.5 302 Q269 305 289 314 Q309 323 323 339.5 Q337 356 337 383 Q337 409 325.5 426 Q314 443 295 453 Q276 463 251.5 467 Q227 471 202 471 Q145 471 112 459.5 Q79 448 67 442 L52 500 Q66 507 105 517.5 Q144 528 202 528 Q301 528 352 492 Q403 456 403 385 Q403 341 377 313.5 Q351 286 316 275 Q365 261 394 228 Q423 195 423 141 Q423 72 378 34.5 Q333 -3 246 -10 Q243 -17 240 -24 Q237 -31 235 -36 Z" /><glyph glyph-name="uni049A" unicode="&#x49a;" d="M513 0 Q479 52 436.5 103 Q394 154 347 199 Q300 244 251.5 281 Q203 318 158 343 L158 0 L90 0 L90 693 L158 693 L158 370 Q196 404 242.5 448.5 Q289 493 334.5 538 Q380 583 420 624 Q460 665 484 693 L566 693 Q537 662 496 619.5 Q455 577 409 532 Q363 487 317.5 443.5 Q272 400 236 367 Q273 344 316 308.5 Q359 273 402 231 Q445 189 484 144.5 Q523 100 552 59 L622 59 L622 -185 L557 -185 L557 0 L513 0 Z" /><glyph glyph-name="uni049B" unicode="&#x49b;" d="M86 0 L86 517 L151 517 L151 278 Q179 305 213.5 338.5 Q248 372 281 405.5 Q314 439 342.5 468.5 Q371 498 388 517 L466 517 Q443 491 411 458.5 Q379 426 345.5 393 Q312 360 280.5 329 Q249 298 225 276 Q252 258 282 233.5 Q312 209 341 180.5 Q370 152 397.5 120.5 Q425 89 448 59 L523 59 L523 -185 L458 -185 L458 0 L411 0 Q387 37 354.5 75 Q322 113 286.5 147.5 Q251 182 215.5 210 Q180 238 151 255 L151 0 L86 0 Z" /><glyph glyph-name="uni049C" unicode="&#x49c;" d="M230 331 L158 331 L158 0 L90 0 L90 693 L158 693 L158 386 L230 386 L230 537 L286 537 L286 385 Q319 422 356.5 466.5 Q394 511 430 554 Q466 597 496.5 633.5 Q527 670 545 693 L623 693 Q599 663 562 619.5 Q525 576 485 530 Q445 484 407 440.5 Q369 397 343 367 Q382 332 424 287.5 Q466 243 505.5 194.5 Q545 146 580 96 Q615 46 640 0 L564 0 Q540 42 505.5 89 Q471 136 433 181 Q395 226 356.5 265.5 Q318 305 286 332 L286 174 L230 174 L230 331 Z" /><glyph glyph-name="uni049D" unicode="&#x49d;" d="M280 129 L226 129 L226 243 L151 243 L151 0 L86 0 L86 517 L151 517 L151 296 L226 296 L226 415 L280 415 L280 295 Q344 368 389.5 423 Q435 478 465 517 L534 517 Q517 495 493.5 466 Q470 437 443 405.5 Q416 374 388 341 Q360 308 334 278 Q359 255 390.5 223 Q422 191 454.5 154.5 Q487 118 517.5 78.5 Q548 39 571 0 L497 0 Q474 33 447 67.5 Q420 102 391.5 134.5 Q363 167 334.5 195 Q306 223 280 243 L280 129 Z" /><glyph glyph-name="uni049E" unicode="&#x49e;" d="M527 0 Q493 52 450.5 103 Q408 154 361 199 Q314 244 265.5 281 Q217 318 172 343 L172 0 L104 0 L104 555 L25 555 L25 609 L104 609 L104 693 L172 693 L172 609 L273 609 L273 555 L172 555 L172 370 Q210 404 256.5 448.5 Q303 493 348.5 538 Q394 583 434 624 Q474 665 498 693 L580 693 Q551 662 510 619.5 Q469 577 423 532 Q377 487 331.5 443.5 Q286 400 250 367 Q279 349 312.5 322.5 Q346 296 380.5 264.5 Q415 233 448.5 198.5 Q482 164 511.5 129 Q541 94 564.5 61 Q588 28 603 0 L527 0 Z" /><glyph glyph-name="uni049F" unicode="&#x49f;" d="M162 0 L97 0 L97 422 L21 422 L21 475 L97 475 L97 546 L162 546 L162 475 L241 475 L241 422 L162 422 L162 274 Q192 302 227 336.5 Q262 371 296 405 Q330 439 358.5 468.5 Q387 498 404 517 L482 517 Q459 491 427 458.5 Q395 426 361.5 393 Q328 360 296.5 329 Q265 298 241 276 Q275 254 313 221.5 Q351 189 386.5 151.5 Q422 114 452.5 74.5 Q483 35 504 0 L427 0 Q403 37 370.5 75 Q338 113 302 147.5 Q266 182 229.5 211 Q193 240 162 258 L162 0 Z" /><glyph glyph-name="uni04A0" unicode="&#x4a0;" d="M269 370 Q307 404 353.5 448.5 Q400 493 445.5 538 Q491 583 531 624 Q571 665 595 693 L677 693 Q648 662 607 619.5 Q566 577 520 532 Q474 487 428.5 443.5 Q383 400 347 367 Q376 349 409.5 322.5 Q443 296 477.5 264.5 Q512 233 545.5 198.5 Q579 164 608.5 129 Q638 94 661.5 61 Q685 28 700 0 L624 0 Q590 52 547.5 103 Q505 154 458 199 Q411 244 362.5 281 Q314 318 269 343 L269 0 L201 0 L201 634 L18 634 L18 693 L269 693 L269 370 Z" /><glyph glyph-name="uni04A1" unicode="&#x4a1;" d="M218 278 Q246 305 280.5 338.5 Q315 372 348 405.5 Q381 439 409.5 468.5 Q438 498 455 517 L533 517 Q510 491 478 458.5 Q446 426 412.5 393 Q379 360 347.5 329 Q316 298 292 276 Q326 254 364 221.5 Q402 189 437.5 151.5 Q473 114 503.5 74.5 Q534 35 555 0 L478 0 Q454 37 421.5 75 Q389 113 353.5 147.5 Q318 182 282.5 210 Q247 238 218 255 L218 0 L153 0 L153 462 L16 462 L16 517 L218 517 L218 278 Z" /><glyph glyph-name="uni04A2" unicode="&#x4a2;" d="M534 693 L602 693 L602 59 L667 59 L667 -185 L602 -185 L602 0 L534 0 L534 333 L158 333 L158 0 L90 0 L90 693 L158 693 L158 392 L534 392 L534 693 Z" /><glyph glyph-name="uni04A3" unicode="&#x4a3;" d="M497 55 L556 55 L556 -143 L493 -143 L493 0 L432 0 L432 241 L151 241 L151 0 L86 0 L86 517 L151 517 L151 296 L432 296 L432 517 L497 517 L497 55 Z" /><glyph glyph-name="uni04A4" unicode="&#x4a4;" d="M602 0 L534 0 L534 333 L158 333 L158 0 L90 0 L90 693 L158 693 L158 392 L534 392 L534 693 L785 693 L785 634 L602 634 L602 0 Z" /><glyph glyph-name="uni04A5" unicode="&#x4a5;" d="M497 0 L432 0 L432 241 L151 241 L151 0 L86 0 L86 517 L151 517 L151 296 L432 296 L432 517 L634 517 L634 462 L497 462 L497 0 Z" /><glyph glyph-name="uni04A6" unicode="&#x4a6;" d="M575 410 Q590 417 629 425.5 Q668 434 717 434 Q786 434 835.5 412 Q885 390 917.5 349.5 Q950 309 965.5 251.5 Q981 194 981 124 Q981 57 964 0.5 Q947 -56 914 -97.5 Q881 -139 833 -162 Q785 -185 724 -185 Q709 -185 692.5 -184 Q676 -183 670 -181 L675 -123 Q680 -125 693 -125.5 Q706 -126 717 -126 Q757 -126 792.5 -110.5 Q828 -95 854.5 -63.5 Q881 -32 896 15 Q911 62 911 124 Q911 243 860 308.5 Q809 374 714 374 Q690 374 667.5 371.5 Q645 369 626 365 Q607 361 594 357.5 Q581 354 575 351 L575 0 L507 0 L507 634 L158 634 L158 0 L90 0 L90 693 L575 693 L575 410 Z" /><glyph glyph-name="uni04A7" unicode="&#x4a7;" d="M485 0 L420 0 L420 462 L151 462 L151 0 L86 0 L86 517 L485 517 L485 297 Q513 308 547.5 313.5 Q582 319 615 319 Q672 319 713 301.5 Q754 284 780 252 Q806 220 818 174.5 Q830 129 830 72 Q830 15 816.5 -32.5 Q803 -80 776.5 -114 Q750 -148 710 -167 Q670 -186 618 -186 Q609 -186 597.5 -185 Q586 -184 581 -182 L586 -126 Q588 -127 596 -128 Q604 -129 614 -129 Q646 -129 673.5 -118 Q701 -107 720.5 -82.5 Q740 -58 751 -19.5 Q762 19 762 74 Q762 174 722 217.5 Q682 261 606 261 Q586 261 566.5 258.5 Q547 256 530.5 252.5 Q514 249 501.5 245.5 Q489 242 485 240 L485 0 Z" /><glyph glyph-name="uni04A8" unicode="&#x4a8;" d="M644 284 Q644 318 639 350.5 Q634 383 621 408.5 Q608 434 584 450 Q560 466 523 466 Q488 466 463 451 Q438 436 422.5 408 Q407 380 400 341 Q393 302 393 253 Q393 181 401.5 130 Q410 79 427 41 Q470 46 509 65 Q548 84 578 115 Q608 146 626 188.5 Q644 231 644 284 ZM558 679 L540 623 Q517 633 483 640.5 Q449 648 404 648 Q350 648 301 629.5 Q252 611 214.5 574 Q177 537 155 480 Q133 423 133 347 Q133 284 148.5 231.5 Q164 179 193.5 140 Q223 101 264.5 76.5 Q306 52 358 45 Q342 92 333.5 142.5 Q325 193 325 258 Q325 309 335.5 356.5 Q346 404 369.5 441.5 Q393 479 431 501.5 Q469 524 523 524 Q575 524 611.5 503 Q648 482 670 448.5 Q692 415 702 371.5 Q712 328 712 283 Q712 226 692 176.5 Q672 127 637 89 Q602 51 554 25.5 Q506 0 449 -9 Q467 -46 501.5 -69.5 Q536 -93 572 -106.5 Q608 -120 639 -125 Q670 -130 681 -130 L673 -184 Q645 -184 605.5 -176.5 Q566 -169 524.5 -150 Q483 -131 444.5 -98 Q406 -65 381 -13 Q320 -9 262.5 12 Q205 33 160.5 75.5 Q116 118 89 184.5 Q62 251 62 347 Q62 444 93 512.5 Q124 581 172.5 624.5 Q221 668 279 688 Q337 708 391 708 Q451 708 493 699 Q535 690 558 679 Z" /></font>
</defs>
</svg>
